<?xml version="1.0" encoding="UTF-8"?>
<svg width="800" height="600" viewBox="0 0 800 600" xmlns="http://www.w3.org/2000/svg">
  <rect width="100%" height="100%" fill="white" />
  <text x="400" y="30" font-size="16" text-anchor="middle">Quadratic Plot: y = x²</text>
  <polyline points="50.00,50.00 85.00,88.00 120.00,122.00 155.00,152.00 190.00,178.00 225.00,200.00 260.00,218.00 295.00,232.00 330.00,242.00 365.00,248.00 400.00,250.00 435.00,248.00 470.00,242.00 505.00,232.00 540.00,218.00 575.00,200.00 610.00,178.00 645.00,152.00 680.00,122.00 715.00,88.00 750.00,50.00" fill="none" stroke="blue" stroke-width="2" />

  <text x="400" y="330" font-size="16" text-anchor="middle">Sine Plot: y = sin(x)</text>
  <polyline points="50.00,450.00 69.44,432.64 88.89,415.80 108.33,400.00 127.78,385.72 147.22,373.40 166.67,363.40 186.11,356.03 205.56,351.52 225.00,350.00 244.44,351.52 263.89,356.03 283.33,363.40 302.78,373.40 322.22,385.72 341.67,400.00 361.11,415.80 380.56,432.64 400.00,450.00 419.44,467.36 438.89,484.20 458.33,500.00 477.78,514.28 497.22,526.60 516.67,536.60 536.11,543.97 555.56,548.48 575.00,550.00 594.44,548.48 613.89,543.97 633.33,536.60 652.78,526.60 672.22,514.28 691.67,500.00 711.11,484.20 730.56,467.36 750.00,450.00" fill="none" stroke="red" stroke-width="2" />
</svg>