<svg width="800" height="600" xmlns="http://www.w3.org/2000/svg"><rect width="800" height="600" fill="white"></rect><line class="x-grid" x1="135.83333333333331" x2="135.83333333333331" y1="50" y2="520" stroke="#e0e0e0" stroke-width="1"></line><line class="x-grid" x1="224.69484322630836" x2="224.69484322630836" y1="50" y2="520" stroke="#e0e0e0" stroke-width="1"></line><line class="x-grid" x1="313.55635311928336" x2="313.55635311928336" y1="50" y2="520" stroke="#e0e0e0" stroke-width="1"></line><line class="x-grid" x1="402.4178630122584" x2="402.4178630122584" y1="50" y2="520" stroke="#e0e0e0" stroke-width="1"></line><line class="x-grid" x1="491.27937290523346" x2="491.27937290523346" y1="50" y2="520" stroke="#e0e0e0" stroke-width="1"></line><line class="x-grid" x1="580.1408827982084" x2="580.1408827982084" y1="50" y2="520" stroke="#e0e0e0" stroke-width="1"></line><line class="x-grid" x1="669.0023926911834" x2="669.0023926911834" y1="50" y2="520" stroke="#e0e0e0" stroke-width="1"></line><line class="y-grid" x1="80" x2="750" y1="520" y2="520" stroke="#e0e0e0" stroke-width="1"></line><line class="y-grid" x1="80" x2="750" y1="480.83333333333337" y2="480.83333333333337" stroke="#e0e0e0" stroke-width="1"></line><line class="y-grid" x1="80" x2="750" y1="441.6666666666667" y2="441.6666666666667" stroke="#e0e0e0" stroke-width="1"></line><line class="y-grid" x1="80" x2="750" y1="402.5" y2="402.5" stroke="#e0e0e0" stroke-width="1"></line><line class="y-grid" x1="80" x2="750" y1="363.33333333333337" y2="363.33333333333337" stroke="#e0e0e0" stroke-width="1"></line><line class="y-grid" x1="80" x2="750" y1="324.16666666666663" y2="324.16666666666663" stroke="#e0e0e0" stroke-width="1"></line><line class="y-grid" x1="80" x2="750" y1="285" y2="285" stroke="#e0e0e0" stroke-width="1"></line><line class="y-grid" x1="80" x2="750" y1="245.83333333333331" y2="245.83333333333331" stroke="#e0e0e0" stroke-width="1"></line><line class="y-grid" x1="80" x2="750" y1="206.66666666666663" y2="206.66666666666663" stroke="#e0e0e0" stroke-width="1"></line><line class="y-grid" x1="80" x2="750" y1="167.5" y2="167.5" stroke="#e0e0e0" stroke-width="1"></line><line class="y-grid" x1="80" x2="750" y1="128.33333333333331" y2="128.33333333333331" stroke="#e0e0e0" stroke-width="1"></line><line class="y-grid" x1="80" x2="750" y1="89.16666666666663" y2="89.16666666666663" stroke="#e0e0e0" stroke-width="1"></line><line class="y-grid" x1="80" x2="750" y1="50" y2="50" stroke="#e0e0e0" stroke-width="1"></line><g transform="translate(80, 0)" fill="none" font-size="10" font-family="sans-serif" text-anchor="end"><path class="domain" stroke="currentColor" d="M-6,520.5H0.5V50.5H-6"></path><g class="tick" opacity="1" transform="translate(0,520.5)"><line stroke="currentColor" x2="-6"></line><text fill="currentColor" x="-9" dy="0.32em" style="font-family: Arial, sans-serif; font-size: 12px;">−1.2</text></g><g class="tick" opacity="1" transform="translate(0,481.33333333333337)"><line stroke="currentColor" x2="-6"></line><text fill="currentColor" x="-9" dy="0.32em" style="font-family: Arial, sans-serif; font-size: 12px;">−1.0</text></g><g class="tick" opacity="1" transform="translate(0,442.1666666666667)"><line stroke="currentColor" x2="-6"></line><text fill="currentColor" x="-9" dy="0.32em" style="font-family: Arial, sans-serif; font-size: 12px;">−0.8</text></g><g class="tick" opacity="1" transform="translate(0,403)"><line stroke="currentColor" x2="-6"></line><text fill="currentColor" x="-9" dy="0.32em" style="font-family: Arial, sans-serif; font-size: 12px;">−0.6</text></g><g class="tick" opacity="1" transform="translate(0,363.83333333333337)"><line stroke="currentColor" x2="-6"></line><text fill="currentColor" x="-9" dy="0.32em" style="font-family: Arial, sans-serif; font-size: 12px;">−0.4</text></g><g class="tick" opacity="1" transform="translate(0,324.66666666666663)"><line stroke="currentColor" x2="-6"></line><text fill="currentColor" x="-9" dy="0.32em" style="font-family: Arial, sans-serif; font-size: 12px;">−0.2</text></g><g class="tick" opacity="1" transform="translate(0,285.5)"><line stroke="currentColor" x2="-6"></line><text fill="currentColor" x="-9" dy="0.32em" style="font-family: Arial, sans-serif; font-size: 12px;">0.0</text></g><g class="tick" opacity="1" transform="translate(0,246.33333333333331)"><line stroke="currentColor" x2="-6"></line><text fill="currentColor" x="-9" dy="0.32em" style="font-family: Arial, sans-serif; font-size: 12px;">0.2</text></g><g class="tick" opacity="1" transform="translate(0,207.16666666666663)"><line stroke="currentColor" x2="-6"></line><text fill="currentColor" x="-9" dy="0.32em" style="font-family: Arial, sans-serif; font-size: 12px;">0.4</text></g><g class="tick" opacity="1" transform="translate(0,168)"><line stroke="currentColor" x2="-6"></line><text fill="currentColor" x="-9" dy="0.32em" style="font-family: Arial, sans-serif; font-size: 12px;">0.6</text></g><g class="tick" opacity="1" transform="translate(0,128.83333333333331)"><line stroke="currentColor" x2="-6"></line><text fill="currentColor" x="-9" dy="0.32em" style="font-family: Arial, sans-serif; font-size: 12px;">0.8</text></g><g class="tick" opacity="1" transform="translate(0,89.66666666666663)"><line stroke="currentColor" x2="-6"></line><text fill="currentColor" x="-9" dy="0.32em" style="font-family: Arial, sans-serif; font-size: 12px;">1.0</text></g><g class="tick" opacity="1" transform="translate(0,50.5)"><line stroke="currentColor" x2="-6"></line><text fill="currentColor" x="-9" dy="0.32em" style="font-family: Arial, sans-serif; font-size: 12px;">1.2</text></g></g><g transform="translate(0, 520)" fill="none" font-size="10" font-family="sans-serif" text-anchor="middle"><path class="domain" stroke="currentColor" d="M80.5,6V0.5H750.5V6"></path><g class="tick" opacity="1" transform="translate(136.33333333333331,0)"><line stroke="currentColor" y2="6"></line><text fill="currentColor" y="9" dy="0.71em" style="font-family: Arial, sans-serif; font-size: 12px;">0</text></g><g class="tick" opacity="1" transform="translate(225.19484322630836,0)"><line stroke="currentColor" y2="6"></line><text fill="currentColor" y="9" dy="0.71em" style="font-family: Arial, sans-serif; font-size: 12px;">1</text></g><g class="tick" opacity="1" transform="translate(314.05635311928336,0)"><line stroke="currentColor" y2="6"></line><text fill="currentColor" y="9" dy="0.71em" style="font-family: Arial, sans-serif; font-size: 12px;">2</text></g><g class="tick" opacity="1" transform="translate(402.9178630122584,0)"><line stroke="currentColor" y2="6"></line><text fill="currentColor" y="9" dy="0.71em" style="font-family: Arial, sans-serif; font-size: 12px;">3</text></g><g class="tick" opacity="1" transform="translate(491.77937290523346,0)"><line stroke="currentColor" y2="6"></line><text fill="currentColor" y="9" dy="0.71em" style="font-family: Arial, sans-serif; font-size: 12px;">4</text></g><g class="tick" opacity="1" transform="translate(580.6408827982084,0)"><line stroke="currentColor" y2="6"></line><text fill="currentColor" y="9" dy="0.71em" style="font-family: Arial, sans-serif; font-size: 12px;">5</text></g><g class="tick" opacity="1" transform="translate(669.5023926911834,0)"><line stroke="currentColor" y2="6"></line><text fill="currentColor" y="9" dy="0.71em" style="font-family: Arial, sans-serif; font-size: 12px;">6</text></g></g><text transform="rotate(-90)" y="20" x="-300" style="text-anchor: middle; font-family: Arial, sans-serif; font-size: 14px;">y</text><text transform="translate(400, 590)" style="text-anchor: middle; font-family: Arial, sans-serif; font-size: 14px;">x</text><text x="400" y="30" text-anchor="middle" style="font-size: 18px; font-family: Arial, sans-serif; font-weight: bold;">sin(x)</text><path fill="none" stroke="#2563eb" stroke-width="2" d="M135.833,285L141.417,272.704L147,260.456L152.583,248.304L158.167,236.298L163.75,224.484L169.333,212.909L174.917,201.618L180.5,190.657L186.083,180.067L191.667,169.892L197.25,160.171L202.833,150.943L208.417,142.244L214,134.108L219.583,126.568L225.167,119.652L230.75,113.39L236.333,107.805L241.917,102.919L247.5,98.751L253.083,95.319L258.667,92.635L264.25,90.711L269.833,89.553L275.417,89.167L281,89.553L286.583,90.711L292.167,92.635L297.75,95.319L303.333,98.751L308.917,102.919L314.5,107.805L320.083,113.39L325.667,119.652L331.25,126.568L336.833,134.108L342.417,142.244L348,150.943L353.583,160.171L359.167,169.892L364.75,180.067L370.333,190.657L375.917,201.618L381.5,212.909L387.083,224.484L392.667,236.298L398.25,248.304L403.833,260.456L409.417,272.704L415,285L420.583,297.296L426.167,309.544L431.75,321.696L437.333,333.702L442.917,345.516L448.5,357.091L454.083,368.382L459.667,379.343L465.25,389.933L470.833,400.108L476.417,409.829L482,419.057L487.583,427.756L493.167,435.892L498.75,443.432L504.333,450.348L509.917,456.61L515.5,462.195L521.083,467.081L526.667,471.249L532.25,474.681L537.833,477.365L543.417,479.289L549,480.447L554.583,480.833L560.167,480.447L565.75,479.289L571.333,477.365L576.917,474.681L582.5,471.249L588.083,467.081L593.667,462.195L599.25,456.61L604.833,450.348L610.417,443.432L616,435.892L621.583,427.756L627.167,419.057L632.75,409.829L638.333,400.108L643.917,389.933L649.5,379.343L655.083,368.382L660.667,357.091L666.25,345.516L671.833,333.702L677.417,321.696L683,309.544L688.583,297.296L694.167,285"></path><text x="740" y="70" text-anchor="end" style="font-family: monospace; font-size: 14px; fill: #2563eb;">sin(x)</text></svg>