<svg width="800" height="600" xmlns="http://www.w3.org/2000/svg"><g transform="translate(80,40)"><g transform="translate(0,500)" fill="none" font-size="10" font-family="sans-serif" text-anchor="middle"><path class="domain" stroke="currentColor" d="M0.5,6V0.5H680.5V6"></path><g class="tick" opacity="1" transform="translate(16.02951684533214,0)"><line stroke="currentColor" y2="6"></line><text fill="currentColor" y="9" dy="0.71em">−3.0</text></g><g class="tick" opacity="1" transform="translate(70.86822652275147,0)"><line stroke="currentColor" y2="6"></line><text fill="currentColor" y="9" dy="0.71em">−2.5</text></g><g class="tick" opacity="1" transform="translate(125.7069362001708,0)"><line stroke="currentColor" y2="6"></line><text fill="currentColor" y="9" dy="0.71em">−2.0</text></g><g class="tick" opacity="1" transform="translate(180.54564587759012,0)"><line stroke="currentColor" y2="6"></line><text fill="currentColor" y="9" dy="0.71em">−1.5</text></g><g class="tick" opacity="1" transform="translate(235.38435555500948,0)"><line stroke="currentColor" y2="6"></line><text fill="currentColor" y="9" dy="0.71em">−1.0</text></g><g class="tick" opacity="1" transform="translate(290.2230652324288,0)"><line stroke="currentColor" y2="6"></line><text fill="currentColor" y="9" dy="0.71em">−0.5</text></g><g class="tick" opacity="1" transform="translate(345.06177490984817,0)"><line stroke="currentColor" y2="6"></line><text fill="currentColor" y="9" dy="0.71em">0.0</text></g><g class="tick" opacity="1" transform="translate(399.90048458726744,0)"><line stroke="currentColor" y2="6"></line><text fill="currentColor" y="9" dy="0.71em">0.5</text></g><g class="tick" opacity="1" transform="translate(454.7391942646868,0)"><line stroke="currentColor" y2="6"></line><text fill="currentColor" y="9" dy="0.71em">1.0</text></g><g class="tick" opacity="1" transform="translate(509.57790394210605,0)"><line stroke="currentColor" y2="6"></line><text fill="currentColor" y="9" dy="0.71em">1.5</text></g><g class="tick" opacity="1" transform="translate(564.4166136195255,0)"><line stroke="currentColor" y2="6"></line><text fill="currentColor" y="9" dy="0.71em">2.0</text></g><g class="tick" opacity="1" transform="translate(619.2553232969448,0)"><line stroke="currentColor" y2="6"></line><text fill="currentColor" y="9" dy="0.71em">2.5</text></g><g class="tick" opacity="1" transform="translate(674.094032974364,0)"><line stroke="currentColor" y2="6"></line><text fill="currentColor" y="9" dy="0.71em">3.0</text></g></g><g fill="none" font-size="10" font-family="sans-serif" text-anchor="end"><path class="domain" stroke="currentColor" d="M-6,500.5H0.5V0.5H-6"></path><g class="tick" opacity="1" transform="translate(0,482.08892580306133)"><line stroke="currentColor" x2="-6"></line><text fill="currentColor" x="-9" dy="0.32em">−30</text></g><g class="tick" opacity="1" transform="translate(0,438.58997293667113)"><line stroke="currentColor" x2="-6"></line><text fill="currentColor" x="-9" dy="0.32em">−20</text></g><g class="tick" opacity="1" transform="translate(0,395.091020070281)"><line stroke="currentColor" x2="-6"></line><text fill="currentColor" x="-9" dy="0.32em">−10</text></g><g class="tick" opacity="1" transform="translate(0,351.5920672038908)"><line stroke="currentColor" x2="-6"></line><text fill="currentColor" x="-9" dy="0.32em">0</text></g><g class="tick" opacity="1" transform="translate(0,308.09311433750065)"><line stroke="currentColor" x2="-6"></line><text fill="currentColor" x="-9" dy="0.32em">10</text></g><g class="tick" opacity="1" transform="translate(0,264.5941614711104)"><line stroke="currentColor" x2="-6"></line><text fill="currentColor" x="-9" dy="0.32em">20</text></g><g class="tick" opacity="1" transform="translate(0,221.0952086047203)"><line stroke="currentColor" x2="-6"></line><text fill="currentColor" x="-9" dy="0.32em">30</text></g><g class="tick" opacity="1" transform="translate(0,177.5962557383301)"><line stroke="currentColor" x2="-6"></line><text fill="currentColor" x="-9" dy="0.32em">40</text></g><g class="tick" opacity="1" transform="translate(0,134.09730287193995)"><line stroke="currentColor" x2="-6"></line><text fill="currentColor" x="-9" dy="0.32em">50</text></g><g class="tick" opacity="1" transform="translate(0,90.59835000554978)"><line stroke="currentColor" x2="-6"></line><text fill="currentColor" x="-9" dy="0.32em">60</text></g><g class="tick" opacity="1" transform="translate(0,47.09939713915961)"><line stroke="currentColor" x2="-6"></line><text fill="currentColor" x="-9" dy="0.32em">70</text></g><g class="tick" opacity="1" transform="translate(0,3.6004442727694537)"><line stroke="currentColor" x2="-6"></line><text fill="currentColor" x="-9" dy="0.32em">80</text></g></g><text transform="translate(340, 540)" style="text-anchor: middle; font-size: 14px;">x</text><text transform="rotate(-90)" y="-60" x="-250" style="text-anchor: middle; font-size: 14px;">y</text><path fill="none" stroke="#1f77b4" stroke-width="2" style="shape-rendering: geometricPrecision;" d="M0,351.092L10.968,351.526L21.935,351.956L32.903,352.378L43.871,352.786L54.839,353.178L65.806,353.548L76.774,353.894L87.742,354.212L98.71,354.499L109.677,354.752L120.645,354.969L131.613,355.146L142.581,355.283L153.548,355.379L164.516,355.431L175.484,355.44L186.452,355.406L197.419,355.328L208.387,355.208L219.355,355.047L230.323,354.847L241.29,354.609L252.258,354.336L263.226,354.03L274.194,353.695L285.161,353.334L296.129,352.951L307.097,352.549L318.065,352.133L329.032,351.706L340,351.273L350.968,350.838L361.935,350.406L372.903,349.98L383.871,349.566L394.839,349.167L405.806,348.787L416.774,348.431L427.742,348.1L438.71,347.8L449.677,347.533L460.645,347.301L471.613,347.107L482.581,346.953L493.548,346.84L504.516,346.77L515.484,346.743L526.452,346.759L537.419,346.819L548.387,346.921L559.355,347.065L570.323,347.249L581.29,347.472L592.258,347.731L603.226,348.023L614.194,348.346L625.161,348.697L636.129,349.071L647.097,349.466L658.065,349.877L669.032,350.3L680,350.731"></path><path fill="none" stroke="#ff7f0e" stroke-width="2" style="shape-rendering: geometricPrecision;" d="M0,355.442L10.968,355.42L21.935,355.355L32.903,355.248L43.871,355.099L54.839,354.909L65.806,354.682L76.774,354.419L87.742,354.123L98.71,353.796L109.677,353.442L120.645,353.065L131.613,352.668L142.581,352.256L153.548,351.831L164.516,351.4L175.484,350.965L186.452,350.532L197.419,350.104L208.387,349.686L219.355,349.282L230.323,348.896L241.29,348.532L252.258,348.194L263.226,347.884L274.194,347.607L285.161,347.365L296.129,347.159L307.097,346.993L318.065,346.869L329.032,346.786L340,346.746L350.968,346.75L361.935,346.797L372.903,346.887L383.871,347.019L394.839,347.191L405.806,347.403L416.774,347.651L427.742,347.934L438.71,348.249L449.677,348.592L460.645,348.959L471.613,349.349L482.581,349.755L493.548,350.175L504.516,350.604L515.484,351.038L526.452,351.473L537.419,351.903L548.387,352.326L559.355,352.736L570.323,353.13L581.29,353.504L592.258,353.853L603.226,354.175L614.194,354.466L625.161,354.723L636.129,354.944L647.097,355.127L658.065,355.269L669.032,355.369L680,355.427"></path><path fill="none" stroke="#2ca02c" stroke-width="2" style="shape-rendering: geometricPrecision;" d="M0,351.092L10.968,350.656L21.935,350.21L32.903,349.746L43.871,349.253L54.839,348.716L65.806,348.116L76.774,347.428L87.742,346.613L98.71,345.611L109.677,344.318L120.645,342.546L131.613,339.903L142.581,335.423L153.548,325.872L164.516,289.752L175.484,500L186.452,384.571L197.419,369.737L208.387,363.825L219.355,360.597L230.323,358.53L241.29,357.068L252.258,355.961L263.226,355.077L274.194,354.342L285.161,353.709L296.129,353.148L307.097,352.639L318.065,352.164L329.032,351.712L340,351.273L350.968,350.838L361.935,350.397L372.903,349.942L383.871,349.463L394.839,348.946L405.806,348.375L416.774,347.727L427.742,346.971L438.71,346.056L449.677,344.9L460.645,343.359L471.613,341.149L482.581,337.623L493.548,330.92L504.516,312.551L515.484,0L526.452,400.615L537.419,374.005L548.387,365.797L559.355,361.747L570.323,359.294L581.29,357.622L592.258,356.388L603.226,355.423L614.194,354.633L625.161,353.962L636.129,353.374L647.097,352.846L658.065,352.358L669.032,351.898L680,351.455"></path></g><text x="400" y="25" style="text-anchor: middle; font-size: 16px; font-weight: bold;">Trigonometric Functions Comparison</text><g class="legend"><rect x="570" y="50" width="200" height="80" fill="white" stroke="#ccc" stroke-width="1" style="opacity: 0.9;"></rect><g transform="translate(580, 60)"><line x1="0" x2="20" y1="0" y2="0" stroke="#1f77b4" stroke-width="2"></line><text x="25" y="0" dy="0.35em" style="font-size: 12px; font-family: sans-serif;">sin(x)</text></g><g transform="translate(580, 80)"><line x1="0" x2="20" y1="0" y2="0" stroke="#ff7f0e" stroke-width="2"></line><text x="25" y="0" dy="0.35em" style="font-size: 12px; font-family: sans-serif;">cos(x)</text></g><g transform="translate(580, 100)"><line x1="0" x2="20" y1="0" y2="0" stroke="#2ca02c" stroke-width="2"></line><text x="25" y="0" dy="0.35em" style="font-size: 12px; font-family: sans-serif;">tan(x)</text></g></g></svg>