<?xml version="1.0"?>
<svg xmlns="http://www.w3.org/2000/svg" width="800" height="400" viewBox="0 0 800 400">
  <rect width="100%" height="100%" fill="#ffffff"/>
  <!-- Simple sine wave example generated for README examples/ -->
  <path d="M 0 200
    L 20 188
    L 40 175
    L 60 162
    L 80 150
    L 100 138
    L 120 127
    L 140 118
    L 160 111
    L 180 105
    L 200 101
    L 220 99
    L 240 100
    L 260 103
    L 280 109
    L 300 118
    L 320 129
    L 340 142
    L 360 156
    L 380 170
    L 400 183
    L 420 195
    L 440 205
    L 460 212
    L 480 217
    L 500 218
    L 520 217
    L 540 214
    L 560 209
    L 580 203
    L 600 197
    L 620 191
    L 640 185
    L 660 180
    L 680 176
    L 700 174
    L 720 174
    L 740 175
    L 760 178
    L 780 182
    L 800 187" fill="none" stroke="#007acc" stroke-width="2" stroke-linecap="round" stroke-linejoin="round"/>
</svg>
