<svg width="800" height="600" xmlns="http://www.w3.org/2000/svg"><g transform="translate(80,40)"><g transform="translate(0,500)" fill="none" font-size="10" font-family="sans-serif" text-anchor="middle"><path class="domain" stroke="currentColor" d="M0.5,6V0.5H680.5V6"></path><g class="tick" opacity="1" transform="translate(0.5,0)"><line stroke="currentColor" y2="6"></line><text fill="currentColor" y="9" dy="0.71em">0</text></g><g class="tick" opacity="1" transform="translate(54.612680651244496,0)"><line stroke="currentColor" y2="6"></line><text fill="currentColor" y="9" dy="0.71em">1</text></g><g class="tick" opacity="1" transform="translate(108.72536130248899,0)"><line stroke="currentColor" y2="6"></line><text fill="currentColor" y="9" dy="0.71em">2</text></g><g class="tick" opacity="1" transform="translate(162.83804195373347,0)"><line stroke="currentColor" y2="6"></line><text fill="currentColor" y="9" dy="0.71em">3</text></g><g class="tick" opacity="1" transform="translate(216.95072260497798,0)"><line stroke="currentColor" y2="6"></line><text fill="currentColor" y="9" dy="0.71em">4</text></g><g class="tick" opacity="1" transform="translate(271.0634032562225,0)"><line stroke="currentColor" y2="6"></line><text fill="currentColor" y="9" dy="0.71em">5</text></g><g class="tick" opacity="1" transform="translate(325.17608390746693,0)"><line stroke="currentColor" y2="6"></line><text fill="currentColor" y="9" dy="0.71em">6</text></g><g class="tick" opacity="1" transform="translate(379.2887645587115,0)"><line stroke="currentColor" y2="6"></line><text fill="currentColor" y="9" dy="0.71em">7</text></g><g class="tick" opacity="1" transform="translate(433.40144520995597,0)"><line stroke="currentColor" y2="6"></line><text fill="currentColor" y="9" dy="0.71em">8</text></g><g class="tick" opacity="1" transform="translate(487.5141258612004,0)"><line stroke="currentColor" y2="6"></line><text fill="currentColor" y="9" dy="0.71em">9</text></g><g class="tick" opacity="1" transform="translate(541.626806512445,0)"><line stroke="currentColor" y2="6"></line><text fill="currentColor" y="9" dy="0.71em">10</text></g><g class="tick" opacity="1" transform="translate(595.7394871636894,0)"><line stroke="currentColor" y2="6"></line><text fill="currentColor" y="9" dy="0.71em">11</text></g><g class="tick" opacity="1" transform="translate(649.8521678149339,0)"><line stroke="currentColor" y2="6"></line><text fill="currentColor" y="9" dy="0.71em">12</text></g></g><g fill="none" font-size="10" font-family="sans-serif" text-anchor="end"><path class="domain" stroke="currentColor" d="M-6,500.5H0.5V0.5H-6"></path><g class="tick" opacity="1" transform="translate(0,446.1693988017142)"><line stroke="currentColor" x2="-6"></line><text fill="currentColor" x="-9" dy="0.32em">−1.5</text></g><g class="tick" opacity="1" transform="translate(0,380.9462658678098)"><line stroke="currentColor" x2="-6"></line><text fill="currentColor" x="-9" dy="0.32em">−1.0</text></g><g class="tick" opacity="1" transform="translate(0,315.72313293390545)"><line stroke="currentColor" x2="-6"></line><text fill="currentColor" x="-9" dy="0.32em">−0.5</text></g><g class="tick" opacity="1" transform="translate(0,250.5000000000011)"><line stroke="currentColor" x2="-6"></line><text fill="currentColor" x="-9" dy="0.32em">0.0</text></g><g class="tick" opacity="1" transform="translate(0,185.27686706609668)"><line stroke="currentColor" x2="-6"></line><text fill="currentColor" x="-9" dy="0.32em">0.5</text></g><g class="tick" opacity="1" transform="translate(0,120.05373413219233)"><line stroke="currentColor" x2="-6"></line><text fill="currentColor" x="-9" dy="0.32em">1.0</text></g><g class="tick" opacity="1" transform="translate(0,54.83060119828792)"><line stroke="currentColor" x2="-6"></line><text fill="currentColor" x="-9" dy="0.32em">1.5</text></g></g><text transform="translate(340, 540)" style="text-anchor: middle; font-size: 14px;">x</text><text transform="rotate(-90)" y="-60" x="-250" style="text-anchor: middle; font-size: 14px;">y</text><path fill="none" stroke="#1f77b4" stroke-width="2" style="shape-rendering: geometricPrecision;" d="M0,250L6.8,218.102L13.6,198.491L20.4,230.205L27.2,246.924L34,173.326L40.8,75.777L47.6,90.411L54.4,204.599L61.2,244.223L68,125.938L74.8,0L81.6,43.288L88.4,196.334L95.2,243.729L102,125.938L108.8,19.714L115.6,75.122L122.4,208.568L129.2,245.63L136,173.326L142.8,127.39L149.6,173.754L156.4,236.627L163.2,249.2L170,250L176.8,281.898L183.6,301.509L190.4,269.795L197.2,253.076L204,326.674L210.8,424.223L217.6,409.589L224.4,295.401L231.2,255.777L238,374.062L244.8,500L251.6,456.712L258.4,303.666L265.2,256.271L272,374.062L278.8,480.286L285.6,424.878L292.4,291.432L299.2,254.37L306,326.674L312.8,372.61L319.6,326.246L326.4,263.373L333.2,250.8L340,250L346.8,218.102L353.6,198.491L360.4,230.205L367.2,246.924L374,173.326L380.8,75.777L387.6,90.411L394.4,204.599L401.2,244.223L408,125.938L414.8,0L421.6,43.288L428.4,196.334L435.2,243.729L442,125.938L448.8,19.714L455.6,75.122L462.4,208.568L469.2,245.63L476,173.326L482.8,127.39L489.6,173.754L496.4,236.627L503.2,249.2L510,250L516.8,281.898L523.6,301.509L530.4,269.795L537.2,253.076L544,326.674L550.8,424.223L557.6,409.589L564.4,295.401L571.2,255.777L578,374.062L584.8,500L591.6,456.712L598.4,303.666L605.2,256.271L612,374.062L618.8,480.286L625.6,424.878L632.4,291.432L639.2,254.37L646,326.674L652.8,372.61L659.6,326.246L666.4,263.373L673.2,250.8L680,250"></path></g><text x="400" y="25" style="text-anchor: middle; font-size: 16px; font-weight: bold;">Amplitude Modulation</text></svg>