<svg width="800" height="600" xmlns="http://www.w3.org/2000/svg"><g transform="translate(80,40)"><g transform="translate(0,500)" fill="none" font-size="10" font-family="sans-serif" text-anchor="middle"><path class="domain" stroke="currentColor" d="M0.5,6V0.5H680.5V6"></path><g class="tick" opacity="1" transform="translate(44.80845726030966,0)"><line stroke="currentColor" y2="6"></line><text fill="currentColor" y="9" dy="0.71em">−2.5</text></g><g class="tick" opacity="1" transform="translate(103.95859789749156,0)"><line stroke="currentColor" y2="6"></line><text fill="currentColor" y="9" dy="0.71em">−2.0</text></g><g class="tick" opacity="1" transform="translate(163.10873853467342,0)"><line stroke="currentColor" y2="6"></line><text fill="currentColor" y="9" dy="0.71em">−1.5</text></g><g class="tick" opacity="1" transform="translate(222.2588791718553,0)"><line stroke="currentColor" y2="6"></line><text fill="currentColor" y="9" dy="0.71em">−1.0</text></g><g class="tick" opacity="1" transform="translate(281.40901980903715,0)"><line stroke="currentColor" y2="6"></line><text fill="currentColor" y="9" dy="0.71em">−0.5</text></g><g class="tick" opacity="1" transform="translate(340.55916044621904,0)"><line stroke="currentColor" y2="6"></line><text fill="currentColor" y="9" dy="0.71em">0.0</text></g><g class="tick" opacity="1" transform="translate(399.70930108340093,0)"><line stroke="currentColor" y2="6"></line><text fill="currentColor" y="9" dy="0.71em">0.5</text></g><g class="tick" opacity="1" transform="translate(458.8594417205828,0)"><line stroke="currentColor" y2="6"></line><text fill="currentColor" y="9" dy="0.71em">1.0</text></g><g class="tick" opacity="1" transform="translate(518.0095823577647,0)"><line stroke="currentColor" y2="6"></line><text fill="currentColor" y="9" dy="0.71em">1.5</text></g><g class="tick" opacity="1" transform="translate(577.1597229949465,0)"><line stroke="currentColor" y2="6"></line><text fill="currentColor" y="9" dy="0.71em">2.0</text></g><g class="tick" opacity="1" transform="translate(636.3098636321284,0)"><line stroke="currentColor" y2="6"></line><text fill="currentColor" y="9" dy="0.71em">2.5</text></g></g><g fill="none" font-size="10" font-family="sans-serif" text-anchor="end"><path class="domain" stroke="currentColor" d="M-6,500.5H0.5V0.5H-6"></path><g class="tick" opacity="1" transform="translate(0,469.4436715422341)"><line stroke="currentColor" x2="-6"></line><text fill="currentColor" x="-9" dy="0.32em">−1.5</text></g><g class="tick" opacity="1" transform="translate(0,418.48420644066624)"><line stroke="currentColor" x2="-6"></line><text fill="currentColor" x="-9" dy="0.32em">−1.0</text></g><g class="tick" opacity="1" transform="translate(0,367.52474133909834)"><line stroke="currentColor" x2="-6"></line><text fill="currentColor" x="-9" dy="0.32em">−0.5</text></g><g class="tick" opacity="1" transform="translate(0,316.56527623753044)"><line stroke="currentColor" x2="-6"></line><text fill="currentColor" x="-9" dy="0.32em">0.0</text></g><g class="tick" opacity="1" transform="translate(0,265.60581113596254)"><line stroke="currentColor" x2="-6"></line><text fill="currentColor" x="-9" dy="0.32em">0.5</text></g><g class="tick" opacity="1" transform="translate(0,214.64634603439458)"><line stroke="currentColor" x2="-6"></line><text fill="currentColor" x="-9" dy="0.32em">1.0</text></g><g class="tick" opacity="1" transform="translate(0,163.68688093282668)"><line stroke="currentColor" x2="-6"></line><text fill="currentColor" x="-9" dy="0.32em">1.5</text></g><g class="tick" opacity="1" transform="translate(0,112.72741583125878)"><line stroke="currentColor" x2="-6"></line><text fill="currentColor" x="-9" dy="0.32em">2.0</text></g><g class="tick" opacity="1" transform="translate(0,61.76795072969088)"><line stroke="currentColor" x2="-6"></line><text fill="currentColor" x="-9" dy="0.32em">2.5</text></g><g class="tick" opacity="1" transform="translate(0,10.808485628122977)"><line stroke="currentColor" x2="-6"></line><text fill="currentColor" x="-9" dy="0.32em">3.0</text></g></g><text transform="translate(340, 540)" style="text-anchor: middle; font-size: 14px;">x</text><text transform="rotate(-90)" y="-60" x="-250" style="text-anchor: middle; font-size: 14px;">y</text><path fill="none" stroke="#1f77b4" stroke-width="2" style="shape-rendering: geometricPrecision;" d="M340.059,242.859L350.247,228.588L369.936,189.086L405.603,133.519L458.471,74.777L523.671,26.507L591.046,0L647.426,1.678L679.829,31.771L678.801,84.479L641.068,149.553L570.806,214.885L479.175,269.469L382.195,305.988L297.404,322.403L240.101,322.172L220.013,313.044L239.199,304.775L291.67,306.339L364.816,323.352L442.3,356.377L507.738,400.553L548.293,446.649L557.343,483.322L535.627,500L490.62,489.704L434.34,451.082L380.154,389.136L339.389,314.441L318.587,240.991L318.072,183.176L332.163,152.599L350.959,155.468L363.213,191.195L359.552,252.528L335.222,327.191L291.621,400.632L236.239,459.237L180.965,493.252L139.181,498.731L122.348,478.063L136.922,439.005L182.399,392.469L250.986,349.636L329.027,319.135L399.879,304.952L447.585,305.61L460.475,314.78L433.86,323.163L371.161,321.152L283.229,301.582L185.99,261.874L96.988,205.009L31.627,139.067L0,75.441L5.007,26.128L42.199,0.792L101.311,4.289L169.084,35.316L232.644,86.497L282.595,145.941L315.079,199.9L332.302,235.911L341.433,245.671L352.196,226.964L373.782,184.173L411.909,127.262L466.793,69.464L532.578,24.232L598.414,2.179L650.93,8.734L677.517,43.053L669.616,98.437L625.171,164.118L549.624,227.963L455.156,279.421L358.308,311.984L276.52,324.562L224.377,321.451L210.435,310.923L235.392,302.804L292.017,305.672L366.853,324.387L443.305,358.597L505.365,402.603L541.102,446.651L545.113,479.331L519.369,490.51L472.309,474.059L416.422,429.704L364.965,363.503L328.624,286.807L312.952,213.924L317.194,159.016L334.792,132.958L355.383,140.895L367.796,181.088L363.251,245.312L337.936,320.71L294.3,392.68L240.702,448.089L189.477,478.069L153.889,479.754L144.714,456.55L167.298,416.927L219.846,372.05L293.393,332.854L373.507,307.291L443.355,298.435L487.424,303.894L495.03,316.656L462.78,327.146L395.413,325.952L304.806,306.523L207.394,267.145L120.601,211.687L59.119,148.901L31.908,90.438L40.596,48.06L79.609,30.72L137.967,42.251L202.256,80.23L260.012,136.331L302.698,198.098L327.52,251.734L337.682,285.252L341.029,291.239L347.471,268.562L365.868,222.63L401.183,164.127L452.672,106.53L513.593,63.013L572.538,43.451L616.095,52.261L632.193,87.562L613.298,141.832L558.66,203.899L475.018,261.729L375.552,305.346L277.27,329.141L197.439,333.026L149.863,322.158L141.895,305.324L172.88,292.403L234.391,291.571L312.208,306.956L389.565,337.347L450.903,376.313L485.233,413.703L488.348,438.181L463.375,440.179L419.586,414.521L369.78,362.062L326.94,289.914L300.959,210.164L296.289,137.361L311.034,85.352L337.731,64.212L365.566,77.98L383.459,123.76L383.221,192.375L361.954,270.441L323.081,343.355L275.716,398.493L232.505,427.871L206.457,429.649L207.545,408.151L239.935,372.427L300.528,333.742L379.237,302.633L460.953,286.255L528.78,286.688L567.783,300.581L568.372,320.244L528.528,335.848L454.33,338.208L358.675,321.402L258.475,284.572L170.997,232.43L110.212,174.326L83.984,122.085L92.746,87.15L129.934,77.714L184.013,96.572L241.578,140.226L290.733,199.488L323.906,261.464L339.428,312.455L341.5,341.091L338.6,340.958L340.759,312.087L356.427,260.943L389.758,198.929L439.029,139.752L496.621,96.286L550.608,77.673L587.589,87.357L596.061,122.489L569.513,174.834L508.445,232.936L420.786,284.978L320.547,321.643L225.012,338.266L151.071,335.756L111.57,320.072L112.522,300.419L151.833,286.616L219.855,286.326L301.619,302.851L380.227,334.066L440.605,372.774L472.719,408.421L473.539,429.746L447.287,427.733L403.98,398.109L356.638,342.77L317.889,269.75L296.802,191.702L296.747,123.235L314.771,77.708L342.646,64.247L369.282,85.689L383.881,137.934L379.02,210.864L352.861,290.609L309.908,362.629L260.097,414.873L216.421,440.279L191.665,438.05L195.054,413.411L229.653,375.958L291.19,337.027L368.625,306.747L446.369,291.51L507.665,292.474L538.331,305.471L530.002,322.296L482.096,333.067L402.032,329.021L303.662,305.042L204.264,261.266L120.83,203.349L66.491,141.298L47.921,87.15L64.305,52.059L108.056,43.501L167.077,63.305L227.959,106.998L279.326,164.663L314.485,223.112L332.746,268.878L339.118,291.315L342.483,285.069L352.745,251.331L377.721,197.565L420.562,135.788L478.421,79.797L542.715,42.024L600.96,30.748L639.746,48.336L648.129,90.903L620.596,149.458L558.84,212.228L471.881,267.575L374.452,306.785L283.983,326.036L216.885,327.092L184.98,316.538L192.936,303.801L237.291,298.444L307.303,307.445L387.431,333.151L460.849,372.439L513.161,417.319L535.459,456.843L526.017,479.858L490.237,477.928L438.931,447.699L385.37,392.097L341.869,320.034L316.737,244.671L312.368,180.609L324.898,140.675L345.513,133.042L363.034,159.389L367.121,214.511L351.259,287.493L314.751,364.157L263.201,430.208L207.333,474.332L160.41,490.527L134.902,479.123L139.197,446.293L175.202,402.195L237.45,358.238L313.963,324.148L388.708,305.58L445.103,302.838L469.736,311.02L455.44,321.525L402.984,324.529L320.992,311.786L224.087,279.042L129.717,227.437L54.402,163.525L10.269,97.882L2.695,42.642L29.558,8.548L82.25,2.253L148.143,24.544L213.874,69.941L268.626,127.792L306.596,184.633L328.054,227.247L338.758,245.711L347.92,235.698L365.253,199.484L397.892,145.417L447.99,85.986L511.635,34.937L579.391,4.13L638.365,0.893L675.309,26.472L680,75.96L648.049,139.661L582.425,205.569L493.275,262.311L396.041,301.845L308.268,321.24L245.852,323.122L219.585,314.687L232.817,305.554L280.788,305.006L351.778,319.336L429.806,349.972L498.242,392.881L543.469,439.403L557.755,478.342L540.661,498.805L498.702,493.075L443.368,458.814L388.043,400.027L344.589,326.512L320.445,251.904L316.955,190.749L329.313,155.292L348.118,152.728L362.119,183.583L361.44,241.594L340.45,315.121L299.528,389.761L245.269,451.539L189.029,489.923L144.181,499.964L122.714,483.07L132.051,446.264L172.867,400.136L238.476,356.024L315.996,323.127L389.027,306.262L441.25,304.817L460.103,313.136L439.663,322.227L382.062,322.34L297.091,305.753L200.08,269.057L108.574,214.338L38.56,148.956L1.147,83.939L0.44,31.391L33.105,1.533L89.643,0.117L157.055,26.854L222.183,75.272L274.91,134.047L310.421,189.525L329.991,228.835"></path></g><text x="400" y="25" style="text-anchor: middle; font-size: 16px; font-weight: bold;">Butterfly Curve</text></svg>