<svg width="800" height="600" xmlns="http://www.w3.org/2000/svg"><g transform="translate(80,40)"><g transform="translate(0,500)" fill="none" font-size="10" font-family="sans-serif" text-anchor="middle"><path class="domain" stroke="currentColor" d="M0.5,6V0.5H680.5V6"></path><g class="tick" opacity="1" transform="translate(0.5,0)"><line stroke="currentColor" y2="6"></line><text fill="currentColor" y="9" dy="0.71em">0</text></g><g class="tick" opacity="1" transform="translate(91.1666666666669,0)"><line stroke="currentColor" y2="6"></line><text fill="currentColor" y="9" dy="0.71em">2</text></g><g class="tick" opacity="1" transform="translate(181.8333333333338,0)"><line stroke="currentColor" y2="6"></line><text fill="currentColor" y="9" dy="0.71em">4</text></g><g class="tick" opacity="1" transform="translate(272.5000000000007,0)"><line stroke="currentColor" y2="6"></line><text fill="currentColor" y="9" dy="0.71em">6</text></g><g class="tick" opacity="1" transform="translate(363.1666666666676,0)"><line stroke="currentColor" y2="6"></line><text fill="currentColor" y="9" dy="0.71em">8</text></g><g class="tick" opacity="1" transform="translate(453.83333333333445,0)"><line stroke="currentColor" y2="6"></line><text fill="currentColor" y="9" dy="0.71em">10</text></g><g class="tick" opacity="1" transform="translate(544.5000000000014,0)"><line stroke="currentColor" y2="6"></line><text fill="currentColor" y="9" dy="0.71em">12</text></g><g class="tick" opacity="1" transform="translate(635.1666666666682,0)"><line stroke="currentColor" y2="6"></line><text fill="currentColor" y="9" dy="0.71em">14</text></g></g><g fill="none" font-size="10" font-family="sans-serif" text-anchor="end"><path class="domain" stroke="currentColor" d="M-6,500.5H0.5V0.5H-6"></path><g class="tick" opacity="1" transform="translate(0,462.3341282997895)"><line stroke="currentColor" x2="-6"></line><text fill="currentColor" x="-9" dy="0.32em">−0.6</text></g><g class="tick" opacity="1" transform="translate(0,400.8615997597688)"><line stroke="currentColor" x2="-6"></line><text fill="currentColor" x="-9" dy="0.32em">−0.4</text></g><g class="tick" opacity="1" transform="translate(0,339.3890712197481)"><line stroke="currentColor" x2="-6"></line><text fill="currentColor" x="-9" dy="0.32em">−0.2</text></g><g class="tick" opacity="1" transform="translate(0,277.91654267972746)"><line stroke="currentColor" x2="-6"></line><text fill="currentColor" x="-9" dy="0.32em">0.0</text></g><g class="tick" opacity="1" transform="translate(0,216.44401413970675)"><line stroke="currentColor" x2="-6"></line><text fill="currentColor" x="-9" dy="0.32em">0.2</text></g><g class="tick" opacity="1" transform="translate(0,154.97148559968605)"><line stroke="currentColor" x2="-6"></line><text fill="currentColor" x="-9" dy="0.32em">0.4</text></g><g class="tick" opacity="1" transform="translate(0,93.49895705966532)"><line stroke="currentColor" x2="-6"></line><text fill="currentColor" x="-9" dy="0.32em">0.6</text></g><g class="tick" opacity="1" transform="translate(0,32.026428519644654)"><line stroke="currentColor" x2="-6"></line><text fill="currentColor" x="-9" dy="0.32em">0.8</text></g></g><text transform="translate(340, 540)" style="text-anchor: middle; font-size: 14px;">x</text><text transform="rotate(-90)" y="-60" x="-250" style="text-anchor: middle; font-size: 14px;">y</text><path fill="none" stroke="#1f77b4" stroke-width="2" style="shape-rendering: geometricPrecision;" d="M0,277.417L4.533,134.89L9.067,35.46L13.6,0L18.133,32.82L22.667,121.708L27.2,241.904L31.733,362.796L36.267,455.581L40.8,500L45.333,488.605L49.867,427.707L54.4,334.985L58.933,234.548L63.467,150.786L68,102.55L72.533,99.022L77.067,138.159L81.6,207.899L86.133,289.678L90.667,363.266L95.2,411.686L99.733,425.043L104.267,402.421L108.8,351.521L113.333,286.276L117.867,223.131L122.4,176.972L126.933,157.684L131.467,168.123L136,203.887L140.533,254.836L145.067,307.871L149.6,350.241L154.133,372.554L158.667,370.797L163.2,346.94L167.733,308.083L172.267,264.436L176.8,226.693L181.333,203.45L185.867,199.301L190.4,214.002L194.933,242.841L199.467,278.044L204,310.828L208.533,333.549L213.067,341.452L217.6,333.613L222.133,312.91L226.667,285.1L231.2,257.255L235.733,236.003L240.267,225.972L244.8,228.826L249.333,243.055L253.867,264.54L258.4,287.703L262.933,306.925L267.467,317.887L272,318.516L276.533,309.327L281.067,293.139L285.6,274.256L290.133,257.342L294.667,246.294L299.2,243.363L303.733,248.721L308.267,260.56L312.8,275.645L317.333,290.179L321.867,300.739L326.4,305.071L330.933,302.544L335.467,294.203L340,282.407L344.533,270.184L349.067,260.47L353.6,255.414L358.133,255.918L362.667,261.503L367.2,270.514L371.733,280.586L376.267,289.254L380.8,294.547L385.333,295.424L389.867,291.96L394.4,285.261L398.933,277.127L403.467,269.587L408,264.395L412.533,262.636L417.067,264.507L421.6,269.327L426.133,275.762L430.667,282.174L435.2,287.042L439.733,289.306L444.267,288.595L448.8,285.271L453.333,280.293L457.867,274.952L462.4,270.542L466.933,268.051L471.467,267.949L476,270.105L480.533,273.862L485.067,278.222L489.6,282.109L494.133,284.63L498.667,285.271L503.2,284.003L507.733,281.25L512.267,277.762L516.8,274.418L521.333,272.002L525.867,271.03L530.4,271.64L534.933,273.585L539.467,276.316L544,279.132L548.533,281.359L553.067,282.505L557.6,282.366L562.133,281.058L566.667,278.969L571.2,276.645L575.733,274.655L580.267,273.45L584.8,273.266L589.333,274.081L593.867,275.638L598.4,277.517L602.933,279.251L607.467,280.437L612,280.828L616.533,280.382L621.067,279.26L625.6,277.771L630.133,276.294L634.667,275.18L639.2,274.669L643.733,274.845L648.267,275.621L652.8,276.774L657.333,278.006L661.867,279.018L666.4,279.584L670.933,279.597L675.467,279.091L680,278.22"></path></g><text x="400" y="25" style="text-anchor: middle; font-size: 16px; font-weight: bold;">Damped Oscillation</text></svg>