<svg width="800" height="600" xmlns="http://www.w3.org/2000/svg"><g transform="translate(80,40)"><g transform="translate(0,500)" fill="none" font-size="10" font-family="sans-serif" text-anchor="middle"><path class="domain" stroke="currentColor" d="M0.5,6V0.5H680.5V6"></path><g class="tick" opacity="1" transform="translate(0.5,0)"><line stroke="currentColor" y2="6"></line><text fill="currentColor" y="9" dy="0.71em">0</text></g><g class="tick" opacity="1" transform="translate(68.50000000000014,0)"><line stroke="currentColor" y2="6"></line><text fill="currentColor" y="9" dy="0.71em">1</text></g><g class="tick" opacity="1" transform="translate(136.50000000000028,0)"><line stroke="currentColor" y2="6"></line><text fill="currentColor" y="9" dy="0.71em">2</text></g><g class="tick" opacity="1" transform="translate(204.5000000000004,0)"><line stroke="currentColor" y2="6"></line><text fill="currentColor" y="9" dy="0.71em">3</text></g><g class="tick" opacity="1" transform="translate(272.50000000000057,0)"><line stroke="currentColor" y2="6"></line><text fill="currentColor" y="9" dy="0.71em">4</text></g><g class="tick" opacity="1" transform="translate(340.5000000000007,0)"><line stroke="currentColor" y2="6"></line><text fill="currentColor" y="9" dy="0.71em">5</text></g><g class="tick" opacity="1" transform="translate(408.5000000000008,0)"><line stroke="currentColor" y2="6"></line><text fill="currentColor" y="9" dy="0.71em">6</text></g><g class="tick" opacity="1" transform="translate(476.50000000000097,0)"><line stroke="currentColor" y2="6"></line><text fill="currentColor" y="9" dy="0.71em">7</text></g><g class="tick" opacity="1" transform="translate(544.5000000000011,0)"><line stroke="currentColor" y2="6"></line><text fill="currentColor" y="9" dy="0.71em">8</text></g><g class="tick" opacity="1" transform="translate(612.5000000000013,0)"><line stroke="currentColor" y2="6"></line><text fill="currentColor" y="9" dy="0.71em">9</text></g></g><g fill="none" font-size="10" font-family="sans-serif" text-anchor="end"><path class="domain" stroke="currentColor" d="M-6,500.5H0.5V0.5H-6"></path><g class="tick" opacity="1" transform="translate(0,461.7476568357893)"><line stroke="currentColor" x2="-6"></line><text fill="currentColor" x="-9" dy="0.32em">−0.8</text></g><g class="tick" opacity="1" transform="translate(0,410.4979171873683)"><line stroke="currentColor" x2="-6"></line><text fill="currentColor" x="-9" dy="0.32em">−0.6</text></g><g class="tick" opacity="1" transform="translate(0,359.2481775389473)"><line stroke="currentColor" x2="-6"></line><text fill="currentColor" x="-9" dy="0.32em">−0.4</text></g><g class="tick" opacity="1" transform="translate(0,307.99843789052625)"><line stroke="currentColor" x2="-6"></line><text fill="currentColor" x="-9" dy="0.32em">−0.2</text></g><g class="tick" opacity="1" transform="translate(0,256.74869824210515)"><line stroke="currentColor" x2="-6"></line><text fill="currentColor" x="-9" dy="0.32em">0.0</text></g><g class="tick" opacity="1" transform="translate(0,205.49895859368416)"><line stroke="currentColor" x2="-6"></line><text fill="currentColor" x="-9" dy="0.32em">0.2</text></g><g class="tick" opacity="1" transform="translate(0,154.24921894526307)"><line stroke="currentColor" x2="-6"></line><text fill="currentColor" x="-9" dy="0.32em">0.4</text></g><g class="tick" opacity="1" transform="translate(0,102.99947929684211)"><line stroke="currentColor" x2="-6"></line><text fill="currentColor" x="-9" dy="0.32em">0.6</text></g><g class="tick" opacity="1" transform="translate(0,51.749739648421)"><line stroke="currentColor" x2="-6"></line><text fill="currentColor" x="-9" dy="0.32em">0.8</text></g><g class="tick" opacity="1" transform="translate(0,0.5)"><line stroke="currentColor" x2="-6"></line><text fill="currentColor" x="-9" dy="0.32em">1.0</text></g></g><text transform="translate(340, 540)" style="text-anchor: middle; font-size: 14px;">x</text><text transform="rotate(-90)" y="-60" x="-250" style="text-anchor: middle; font-size: 14px;">y</text><path fill="none" stroke="#1f77b4" stroke-width="2" style="shape-rendering: geometricPrecision;" d="M0,0L6.8,51.002L13.6,178.631L20.4,333.094L27.2,455.43L34,500L40.8,451.485L47.6,330.08L54.4,183.152L61.2,66.782L68,24.385L74.8,70.534L81.6,186.018L88.4,325.781L95.2,436.475L102,476.804L108.8,432.906L115.6,323.054L122.4,190.108L129.2,84.812L136,46.45L142.8,88.207L149.6,192.701L156.4,319.164L163.2,419.324L170,455.815L176.8,416.095L183.6,316.697L190.4,196.402L197.2,101.127L204,66.415L210.8,104.198L217.6,198.748L224.4,313.177L231.2,403.805L238,436.824L244.8,400.884L251.6,310.945L258.4,202.097L265.2,115.888L272,84.48L278.8,118.668L285.6,204.22L292.4,307.759L299.2,389.764L306,419.64L312.8,387.12L319.6,305.74L326.4,207.25L333.2,129.245L340,100.826L346.8,131.76L353.6,209.171L360.4,302.858L367.2,377.058L374,404.091L380.8,374.666L387.6,301.03L394.4,211.913L401.2,141.331L408,115.616L414.8,143.607L421.6,213.651L428.4,298.422L435.2,365.561L442,390.022L448.8,363.397L455.6,296.768L462.4,216.132L469.2,152.267L476,128.999L482.8,154.326L489.6,217.705L496.4,294.409L503.2,355.159L510,377.292L516.8,353.2L523.6,292.912L530.4,219.95L537.2,162.162L544,141.109L550.8,164.025L557.6,221.373L564.4,290.777L571.2,345.746L578,365.773L584.8,343.974L591.6,289.423L598.4,223.404L605.2,171.116L612,152.066L618.8,172.802L625.6,224.692L632.4,287.492L639.2,337.23L646,355.351L652.8,335.626L659.6,286.266L666.4,226.53L673.2,179.217L680,161.98"></path></g><text x="400" y="25" style="text-anchor: middle; font-size: 16px; font-weight: bold;">Damped Oscillation (RLC Circuit)</text></svg>