<svg width="800" height="600" xmlns="http://www.w3.org/2000/svg"><g transform="translate(80,40)"><g transform="translate(0,500)" fill="none" font-size="10" font-family="sans-serif" text-anchor="middle"><path class="domain" stroke="currentColor" d="M0.5,6V0.5H680.5V6"></path><g class="tick" opacity="1" transform="translate(0.5,0)"><line stroke="currentColor" y2="6"></line><text fill="currentColor" y="9" dy="0.71em">−2.0</text></g><g class="tick" opacity="1" transform="translate(86.35858585858581,0)"><line stroke="currentColor" y2="6"></line><text fill="currentColor" y="9" dy="0.71em">−1.5</text></g><g class="tick" opacity="1" transform="translate(172.21717171717162,0)"><line stroke="currentColor" y2="6"></line><text fill="currentColor" y="9" dy="0.71em">−1.0</text></g><g class="tick" opacity="1" transform="translate(258.07575757575745,0)"><line stroke="currentColor" y2="6"></line><text fill="currentColor" y="9" dy="0.71em">−0.5</text></g><g class="tick" opacity="1" transform="translate(343.93434343434325,0)"><line stroke="currentColor" y2="6"></line><text fill="currentColor" y="9" dy="0.71em">0.0</text></g><g class="tick" opacity="1" transform="translate(429.79292929292905,0)"><line stroke="currentColor" y2="6"></line><text fill="currentColor" y="9" dy="0.71em">0.5</text></g><g class="tick" opacity="1" transform="translate(515.6515151515149,0)"><line stroke="currentColor" y2="6"></line><text fill="currentColor" y="9" dy="0.71em">1.0</text></g><g class="tick" opacity="1" transform="translate(601.5101010101006,0)"><line stroke="currentColor" y2="6"></line><text fill="currentColor" y="9" dy="0.71em">1.5</text></g></g><g fill="none" font-size="10" font-family="sans-serif" text-anchor="end"><path class="domain" stroke="currentColor" d="M-6,500.5H0.5V0.5H-6"></path><g class="tick" opacity="1" transform="translate(0,440.8985389889412)"><line stroke="currentColor" x2="-6"></line><text fill="currentColor" x="-9" dy="0.32em">1</text></g><g class="tick" opacity="1" transform="translate(0,371.96839779599543)"><line stroke="currentColor" x2="-6"></line><text fill="currentColor" x="-9" dy="0.32em">2</text></g><g class="tick" opacity="1" transform="translate(0,303.03825660304966)"><line stroke="currentColor" x2="-6"></line><text fill="currentColor" x="-9" dy="0.32em">3</text></g><g class="tick" opacity="1" transform="translate(0,234.10811541010384)"><line stroke="currentColor" x2="-6"></line><text fill="currentColor" x="-9" dy="0.32em">4</text></g><g class="tick" opacity="1" transform="translate(0,165.177974217158)"><line stroke="currentColor" x2="-6"></line><text fill="currentColor" x="-9" dy="0.32em">5</text></g><g class="tick" opacity="1" transform="translate(0,96.2478330242122)"><line stroke="currentColor" x2="-6"></line><text fill="currentColor" x="-9" dy="0.32em">6</text></g><g class="tick" opacity="1" transform="translate(0,27.317691831266423)"><line stroke="currentColor" x2="-6"></line><text fill="currentColor" x="-9" dy="0.32em">7</text></g></g><text transform="translate(340, 540)" style="text-anchor: middle; font-size: 14px;">x</text><text transform="rotate(-90)" y="-60" x="-250" style="text-anchor: middle; font-size: 14px;">y</text><path fill="none" stroke="#1f77b4" stroke-width="2" style="shape-rendering: geometricPrecision;" d="M0,500L6.869,499.619L13.737,499.223L20.606,498.811L27.475,498.381L34.343,497.935L41.212,497.47L48.081,496.986L54.949,496.482L61.818,495.958L68.687,495.412L75.556,494.844L82.424,494.253L89.293,493.638L96.162,492.997L103.03,492.331L109.899,491.637L116.768,490.915L123.636,490.164L130.505,489.381L137.374,488.567L144.242,487.72L151.111,486.838L157.98,485.92L164.848,484.965L171.717,483.971L178.586,482.936L185.455,481.859L192.323,480.738L199.192,479.571L206.061,478.356L212.929,477.092L219.798,475.777L226.667,474.407L233.535,472.982L240.404,471.499L247.273,469.955L254.141,468.348L261.01,466.676L267.879,464.935L274.747,463.123L281.616,461.238L288.485,459.275L295.354,457.232L302.222,455.106L309.091,452.893L315.96,450.59L322.828,448.193L329.697,445.698L336.566,443.101L343.434,440.399L350.303,437.585L357.172,434.658L364.04,431.61L370.909,428.438L377.778,425.137L384.646,421.701L391.515,418.125L398.384,414.403L405.253,410.529L412.121,406.497L418.99,402.3L425.859,397.932L432.727,393.386L439.596,388.655L446.465,383.73L453.333,378.604L460.202,373.269L467.071,367.716L473.939,361.937L480.808,355.922L487.677,349.661L494.545,343.145L501.414,336.363L508.283,329.304L515.152,321.957L522.02,314.31L528.889,306.352L535.758,298.068L542.626,289.446L549.495,280.473L556.364,271.133L563.232,261.412L570.101,251.294L576.97,240.764L583.838,229.803L590.707,218.396L597.576,206.522L604.444,194.165L611.313,181.302L618.182,167.915L625.051,153.982L631.919,139.48L638.788,124.386L645.657,108.677L652.525,92.326L659.394,75.307L666.263,57.595L673.131,39.159L680,19.971"></path><path fill="none" stroke="#ff7f0e" stroke-width="2" style="shape-rendering: geometricPrecision;" d="M0,0L6.869,19.971L13.737,39.159L20.606,57.595L27.475,75.307L34.343,92.326L41.212,108.677L48.081,124.386L54.949,139.48L61.818,153.982L68.687,167.915L75.556,181.302L82.424,194.165L89.293,206.522L96.162,218.396L103.03,229.803L109.899,240.764L116.768,251.294L123.636,261.412L130.505,271.133L137.374,280.473L144.242,289.446L151.111,298.068L157.98,306.352L164.848,314.31L171.717,321.957L178.586,329.304L185.455,336.363L192.323,343.145L199.192,349.661L206.061,355.922L212.929,361.937L219.798,367.716L226.667,373.269L233.535,378.604L240.404,383.73L247.273,388.655L254.141,393.386L261.01,397.932L267.879,402.3L274.747,406.497L281.616,410.529L288.485,414.403L295.354,418.125L302.222,421.701L309.091,425.137L315.96,428.438L322.828,431.61L329.697,434.658L336.566,437.585L343.434,440.399L350.303,443.101L357.172,445.698L364.04,448.193L370.909,450.59L377.778,452.893L384.646,455.106L391.515,457.232L398.384,459.275L405.253,461.238L412.121,463.123L418.99,464.935L425.859,466.676L432.727,468.348L439.596,469.955L446.465,471.499L453.333,472.982L460.202,474.407L467.071,475.777L473.939,477.092L480.808,478.356L487.677,479.571L494.545,480.738L501.414,481.859L508.283,482.936L515.152,483.971L522.02,484.965L528.889,485.92L535.758,486.838L542.626,487.72L549.495,488.567L556.364,489.381L563.232,490.164L570.101,490.915L576.97,491.637L583.838,492.331L590.707,492.997L597.576,493.638L604.444,494.253L611.313,494.844L618.182,495.412L625.051,495.958L631.919,496.482L638.788,496.986L645.657,497.47L652.525,497.935L659.394,498.381L666.263,498.811L673.131,499.223L680,499.619"></path></g><text x="400" y="25" style="text-anchor: middle; font-size: 16px; font-weight: bold;">Exponential Growth vs Decay</text><g class="legend"><rect x="570" y="50" width="200" height="60" fill="white" stroke="#ccc" stroke-width="1" style="opacity: 0.9;"></rect><g transform="translate(580, 60)"><line x1="0" x2="20" y1="0" y2="0" stroke="#1f77b4" stroke-width="2"></line><text x="25" y="0" dy="0.35em" style="font-size: 12px; font-family: sans-serif;">Growth</text></g><g transform="translate(580, 80)"><line x1="0" x2="20" y1="0" y2="0" stroke="#ff7f0e" stroke-width="2"></line><text x="25" y="0" dy="0.35em" style="font-size: 12px; font-family: sans-serif;">Decay</text></g></g></svg>