<svg width="800" height="600" xmlns="http://www.w3.org/2000/svg"><g transform="translate(80,40)"><g transform="translate(0,500)" fill="none" font-size="10" font-family="sans-serif" text-anchor="middle"><path class="domain" stroke="currentColor" d="M0.5,6V0.5H680.5V6"></path><g class="tick" opacity="1" transform="translate(0.5,0)"><line stroke="currentColor" y2="6"></line><text fill="currentColor" y="9" dy="0.71em">0.0</text></g><g class="tick" opacity="1" transform="translate(68.50000000000014,0)"><line stroke="currentColor" y2="6"></line><text fill="currentColor" y="9" dy="0.71em">0.5</text></g><g class="tick" opacity="1" transform="translate(136.50000000000028,0)"><line stroke="currentColor" y2="6"></line><text fill="currentColor" y="9" dy="0.71em">1.0</text></g><g class="tick" opacity="1" transform="translate(204.5000000000004,0)"><line stroke="currentColor" y2="6"></line><text fill="currentColor" y="9" dy="0.71em">1.5</text></g><g class="tick" opacity="1" transform="translate(272.50000000000057,0)"><line stroke="currentColor" y2="6"></line><text fill="currentColor" y="9" dy="0.71em">2.0</text></g><g class="tick" opacity="1" transform="translate(340.5000000000007,0)"><line stroke="currentColor" y2="6"></line><text fill="currentColor" y="9" dy="0.71em">2.5</text></g><g class="tick" opacity="1" transform="translate(408.5000000000008,0)"><line stroke="currentColor" y2="6"></line><text fill="currentColor" y="9" dy="0.71em">3.0</text></g><g class="tick" opacity="1" transform="translate(476.50000000000097,0)"><line stroke="currentColor" y2="6"></line><text fill="currentColor" y="9" dy="0.71em">3.5</text></g><g class="tick" opacity="1" transform="translate(544.5000000000011,0)"><line stroke="currentColor" y2="6"></line><text fill="currentColor" y="9" dy="0.71em">4.0</text></g><g class="tick" opacity="1" transform="translate(612.5000000000013,0)"><line stroke="currentColor" y2="6"></line><text fill="currentColor" y="9" dy="0.71em">4.5</text></g></g><g fill="none" font-size="10" font-family="sans-serif" text-anchor="end"><path class="domain" stroke="currentColor" d="M-6,500.5H0.5V0.5H-6"></path><g class="tick" opacity="1" transform="translate(0,453.5526447078369)"><line stroke="currentColor" x2="-6"></line><text fill="currentColor" x="-9" dy="0.32em">0.1</text></g><g class="tick" opacity="1" transform="translate(0,403.2134619625217)"><line stroke="currentColor" x2="-6"></line><text fill="currentColor" x="-9" dy="0.32em">0.2</text></g><g class="tick" opacity="1" transform="translate(0,352.8742792172065)"><line stroke="currentColor" x2="-6"></line><text fill="currentColor" x="-9" dy="0.32em">0.3</text></g><g class="tick" opacity="1" transform="translate(0,302.5350964718913)"><line stroke="currentColor" x2="-6"></line><text fill="currentColor" x="-9" dy="0.32em">0.4</text></g><g class="tick" opacity="1" transform="translate(0,252.19591372657607)"><line stroke="currentColor" x2="-6"></line><text fill="currentColor" x="-9" dy="0.32em">0.5</text></g><g class="tick" opacity="1" transform="translate(0,201.85673098126088)"><line stroke="currentColor" x2="-6"></line><text fill="currentColor" x="-9" dy="0.32em">0.6</text></g><g class="tick" opacity="1" transform="translate(0,151.51754823594564)"><line stroke="currentColor" x2="-6"></line><text fill="currentColor" x="-9" dy="0.32em">0.7</text></g><g class="tick" opacity="1" transform="translate(0,101.17836549063041)"><line stroke="currentColor" x2="-6"></line><text fill="currentColor" x="-9" dy="0.32em">0.8</text></g><g class="tick" opacity="1" transform="translate(0,50.83918274531518)"><line stroke="currentColor" x2="-6"></line><text fill="currentColor" x="-9" dy="0.32em">0.9</text></g><g class="tick" opacity="1" transform="translate(0,0.5)"><line stroke="currentColor" x2="-6"></line><text fill="currentColor" x="-9" dy="0.32em">1.0</text></g></g><text transform="translate(340, 540)" style="text-anchor: middle; font-size: 14px;">x</text><text transform="rotate(-90)" y="-60" x="-250" style="text-anchor: middle; font-size: 14px;">y</text><path fill="none" stroke="#1f77b4" stroke-width="2" style="shape-rendering: geometricPrecision;" d="M0,0L6.8,24.551L13.6,47.904L20.4,70.118L27.2,91.249L34,111.35L40.8,130.47L47.6,148.658L54.4,165.958L61.2,182.415L68,198.069L74.8,212.96L81.6,227.125L88.4,240.598L95.2,253.415L102,265.606L108.8,277.203L115.6,288.235L122.4,298.728L129.2,308.71L136,318.204L142.8,327.236L149.6,335.827L156.4,343.999L163.2,351.773L170,359.168L176.8,366.202L183.6,372.892L190.4,379.257L197.2,385.311L204,391.07L210.8,396.548L217.6,401.759L224.4,406.715L231.2,411.43L238,415.915L244.8,420.182L251.6,424.24L258.4,428.1L265.2,431.772L272,435.265L278.8,438.588L285.6,441.748L292.4,444.755L299.2,447.614L306,450.335L312.8,452.922L319.6,455.384L326.4,457.725L333.2,459.952L340,462.071L346.8,464.086L353.6,466.003L360.4,467.827L367.2,469.561L374,471.211L380.8,472.781L387.6,474.273L394.4,475.694L401.2,477.044L408,478.329L414.8,479.552L421.6,480.714L428.4,481.82L435.2,482.872L442,483.873L448.8,484.825L455.6,485.731L462.4,486.592L469.2,487.411L476,488.191L482.8,488.932L489.6,489.637L496.4,490.308L503.2,490.946L510,491.553L516.8,492.131L523.6,492.68L530.4,493.202L537.2,493.699L544,494.172L550.8,494.622L557.6,495.049L564.4,495.456L571.2,495.843L578,496.211L584.8,496.562L591.6,496.895L598.4,497.212L605.2,497.513L612,497.8L618.8,498.072L625.6,498.332L632.4,498.579L639.2,498.813L646,499.037L652.8,499.249L659.6,499.451L666.4,499.643L673.2,499.826L680,500"></path></g><text x="400" y="25" style="text-anchor: middle; font-size: 16px; font-weight: bold;">Exponential Decay</text></svg>