<svg width="800" height="600" xmlns="http://www.w3.org/2000/svg"><g transform="translate(80,40)"><g transform="translate(0,500)" fill="none" font-size="10" font-family="sans-serif" text-anchor="middle"><path class="domain" stroke="currentColor" d="M0.5,6V0.5H680.5V6"></path><g class="tick" opacity="1" transform="translate(0.5,0)"><line stroke="currentColor" y2="6"></line><text fill="currentColor" y="9" dy="0.71em">0.0</text></g><g class="tick" opacity="1" transform="translate(45.83333333333341,0)"><line stroke="currentColor" y2="6"></line><text fill="currentColor" y="9" dy="0.71em">0.2</text></g><g class="tick" opacity="1" transform="translate(91.16666666666681,0)"><line stroke="currentColor" y2="6"></line><text fill="currentColor" y="9" dy="0.71em">0.4</text></g><g class="tick" opacity="1" transform="translate(136.50000000000023,0)"><line stroke="currentColor" y2="6"></line><text fill="currentColor" y="9" dy="0.71em">0.6</text></g><g class="tick" opacity="1" transform="translate(181.83333333333363,0)"><line stroke="currentColor" y2="6"></line><text fill="currentColor" y="9" dy="0.71em">0.8</text></g><g class="tick" opacity="1" transform="translate(227.16666666666703,0)"><line stroke="currentColor" y2="6"></line><text fill="currentColor" y="9" dy="0.71em">1.0</text></g><g class="tick" opacity="1" transform="translate(272.50000000000045,0)"><line stroke="currentColor" y2="6"></line><text fill="currentColor" y="9" dy="0.71em">1.2</text></g><g class="tick" opacity="1" transform="translate(317.8333333333338,0)"><line stroke="currentColor" y2="6"></line><text fill="currentColor" y="9" dy="0.71em">1.4</text></g><g class="tick" opacity="1" transform="translate(363.16666666666725,0)"><line stroke="currentColor" y2="6"></line><text fill="currentColor" y="9" dy="0.71em">1.6</text></g><g class="tick" opacity="1" transform="translate(408.5000000000007,0)"><line stroke="currentColor" y2="6"></line><text fill="currentColor" y="9" dy="0.71em">1.8</text></g><g class="tick" opacity="1" transform="translate(453.83333333333405,0)"><line stroke="currentColor" y2="6"></line><text fill="currentColor" y="9" dy="0.71em">2.0</text></g><g class="tick" opacity="1" transform="translate(499.16666666666754,0)"><line stroke="currentColor" y2="6"></line><text fill="currentColor" y="9" dy="0.71em">2.2</text></g><g class="tick" opacity="1" transform="translate(544.5000000000009,0)"><line stroke="currentColor" y2="6"></line><text fill="currentColor" y="9" dy="0.71em">2.4</text></g><g class="tick" opacity="1" transform="translate(589.8333333333343,0)"><line stroke="currentColor" y2="6"></line><text fill="currentColor" y="9" dy="0.71em">2.6</text></g><g class="tick" opacity="1" transform="translate(635.1666666666677,0)"><line stroke="currentColor" y2="6"></line><text fill="currentColor" y="9" dy="0.71em">2.8</text></g></g><g fill="none" font-size="10" font-family="sans-serif" text-anchor="end"><path class="domain" stroke="currentColor" d="M-6,500.5H0.5V0.5H-6"></path><g class="tick" opacity="1" transform="translate(0,474.3021517543719)"><line stroke="currentColor" x2="-6"></line><text fill="currentColor" x="-9" dy="0.32em">2</text></g><g class="tick" opacity="1" transform="translate(0,421.9064552631157)"><line stroke="currentColor" x2="-6"></line><text fill="currentColor" x="-9" dy="0.32em">4</text></g><g class="tick" opacity="1" transform="translate(0,369.5107587718594)"><line stroke="currentColor" x2="-6"></line><text fill="currentColor" x="-9" dy="0.32em">6</text></g><g class="tick" opacity="1" transform="translate(0,317.1150622806032)"><line stroke="currentColor" x2="-6"></line><text fill="currentColor" x="-9" dy="0.32em">8</text></g><g class="tick" opacity="1" transform="translate(0,264.719365789347)"><line stroke="currentColor" x2="-6"></line><text fill="currentColor" x="-9" dy="0.32em">10</text></g><g class="tick" opacity="1" transform="translate(0,212.32366929809078)"><line stroke="currentColor" x2="-6"></line><text fill="currentColor" x="-9" dy="0.32em">12</text></g><g class="tick" opacity="1" transform="translate(0,159.9279728068345)"><line stroke="currentColor" x2="-6"></line><text fill="currentColor" x="-9" dy="0.32em">14</text></g><g class="tick" opacity="1" transform="translate(0,107.53227631557833)"><line stroke="currentColor" x2="-6"></line><text fill="currentColor" x="-9" dy="0.32em">16</text></g><g class="tick" opacity="1" transform="translate(0,55.13657982432208)"><line stroke="currentColor" x2="-6"></line><text fill="currentColor" x="-9" dy="0.32em">18</text></g><g class="tick" opacity="1" transform="translate(0,2.7408833330658795)"><line stroke="currentColor" x2="-6"></line><text fill="currentColor" x="-9" dy="0.32em">20</text></g></g><text transform="translate(340, 540)" style="text-anchor: middle; font-size: 14px;">x</text><text transform="rotate(-90)" y="-60" x="-250" style="text-anchor: middle; font-size: 14px;">y</text><path fill="none" stroke="#1f77b4" stroke-width="2" style="shape-rendering: geometricPrecision;" d="M0,500L6.8,499.202L13.6,498.38L20.4,497.533L27.2,496.66L34,495.76L40.8,494.833L47.6,493.878L54.4,492.894L61.2,491.88L68,490.834L74.8,489.757L81.6,488.648L88.4,487.504L95.2,486.326L102,485.111L108.8,483.86L115.6,482.571L122.4,481.242L129.2,479.873L136,478.462L142.8,477.008L149.6,475.51L156.4,473.967L163.2,472.376L170,470.737L176.8,469.048L183.6,467.307L190.4,465.514L197.2,463.666L204,461.762L210.8,459.799L217.6,457.777L224.4,455.693L231.2,453.546L238,451.334L244.8,449.054L251.6,446.704L258.4,444.283L265.2,441.789L272,439.218L278.8,436.569L285.6,433.839L292.4,431.027L299.2,428.128L306,425.142L312.8,422.064L319.6,418.893L326.4,415.625L333.2,412.257L340,408.787L346.8,405.212L353.6,401.527L360.4,397.73L367.2,393.818L374,389.786L380.8,385.632L387.6,381.351L394.4,376.94L401.2,372.394L408,367.71L414.8,362.883L421.6,357.91L428.4,352.785L435.2,347.503L442,342.061L448.8,336.454L455.6,330.675L462.4,324.72L469.2,318.585L476,312.262L482.8,305.746L489.6,299.033L496.4,292.114L503.2,284.986L510,277.64L516.8,270.07L523.6,262.27L530.4,254.232L537.2,245.949L544,237.414L550.8,228.62L557.6,219.557L564.4,210.218L571.2,200.595L578,190.679L584.8,180.461L591.6,169.932L598.4,159.082L605.2,147.902L612,136.381L618.8,124.509L625.6,112.276L632.4,99.67L639.2,86.68L646,73.295L652.8,59.502L659.6,45.289L666.4,30.643L673.2,15.551L680,0"></path></g><text x="400" y="25" style="text-anchor: middle; font-size: 16px; font-weight: bold;">Exponential Growth</text></svg>