<svg width="800" height="600" xmlns="http://www.w3.org/2000/svg"><g transform="translate(80,40)"><g transform="translate(0,500)" fill="none" font-size="10" font-family="sans-serif" text-anchor="middle"><path class="domain" stroke="currentColor" d="M0.5,6V0.5H680.5V6"></path><g class="tick" opacity="1" transform="translate(0.5,0)"><line stroke="currentColor" y2="6"></line><text fill="currentColor" y="9" dy="0.71em">0.0</text></g><g class="tick" opacity="1" transform="translate(45.83333333333341,0)"><line stroke="currentColor" y2="6"></line><text fill="currentColor" y="9" dy="0.71em">0.2</text></g><g class="tick" opacity="1" transform="translate(91.16666666666681,0)"><line stroke="currentColor" y2="6"></line><text fill="currentColor" y="9" dy="0.71em">0.4</text></g><g class="tick" opacity="1" transform="translate(136.50000000000023,0)"><line stroke="currentColor" y2="6"></line><text fill="currentColor" y="9" dy="0.71em">0.6</text></g><g class="tick" opacity="1" transform="translate(181.83333333333363,0)"><line stroke="currentColor" y2="6"></line><text fill="currentColor" y="9" dy="0.71em">0.8</text></g><g class="tick" opacity="1" transform="translate(227.16666666666703,0)"><line stroke="currentColor" y2="6"></line><text fill="currentColor" y="9" dy="0.71em">1.0</text></g><g class="tick" opacity="1" transform="translate(272.50000000000045,0)"><line stroke="currentColor" y2="6"></line><text fill="currentColor" y="9" dy="0.71em">1.2</text></g><g class="tick" opacity="1" transform="translate(317.8333333333338,0)"><line stroke="currentColor" y2="6"></line><text fill="currentColor" y="9" dy="0.71em">1.4</text></g><g class="tick" opacity="1" transform="translate(363.16666666666725,0)"><line stroke="currentColor" y2="6"></line><text fill="currentColor" y="9" dy="0.71em">1.6</text></g><g class="tick" opacity="1" transform="translate(408.5000000000007,0)"><line stroke="currentColor" y2="6"></line><text fill="currentColor" y="9" dy="0.71em">1.8</text></g><g class="tick" opacity="1" transform="translate(453.83333333333405,0)"><line stroke="currentColor" y2="6"></line><text fill="currentColor" y="9" dy="0.71em">2.0</text></g><g class="tick" opacity="1" transform="translate(499.16666666666754,0)"><line stroke="currentColor" y2="6"></line><text fill="currentColor" y="9" dy="0.71em">2.2</text></g><g class="tick" opacity="1" transform="translate(544.5000000000009,0)"><line stroke="currentColor" y2="6"></line><text fill="currentColor" y="9" dy="0.71em">2.4</text></g><g class="tick" opacity="1" transform="translate(589.8333333333343,0)"><line stroke="currentColor" y2="6"></line><text fill="currentColor" y="9" dy="0.71em">2.6</text></g><g class="tick" opacity="1" transform="translate(635.1666666666677,0)"><line stroke="currentColor" y2="6"></line><text fill="currentColor" y="9" dy="0.71em">2.8</text></g></g><g fill="none" font-size="10" font-family="sans-serif" text-anchor="end"><path class="domain" stroke="currentColor" d="M-6,500.5H0.5V0.5H-6"></path><g class="tick" opacity="1" transform="translate(0,451.8316709940107)"><line stroke="currentColor" x2="-6"></line><text fill="currentColor" x="-9" dy="0.32em">2</text></g><g class="tick" opacity="1" transform="translate(0,401.9208861595991)"><line stroke="currentColor" x2="-6"></line><text fill="currentColor" x="-9" dy="0.32em">4</text></g><g class="tick" opacity="1" transform="translate(0,352.01010132518746)"><line stroke="currentColor" x2="-6"></line><text fill="currentColor" x="-9" dy="0.32em">6</text></g><g class="tick" opacity="1" transform="translate(0,302.0993164907759)"><line stroke="currentColor" x2="-6"></line><text fill="currentColor" x="-9" dy="0.32em">8</text></g><g class="tick" opacity="1" transform="translate(0,252.1885316563643)"><line stroke="currentColor" x2="-6"></line><text fill="currentColor" x="-9" dy="0.32em">10</text></g><g class="tick" opacity="1" transform="translate(0,202.27774682195266)"><line stroke="currentColor" x2="-6"></line><text fill="currentColor" x="-9" dy="0.32em">12</text></g><g class="tick" opacity="1" transform="translate(0,152.366961987541)"><line stroke="currentColor" x2="-6"></line><text fill="currentColor" x="-9" dy="0.32em">14</text></g><g class="tick" opacity="1" transform="translate(0,102.45617715312943)"><line stroke="currentColor" x2="-6"></line><text fill="currentColor" x="-9" dy="0.32em">16</text></g><g class="tick" opacity="1" transform="translate(0,52.545392318717795)"><line stroke="currentColor" x2="-6"></line><text fill="currentColor" x="-9" dy="0.32em">18</text></g><g class="tick" opacity="1" transform="translate(0,2.6346074843061613)"><line stroke="currentColor" x2="-6"></line><text fill="currentColor" x="-9" dy="0.32em">20</text></g></g><text transform="translate(340, 540)" style="text-anchor: middle; font-size: 14px;">x</text><text transform="rotate(-90)" y="-60" x="-250" style="text-anchor: middle; font-size: 14px;">y</text><path fill="none" stroke="#1f77b4" stroke-width="2" style="shape-rendering: geometricPrecision;" d="M0,476.287L6.8,475.527L13.6,474.744L20.4,473.937L27.2,473.105L34,472.248L40.8,471.365L47.6,470.456L54.4,469.518L61.2,468.552L68,467.556L74.8,466.53L81.6,465.473L88.4,464.384L95.2,463.261L102,462.105L108.8,460.913L115.6,459.684L122.4,458.419L129.2,457.115L136,455.771L142.8,454.386L149.6,452.959L156.4,451.489L163.2,449.973L170,448.412L176.8,446.803L183.6,445.145L190.4,443.437L197.2,441.676L204,439.862L210.8,437.993L217.6,436.067L224.4,434.082L231.2,432.036L238,429.929L244.8,427.757L251.6,425.519L258.4,423.213L265.2,420.836L272,418.388L278.8,415.864L285.6,413.264L292.4,410.585L299.2,407.824L306,404.979L312.8,402.047L319.6,399.026L326.4,395.913L333.2,392.706L340,389.4L346.8,385.994L353.6,382.484L360.4,378.867L367.2,375.141L374,371.3L380.8,367.343L387.6,363.265L394.4,359.063L401.2,354.733L408,350.271L414.8,345.673L421.6,340.936L428.4,336.054L435.2,331.023L442,325.839L448.8,320.497L455.6,314.992L462.4,309.32L469.2,303.475L476,297.452L482.8,291.246L489.6,284.851L496.4,278.261L503.2,271.47L510,264.472L516.8,257.262L523.6,249.831L530.4,242.175L537.2,234.285L544,226.155L550.8,217.777L557.6,209.144L564.4,200.249L571.2,191.082L578,181.636L584.8,171.903L591.6,161.873L598.4,151.537L605.2,140.887L612,129.913L618.8,118.604L625.6,106.951L632.4,94.943L639.2,82.57L646,69.819L652.8,56.68L659.6,43.141L666.4,29.19L673.2,14.814L680,0"></path><path fill="none" stroke="#ff7f0e" stroke-width="2" style="shape-rendering: geometricPrecision;" d="M0,476.287L6.8,477.025L13.6,477.74L20.4,478.435L27.2,479.109L34,479.763L40.8,480.398L47.6,481.014L54.4,481.612L61.2,482.192L68,482.755L74.8,483.301L81.6,483.832L88.4,484.346L95.2,484.846L102,485.33L108.8,485.8L115.6,486.257L122.4,486.7L129.2,487.13L136,487.547L142.8,487.951L149.6,488.344L156.4,488.725L163.2,489.095L170,489.454L176.8,489.803L183.6,490.141L190.4,490.469L197.2,490.787L204,491.096L210.8,491.396L217.6,491.687L224.4,491.97L231.2,492.244L238,492.51L244.8,492.768L251.6,493.018L258.4,493.261L265.2,493.497L272,493.726L278.8,493.948L285.6,494.164L292.4,494.373L299.2,494.576L306,494.773L312.8,494.964L319.6,495.15L326.4,495.33L333.2,495.505L340,495.674L346.8,495.839L353.6,495.998L360.4,496.153L367.2,496.304L374,496.45L380.8,496.591L387.6,496.729L394.4,496.862L401.2,496.992L408,497.117L414.8,497.239L421.6,497.358L428.4,497.472L435.2,497.584L442,497.692L448.8,497.797L455.6,497.899L462.4,497.998L469.2,498.093L476,498.187L482.8,498.277L489.6,498.364L496.4,498.45L503.2,498.532L510,498.612L516.8,498.69L523.6,498.765L530.4,498.839L537.2,498.91L544,498.979L550.8,499.045L557.6,499.11L564.4,499.173L571.2,499.235L578,499.294L584.8,499.351L591.6,499.407L598.4,499.462L605.2,499.514L612,499.565L618.8,499.615L625.6,499.663L632.4,499.71L639.2,499.755L646,499.799L652.8,499.842L659.6,499.883L666.4,499.923L673.2,499.962L680,500"></path></g><text x="400" y="25" style="text-anchor: middle; font-size: 16px; font-weight: bold;">Exponential Family</text><g class="legend"><rect x="570" y="50" width="200" height="60" fill="white" stroke="#ccc" stroke-width="1" style="opacity: 0.9;"></rect><g transform="translate(580, 60)"><line x1="0" x2="20" y1="0" y2="0" stroke="#1f77b4" stroke-width="2"></line><text x="25" y="0" dy="0.35em" style="font-size: 12px; font-family: sans-serif;">Growth</text></g><g transform="translate(580, 80)"><line x1="0" x2="20" y1="0" y2="0" stroke="#ff7f0e" stroke-width="2"></line><text x="25" y="0" dy="0.35em" style="font-size: 12px; font-family: sans-serif;">Decay</text></g></g></svg>