<svg width="800" height="600" xmlns="http://www.w3.org/2000/svg"><g transform="translate(80,40)"><g transform="translate(0,500)" fill="none" font-size="10" font-family="sans-serif" text-anchor="middle"><path class="domain" stroke="currentColor" d="M0.5,6V0.5H680.5V6"></path><g class="tick" opacity="1" transform="translate(0.5,0)"><line stroke="currentColor" y2="6"></line><text fill="currentColor" y="9" dy="0.71em">−3.0</text></g><g class="tick" opacity="1" transform="translate(57.166666666666664,0)"><line stroke="currentColor" y2="6"></line><text fill="currentColor" y="9" dy="0.71em">−2.5</text></g><g class="tick" opacity="1" transform="translate(113.83333333333333,0)"><line stroke="currentColor" y2="6"></line><text fill="currentColor" y="9" dy="0.71em">−2.0</text></g><g class="tick" opacity="1" transform="translate(170.5,0)"><line stroke="currentColor" y2="6"></line><text fill="currentColor" y="9" dy="0.71em">−1.5</text></g><g class="tick" opacity="1" transform="translate(227.16666666666666,0)"><line stroke="currentColor" y2="6"></line><text fill="currentColor" y="9" dy="0.71em">−1.0</text></g><g class="tick" opacity="1" transform="translate(283.83333333333337,0)"><line stroke="currentColor" y2="6"></line><text fill="currentColor" y="9" dy="0.71em">−0.5</text></g><g class="tick" opacity="1" transform="translate(340.5,0)"><line stroke="currentColor" y2="6"></line><text fill="currentColor" y="9" dy="0.71em">0.0</text></g><g class="tick" opacity="1" transform="translate(397.1666666666667,0)"><line stroke="currentColor" y2="6"></line><text fill="currentColor" y="9" dy="0.71em">0.5</text></g><g class="tick" opacity="1" transform="translate(453.8333333333333,0)"><line stroke="currentColor" y2="6"></line><text fill="currentColor" y="9" dy="0.71em">1.0</text></g><g class="tick" opacity="1" transform="translate(510.5,0)"><line stroke="currentColor" y2="6"></line><text fill="currentColor" y="9" dy="0.71em">1.5</text></g><g class="tick" opacity="1" transform="translate(567.1666666666667,0)"><line stroke="currentColor" y2="6"></line><text fill="currentColor" y="9" dy="0.71em">2.0</text></g><g class="tick" opacity="1" transform="translate(623.8333333333333,0)"><line stroke="currentColor" y2="6"></line><text fill="currentColor" y="9" dy="0.71em">2.5</text></g><g class="tick" opacity="1" transform="translate(680.5,0)"><line stroke="currentColor" y2="6"></line><text fill="currentColor" y="9" dy="0.71em">3.0</text></g></g><g fill="none" font-size="10" font-family="sans-serif" text-anchor="end"><path class="domain" stroke="currentColor" d="M-6,500.5H0.5V0.5H-6"></path><g class="tick" opacity="1" transform="translate(0,500.5)"><line stroke="currentColor" x2="-6"></line><text fill="currentColor" x="-9" dy="0.32em">−3.0</text></g><g class="tick" opacity="1" transform="translate(0,458.8333333333333)"><line stroke="currentColor" x2="-6"></line><text fill="currentColor" x="-9" dy="0.32em">−2.5</text></g><g class="tick" opacity="1" transform="translate(0,417.1666666666667)"><line stroke="currentColor" x2="-6"></line><text fill="currentColor" x="-9" dy="0.32em">−2.0</text></g><g class="tick" opacity="1" transform="translate(0,375.5)"><line stroke="currentColor" x2="-6"></line><text fill="currentColor" x="-9" dy="0.32em">−1.5</text></g><g class="tick" opacity="1" transform="translate(0,333.83333333333337)"><line stroke="currentColor" x2="-6"></line><text fill="currentColor" x="-9" dy="0.32em">−1.0</text></g><g class="tick" opacity="1" transform="translate(0,292.16666666666663)"><line stroke="currentColor" x2="-6"></line><text fill="currentColor" x="-9" dy="0.32em">−0.5</text></g><g class="tick" opacity="1" transform="translate(0,250.5)"><line stroke="currentColor" x2="-6"></line><text fill="currentColor" x="-9" dy="0.32em">0.0</text></g><g class="tick" opacity="1" transform="translate(0,208.83333333333331)"><line stroke="currentColor" x2="-6"></line><text fill="currentColor" x="-9" dy="0.32em">0.5</text></g><g class="tick" opacity="1" transform="translate(0,167.16666666666669)"><line stroke="currentColor" x2="-6"></line><text fill="currentColor" x="-9" dy="0.32em">1.0</text></g><g class="tick" opacity="1" transform="translate(0,125.5)"><line stroke="currentColor" x2="-6"></line><text fill="currentColor" x="-9" dy="0.32em">1.5</text></g><g class="tick" opacity="1" transform="translate(0,83.83333333333331)"><line stroke="currentColor" x2="-6"></line><text fill="currentColor" x="-9" dy="0.32em">2.0</text></g><g class="tick" opacity="1" transform="translate(0,42.166666666666686)"><line stroke="currentColor" x2="-6"></line><text fill="currentColor" x="-9" dy="0.32em">2.5</text></g><g class="tick" opacity="1" transform="translate(0,0.5)"><line stroke="currentColor" x2="-6"></line><text fill="currentColor" x="-9" dy="0.32em">3.0</text></g></g><text transform="translate(340, 540)" style="text-anchor: middle; font-size: 14px;">x</text><text transform="rotate(-90)" y="-60" x="-250" style="text-anchor: middle; font-size: 14px;">y</text><path fill="none" stroke="#1f77b4" stroke-width="2" style="shape-rendering: geometricPrecision;" d="M680,250L665.338,234.95L625.128,223.515L569.642,217.789L512.807,217.376L468.372,219.331L446.206,219.081L449.748,212.027L475.324,195.298L513.45,169.063L551.711,136.899L578.307,105.041L585.254,80.655L570.309,69.666L537.144,74.774L493.817,94.331L450.075,122.463L414.395,150.497L391.644,169.303L382.05,171.908L381.711,155.609L384.369,122.936L383.807,81.146L376.02,40.347L360.469,10.781L340,0L319.531,10.781L303.98,40.347L296.193,81.146L295.631,122.936L298.289,155.609L297.95,171.908L288.356,169.303L265.605,150.497L229.925,122.463L186.183,94.331L142.856,74.774L109.691,69.666L94.746,80.655L101.693,105.041L128.289,136.899L166.55,169.063L204.676,195.298L230.252,212.027L233.794,219.081L211.628,219.331L167.193,217.376L110.358,217.789L54.872,223.515L14.662,234.95L0,250L14.662,265.05L54.872,276.485L110.358,282.211L167.193,282.624L211.628,280.669L233.794,280.919L230.252,287.973L204.676,304.702L166.55,330.937L128.289,363.101L101.693,394.959L94.746,419.345L109.691,430.334L142.856,425.226L186.183,405.669L229.925,377.537L265.605,349.503L288.356,330.697L297.95,328.092L298.289,344.391L295.631,377.064L296.193,418.854L303.98,459.653L319.531,489.219L340,500L360.469,489.219L376.02,459.653L383.807,418.854L384.369,377.064L381.711,344.391L382.05,328.092L391.644,330.697L414.395,349.503L450.075,377.537L493.817,405.669L537.144,425.226L570.309,430.334L585.254,419.345L578.307,394.959L551.711,363.101L513.45,330.937L475.324,304.702L449.748,287.973L446.206,280.919L468.372,280.669L512.807,282.624L569.642,282.211L625.128,276.485L665.338,265.05L680,250"></path></g><text x="400" y="25" style="text-anchor: middle; font-size: 16px; font-weight: bold;">Mathematical Flower</text></svg>