<svg width="800" height="600" xmlns="http://www.w3.org/2000/svg"><g transform="translate(80,40)"><g transform="translate(0,500)" fill="none" font-size="10" font-family="sans-serif" text-anchor="middle"><path class="domain" stroke="currentColor" d="M0.5,6V0.5H680.5V6"></path><g class="tick" opacity="1" transform="translate(0.5,0)"><line stroke="currentColor" y2="6"></line><text fill="currentColor" y="9" dy="0.71em">0</text></g><g class="tick" opacity="1" transform="translate(54.612680651244496,0)"><line stroke="currentColor" y2="6"></line><text fill="currentColor" y="9" dy="0.71em">1</text></g><g class="tick" opacity="1" transform="translate(108.72536130248899,0)"><line stroke="currentColor" y2="6"></line><text fill="currentColor" y="9" dy="0.71em">2</text></g><g class="tick" opacity="1" transform="translate(162.83804195373347,0)"><line stroke="currentColor" y2="6"></line><text fill="currentColor" y="9" dy="0.71em">3</text></g><g class="tick" opacity="1" transform="translate(216.95072260497798,0)"><line stroke="currentColor" y2="6"></line><text fill="currentColor" y="9" dy="0.71em">4</text></g><g class="tick" opacity="1" transform="translate(271.0634032562225,0)"><line stroke="currentColor" y2="6"></line><text fill="currentColor" y="9" dy="0.71em">5</text></g><g class="tick" opacity="1" transform="translate(325.17608390746693,0)"><line stroke="currentColor" y2="6"></line><text fill="currentColor" y="9" dy="0.71em">6</text></g><g class="tick" opacity="1" transform="translate(379.2887645587115,0)"><line stroke="currentColor" y2="6"></line><text fill="currentColor" y="9" dy="0.71em">7</text></g><g class="tick" opacity="1" transform="translate(433.40144520995597,0)"><line stroke="currentColor" y2="6"></line><text fill="currentColor" y="9" dy="0.71em">8</text></g><g class="tick" opacity="1" transform="translate(487.5141258612004,0)"><line stroke="currentColor" y2="6"></line><text fill="currentColor" y="9" dy="0.71em">9</text></g><g class="tick" opacity="1" transform="translate(541.626806512445,0)"><line stroke="currentColor" y2="6"></line><text fill="currentColor" y="9" dy="0.71em">10</text></g><g class="tick" opacity="1" transform="translate(595.7394871636894,0)"><line stroke="currentColor" y2="6"></line><text fill="currentColor" y="9" dy="0.71em">11</text></g><g class="tick" opacity="1" transform="translate(649.8521678149339,0)"><line stroke="currentColor" y2="6"></line><text fill="currentColor" y="9" dy="0.71em">12</text></g></g><g fill="none" font-size="10" font-family="sans-serif" text-anchor="end"><path class="domain" stroke="currentColor" d="M-6,500.5H0.5V0.5H-6"></path><g class="tick" opacity="1" transform="translate(0,465.83930176299526)"><line stroke="currentColor" x2="-6"></line><text fill="currentColor" x="-9" dy="0.32em">−0.8</text></g><g class="tick" opacity="1" transform="translate(0,412.00447632224643)"><line stroke="currentColor" x2="-6"></line><text fill="currentColor" x="-9" dy="0.32em">−0.6</text></g><g class="tick" opacity="1" transform="translate(0,358.1696508814975)"><line stroke="currentColor" x2="-6"></line><text fill="currentColor" x="-9" dy="0.32em">−0.4</text></g><g class="tick" opacity="1" transform="translate(0,304.33482544074866)"><line stroke="currentColor" x2="-6"></line><text fill="currentColor" x="-9" dy="0.32em">−0.2</text></g><g class="tick" opacity="1" transform="translate(0,250.49999999999977)"><line stroke="currentColor" x2="-6"></line><text fill="currentColor" x="-9" dy="0.32em">0.0</text></g><g class="tick" opacity="1" transform="translate(0,196.66517455925091)"><line stroke="currentColor" x2="-6"></line><text fill="currentColor" x="-9" dy="0.32em">0.2</text></g><g class="tick" opacity="1" transform="translate(0,142.83034911850194)"><line stroke="currentColor" x2="-6"></line><text fill="currentColor" x="-9" dy="0.32em">0.4</text></g><g class="tick" opacity="1" transform="translate(0,88.99552367775316)"><line stroke="currentColor" x2="-6"></line><text fill="currentColor" x="-9" dy="0.32em">0.6</text></g><g class="tick" opacity="1" transform="translate(0,35.16069823700424)"><line stroke="currentColor" x2="-6"></line><text fill="currentColor" x="-9" dy="0.32em">0.8</text></g></g><text transform="translate(340, 540)" style="text-anchor: middle; font-size: 14px;">x</text><text transform="rotate(-90)" y="-60" x="-250" style="text-anchor: middle; font-size: 14px;">y</text><path fill="none" stroke="#1f77b4" stroke-width="2" style="shape-rendering: geometricPrecision;" d="M0,250L6.8,121.961L13.6,32.666L20.4,0L27.2,13.289L34,43.022L40.8,60.714L47.6,55.392L54.4,36.36L61.2,22.023L68,24.137L74.8,39.27L81.6,53.086L88.4,53.086L95.2,39.27L102,24.137L108.8,22.023L115.6,36.36L122.4,55.392L129.2,60.714L136,43.022L142.8,13.289L149.6,0L156.4,32.666L163.2,121.961L170,250L176.8,378.039L183.6,467.334L190.4,500L197.2,486.711L204,456.978L210.8,439.286L217.6,444.608L224.4,463.64L231.2,477.977L238,475.863L244.8,460.73L251.6,446.914L258.4,446.914L265.2,460.73L272,475.863L278.8,477.977L285.6,463.64L292.4,444.608L299.2,439.286L306,456.978L312.8,486.711L319.6,500L326.4,467.334L333.2,378.039L340,250L346.8,121.961L353.6,32.666L360.4,0L367.2,13.289L374,43.022L380.8,60.714L387.6,55.392L394.4,36.36L401.2,22.023L408,24.137L414.8,39.27L421.6,53.086L428.4,53.086L435.2,39.27L442,24.137L448.8,22.023L455.6,36.36L462.4,55.392L469.2,60.714L476,43.022L482.8,13.289L489.6,0L496.4,32.666L503.2,121.961L510,250L516.8,378.039L523.6,467.334L530.4,500L537.2,486.711L544,456.978L550.8,439.286L557.6,444.608L564.4,463.64L571.2,477.977L578,475.863L584.8,460.73L591.6,446.914L598.4,446.914L605.2,460.73L612,475.863L618.8,477.977L625.6,463.64L632.4,444.608L639.2,439.286L646,456.978L652.8,486.711L659.6,500L666.4,467.334L673.2,378.039L680,250"></path></g><text x="400" y="25" style="text-anchor: middle; font-size: 16px; font-weight: bold;">Square Wave Fourier Approximation</text></svg>