<svg width="800" height="600" xmlns="http://www.w3.org/2000/svg"><g transform="translate(80,40)"><g transform="translate(0,500)" fill="none" font-size="10" font-family="sans-serif" text-anchor="middle"><path class="domain" stroke="currentColor" d="M0.5,6V0.5H680.5V6"></path><g class="tick" opacity="1" transform="translate(15.9787031237712,0)"><line stroke="currentColor" y2="6"></line><text fill="currentColor" y="9" dy="0.71em">−3.0</text></g><g class="tick" opacity="1" transform="translate(70.63797650886652,0)"><line stroke="currentColor" y2="6"></line><text fill="currentColor" y="9" dy="0.71em">−2.5</text></g><g class="tick" opacity="1" transform="translate(125.29724989396185,0)"><line stroke="currentColor" y2="6"></line><text fill="currentColor" y="9" dy="0.71em">−2.0</text></g><g class="tick" opacity="1" transform="translate(179.95652327905717,0)"><line stroke="currentColor" y2="6"></line><text fill="currentColor" y="9" dy="0.71em">−1.5</text></g><g class="tick" opacity="1" transform="translate(234.61579666415247,0)"><line stroke="currentColor" y2="6"></line><text fill="currentColor" y="9" dy="0.71em">−1.0</text></g><g class="tick" opacity="1" transform="translate(289.2750700492478,0)"><line stroke="currentColor" y2="6"></line><text fill="currentColor" y="9" dy="0.71em">−0.5</text></g><g class="tick" opacity="1" transform="translate(343.93434343434313,0)"><line stroke="currentColor" y2="6"></line><text fill="currentColor" y="9" dy="0.71em">0.0</text></g><g class="tick" opacity="1" transform="translate(398.59361681943847,0)"><line stroke="currentColor" y2="6"></line><text fill="currentColor" y="9" dy="0.71em">0.5</text></g><g class="tick" opacity="1" transform="translate(453.2528902045338,0)"><line stroke="currentColor" y2="6"></line><text fill="currentColor" y="9" dy="0.71em">1.0</text></g><g class="tick" opacity="1" transform="translate(507.9121635896291,0)"><line stroke="currentColor" y2="6"></line><text fill="currentColor" y="9" dy="0.71em">1.5</text></g><g class="tick" opacity="1" transform="translate(562.5714369747244,0)"><line stroke="currentColor" y2="6"></line><text fill="currentColor" y="9" dy="0.71em">2.0</text></g><g class="tick" opacity="1" transform="translate(617.2307103598197,0)"><line stroke="currentColor" y2="6"></line><text fill="currentColor" y="9" dy="0.71em">2.5</text></g><g class="tick" opacity="1" transform="translate(671.889983744915,0)"><line stroke="currentColor" y2="6"></line><text fill="currentColor" y="9" dy="0.71em">3.0</text></g></g><g fill="none" font-size="10" font-family="sans-serif" text-anchor="end"><path class="domain" stroke="currentColor" d="M-6,500.5H0.5V0.5H-6"></path><g class="tick" opacity="1" transform="translate(0,465.8393017629959)"><line stroke="currentColor" x2="-6"></line><text fill="currentColor" x="-9" dy="0.32em">−0.8</text></g><g class="tick" opacity="1" transform="translate(0,412.0044763222469)"><line stroke="currentColor" x2="-6"></line><text fill="currentColor" x="-9" dy="0.32em">−0.6</text></g><g class="tick" opacity="1" transform="translate(0,358.16965088149794)"><line stroke="currentColor" x2="-6"></line><text fill="currentColor" x="-9" dy="0.32em">−0.4</text></g><g class="tick" opacity="1" transform="translate(0,304.334825440749)"><line stroke="currentColor" x2="-6"></line><text fill="currentColor" x="-9" dy="0.32em">−0.2</text></g><g class="tick" opacity="1" transform="translate(0,250.50000000000006)"><line stroke="currentColor" x2="-6"></line><text fill="currentColor" x="-9" dy="0.32em">0.0</text></g><g class="tick" opacity="1" transform="translate(0,196.66517455925114)"><line stroke="currentColor" x2="-6"></line><text fill="currentColor" x="-9" dy="0.32em">0.2</text></g><g class="tick" opacity="1" transform="translate(0,142.83034911850217)"><line stroke="currentColor" x2="-6"></line><text fill="currentColor" x="-9" dy="0.32em">0.4</text></g><g class="tick" opacity="1" transform="translate(0,88.99552367775316)"><line stroke="currentColor" x2="-6"></line><text fill="currentColor" x="-9" dy="0.32em">0.6</text></g><g class="tick" opacity="1" transform="translate(0,35.16069823700424)"><line stroke="currentColor" x2="-6"></line><text fill="currentColor" x="-9" dy="0.32em">0.8</text></g></g><text transform="translate(340, 540)" style="text-anchor: middle; font-size: 14px;">x</text><text transform="rotate(-90)" y="-60" x="-250" style="text-anchor: middle; font-size: 14px;">y</text><path fill="none" stroke="#1f77b4" stroke-width="2" style="shape-rendering: geometricPrecision;" d="M0,250L6.869,316.723L13.737,378.039L20.606,429.314L27.475,467.334L34.343,490.713L41.212,500L48.081,497.482L54.949,486.711L61.818,471.852L68.687,456.978L75.556,445.418L82.424,439.286L89.293,439.255L96.162,444.608L103.03,453.541L109.899,463.64L116.768,472.445L123.636,477.977L130.505,479.13L137.374,475.863L144.242,469.152L151.111,460.73L157.98,452.67L164.848,446.914L171.717,444.831L178.586,446.914L185.455,452.67L192.323,460.73L199.192,469.152L206.061,475.863L212.929,479.13L219.798,477.977L226.667,472.445L233.535,463.64L240.404,453.541L247.273,444.608L254.141,439.255L261.01,439.286L267.879,445.418L274.747,456.978L281.616,471.852L288.485,486.711L295.354,497.482L302.222,500L309.091,490.713L315.96,467.334L322.828,429.314L329.697,378.039L336.566,316.723L343.434,250L350.303,183.277L357.172,121.961L364.04,70.686L370.909,32.666L377.778,9.287L384.646,0L391.515,2.518L398.384,13.289L405.253,28.148L412.121,43.022L418.99,54.582L425.859,60.714L432.727,60.745L439.596,55.392L446.465,46.459L453.333,36.36L460.202,27.555L467.071,22.023L473.939,20.87L480.808,24.137L487.677,30.848L494.545,39.27L501.414,47.33L508.283,53.086L515.152,55.169L522.02,53.086L528.889,47.33L535.758,39.27L542.626,30.848L549.495,24.137L556.364,20.87L563.232,22.023L570.101,27.555L576.97,36.36L583.838,46.459L590.707,55.392L597.576,60.745L604.444,60.714L611.313,54.582L618.182,43.022L625.051,28.148L631.919,13.289L638.788,2.518L645.657,0L652.525,9.287L659.394,32.666L666.263,70.686L673.131,121.961L680,183.277"></path></g><text x="400" y="25" style="text-anchor: middle; font-size: 16px; font-weight: bold;">Square Wave Fourier Series</text></svg>