<svg width="800" height="600" xmlns="http://www.w3.org/2000/svg"><g transform="translate(80,40)"><g transform="translate(0,500)" fill="none" font-size="10" font-family="sans-serif" text-anchor="middle"><path class="domain" stroke="currentColor" d="M0.5,6V0.5H680.5V6"></path><g class="tick" opacity="1" transform="translate(62.94260789715326,0)"><line stroke="currentColor" y2="6"></line><text fill="currentColor" y="9" dy="0.71em">1</text></g><g class="tick" opacity="1" transform="translate(132.32328333843466,0)"><line stroke="currentColor" y2="6"></line><text fill="currentColor" y="9" dy="0.71em">2</text></g><g class="tick" opacity="1" transform="translate(201.70395877971603,0)"><line stroke="currentColor" y2="6"></line><text fill="currentColor" y="9" dy="0.71em">3</text></g><g class="tick" opacity="1" transform="translate(271.0846342209975,0)"><line stroke="currentColor" y2="6"></line><text fill="currentColor" y="9" dy="0.71em">4</text></g><g class="tick" opacity="1" transform="translate(340.4653096622789,0)"><line stroke="currentColor" y2="6"></line><text fill="currentColor" y="9" dy="0.71em">5</text></g><g class="tick" opacity="1" transform="translate(409.8459851035603,0)"><line stroke="currentColor" y2="6"></line><text fill="currentColor" y="9" dy="0.71em">6</text></g><g class="tick" opacity="1" transform="translate(479.2266605448417,0)"><line stroke="currentColor" y2="6"></line><text fill="currentColor" y="9" dy="0.71em">7</text></g><g class="tick" opacity="1" transform="translate(548.6073359861231,0)"><line stroke="currentColor" y2="6"></line><text fill="currentColor" y="9" dy="0.71em">8</text></g><g class="tick" opacity="1" transform="translate(617.9880114274044,0)"><line stroke="currentColor" y2="6"></line><text fill="currentColor" y="9" dy="0.71em">9</text></g></g><g fill="none" font-size="10" font-family="sans-serif" text-anchor="end"><path class="domain" stroke="currentColor" d="M-6,500.5H0.5V0.5H-6"></path><g class="tick" opacity="1" transform="translate(0,499.2515394933474)"><line stroke="currentColor" x2="-6"></line><text fill="currentColor" x="-9" dy="0.32em">0.2</text></g><g class="tick" opacity="1" transform="translate(0,436.8102150405094)"><line stroke="currentColor" x2="-6"></line><text fill="currentColor" x="-9" dy="0.32em">0.3</text></g><g class="tick" opacity="1" transform="translate(0,374.3688905876714)"><line stroke="currentColor" x2="-6"></line><text fill="currentColor" x="-9" dy="0.32em">0.4</text></g><g class="tick" opacity="1" transform="translate(0,311.9275661348333)"><line stroke="currentColor" x2="-6"></line><text fill="currentColor" x="-9" dy="0.32em">0.5</text></g><g class="tick" opacity="1" transform="translate(0,249.48624168199524)"><line stroke="currentColor" x2="-6"></line><text fill="currentColor" x="-9" dy="0.32em">0.6</text></g><g class="tick" opacity="1" transform="translate(0,187.04491722915716)"><line stroke="currentColor" x2="-6"></line><text fill="currentColor" x="-9" dy="0.32em">0.7</text></g><g class="tick" opacity="1" transform="translate(0,124.60359277631905)"><line stroke="currentColor" x2="-6"></line><text fill="currentColor" x="-9" dy="0.32em">0.8</text></g><g class="tick" opacity="1" transform="translate(0,62.16226832348109)"><line stroke="currentColor" x2="-6"></line><text fill="currentColor" x="-9" dy="0.32em">0.9</text></g></g><text transform="translate(340, 540)" style="text-anchor: middle; font-size: 14px;">ω/ω₀</text><text transform="rotate(-90)" y="-60" x="-250" style="text-anchor: middle; font-size: 14px;">|H(jω)|</text><path fill="none" stroke="#1f77b4" stroke-width="2" style="shape-rendering: geometricPrecision;" d="M0,0L6.869,2.289L13.737,6.039L20.606,11.171L27.475,17.58L34.343,25.145L41.212,33.727L48.081,43.183L54.949,53.368L61.818,64.139L68.687,75.36L75.556,86.906L82.424,98.664L89.293,110.533L96.162,122.425L103.03,134.264L109.899,145.989L116.768,157.547L123.636,168.896L130.505,180.005L137.374,190.848L144.242,201.407L151.111,211.668L157.98,221.625L164.848,231.274L171.717,240.613L178.586,249.645L185.455,258.373L192.323,266.803L199.192,274.942L206.061,282.797L212.929,290.377L219.798,297.691L226.667,304.748L233.535,311.556L240.404,318.125L247.273,324.465L254.141,330.584L261.01,336.491L267.879,342.195L274.747,347.704L281.616,353.027L288.485,358.17L295.354,363.142L302.222,367.95L309.091,372.601L315.96,377.101L322.828,381.456L329.697,385.674L336.566,389.758L343.434,393.716L350.303,397.553L357.172,401.272L364.04,404.88L370.909,408.38L377.778,411.777L384.646,415.075L391.515,418.279L398.384,421.391L405.253,424.415L412.121,427.355L418.99,430.215L425.859,432.996L432.727,435.703L439.596,438.337L446.465,440.902L453.333,443.4L460.202,445.834L467.071,448.206L473.939,450.518L480.808,452.772L487.677,454.97L494.545,457.115L501.414,459.208L508.283,461.251L515.152,463.245L522.02,465.193L528.889,467.096L535.758,468.955L542.626,470.771L549.495,472.547L556.364,474.284L563.232,475.982L570.101,477.642L576.97,479.268L583.838,480.858L590.707,482.414L597.576,483.938L604.444,485.43L611.313,486.892L618.182,488.323L625.051,489.726L631.919,491.1L638.788,492.448L645.657,493.768L652.525,495.063L659.394,496.333L666.263,497.579L673.131,498.801L680,500"></path></g><text x="400" y="25" style="text-anchor: middle; font-size: 16px; font-weight: bold;">Lowpass Filter Response</text></svg>