<svg width="800" height="600" xmlns="http://www.w3.org/2000/svg"><g transform="translate(80,40)"><g transform="translate(0,500)" fill="none" font-size="10" font-family="sans-serif" text-anchor="middle"><path class="domain" stroke="currentColor" d="M0.5,6V0.5H680.5V6"></path><g class="tick" opacity="1" transform="translate(0.5,0)"><line stroke="currentColor" y2="6"></line><text fill="currentColor" y="9" dy="0.71em">0.0</text></g><g class="tick" opacity="1" transform="translate(69.18686868686865,0)"><line stroke="currentColor" y2="6"></line><text fill="currentColor" y="9" dy="0.71em">0.2</text></g><g class="tick" opacity="1" transform="translate(137.8737373737373,0)"><line stroke="currentColor" y2="6"></line><text fill="currentColor" y="9" dy="0.71em">0.4</text></g><g class="tick" opacity="1" transform="translate(206.56060606060592,0)"><line stroke="currentColor" y2="6"></line><text fill="currentColor" y="9" dy="0.71em">0.6</text></g><g class="tick" opacity="1" transform="translate(275.2474747474746,0)"><line stroke="currentColor" y2="6"></line><text fill="currentColor" y="9" dy="0.71em">0.8</text></g><g class="tick" opacity="1" transform="translate(343.93434343434325,0)"><line stroke="currentColor" y2="6"></line><text fill="currentColor" y="9" dy="0.71em">1.0</text></g><g class="tick" opacity="1" transform="translate(412.62121212121184,0)"><line stroke="currentColor" y2="6"></line><text fill="currentColor" y="9" dy="0.71em">1.2</text></g><g class="tick" opacity="1" transform="translate(481.30808080808043,0)"><line stroke="currentColor" y2="6"></line><text fill="currentColor" y="9" dy="0.71em">1.4</text></g><g class="tick" opacity="1" transform="translate(549.9949494949492,0)"><line stroke="currentColor" y2="6"></line><text fill="currentColor" y="9" dy="0.71em">1.6</text></g><g class="tick" opacity="1" transform="translate(618.6818181818178,0)"><line stroke="currentColor" y2="6"></line><text fill="currentColor" y="9" dy="0.71em">1.8</text></g></g><g fill="none" font-size="10" font-family="sans-serif" text-anchor="end"><path class="domain" stroke="currentColor" d="M-6,500.5H0.5V0.5H-6"></path><g class="tick" opacity="1" transform="translate(0,450.89543461422835)"><line stroke="currentColor" x2="-6"></line><text fill="currentColor" x="-9" dy="0.32em">−0.8</text></g><g class="tick" opacity="1" transform="translate(0,400.79657596067125)"><line stroke="currentColor" x2="-6"></line><text fill="currentColor" x="-9" dy="0.32em">−0.6</text></g><g class="tick" opacity="1" transform="translate(0,350.69771730711426)"><line stroke="currentColor" x2="-6"></line><text fill="currentColor" x="-9" dy="0.32em">−0.4</text></g><g class="tick" opacity="1" transform="translate(0,300.5988586535571)"><line stroke="currentColor" x2="-6"></line><text fill="currentColor" x="-9" dy="0.32em">−0.2</text></g><g class="tick" opacity="1" transform="translate(0,250.50000000000006)"><line stroke="currentColor" x2="-6"></line><text fill="currentColor" x="-9" dy="0.32em">0.0</text></g><g class="tick" opacity="1" transform="translate(0,200.40114134644298)"><line stroke="currentColor" x2="-6"></line><text fill="currentColor" x="-9" dy="0.32em">0.2</text></g><g class="tick" opacity="1" transform="translate(0,150.30228269288588)"><line stroke="currentColor" x2="-6"></line><text fill="currentColor" x="-9" dy="0.32em">0.4</text></g><g class="tick" opacity="1" transform="translate(0,100.20342403932887)"><line stroke="currentColor" x2="-6"></line><text fill="currentColor" x="-9" dy="0.32em">0.6</text></g><g class="tick" opacity="1" transform="translate(0,50.104565385771735)"><line stroke="currentColor" x2="-6"></line><text fill="currentColor" x="-9" dy="0.32em">0.8</text></g></g><text transform="translate(340, 540)" style="text-anchor: middle; font-size: 14px;">x</text><text transform="rotate(-90)" y="-60" x="-250" style="text-anchor: middle; font-size: 14px;">y</text><path fill="none" stroke="#1f77b4" stroke-width="2" style="shape-rendering: geometricPrecision;" d="M0,250L6.869,218.605L13.737,187.705L20.606,157.787L27.475,129.323L34.343,102.763L41.212,78.525L48.081,56.991L54.949,38.501L61.818,23.346L68.687,11.766L75.556,3.943L82.424,0L89.293,0L96.162,3.943L103.03,11.766L109.899,23.346L116.768,38.501L123.636,56.991L130.505,78.525L137.374,102.763L144.242,129.323L151.111,157.787L157.98,187.705L164.848,218.605L171.717,250L178.586,281.395L185.455,312.295L192.323,342.213L199.192,370.677L206.061,397.237L212.929,421.475L219.798,443.009L226.667,461.499L233.535,476.654L240.404,488.234L247.273,496.057L254.141,500L261.01,500L267.879,496.057L274.747,488.234L281.616,476.654L288.485,461.499L295.354,443.009L302.222,421.475L309.091,397.237L315.96,370.677L322.828,342.213L329.697,312.295L336.566,281.395L343.434,250L350.303,218.605L357.172,187.705L364.04,157.787L370.909,129.323L377.778,102.763L384.646,78.525L391.515,56.991L398.384,38.501L405.253,23.346L412.121,11.766L418.99,3.943L425.859,0L432.727,0L439.596,3.943L446.465,11.766L453.333,23.346L460.202,38.501L467.071,56.991L473.939,78.525L480.808,102.763L487.677,129.323L494.545,157.787L501.414,187.705L508.283,218.605L515.152,250L522.02,281.395L528.889,312.295L535.758,342.213L542.626,370.677L549.495,397.237L556.364,421.475L563.232,443.009L570.101,461.499L576.97,476.654L583.838,488.234L590.707,496.057L597.576,500L604.444,500L611.313,496.057L618.182,488.234L625.051,476.654L631.919,461.499L638.788,443.009L645.657,421.475L652.525,397.237L659.394,370.677L666.263,342.213L673.131,312.295L680,281.395"></path><path fill="none" stroke="#ff7f0e" stroke-width="2" style="shape-rendering: geometricPrecision;" d="M0,250L6.869,187.705L13.737,129.323L20.606,78.525L27.475,38.501L34.343,11.766L41.212,0L48.081,3.943L54.949,23.346L61.818,56.991L68.687,102.763L75.556,157.787L82.424,218.605L89.293,281.395L96.162,342.213L103.03,397.237L109.899,443.009L116.768,476.654L123.636,496.057L130.505,500L137.374,488.234L144.242,461.499L151.111,421.475L157.98,370.677L164.848,312.295L171.717,250L178.586,187.705L185.455,129.323L192.323,78.525L199.192,38.501L206.061,11.766L212.929,0L219.798,3.943L226.667,23.346L233.535,56.991L240.404,102.763L247.273,157.787L254.141,218.605L261.01,281.395L267.879,342.213L274.747,397.237L281.616,443.009L288.485,476.654L295.354,496.057L302.222,500L309.091,488.234L315.96,461.499L322.828,421.475L329.697,370.677L336.566,312.295L343.434,250L350.303,187.705L357.172,129.323L364.04,78.525L370.909,38.501L377.778,11.766L384.646,0L391.515,3.943L398.384,23.346L405.253,56.991L412.121,102.763L418.99,157.787L425.859,218.605L432.727,281.395L439.596,342.213L446.465,397.237L453.333,443.009L460.202,476.654L467.071,496.057L473.939,500L480.808,488.234L487.677,461.499L494.545,421.475L501.414,370.677L508.283,312.295L515.152,250L522.02,187.705L528.889,129.323L535.758,78.525L542.626,38.501L549.495,11.766L556.364,0L563.232,3.943L570.101,23.346L576.97,56.991L583.838,102.763L590.707,157.787L597.576,218.605L604.444,281.395L611.313,342.213L618.182,397.237L625.051,443.009L631.919,476.654L638.788,496.057L645.657,500L652.525,488.234L659.394,461.499L666.263,421.475L673.131,370.677L680,312.295"></path><path fill="none" stroke="#2ca02c" stroke-width="2" style="shape-rendering: geometricPrecision;" d="M0,250L6.869,102.763L13.737,11.766L20.606,11.766L27.475,102.763L34.343,250L41.212,397.237L48.081,488.234L54.949,488.234L61.818,397.237L68.687,250L75.556,102.763L82.424,11.766L89.293,11.766L96.162,102.763L103.03,250L109.899,397.237L116.768,488.234L123.636,488.234L130.505,397.237L137.374,250L144.242,102.763L151.111,11.766L157.98,11.766L164.848,102.763L171.717,250L178.586,397.237L185.455,488.234L192.323,488.234L199.192,397.237L206.061,250L212.929,102.763L219.798,11.766L226.667,11.766L233.535,102.763L240.404,250L247.273,397.237L254.141,488.234L261.01,488.234L267.879,397.237L274.747,250L281.616,102.763L288.485,11.766L295.354,11.766L302.222,102.763L309.091,250L315.96,397.237L322.828,488.234L329.697,488.234L336.566,397.237L343.434,250L350.303,102.763L357.172,11.766L364.04,11.766L370.909,102.763L377.778,250L384.646,397.237L391.515,488.234L398.384,488.234L405.253,397.237L412.121,250L418.99,102.763L425.859,11.766L432.727,11.766L439.596,102.763L446.465,250L453.333,397.237L460.202,488.234L467.071,488.234L473.939,397.237L480.808,250L487.677,102.763L494.545,11.766L501.414,11.766L508.283,102.763L515.152,250L522.02,397.237L528.889,488.234L535.758,488.234L542.626,397.237L549.495,250L556.364,102.763L563.232,11.766L570.101,11.766L576.97,102.763L583.838,250L590.707,397.237L597.576,488.234L604.444,488.234L611.313,397.237L618.182,250L625.051,102.763L631.919,11.766L638.788,11.766L645.657,102.763L652.525,250L659.394,397.237L666.263,488.234L673.131,488.234L680,397.237"></path></g><text x="400" y="25" style="text-anchor: middle; font-size: 16px; font-weight: bold;">Frequency Comparison</text><g class="legend"><rect x="570" y="50" width="200" height="80" fill="white" stroke="#ccc" stroke-width="1" style="opacity: 0.9;"></rect><g transform="translate(580, 60)"><line x1="0" x2="20" y1="0" y2="0" stroke="#1f77b4" stroke-width="2"></line><text x="25" y="0" dy="0.35em" style="font-size: 12px; font-family: sans-serif;">1Hz</text></g><g transform="translate(580, 80)"><line x1="0" x2="20" y1="0" y2="0" stroke="#ff7f0e" stroke-width="2"></line><text x="25" y="0" dy="0.35em" style="font-size: 12px; font-family: sans-serif;">2Hz</text></g><g transform="translate(580, 100)"><line x1="0" x2="20" y1="0" y2="0" stroke="#2ca02c" stroke-width="2"></line><text x="25" y="0" dy="0.35em" style="font-size: 12px; font-family: sans-serif;">5Hz</text></g></g></svg>