<svg width="800" height="600" xmlns="http://www.w3.org/2000/svg"><g transform="translate(80,40)"><g transform="translate(0,500)" fill="none" font-size="10" font-family="sans-serif" text-anchor="middle"><path class="domain" stroke="currentColor" d="M0.5,6V0.5H680.5V6"></path><g class="tick" opacity="1" transform="translate(0.5,0)"><line stroke="currentColor" y2="6"></line><text fill="currentColor" y="9" dy="0.71em">−4</text></g><g class="tick" opacity="1" transform="translate(86.35858585858581,0)"><line stroke="currentColor" y2="6"></line><text fill="currentColor" y="9" dy="0.71em">−3</text></g><g class="tick" opacity="1" transform="translate(172.21717171717162,0)"><line stroke="currentColor" y2="6"></line><text fill="currentColor" y="9" dy="0.71em">−2</text></g><g class="tick" opacity="1" transform="translate(258.07575757575745,0)"><line stroke="currentColor" y2="6"></line><text fill="currentColor" y="9" dy="0.71em">−1</text></g><g class="tick" opacity="1" transform="translate(343.93434343434325,0)"><line stroke="currentColor" y2="6"></line><text fill="currentColor" y="9" dy="0.71em">0</text></g><g class="tick" opacity="1" transform="translate(429.79292929292905,0)"><line stroke="currentColor" y2="6"></line><text fill="currentColor" y="9" dy="0.71em">1</text></g><g class="tick" opacity="1" transform="translate(515.6515151515149,0)"><line stroke="currentColor" y2="6"></line><text fill="currentColor" y="9" dy="0.71em">2</text></g><g class="tick" opacity="1" transform="translate(601.5101010101006,0)"><line stroke="currentColor" y2="6"></line><text fill="currentColor" y="9" dy="0.71em">3</text></g></g><g fill="none" font-size="10" font-family="sans-serif" text-anchor="end"><path class="domain" stroke="currentColor" d="M-6,500.5H0.5V0.5H-6"></path><g class="tick" opacity="1" transform="translate(0,437.98105167747826)"><line stroke="currentColor" x2="-6"></line><text fill="currentColor" x="-9" dy="0.32em">0.05</text></g><g class="tick" opacity="1" transform="translate(0,375.29431575453594)"><line stroke="currentColor" x2="-6"></line><text fill="currentColor" x="-9" dy="0.32em">0.10</text></g><g class="tick" opacity="1" transform="translate(0,312.6075798315935)"><line stroke="currentColor" x2="-6"></line><text fill="currentColor" x="-9" dy="0.32em">0.15</text></g><g class="tick" opacity="1" transform="translate(0,249.92084390865122)"><line stroke="currentColor" x2="-6"></line><text fill="currentColor" x="-9" dy="0.32em">0.20</text></g><g class="tick" opacity="1" transform="translate(0,187.23410798570882)"><line stroke="currentColor" x2="-6"></line><text fill="currentColor" x="-9" dy="0.32em">0.25</text></g><g class="tick" opacity="1" transform="translate(0,124.54737206276656)"><line stroke="currentColor" x2="-6"></line><text fill="currentColor" x="-9" dy="0.32em">0.30</text></g><g class="tick" opacity="1" transform="translate(0,61.86063613982423)"><line stroke="currentColor" x2="-6"></line><text fill="currentColor" x="-9" dy="0.32em">0.35</text></g></g><text transform="translate(340, 540)" style="text-anchor: middle; font-size: 14px;">x</text><text transform="rotate(-90)" y="-60" x="-250" style="text-anchor: middle; font-size: 14px;">y</text><path fill="none" stroke="#1f77b4" stroke-width="2" style="shape-rendering: geometricPrecision;" d="M0,500L6.869,499.937L13.737,499.854L20.606,499.742L27.475,499.594L34.343,499.401L41.212,499.148L48.081,498.82L54.949,498.399L61.818,497.861L68.687,497.179L75.556,496.319L82.424,495.244L89.293,493.908L96.162,492.261L103.03,490.244L109.899,487.792L116.768,484.833L123.636,481.287L130.505,477.07L137.374,472.091L144.242,466.257L151.111,459.471L157.98,451.64L164.848,442.67L171.717,432.477L178.586,420.986L185.455,408.135L192.323,393.881L199.192,378.202L206.061,361.102L212.929,342.618L219.798,322.815L226.667,301.796L233.535,279.702L240.404,256.71L247.273,233.036L254.141,208.929L261.01,184.673L267.879,160.576L274.747,136.971L281.616,114.204L288.485,92.626L295.354,72.587L302.222,54.424L309.091,38.455L315.96,24.964L322.828,14.199L329.697,6.361L336.566,1.598L343.434,0L350.303,1.598L357.172,6.361L364.04,14.199L370.909,24.964L377.778,38.455L384.646,54.424L391.515,72.587L398.384,92.626L405.253,114.204L412.121,136.971L418.99,160.576L425.859,184.673L432.727,208.929L439.596,233.036L446.465,256.71L453.333,279.702L460.202,301.796L467.071,322.815L473.939,342.618L480.808,361.102L487.677,378.202L494.545,393.881L501.414,408.135L508.283,420.986L515.152,432.477L522.02,442.67L528.889,451.64L535.758,459.471L542.626,466.257L549.495,472.091L556.364,477.07L563.232,481.287L570.101,484.833L576.97,487.792L583.838,490.244L590.707,492.261L597.576,493.908L604.444,495.244L611.313,496.319L618.182,497.179L625.051,497.861L631.919,498.399L638.788,498.82L645.657,499.148L652.525,499.401L659.394,499.594L666.263,499.742L673.131,499.854L680,499.937"></path></g><text x="400" y="25" style="text-anchor: middle; font-size: 16px; font-weight: bold;">Standard Normal Distribution</text></svg>