<svg width="800" height="600" xmlns="http://www.w3.org/2000/svg"><g transform="translate(80,40)"><g transform="translate(0,500)" fill="none" font-size="10" font-family="sans-serif" text-anchor="middle"><path class="domain" stroke="currentColor" d="M0.5,6V0.5H680.5V6"></path><g class="tick" opacity="1" transform="translate(0.5,0)"><line stroke="currentColor" y2="6"></line><text fill="currentColor" y="9" dy="0.71em">0.0</text></g><g class="tick" opacity="1" transform="translate(68.56806806806802,0)"><line stroke="currentColor" y2="6"></line><text fill="currentColor" y="9" dy="0.71em">0.1</text></g><g class="tick" opacity="1" transform="translate(136.63613613613603,0)"><line stroke="currentColor" y2="6"></line><text fill="currentColor" y="9" dy="0.71em">0.2</text></g><g class="tick" opacity="1" transform="translate(204.70420420420405,0)"><line stroke="currentColor" y2="6"></line><text fill="currentColor" y="9" dy="0.71em">0.3</text></g><g class="tick" opacity="1" transform="translate(272.77227227227206,0)"><line stroke="currentColor" y2="6"></line><text fill="currentColor" y="9" dy="0.71em">0.4</text></g><g class="tick" opacity="1" transform="translate(340.84034034034005,0)"><line stroke="currentColor" y2="6"></line><text fill="currentColor" y="9" dy="0.71em">0.5</text></g><g class="tick" opacity="1" transform="translate(408.9084084084081,0)"><line stroke="currentColor" y2="6"></line><text fill="currentColor" y="9" dy="0.71em">0.6</text></g><g class="tick" opacity="1" transform="translate(476.9764764764761,0)"><line stroke="currentColor" y2="6"></line><text fill="currentColor" y="9" dy="0.71em">0.7</text></g><g class="tick" opacity="1" transform="translate(545.0445445445441,0)"><line stroke="currentColor" y2="6"></line><text fill="currentColor" y="9" dy="0.71em">0.8</text></g><g class="tick" opacity="1" transform="translate(613.1126126126122,0)"><line stroke="currentColor" y2="6"></line><text fill="currentColor" y="9" dy="0.71em">0.9</text></g></g><g fill="none" font-size="10" font-family="sans-serif" text-anchor="end"><path class="domain" stroke="currentColor" d="M-6,500.5H0.5V0.5H-6"></path><g class="tick" opacity="1" transform="translate(0,450.5021157988053)"><line stroke="currentColor" x2="-6"></line><text fill="currentColor" x="-9" dy="0.32em">−0.8</text></g><g class="tick" opacity="1" transform="translate(0,400.5017832190008)"><line stroke="currentColor" x2="-6"></line><text fill="currentColor" x="-9" dy="0.32em">−0.6</text></g><g class="tick" opacity="1" transform="translate(0,350.50145063919643)"><line stroke="currentColor" x2="-6"></line><text fill="currentColor" x="-9" dy="0.32em">−0.4</text></g><g class="tick" opacity="1" transform="translate(0,300.501118059392)"><line stroke="currentColor" x2="-6"></line><text fill="currentColor" x="-9" dy="0.32em">−0.2</text></g><g class="tick" opacity="1" transform="translate(0,250.5007854795876)"><line stroke="currentColor" x2="-6"></line><text fill="currentColor" x="-9" dy="0.32em">0.0</text></g><g class="tick" opacity="1" transform="translate(0,200.5004528997832)"><line stroke="currentColor" x2="-6"></line><text fill="currentColor" x="-9" dy="0.32em">0.2</text></g><g class="tick" opacity="1" transform="translate(0,150.50012031997866)"><line stroke="currentColor" x2="-6"></line><text fill="currentColor" x="-9" dy="0.32em">0.4</text></g><g class="tick" opacity="1" transform="translate(0,100.49978774017431)"><line stroke="currentColor" x2="-6"></line><text fill="currentColor" x="-9" dy="0.32em">0.6</text></g><g class="tick" opacity="1" transform="translate(0,50.499455160369855)"><line stroke="currentColor" x2="-6"></line><text fill="currentColor" x="-9" dy="0.32em">0.8</text></g></g><text transform="translate(340, 540)" style="text-anchor: middle; font-size: 14px;">x</text><text transform="rotate(-90)" y="-60" x="-250" style="text-anchor: middle; font-size: 14px;">y</text><path fill="none" stroke="#1f77b4" stroke-width="2" style="shape-rendering: geometricPrecision;" d="M0,250.001L0.681,225.042L1.361,200.333L2.042,176.12L2.723,152.646L3.403,130.144L4.084,108.839L4.765,88.945L5.445,70.661L6.126,54.168L6.807,39.632L7.487,27.197L8.168,16.989L8.849,9.11L9.53,3.637L10.21,0.625L10.891,0.106L11.572,2.083L12.252,6.537L12.933,13.424L13.614,22.675L14.294,34.197L14.975,47.875L15.656,63.573L16.336,81.134L17.017,100.382L17.698,121.125L18.378,143.155L19.059,166.253L19.74,190.188L20.42,214.721L21.101,239.606L21.782,264.594L22.462,289.437L23.143,313.886L23.824,337.697L24.505,360.632L25.185,382.461L25.866,402.966L26.547,421.943L27.227,439.203L27.908,454.571L28.589,467.896L29.269,479.044L29.95,487.903L30.631,494.385L31.311,498.425L31.992,499.983L32.673,499.044L33.353,495.616L34.034,489.733L34.715,481.456L35.395,470.866L36.076,458.069L36.757,443.193L37.437,426.387L38.118,407.818L38.799,387.673L39.479,366.152L40.16,343.471L40.841,319.855L41.522,295.542L42.202,270.773L42.883,245.797L43.564,220.863L44.244,196.22L44.925,172.115L45.606,148.788L46.286,126.472L46.967,105.39L47.648,85.753L48.328,67.757L49.009,51.582L49.69,37.39L50.37,25.322L51.051,15.499L51.732,8.019L52.412,2.957L53.093,0.363L53.774,0.264L54.454,2.66L55.135,7.527L55.816,14.817L56.496,24.456L57.177,36.35L57.858,50.378L58.539,66.4L59.219,84.257L59.9,103.771L60.581,124.745L61.261,146.97L61.942,170.226L62.623,194.278L63.303,218.887L63.984,243.807L64.665,268.789L65.345,293.583L66.026,317.941L66.707,341.621L67.387,364.386L68.068,386.007L68.749,406.269L69.429,424.971L70.11,441.924L70.791,456.959L71.471,469.926L72.152,480.696L72.833,489.161L73.514,495.236L74.194,498.862L74.875,500L75.556,498.641L76.236,494.797L76.917,488.507L77.598,479.834L78.278,468.865L78.959,455.709L79.64,440.498L80.32,423.383L81.001,404.536L81.682,384.145L82.362,362.413L83.043,339.559L83.724,315.809L84.404,291.402L85.085,266.581L85.766,241.595L86.446,216.693L87.127,192.123L87.808,168.132L88.488,144.958L89.169,122.835L89.85,101.981L90.531,82.607L91.211,64.906L91.892,49.053L92.573,35.209L93.253,23.511L93.934,14.075L94.615,6.997L95.295,2.347L95.976,0.172L96.657,0.492L97.337,3.306L98.018,8.585L98.699,16.275L99.379,26.302L100.06,38.563L100.741,52.936L101.421,69.279L102.102,87.428L102.783,107.201L103.463,128.4L104.144,150.815L104.825,174.221L105.506,198.384L106.186,223.062L106.867,248.01L107.548,272.978L108.228,297.716L108.909,321.977L109.59,345.519L110.27,368.107L110.951,389.515L111.632,409.529L112.312,427.948L112.993,444.59L113.674,459.288L114.354,471.894L115.035,482.283L115.716,490.352L116.396,496.019L117.077,499.227L117.758,499.946L118.438,498.167L119.119,493.909L119.8,487.213L120.48,478.148L121.161,466.803L121.842,453.291L122.523,437.749L123.203,420.33L123.884,401.21L124.565,380.579L125.245,358.643L125.926,335.622L126.607,311.745L127.287,287.251L127.968,262.385L128.649,237.395L129.329,212.531L130.01,188.042L130.691,164.171L131.371,141.159L132.052,119.233L132.733,98.615L133.413,79.509L134.094,62.106L134.775,46.581L135.455,33.088L136.136,21.763L136.817,12.718L137.497,6.044L138.178,1.808L138.859,0.051L139.54,0.792L140.22,4.022L140.901,9.711L141.582,17.8L142.262,28.21L142.943,40.835L143.624,55.551L144.304,72.209L144.985,90.644L145.666,110.671L146.346,132.09L147.027,154.688L147.708,178.237L148.388,202.504L149.069,227.245L149.75,252.214L150.43,277.16L151.111,301.835L151.792,325.992L152.472,349.39L153.153,371.795L153.834,392.983L154.515,412.742L155.195,430.876L155.876,447.202L156.557,461.557L157.237,473.799L157.918,483.805L158.599,491.474L159.279,496.731L159.96,499.523L160.641,499.821L161.321,497.624L162.002,492.952L162.683,485.853L163.363,476.397L164.044,464.679L164.725,450.816L165.405,434.947L166.086,417.229L166.767,397.841L167.447,376.976L168.128,354.842L168.809,331.66L169.489,307.663L170.17,283.089L170.851,258.185L171.532,233.199L172.212,208.381L172.893,183.978L173.574,160.236L174.254,137.39L174.935,115.669L175.616,95.291L176.296,76.458L176.977,59.36L177.658,44.166L178.338,31.029L179.019,20.08L179.7,11.428L180.38,5.16L181.061,1.338L181.742,0.001L182.422,1.161L183.103,4.808L183.784,10.905L184.464,19.391L185.145,30.181L185.826,43.167L186.507,58.22L187.187,75.19L187.868,93.905L188.549,114.181L189.229,135.814L189.91,158.587L190.591,182.274L191.271,206.637L191.952,231.434L192.633,256.417L193.313,281.335L193.994,305.94L194.675,329.986L195.355,353.233L196.036,375.449L196.717,396.411L197.397,415.91L198.078,433.752L198.759,449.757L199.439,463.767L200.12,475.641L200.801,485.26L201.481,492.529L202.162,497.374L202.843,499.748L203.524,499.626L204.204,497.01L204.885,491.926L205.566,484.425L206.246,474.582L206.927,462.494L207.608,448.284L208.288,432.092L208.969,414.081L209.65,394.431L210.33,373.337L211.011,351.011L211.692,327.676L212.372,303.564L213.053,278.918L213.734,253.982L214.414,229.007L215.095,204.242L215.776,179.933L216.456,156.325L217.137,133.653L217.818,112.143L218.498,92.011L219.179,73.457L219.86,56.668L220.541,41.81L221.221,29.032L221.902,18.462L222.583,10.205L223.263,4.345L223.944,0.939L224.625,0.021L225.305,1.601L225.986,5.664L226.667,12.167L227.347,21.047L228.028,32.214L228.709,45.558L229.389,60.944L230.07,78.219L230.751,97.211L231.431,117.729L232.112,139.569L232.793,162.512L233.473,186.33L234.154,210.783L234.835,235.629L235.516,260.618L236.196,285.501L236.877,310.029L237.558,333.958L238.238,357.047L238.919,379.067L239.6,399.798L240.28,419.031L240.961,436.576L241.642,452.257L242.322,465.917L243.003,477.419L243.684,486.649L244.364,493.515L245.045,497.947L245.726,499.902L246.406,499.36L247.087,496.327L247.768,490.832L248.448,482.932L249.129,472.703L249.81,460.25L250.49,445.696L251.171,429.186L251.852,410.886L252.533,390.979L253.213,369.663L253.894,347.151L254.575,323.669L255.255,299.451L255.936,274.738L256.617,249.779L257.297,224.821L257.978,200.116L258.659,175.908L259.339,152.441L260.02,129.949L260.701,108.656L261.381,88.776L262.062,70.506L262.743,54.03L263.423,39.512L264.104,27.097L264.785,16.909L265.465,9.05L266.146,3.599L266.827,0.61L267.508,0.112L268.188,2.112L268.869,6.588L269.55,13.496L270.23,22.767L270.911,34.309L271.592,48.006L272.272,63.721L272.953,81.298L273.634,100.56L274.314,121.315L274.995,143.356L275.676,166.462L276.356,190.404L277.037,214.94L277.718,239.827L278.398,264.816L279.079,289.657L279.76,314.101L280.44,337.905L281.121,360.831L281.802,382.649L282.482,403.142L283.163,422.105L283.844,439.348L284.525,454.699L285.205,468.005L285.886,479.133L286.567,487.971L287.247,494.432L287.928,498.45L288.609,499.986L289.289,499.024L289.97,495.574L290.651,489.67L291.331,481.372L292.012,470.762L292.693,457.946L293.373,443.052L294.054,426.23L294.735,407.646L295.415,387.488L296.096,365.955L296.777,343.265L297.457,319.642L298.138,295.323L298.819,270.552L299.499,245.575L300.18,220.643L300.861,196.004L301.542,171.904L302.222,148.585L302.903,126.279L303.584,105.209L304.264,85.586L304.945,67.605L305.626,51.447L306.306,37.273L306.987,25.225L307.668,15.422L308.348,7.964L309.029,2.923L309.71,0.351L310.39,0.274L311.071,2.692L311.752,7.581L312.432,14.892L313.113,24.552L313.794,36.465L314.474,50.511L315.155,66.551L315.836,84.424L316.517,103.951L317.197,124.937L317.878,147.173L318.559,170.436L319.239,194.494L319.92,219.107L320.601,244.029L321.281,269.01L321.962,293.801L322.643,318.155L323.323,341.828L324.004,364.583L324.685,386.193L325.365,406.443L326.046,425.129L326.727,442.066L327.407,457.083L328.088,470.032L328.769,480.782L329.449,489.226L330.13,495.28L330.811,498.883L331.491,499.999L332.172,498.617L332.853,494.752L333.534,488.441L334.214,479.747L334.895,468.758L335.576,455.583L336.256,440.354L336.937,423.223L337.618,404.361L338.298,383.957L338.979,362.215L339.66,339.351L340.34,315.595L341.021,291.183L341.702,266.36L342.382,241.373L343.063,216.473L343.744,191.907L344.424,167.922L345.105,144.757L345.786,122.643L346.466,101.803L347.147,82.442L347.828,64.756L348.509,48.921L349.189,35.095L349.87,23.417L350.551,14.002L351.231,6.945L351.912,2.317L352.593,0.164L353.273,0.507L353.954,3.342L354.635,8.643L355.315,16.354L355.996,26.401L356.677,38.681L357.357,53.073L358.038,69.433L358.719,87.596L359.399,107.383L360.08,128.594L360.761,151.019L361.441,174.432L362.122,198.601L362.803,223.283L363.483,248.232L364.164,273.199L364.845,297.934L365.526,322.19L366.206,345.724L366.887,368.303L367.568,389.699L368.248,409.699L368.929,428.104L369.61,444.729L370.29,459.409L370.971,471.996L371.652,482.365L372.332,490.413L373.013,496.058L373.694,499.245L374.374,499.941L375.055,498.14L375.736,493.86L376.416,487.143L377.097,478.057L377.778,466.692L378.458,453.162L379.139,437.602L379.82,420.168L380.501,401.033L381.181,380.389L381.862,358.443L382.543,335.413L383.223,311.529L383.904,287.031L384.585,262.163L385.265,237.173L385.946,212.312L386.627,187.827L387.307,163.963L387.988,140.959L388.669,119.044L389.349,98.438L390.03,79.346L390.711,61.96L391.391,46.452L392.072,32.978L392.753,21.672L393.433,12.648L394.114,5.996L394.795,1.781L395.475,0.046L396.156,0.809L396.837,4.062L397.518,9.772L398.198,17.883L398.879,28.312L399.56,40.957L400.24,55.691L400.921,72.365L401.602,90.815L402.282,110.856L402.963,132.286L403.644,154.893L404.324,178.45L405.005,202.722L405.686,227.466L406.366,252.436L407.047,277.381L407.728,302.052L408.408,326.204L409.089,349.594L409.77,371.989L410.45,393.165L411.131,412.911L411.812,431.029L412.492,447.338L413.173,461.676L413.854,473.898L414.535,483.883L415.215,491.532L415.896,496.767L416.577,499.537L417.257,499.813L417.938,497.593L418.619,492.9L419.299,485.779L419.98,476.303L420.661,464.565L421.341,450.684L422.022,434.797L422.703,417.064L423.383,397.662L424.064,376.784L424.745,354.64L425.425,331.45L426.106,307.447L426.787,282.869L427.467,257.963L428.148,232.977L428.829,208.162L429.51,183.764L430.19,160.028L430.871,137.192L431.552,115.482L432.232,95.117L432.913,76.299L433.594,59.216L434.274,44.04L434.955,30.922L435.636,19.993L436.316,11.362L436.997,5.115L437.678,1.315L438.358,0L439.039,1.183L439.72,4.852L440.4,10.97L441.081,19.477L441.762,30.287L442.442,43.292L443.123,58.363L443.804,75.348L444.484,94.079L445.165,114.367L445.846,136.011L446.527,158.794L447.207,182.488L447.888,206.856L448.569,231.656L449.249,256.639L449.93,281.555L450.611,306.156L451.291,330.197L451.972,353.436L452.653,375.641L453.333,396.591L454.014,416.076L454.695,433.902L455.375,449.891L456.056,463.882L456.737,475.736L457.417,485.335L458.098,492.583L458.779,497.406L459.459,499.758L460.14,499.614L460.821,496.976L461.502,491.87L462.182,484.348L462.863,474.484L463.544,462.377L464.224,448.149L464.905,431.94L465.586,413.913L466.266,394.249L466.947,373.144L467.628,350.808L468.308,327.465L468.989,303.347L469.67,278.697L470.35,253.76L471.031,228.786L471.712,204.023L472.392,179.72L473.073,156.119L473.754,133.456L474.434,111.958L475.115,91.839L475.796,73.3L476.476,56.527L477.157,41.687L477.838,28.928L478.519,18.378L479.199,10.143L479.88,4.304L480.561,0.92L481.241,0.024L481.922,1.627L482.603,5.711L483.283,12.236L483.964,21.136L484.645,32.323L485.325,45.686L486.006,61.089L486.687,78.381L487.367,97.387L488.048,117.918L488.729,139.768L489.409,162.72L490.09,186.545L490.771,211.003L491.451,235.85L492.132,260.84L492.813,285.721L493.493,310.245L494.174,334.167L494.855,357.248L495.536,379.257L496.216,399.975L496.897,419.195L497.578,436.724L498.258,452.387L498.939,466.028L499.62,477.511L500.3,486.721L500.981,493.565L501.662,497.975L502.342,499.908L503.023,499.344L503.704,496.289L504.384,490.773L505.065,482.851L505.746,472.602L506.426,460.13L507.107,445.557L507.788,429.031L508.468,410.716L509.149,390.796L509.83,369.468L510.511,346.947L511.191,323.457L511.872,299.233L512.553,274.517L513.233,249.557L513.914,224.6L514.595,199.898L515.275,175.696L515.956,152.237L516.637,129.754L517.317,108.473L517.998,88.606L518.679,70.351L519.359,53.892L520.04,39.392L520.721,26.996L521.401,16.829L522.082,8.991L522.763,3.562L523.443,0.594L524.124,0.119L524.805,2.141L525.485,6.639L526.166,13.568L526.847,22.86L527.528,34.422L528.208,48.137L528.889,63.869L529.57,81.462L530.25,100.738L530.931,121.505L531.612,143.557L532.292,166.672L532.973,190.619L533.654,215.16L534.334,240.049L535.015,265.038L535.696,289.876L536.376,314.316L537.057,338.113L537.738,361.03L538.418,382.837L539.099,403.317L539.78,422.266L540.46,439.493L541.141,454.826L541.822,468.114L542.503,479.221L543.183,488.039L543.864,494.478L544.545,498.475L545.225,499.988L545.906,499.004L546.587,495.532L547.267,489.607L547.948,481.288L548.629,470.658L549.309,457.823L549.99,442.911L550.671,426.072L551.351,407.474L552.032,387.302L552.713,365.759L553.393,343.059L554.074,319.429L554.755,295.105L555.435,270.331L556.116,245.353L556.797,220.422L557.477,195.787L558.158,171.693L558.839,148.382L559.52,126.086L560.2,105.028L560.881,85.419L561.562,67.454L562.242,51.313L562.923,37.157L563.604,25.128L564.284,15.346L564.965,7.908L565.646,2.889L566.326,0.34L567.007,0.285L567.688,2.725L568.368,7.635L569.049,14.968L569.73,24.648L570.41,36.581L571.091,50.645L571.772,66.702L572.452,84.59L573.133,104.131L573.814,125.129L574.494,147.375L575.175,170.647L575.856,194.711L576.537,219.328L577.217,244.251L577.898,269.231L578.579,294.02L579.259,318.369L579.94,342.034L580.621,364.78L581.301,386.379L581.982,406.616L582.663,425.288L583.343,442.208L584.024,457.208L584.705,470.137L585.385,480.867L586.066,489.29L586.747,495.322L587.427,498.903L588.108,499.998L588.789,498.594L589.469,494.706L590.15,488.374L590.831,479.659L591.512,468.65L592.192,455.457L592.873,440.21L593.554,423.063L594.234,404.187L594.915,383.77L595.596,362.017L596.276,339.144L596.957,315.381L597.638,290.964L598.318,266.138L598.999,241.151L599.68,216.252L600.36,191.691L601.041,167.712L601.722,144.556L602.402,122.452L603.083,101.624L603.764,82.278L604.444,64.607L605.125,48.789L605.806,34.982L606.486,23.323L607.167,13.929L607.848,6.893L608.529,2.287L609.209,0.156L609.89,0.521L610.571,3.379L611.251,8.7L611.932,16.433L612.613,26.5L613.293,38.8L613.974,53.21L614.655,69.586L615.335,87.765L616.016,107.565L616.697,128.789L617.377,151.223L618.058,174.644L618.739,198.818L619.419,223.504L620.1,248.454L620.781,273.42L621.461,298.152L622.142,322.402L622.823,345.93L623.504,368.498L624.184,389.883L624.865,409.87L625.546,428.26L626.226,444.869L626.907,459.53L627.588,472.098L628.268,482.447L628.949,490.474L629.63,496.097L630.31,499.262L630.991,499.936L631.672,498.113L632.352,493.811L633.033,487.073L633.714,477.966L634.394,466.581L635.075,453.033L635.756,437.455L636.436,420.005L637.117,400.856L637.798,380.2L638.478,358.243L639.159,335.204L639.84,311.314L640.521,286.812L641.201,261.941L641.882,236.952L642.563,212.092L643.243,187.612L643.924,163.755L644.605,140.759L645.285,118.855L645.966,98.262L646.647,79.184L647.327,61.814L648.008,46.323L648.689,32.868L649.369,21.582L650.05,12.579L650.731,5.947L651.411,1.755L652.092,0.042L652.773,0.827L653.453,4.102L654.134,9.834L654.815,17.965L655.495,28.415L656.176,41.079L656.857,55.83L657.538,72.522L658.218,90.986L658.899,111.04L659.58,132.482L660.26,155.098L660.941,178.663L661.622,202.94L662.302,227.687L662.983,252.658L663.664,277.602L664.344,302.27L665.025,326.415L665.706,349.798L666.386,372.183L667.067,393.347L667.748,413.079L668.428,431.182L669.109,447.474L669.79,461.794L670.47,473.997L671.151,483.962L671.832,491.589L672.513,496.803L673.193,499.55L673.874,499.804L674.555,497.562L675.235,492.847L675.916,485.705L676.597,476.208L677.277,464.451L677.958,450.551L678.639,434.648L679.319,416.899L680,397.483"></path></g><text x="400" y="25" style="text-anchor: middle; font-size: 16px; font-weight: bold;">High-Frequency Oscillation</text></svg>