<svg width="800" height="600" xmlns="http://www.w3.org/2000/svg"><g transform="translate(80,40)"><g transform="translate(0,500)" fill="none" font-size="10" font-family="sans-serif" text-anchor="middle"><path class="domain" stroke="currentColor" d="M0.5,6V0.5H680.5V6"></path><g class="tick" opacity="1" transform="translate(0.5,0)"><line stroke="currentColor" y2="6"></line><text fill="currentColor" y="9" dy="0.71em">−1.0</text></g><g class="tick" opacity="1" transform="translate(68.49999999999999,0)"><line stroke="currentColor" y2="6"></line><text fill="currentColor" y="9" dy="0.71em">−0.8</text></g><g class="tick" opacity="1" transform="translate(136.5,0)"><line stroke="currentColor" y2="6"></line><text fill="currentColor" y="9" dy="0.71em">−0.6</text></g><g class="tick" opacity="1" transform="translate(204.5,0)"><line stroke="currentColor" y2="6"></line><text fill="currentColor" y="9" dy="0.71em">−0.4</text></g><g class="tick" opacity="1" transform="translate(272.5,0)"><line stroke="currentColor" y2="6"></line><text fill="currentColor" y="9" dy="0.71em">−0.2</text></g><g class="tick" opacity="1" transform="translate(340.5,0)"><line stroke="currentColor" y2="6"></line><text fill="currentColor" y="9" dy="0.71em">0.0</text></g><g class="tick" opacity="1" transform="translate(408.5,0)"><line stroke="currentColor" y2="6"></line><text fill="currentColor" y="9" dy="0.71em">0.2</text></g><g class="tick" opacity="1" transform="translate(476.49999999999994,0)"><line stroke="currentColor" y2="6"></line><text fill="currentColor" y="9" dy="0.71em">0.4</text></g><g class="tick" opacity="1" transform="translate(544.5,0)"><line stroke="currentColor" y2="6"></line><text fill="currentColor" y="9" dy="0.71em">0.6</text></g><g class="tick" opacity="1" transform="translate(612.5,0)"><line stroke="currentColor" y2="6"></line><text fill="currentColor" y="9" dy="0.71em">0.8</text></g><g class="tick" opacity="1" transform="translate(680.5,0)"><line stroke="currentColor" y2="6"></line><text fill="currentColor" y="9" dy="0.71em">1.0</text></g></g><g fill="none" font-size="10" font-family="sans-serif" text-anchor="end"><path class="domain" stroke="currentColor" d="M-6,500.5H0.5V0.5H-6"></path><g class="tick" opacity="1" transform="translate(0,450.8954346142283)"><line stroke="currentColor" x2="-6"></line><text fill="currentColor" x="-9" dy="0.32em">−0.8</text></g><g class="tick" opacity="1" transform="translate(0,400.7965759606712)"><line stroke="currentColor" x2="-6"></line><text fill="currentColor" x="-9" dy="0.32em">−0.6</text></g><g class="tick" opacity="1" transform="translate(0,350.69771730711415)"><line stroke="currentColor" x2="-6"></line><text fill="currentColor" x="-9" dy="0.32em">−0.4</text></g><g class="tick" opacity="1" transform="translate(0,300.59885865355704)"><line stroke="currentColor" x2="-6"></line><text fill="currentColor" x="-9" dy="0.32em">−0.2</text></g><g class="tick" opacity="1" transform="translate(0,250.49999999999994)"><line stroke="currentColor" x2="-6"></line><text fill="currentColor" x="-9" dy="0.32em">0.0</text></g><g class="tick" opacity="1" transform="translate(0,200.40114134644287)"><line stroke="currentColor" x2="-6"></line><text fill="currentColor" x="-9" dy="0.32em">0.2</text></g><g class="tick" opacity="1" transform="translate(0,150.30228269288583)"><line stroke="currentColor" x2="-6"></line><text fill="currentColor" x="-9" dy="0.32em">0.4</text></g><g class="tick" opacity="1" transform="translate(0,100.20342403932875)"><line stroke="currentColor" x2="-6"></line><text fill="currentColor" x="-9" dy="0.32em">0.6</text></g><g class="tick" opacity="1" transform="translate(0,50.10456538577168)"><line stroke="currentColor" x2="-6"></line><text fill="currentColor" x="-9" dy="0.32em">0.8</text></g></g><text transform="translate(340, 540)" style="text-anchor: middle; font-size: 14px;">x</text><text transform="rotate(-90)" y="-60" x="-250" style="text-anchor: middle; font-size: 14px;">y</text><path fill="none" stroke="#1f77b4" stroke-width="2" style="shape-rendering: geometricPrecision;" d="M340,250L403.71,218.605L465.162,187.705L522.181,157.787L572.746,129.323L615.066,102.763L647.641,78.525L669.318,56.991L679.329,38.501L677.319,23.346L663.359,11.766L637.944,3.943L601.975,0L556.724,0L503.796,3.943L445.066,11.766L382.613,23.346L318.651,38.501L255.445,56.991L195.235,78.525L140.153,102.763L92.151,129.323L52.929,157.787L23.876,187.705L6.022,218.605L0,250L6.022,281.395L23.876,312.295L52.929,342.213L92.151,370.677L140.153,397.237L195.235,421.475L255.445,443.009L318.651,461.499L382.613,476.654L445.066,488.234L503.796,496.057L556.724,500L601.975,500L637.944,496.057L663.359,488.234L677.319,476.654L679.329,461.499L669.318,443.009L647.641,421.475L615.066,397.237L572.746,370.677L522.181,342.213L465.162,312.295L403.71,281.395L340,250L276.29,218.605L214.838,187.705L157.819,157.787L107.254,129.323L64.934,102.763L32.359,78.525L10.682,56.991L0.671,38.501L2.681,23.346L16.641,11.766L42.056,3.943L78.025,0L123.276,0L176.204,3.943L234.934,11.766L297.387,23.346L361.349,38.501L424.555,56.991L484.765,78.525L539.847,102.763L587.849,129.323L627.071,157.787L656.124,187.705L673.978,218.605L680,250L673.978,281.395L656.124,312.295L627.071,342.213L587.849,370.677L539.847,397.237L484.765,421.475L424.555,443.009L361.349,461.499L297.387,476.654L234.934,488.234L176.204,496.057L123.276,500L78.025,500L42.056,496.057L16.641,488.234L2.681,476.654L0.671,461.499L10.682,443.009L32.359,421.475L64.934,397.237L107.254,370.677L157.819,342.213L214.838,312.295L276.29,281.395L340,250"></path></g><text x="400" y="25" style="text-anchor: middle; font-size: 16px; font-weight: bold;">Lissajous Curve 3:2</text></svg>