<svg width="800" height="600" xmlns="http://www.w3.org/2000/svg"><g transform="translate(80,40)"><g transform="translate(0,500)" fill="none" font-size="10" font-family="sans-serif" text-anchor="middle"><path class="domain" stroke="currentColor" d="M0.5,6V0.5H680.5V6"></path><g class="tick" opacity="1" transform="translate(62.94260789715326,0)"><line stroke="currentColor" y2="6"></line><text fill="currentColor" y="9" dy="0.71em">1</text></g><g class="tick" opacity="1" transform="translate(132.32328333843466,0)"><line stroke="currentColor" y2="6"></line><text fill="currentColor" y="9" dy="0.71em">2</text></g><g class="tick" opacity="1" transform="translate(201.70395877971603,0)"><line stroke="currentColor" y2="6"></line><text fill="currentColor" y="9" dy="0.71em">3</text></g><g class="tick" opacity="1" transform="translate(271.0846342209975,0)"><line stroke="currentColor" y2="6"></line><text fill="currentColor" y="9" dy="0.71em">4</text></g><g class="tick" opacity="1" transform="translate(340.4653096622789,0)"><line stroke="currentColor" y2="6"></line><text fill="currentColor" y="9" dy="0.71em">5</text></g><g class="tick" opacity="1" transform="translate(409.8459851035603,0)"><line stroke="currentColor" y2="6"></line><text fill="currentColor" y="9" dy="0.71em">6</text></g><g class="tick" opacity="1" transform="translate(479.2266605448417,0)"><line stroke="currentColor" y2="6"></line><text fill="currentColor" y="9" dy="0.71em">7</text></g><g class="tick" opacity="1" transform="translate(548.6073359861231,0)"><line stroke="currentColor" y2="6"></line><text fill="currentColor" y="9" dy="0.71em">8</text></g><g class="tick" opacity="1" transform="translate(617.9880114274044,0)"><line stroke="currentColor" y2="6"></line><text fill="currentColor" y="9" dy="0.71em">9</text></g></g><g fill="none" font-size="10" font-family="sans-serif" text-anchor="end"><path class="domain" stroke="currentColor" d="M-6,500.5H0.5V0.5H-6"></path><g class="tick" opacity="1" transform="translate(0,467.57610988316753)"><line stroke="currentColor" x2="-6"></line><text fill="currentColor" x="-9" dy="0.32em">−2.0</text></g><g class="tick" opacity="1" transform="translate(0,413.17176069488755)"><line stroke="currentColor" x2="-6"></line><text fill="currentColor" x="-9" dy="0.32em">−1.5</text></g><g class="tick" opacity="1" transform="translate(0,358.76741150660746)"><line stroke="currentColor" x2="-6"></line><text fill="currentColor" x="-9" dy="0.32em">−1.0</text></g><g class="tick" opacity="1" transform="translate(0,304.3630623183275)"><line stroke="currentColor" x2="-6"></line><text fill="currentColor" x="-9" dy="0.32em">−0.5</text></g><g class="tick" opacity="1" transform="translate(0,249.9587131300474)"><line stroke="currentColor" x2="-6"></line><text fill="currentColor" x="-9" dy="0.32em">0.0</text></g><g class="tick" opacity="1" transform="translate(0,195.5543639417674)"><line stroke="currentColor" x2="-6"></line><text fill="currentColor" x="-9" dy="0.32em">0.5</text></g><g class="tick" opacity="1" transform="translate(0,141.15001475348737)"><line stroke="currentColor" x2="-6"></line><text fill="currentColor" x="-9" dy="0.32em">1.0</text></g><g class="tick" opacity="1" transform="translate(0,86.74566556520735)"><line stroke="currentColor" x2="-6"></line><text fill="currentColor" x="-9" dy="0.32em">1.5</text></g><g class="tick" opacity="1" transform="translate(0,32.34131637692739)"><line stroke="currentColor" x2="-6"></line><text fill="currentColor" x="-9" dy="0.32em">2.0</text></g></g><text transform="translate(340, 540)" style="text-anchor: middle; font-size: 14px;">x</text><text transform="rotate(-90)" y="-60" x="-250" style="text-anchor: middle; font-size: 14px;">y</text><path fill="none" stroke="#1f77b4" stroke-width="2" style="shape-rendering: geometricPrecision;" d="M0,500L6.869,425.125L13.737,381.189L20.606,349.978L27.475,325.753L34.343,305.952L41.212,289.205L48.081,274.695L54.949,261.894L61.818,250.442L68.687,240.082L75.556,230.623L82.424,221.92L89.293,213.863L96.162,206.361L103.03,199.343L109.899,192.751L116.768,186.535L123.636,180.655L130.505,175.077L137.374,169.771L144.242,164.711L151.111,159.877L157.98,155.248L164.848,150.808L171.717,146.542L178.586,142.437L185.455,138.481L192.323,134.665L199.192,130.977L206.061,127.41L212.929,123.957L219.798,120.61L226.667,117.363L233.535,114.209L240.404,111.145L247.273,108.165L254.141,105.264L261.01,102.438L267.879,99.684L274.747,96.998L281.616,94.376L288.485,91.817L295.354,89.316L302.222,86.871L309.091,84.48L315.96,82.141L322.828,79.85L329.697,77.607L336.566,75.409L343.434,73.255L350.303,71.143L357.172,69.071L364.04,67.037L370.909,65.041L377.778,63.081L384.646,61.155L391.515,59.263L398.384,57.403L405.253,55.575L412.121,53.777L418.99,52.008L425.859,50.267L432.727,48.554L439.596,46.867L446.465,45.206L453.333,43.57L460.202,41.958L467.071,40.37L473.939,38.805L480.808,37.261L487.677,35.74L494.545,34.239L501.414,32.759L508.283,31.299L515.152,29.858L522.02,28.435L528.889,27.032L535.758,25.646L542.626,24.277L549.495,22.926L556.364,21.591L563.232,20.272L570.101,18.969L576.97,17.682L583.838,16.409L590.707,15.151L597.576,13.908L604.444,12.679L611.313,11.463L618.182,10.261L625.051,9.072L631.919,7.895L638.788,6.732L645.657,5.581L652.525,4.441L659.394,3.314L666.263,2.198L673.131,1.093L680,0"></path></g><text x="400" y="25" style="text-anchor: middle; font-size: 16px; font-weight: bold;">Natural Logarithm (Safe Domain)</text></svg>