<svg width="800" height="600" xmlns="http://www.w3.org/2000/svg"><g transform="translate(80,40)"><g transform="translate(0,500)" fill="none" font-size="10" font-family="sans-serif" text-anchor="middle"><path class="domain" stroke="currentColor" d="M0.5,6V0.5H680.5V6"></path><g class="tick" opacity="1" transform="translate(0.5,0)"><line stroke="currentColor" y2="6"></line><text fill="currentColor" y="9" dy="0.71em">−3.0</text></g><g class="tick" opacity="1" transform="translate(57.7390572390572,0)"><line stroke="currentColor" y2="6"></line><text fill="currentColor" y="9" dy="0.71em">−2.5</text></g><g class="tick" opacity="1" transform="translate(114.9781144781144,0)"><line stroke="currentColor" y2="6"></line><text fill="currentColor" y="9" dy="0.71em">−2.0</text></g><g class="tick" opacity="1" transform="translate(172.21717171717162,0)"><line stroke="currentColor" y2="6"></line><text fill="currentColor" y="9" dy="0.71em">−1.5</text></g><g class="tick" opacity="1" transform="translate(229.4562289562288,0)"><line stroke="currentColor" y2="6"></line><text fill="currentColor" y="9" dy="0.71em">−1.0</text></g><g class="tick" opacity="1" transform="translate(286.695286195286,0)"><line stroke="currentColor" y2="6"></line><text fill="currentColor" y="9" dy="0.71em">−0.5</text></g><g class="tick" opacity="1" transform="translate(343.93434343434325,0)"><line stroke="currentColor" y2="6"></line><text fill="currentColor" y="9" dy="0.71em">0.0</text></g><g class="tick" opacity="1" transform="translate(401.1734006734004,0)"><line stroke="currentColor" y2="6"></line><text fill="currentColor" y="9" dy="0.71em">0.5</text></g><g class="tick" opacity="1" transform="translate(458.4124579124576,0)"><line stroke="currentColor" y2="6"></line><text fill="currentColor" y="9" dy="0.71em">1.0</text></g><g class="tick" opacity="1" transform="translate(515.6515151515149,0)"><line stroke="currentColor" y2="6"></line><text fill="currentColor" y="9" dy="0.71em">1.5</text></g><g class="tick" opacity="1" transform="translate(572.890572390572,0)"><line stroke="currentColor" y2="6"></line><text fill="currentColor" y="9" dy="0.71em">2.0</text></g><g class="tick" opacity="1" transform="translate(630.1296296296292,0)"><line stroke="currentColor" y2="6"></line><text fill="currentColor" y="9" dy="0.71em">2.5</text></g></g><g fill="none" font-size="10" font-family="sans-serif" text-anchor="end"><path class="domain" stroke="currentColor" d="M-6,500.5H0.5V0.5H-6"></path><g class="tick" opacity="1" transform="translate(0,444.9444444444444)"><line stroke="currentColor" x2="-6"></line><text fill="currentColor" x="-9" dy="0.32em">1</text></g><g class="tick" opacity="1" transform="translate(0,389.3888888888889)"><line stroke="currentColor" x2="-6"></line><text fill="currentColor" x="-9" dy="0.32em">2</text></g><g class="tick" opacity="1" transform="translate(0,333.83333333333337)"><line stroke="currentColor" x2="-6"></line><text fill="currentColor" x="-9" dy="0.32em">3</text></g><g class="tick" opacity="1" transform="translate(0,278.27777777777777)"><line stroke="currentColor" x2="-6"></line><text fill="currentColor" x="-9" dy="0.32em">4</text></g><g class="tick" opacity="1" transform="translate(0,222.7222222222222)"><line stroke="currentColor" x2="-6"></line><text fill="currentColor" x="-9" dy="0.32em">5</text></g><g class="tick" opacity="1" transform="translate(0,167.16666666666669)"><line stroke="currentColor" x2="-6"></line><text fill="currentColor" x="-9" dy="0.32em">6</text></g><g class="tick" opacity="1" transform="translate(0,111.6111111111111)"><line stroke="currentColor" x2="-6"></line><text fill="currentColor" x="-9" dy="0.32em">7</text></g><g class="tick" opacity="1" transform="translate(0,56.05555555555558)"><line stroke="currentColor" x2="-6"></line><text fill="currentColor" x="-9" dy="0.32em">8</text></g><g class="tick" opacity="1" transform="translate(0,0.5)"><line stroke="currentColor" x2="-6"></line><text fill="currentColor" x="-9" dy="0.32em">9</text></g></g><text transform="translate(340, 540)" style="text-anchor: middle; font-size: 14px;">x</text><text transform="rotate(-90)" y="-60" x="-250" style="text-anchor: middle; font-size: 14px;">y</text><path fill="none" stroke="#1f77b4" stroke-width="2" style="shape-rendering: geometricPrecision;" d="M0,0L6.869,19.8L13.737,39.2L20.606,58.2L27.475,76.8L34.343,95L41.212,112.8L48.081,130.2L54.949,147.2L61.818,163.8L68.687,180L75.556,195.8L82.424,211.2L89.293,226.2L96.162,240.8L103.03,255L109.899,268.8L116.768,282.2L123.636,295.2L130.505,307.8L137.374,320L144.242,331.8L151.111,343.2L157.98,354.2L164.848,364.8L171.717,375L178.586,384.8L185.455,394.2L192.323,403.2L199.192,411.8L206.061,420L212.929,427.8L219.798,435.2L226.667,442.2L233.535,448.8L240.404,455L247.273,460.8L254.141,466.2L261.01,471.2L267.879,475.8L274.747,480L281.616,483.8L288.485,487.2L295.354,490.2L302.222,492.8L309.091,495L315.96,496.8L322.828,498.2L329.697,499.2L336.566,499.8L343.434,500L350.303,499.8L357.172,499.2L364.04,498.2L370.909,496.8L377.778,495L384.646,492.8L391.515,490.2L398.384,487.2L405.253,483.8L412.121,480L418.99,475.8L425.859,471.2L432.727,466.2L439.596,460.8L446.465,455L453.333,448.8L460.202,442.2L467.071,435.2L473.939,427.8L480.808,420L487.677,411.8L494.545,403.2L501.414,394.2L508.283,384.8L515.152,375L522.02,364.8L528.889,354.2L535.758,343.2L542.626,331.8L549.495,320L556.364,307.8L563.232,295.2L570.101,282.2L576.97,268.8L583.838,255L590.707,240.8L597.576,226.2L604.444,211.2L611.313,195.8L618.182,180L625.051,163.8L631.919,147.2L638.788,130.2L645.657,112.8L652.525,95L659.394,76.8L666.263,58.2L673.131,39.2L680,19.8"></path></g><text x="400" y="25" style="text-anchor: middle; font-size: 16px; font-weight: bold;">Quadratic Function</text></svg>