<svg width="800" height="600" xmlns="http://www.w3.org/2000/svg"><g transform="translate(80,40)"><g transform="translate(0,500)" fill="none" font-size="10" font-family="sans-serif" text-anchor="middle"><path class="domain" stroke="currentColor" d="M0.5,6V0.5H680.5V6"></path><g class="tick" opacity="1" transform="translate(0.5,0)"><line stroke="currentColor" y2="6"></line><text fill="currentColor" y="9" dy="0.71em">0.0</text></g><g class="tick" opacity="1" transform="translate(54.612680651244496,0)"><line stroke="currentColor" y2="6"></line><text fill="currentColor" y="9" dy="0.71em">0.5</text></g><g class="tick" opacity="1" transform="translate(108.72536130248899,0)"><line stroke="currentColor" y2="6"></line><text fill="currentColor" y="9" dy="0.71em">1.0</text></g><g class="tick" opacity="1" transform="translate(162.83804195373347,0)"><line stroke="currentColor" y2="6"></line><text fill="currentColor" y="9" dy="0.71em">1.5</text></g><g class="tick" opacity="1" transform="translate(216.95072260497798,0)"><line stroke="currentColor" y2="6"></line><text fill="currentColor" y="9" dy="0.71em">2.0</text></g><g class="tick" opacity="1" transform="translate(271.0634032562225,0)"><line stroke="currentColor" y2="6"></line><text fill="currentColor" y="9" dy="0.71em">2.5</text></g><g class="tick" opacity="1" transform="translate(325.17608390746693,0)"><line stroke="currentColor" y2="6"></line><text fill="currentColor" y="9" dy="0.71em">3.0</text></g><g class="tick" opacity="1" transform="translate(379.2887645587115,0)"><line stroke="currentColor" y2="6"></line><text fill="currentColor" y="9" dy="0.71em">3.5</text></g><g class="tick" opacity="1" transform="translate(433.40144520995597,0)"><line stroke="currentColor" y2="6"></line><text fill="currentColor" y="9" dy="0.71em">4.0</text></g><g class="tick" opacity="1" transform="translate(487.5141258612004,0)"><line stroke="currentColor" y2="6"></line><text fill="currentColor" y="9" dy="0.71em">4.5</text></g><g class="tick" opacity="1" transform="translate(541.626806512445,0)"><line stroke="currentColor" y2="6"></line><text fill="currentColor" y="9" dy="0.71em">5.0</text></g><g class="tick" opacity="1" transform="translate(595.7394871636894,0)"><line stroke="currentColor" y2="6"></line><text fill="currentColor" y="9" dy="0.71em">5.5</text></g><g class="tick" opacity="1" transform="translate(649.8521678149339,0)"><line stroke="currentColor" y2="6"></line><text fill="currentColor" y="9" dy="0.71em">6.0</text></g></g><g fill="none" font-size="10" font-family="sans-serif" text-anchor="end"><path class="domain" stroke="currentColor" d="M-6,500.5H0.5V0.5H-6"></path><g class="tick" opacity="1" transform="translate(0,500.5)"><line stroke="currentColor" x2="-6"></line><text fill="currentColor" x="-9" dy="0.32em">−1.0</text></g><g class="tick" opacity="1" transform="translate(0,450.5)"><line stroke="currentColor" x2="-6"></line><text fill="currentColor" x="-9" dy="0.32em">−0.8</text></g><g class="tick" opacity="1" transform="translate(0,400.5)"><line stroke="currentColor" x2="-6"></line><text fill="currentColor" x="-9" dy="0.32em">−0.6</text></g><g class="tick" opacity="1" transform="translate(0,350.5)"><line stroke="currentColor" x2="-6"></line><text fill="currentColor" x="-9" dy="0.32em">−0.4</text></g><g class="tick" opacity="1" transform="translate(0,300.5)"><line stroke="currentColor" x2="-6"></line><text fill="currentColor" x="-9" dy="0.32em">−0.2</text></g><g class="tick" opacity="1" transform="translate(0,250.5)"><line stroke="currentColor" x2="-6"></line><text fill="currentColor" x="-9" dy="0.32em">0.0</text></g><g class="tick" opacity="1" transform="translate(0,200.5)"><line stroke="currentColor" x2="-6"></line><text fill="currentColor" x="-9" dy="0.32em">0.2</text></g><g class="tick" opacity="1" transform="translate(0,150.50000000000003)"><line stroke="currentColor" x2="-6"></line><text fill="currentColor" x="-9" dy="0.32em">0.4</text></g><g class="tick" opacity="1" transform="translate(0,100.49999999999997)"><line stroke="currentColor" x2="-6"></line><text fill="currentColor" x="-9" dy="0.32em">0.6</text></g><g class="tick" opacity="1" transform="translate(0,50.499999999999986)"><line stroke="currentColor" x2="-6"></line><text fill="currentColor" x="-9" dy="0.32em">0.8</text></g><g class="tick" opacity="1" transform="translate(0,0.5)"><line stroke="currentColor" x2="-6"></line><text fill="currentColor" x="-9" dy="0.32em">1.0</text></g></g><text transform="translate(340, 540)" style="text-anchor: middle; font-size: 14px;">x</text><text transform="rotate(-90)" y="-60" x="-250" style="text-anchor: middle; font-size: 14px;">y</text><path fill="none" stroke="#1f77b4" stroke-width="2" style="shape-rendering: geometricPrecision;" d="M0,250L6.8,234.302L13.6,218.667L20.4,203.155L27.2,187.828L34,172.746L40.8,157.969L47.6,143.555L54.4,129.562L61.2,116.043L68,103.054L74.8,90.644L81.6,78.863L88.4,67.758L95.2,57.372L102,47.746L108.8,38.918L115.6,30.923L122.4,23.793L129.2,17.556L136,12.236L142.8,7.854L149.6,4.428L156.4,1.971L163.2,0.493L170,0L176.8,0.493L183.6,1.971L190.4,4.428L197.2,7.854L204,12.236L210.8,17.556L217.6,23.793L224.4,30.923L231.2,38.918L238,47.746L244.8,57.372L251.6,67.758L258.4,78.863L265.2,90.644L272,103.054L278.8,116.043L285.6,129.562L292.4,143.555L299.2,157.969L306,172.746L312.8,187.828L319.6,203.155L326.4,218.667L333.2,234.302L340,250L346.8,265.698L353.6,281.333L360.4,296.845L367.2,312.172L374,327.254L380.8,342.031L387.6,356.445L394.4,370.438L401.2,383.957L408,396.946L414.8,409.356L421.6,421.137L428.4,432.242L435.2,442.628L442,452.254L448.8,461.082L455.6,469.077L462.4,476.207L469.2,482.444L476,487.764L482.8,492.146L489.6,495.572L496.4,498.029L503.2,499.507L510,500L516.8,499.507L523.6,498.029L530.4,495.572L537.2,492.146L544,487.764L550.8,482.444L557.6,476.207L564.4,469.077L571.2,461.082L578,452.254L584.8,442.628L591.6,432.242L598.4,421.137L605.2,409.356L612,396.946L618.8,383.957L625.6,370.438L632.4,356.445L639.2,342.031L646,327.254L652.8,312.172L659.6,296.845L666.4,281.333L673.2,265.698L680,250"></path><path fill="none" stroke="#ff7f0e" stroke-width="2" style="shape-rendering: geometricPrecision;" d="M0,73.223L6.8,62.472L13.6,52.461L20.4,43.23L27.2,34.814L34,27.248L40.8,20.561L47.6,14.78L54.4,9.927L61.2,6.021L68,3.078L74.8,1.11L81.6,0.123L88.4,0.123L95.2,1.11L102,3.078L108.8,6.021L115.6,9.927L122.4,14.78L129.2,20.561L136,27.248L142.8,34.814L149.6,43.23L156.4,52.461L163.2,62.472L170,73.223L176.8,84.672L183.6,96.773L190.4,109.479L197.2,122.74L204,136.502L210.8,150.713L217.6,165.316L224.4,180.252L231.2,195.464L238,210.891L244.8,226.473L251.6,242.147L258.4,257.853L265.2,273.527L272,289.109L278.8,304.536L285.6,319.748L292.4,334.684L299.2,349.287L306,363.498L312.8,377.26L319.6,390.521L326.4,403.227L333.2,415.328L340,426.777L346.8,437.528L353.6,447.539L360.4,456.77L367.2,465.186L374,472.752L380.8,479.439L387.6,485.22L394.4,490.073L401.2,493.979L408,496.922L414.8,498.89L421.6,499.877L428.4,499.877L435.2,498.89L442,496.922L448.8,493.979L455.6,490.073L462.4,485.22L469.2,479.439L476,472.752L482.8,465.186L489.6,456.77L496.4,447.539L503.2,437.528L510,426.777L516.8,415.328L523.6,403.227L530.4,390.521L537.2,377.26L544,363.498L550.8,349.287L557.6,334.684L564.4,319.748L571.2,304.536L578,289.109L584.8,273.527L591.6,257.853L598.4,242.147L605.2,226.473L612,210.891L618.8,195.464L625.6,180.252L632.4,165.316L639.2,150.713L646,136.502L652.8,122.74L659.6,109.479L666.4,96.773L673.2,84.672L680,73.223"></path><path fill="none" stroke="#2ca02c" stroke-width="2" style="shape-rendering: geometricPrecision;" d="M0,0L6.8,0.493L13.6,1.971L20.4,4.428L27.2,7.854L34,12.236L40.8,17.556L47.6,23.793L54.4,30.923L61.2,38.918L68,47.746L74.8,57.372L81.6,67.758L88.4,78.863L95.2,90.644L102,103.054L108.8,116.043L115.6,129.562L122.4,143.555L129.2,157.969L136,172.746L142.8,187.828L149.6,203.155L156.4,218.667L163.2,234.302L170,250L176.8,265.698L183.6,281.333L190.4,296.845L197.2,312.172L204,327.254L210.8,342.031L217.6,356.445L224.4,370.438L231.2,383.957L238,396.946L244.8,409.356L251.6,421.137L258.4,432.242L265.2,442.628L272,452.254L278.8,461.082L285.6,469.077L292.4,476.207L299.2,482.444L306,487.764L312.8,492.146L319.6,495.572L326.4,498.029L333.2,499.507L340,500L346.8,499.507L353.6,498.029L360.4,495.572L367.2,492.146L374,487.764L380.8,482.444L387.6,476.207L394.4,469.077L401.2,461.082L408,452.254L414.8,442.628L421.6,432.242L428.4,421.137L435.2,409.356L442,396.946L448.8,383.957L455.6,370.438L462.4,356.445L469.2,342.031L476,327.254L482.8,312.172L489.6,296.845L496.4,281.333L503.2,265.698L510,250L516.8,234.302L523.6,218.667L530.4,203.155L537.2,187.828L544,172.746L550.8,157.969L557.6,143.555L564.4,129.562L571.2,116.043L578,103.054L584.8,90.644L591.6,78.863L598.4,67.758L605.2,57.372L612,47.746L618.8,38.918L625.6,30.923L632.4,23.793L639.2,17.556L646,12.236L652.8,7.854L659.6,4.428L666.4,1.971L673.2,0.493L680,0"></path></g><text x="400" y="25" style="text-anchor: middle; font-size: 16px; font-weight: bold;">Phase Shift Comparison</text><g class="legend"><rect x="570" y="50" width="200" height="80" fill="white" stroke="#ccc" stroke-width="1" style="opacity: 0.9;"></rect><g transform="translate(580, 60)"><line x1="0" x2="20" y1="0" y2="0" stroke="#1f77b4" stroke-width="2"></line><text x="25" y="0" dy="0.35em" style="font-size: 12px; font-family: sans-serif;">Phase 0</text></g><g transform="translate(580, 80)"><line x1="0" x2="20" y1="0" y2="0" stroke="#ff7f0e" stroke-width="2"></line><text x="25" y="0" dy="0.35em" style="font-size: 12px; font-family: sans-serif;">Phase π/4</text></g><g transform="translate(580, 100)"><line x1="0" x2="20" y1="0" y2="0" stroke="#2ca02c" stroke-width="2"></line><text x="25" y="0" dy="0.35em" style="font-size: 12px; font-family: sans-serif;">Phase π/2</text></g></g></svg>