<svg width="800" height="600" xmlns="http://www.w3.org/2000/svg"><g transform="translate(80,40)"><g transform="translate(0,500)" fill="none" font-size="10" font-family="sans-serif" text-anchor="middle"><path class="domain" stroke="currentColor" d="M0.5,6V0.5H680.5V6"></path><g class="tick" opacity="1" transform="translate(0.5,0)"><line stroke="currentColor" y2="6"></line><text fill="currentColor" y="9" dy="0.71em">−2.0</text></g><g class="tick" opacity="1" transform="translate(86.35858585858581,0)"><line stroke="currentColor" y2="6"></line><text fill="currentColor" y="9" dy="0.71em">−1.5</text></g><g class="tick" opacity="1" transform="translate(172.21717171717162,0)"><line stroke="currentColor" y2="6"></line><text fill="currentColor" y="9" dy="0.71em">−1.0</text></g><g class="tick" opacity="1" transform="translate(258.07575757575745,0)"><line stroke="currentColor" y2="6"></line><text fill="currentColor" y="9" dy="0.71em">−0.5</text></g><g class="tick" opacity="1" transform="translate(343.93434343434325,0)"><line stroke="currentColor" y2="6"></line><text fill="currentColor" y="9" dy="0.71em">0.0</text></g><g class="tick" opacity="1" transform="translate(429.79292929292905,0)"><line stroke="currentColor" y2="6"></line><text fill="currentColor" y="9" dy="0.71em">0.5</text></g><g class="tick" opacity="1" transform="translate(515.6515151515149,0)"><line stroke="currentColor" y2="6"></line><text fill="currentColor" y="9" dy="0.71em">1.0</text></g><g class="tick" opacity="1" transform="translate(601.5101010101006,0)"><line stroke="currentColor" y2="6"></line><text fill="currentColor" y="9" dy="0.71em">1.5</text></g></g><g fill="none" font-size="10" font-family="sans-serif" text-anchor="end"><path class="domain" stroke="currentColor" d="M-6,500.5H0.5V0.5H-6"></path><g class="tick" opacity="1" transform="translate(0,500.5)"><line stroke="currentColor" x2="-6"></line><text fill="currentColor" x="-9" dy="0.32em">−8</text></g><g class="tick" opacity="1" transform="translate(0,458.8333333333333)"><line stroke="currentColor" x2="-6"></line><text fill="currentColor" x="-9" dy="0.32em">−6</text></g><g class="tick" opacity="1" transform="translate(0,417.1666666666667)"><line stroke="currentColor" x2="-6"></line><text fill="currentColor" x="-9" dy="0.32em">−4</text></g><g class="tick" opacity="1" transform="translate(0,375.5)"><line stroke="currentColor" x2="-6"></line><text fill="currentColor" x="-9" dy="0.32em">−2</text></g><g class="tick" opacity="1" transform="translate(0,333.83333333333337)"><line stroke="currentColor" x2="-6"></line><text fill="currentColor" x="-9" dy="0.32em">0</text></g><g class="tick" opacity="1" transform="translate(0,292.16666666666663)"><line stroke="currentColor" x2="-6"></line><text fill="currentColor" x="-9" dy="0.32em">2</text></g><g class="tick" opacity="1" transform="translate(0,250.5)"><line stroke="currentColor" x2="-6"></line><text fill="currentColor" x="-9" dy="0.32em">4</text></g><g class="tick" opacity="1" transform="translate(0,208.83333333333331)"><line stroke="currentColor" x2="-6"></line><text fill="currentColor" x="-9" dy="0.32em">6</text></g><g class="tick" opacity="1" transform="translate(0,167.16666666666669)"><line stroke="currentColor" x2="-6"></line><text fill="currentColor" x="-9" dy="0.32em">8</text></g><g class="tick" opacity="1" transform="translate(0,125.5)"><line stroke="currentColor" x2="-6"></line><text fill="currentColor" x="-9" dy="0.32em">10</text></g><g class="tick" opacity="1" transform="translate(0,83.83333333333331)"><line stroke="currentColor" x2="-6"></line><text fill="currentColor" x="-9" dy="0.32em">12</text></g><g class="tick" opacity="1" transform="translate(0,42.166666666666686)"><line stroke="currentColor" x2="-6"></line><text fill="currentColor" x="-9" dy="0.32em">14</text></g><g class="tick" opacity="1" transform="translate(0,0.5)"><line stroke="currentColor" x2="-6"></line><text fill="currentColor" x="-9" dy="0.32em">16</text></g></g><text transform="translate(340, 540)" style="text-anchor: middle; font-size: 14px;">x</text><text transform="rotate(-90)" y="-60" x="-250" style="text-anchor: middle; font-size: 14px;">y</text><path fill="none" stroke="#1f77b4" stroke-width="2" style="shape-rendering: geometricPrecision;" d="M0,375L6.869,374.167L13.737,373.333L20.606,372.5L27.475,371.667L34.343,370.833L41.212,370L48.081,369.167L54.949,368.333L61.818,367.5L68.687,366.667L75.556,365.833L82.424,365L89.293,364.167L96.162,363.333L103.03,362.5L109.899,361.667L116.768,360.833L123.636,360L130.505,359.167L137.374,358.333L144.242,357.5L151.111,356.667L157.98,355.833L164.848,355L171.717,354.167L178.586,353.333L185.455,352.5L192.323,351.667L199.192,350.833L206.061,350L212.929,349.167L219.798,348.333L226.667,347.5L233.535,346.667L240.404,345.833L247.273,345L254.141,344.167L261.01,343.333L267.879,342.5L274.747,341.667L281.616,340.833L288.485,340L295.354,339.167L302.222,338.333L309.091,337.5L315.96,336.667L322.828,335.833L329.697,335L336.566,334.167L343.434,333.333L350.303,332.5L357.172,331.667L364.04,330.833L370.909,330L377.778,329.167L384.646,328.333L391.515,327.5L398.384,326.667L405.253,325.833L412.121,325L418.99,324.167L425.859,323.333L432.727,322.5L439.596,321.667L446.465,320.833L453.333,320L460.202,319.167L467.071,318.333L473.939,317.5L480.808,316.667L487.677,315.833L494.545,315L501.414,314.167L508.283,313.333L515.152,312.5L522.02,311.667L528.889,310.833L535.758,310L542.626,309.167L549.495,308.333L556.364,307.5L563.232,306.667L570.101,305.833L576.97,305L583.838,304.167L590.707,303.333L597.576,302.5L604.444,301.667L611.313,300.833L618.182,300L625.051,299.167L631.919,298.333L638.788,297.5L645.657,296.667L652.525,295.833L659.394,295L666.263,294.167L673.131,293.333L680,292.5"></path><path fill="none" stroke="#ff7f0e" stroke-width="2" style="shape-rendering: geometricPrecision;" d="M0,250L6.869,253.3L13.737,256.533L20.606,259.7L27.475,262.8L34.343,265.833L41.212,268.8L48.081,271.7L54.949,274.533L61.818,277.3L68.687,280L75.556,282.633L82.424,285.2L89.293,287.7L96.162,290.133L103.03,292.5L109.899,294.8L116.768,297.033L123.636,299.2L130.505,301.3L137.374,303.333L144.242,305.3L151.111,307.2L157.98,309.033L164.848,310.8L171.717,312.5L178.586,314.133L185.455,315.7L192.323,317.2L199.192,318.633L206.061,320L212.929,321.3L219.798,322.533L226.667,323.7L233.535,324.8L240.404,325.833L247.273,326.8L254.141,327.7L261.01,328.533L267.879,329.3L274.747,330L281.616,330.633L288.485,331.2L295.354,331.7L302.222,332.133L309.091,332.5L315.96,332.8L322.828,333.033L329.697,333.2L336.566,333.3L343.434,333.333L350.303,333.3L357.172,333.2L364.04,333.033L370.909,332.8L377.778,332.5L384.646,332.133L391.515,331.7L398.384,331.2L405.253,330.633L412.121,330L418.99,329.3L425.859,328.533L432.727,327.7L439.596,326.8L446.465,325.833L453.333,324.8L460.202,323.7L467.071,322.533L473.939,321.3L480.808,320L487.677,318.633L494.545,317.2L501.414,315.7L508.283,314.133L515.152,312.5L522.02,310.8L528.889,309.033L535.758,307.2L542.626,305.3L549.495,303.333L556.364,301.3L563.232,299.2L570.101,297.033L576.97,294.8L583.838,292.5L590.707,290.133L597.576,287.7L604.444,285.2L611.313,282.633L618.182,280L625.051,277.3L631.919,274.533L638.788,271.7L645.657,268.8L652.525,265.833L659.394,262.8L666.263,259.7L673.131,256.533L680,253.3"></path><path fill="none" stroke="#2ca02c" stroke-width="2" style="shape-rendering: geometricPrecision;" d="M0,500L6.869,490.199L13.737,480.789L20.606,471.764L27.475,463.115L34.343,454.833L41.212,446.912L48.081,439.343L54.949,432.117L61.818,425.228L68.687,418.667L75.556,412.425L82.424,406.496L89.293,400.871L96.162,395.541L103.03,390.5L109.899,385.739L116.768,381.249L123.636,377.024L130.505,373.055L137.374,369.333L144.242,365.852L151.111,362.603L157.98,359.577L164.848,356.768L171.717,354.167L178.586,351.765L185.455,349.556L192.323,347.531L199.192,345.681L206.061,344L212.929,342.479L219.798,341.109L226.667,339.884L233.535,338.795L240.404,337.833L247.273,336.992L254.141,336.263L261.01,335.637L267.879,335.108L274.747,334.667L281.616,334.305L288.485,334.016L295.354,333.791L302.222,333.621L309.091,333.5L315.96,333.419L322.828,333.369L329.697,333.344L336.566,333.335L343.434,333.333L350.303,333.332L357.172,333.323L364.04,333.297L370.909,333.248L377.778,333.167L384.646,333.045L391.515,332.876L398.384,332.651L405.253,332.361L412.121,332L418.99,331.559L425.859,331.029L432.727,330.404L439.596,329.675L446.465,328.833L453.333,327.872L460.202,326.783L467.071,325.557L473.939,324.188L480.808,322.667L487.677,320.985L494.545,319.136L501.414,317.111L508.283,314.901L515.152,312.5L522.02,309.899L528.889,307.089L535.758,304.064L542.626,300.815L549.495,297.333L556.364,293.612L563.232,289.643L570.101,285.417L576.97,280.928L583.838,276.167L590.707,271.125L597.576,265.796L604.444,260.171L611.313,254.241L618.182,248L625.051,241.439L631.919,234.549L638.788,227.324L645.657,219.755L652.525,211.833L659.394,203.552L666.263,194.903L673.131,185.877L680,176.468"></path><path fill="none" stroke="#d62728" stroke-width="2" style="shape-rendering: geometricPrecision;" d="M0,0L6.869,25.877L13.737,50.218L20.606,73.084L27.475,94.536L34.343,114.633L41.212,133.435L48.081,150.997L54.949,167.376L61.818,182.626L68.687,196.8L75.556,209.95L82.424,222.126L89.293,233.378L96.162,243.754L103.03,253.3L109.899,262.062L116.768,270.084L123.636,277.409L130.505,284.079L137.374,290.133L144.242,295.612L151.111,300.552L157.98,304.99L164.848,308.961L171.717,312.5L178.586,315.639L185.455,318.408L192.323,320.84L199.192,322.961L206.061,324.8L212.929,326.383L219.798,327.735L226.667,328.879L233.535,329.838L240.404,330.633L247.273,331.284L254.141,331.81L261.01,332.227L267.879,332.552L274.747,332.8L281.616,332.983L288.485,333.115L295.354,333.205L302.222,333.264L309.091,333.3L315.96,333.32L322.828,333.329L329.697,333.332L336.566,333.333L343.434,333.333L350.303,333.333L357.172,333.332L364.04,333.329L370.909,333.32L377.778,333.3L384.646,333.264L391.515,333.205L398.384,333.115L405.253,332.983L412.121,332.8L418.99,332.552L425.859,332.227L432.727,331.81L439.596,331.284L446.465,330.633L453.333,329.838L460.202,328.879L467.071,327.735L473.939,326.383L480.808,324.8L487.677,322.961L494.545,320.84L501.414,318.408L508.283,315.639L515.152,312.5L522.02,308.961L528.889,304.99L535.758,300.552L542.626,295.612L549.495,290.133L556.364,284.079L563.232,277.409L570.101,270.084L576.97,262.062L583.838,253.3L590.707,243.754L597.576,233.378L604.444,222.126L611.313,209.95L618.182,196.8L625.051,182.626L631.919,167.376L638.788,150.997L645.657,133.435L652.525,114.633L659.394,94.536L666.263,73.084L673.131,50.218L680,25.877"></path></g><text x="400" y="25" style="text-anchor: middle; font-size: 16px; font-weight: bold;">Polynomial Degrees</text><g class="legend"><rect x="570" y="50" width="200" height="100" fill="white" stroke="#ccc" stroke-width="1" style="opacity: 0.9;"></rect><g transform="translate(580, 60)"><line x1="0" x2="20" y1="0" y2="0" stroke="#1f77b4" stroke-width="2"></line><text x="25" y="0" dy="0.35em" style="font-size: 12px; font-family: sans-serif;">Linear</text></g><g transform="translate(580, 80)"><line x1="0" x2="20" y1="0" y2="0" stroke="#ff7f0e" stroke-width="2"></line><text x="25" y="0" dy="0.35em" style="font-size: 12px; font-family: sans-serif;">Quadratic</text></g><g transform="translate(580, 100)"><line x1="0" x2="20" y1="0" y2="0" stroke="#2ca02c" stroke-width="2"></line><text x="25" y="0" dy="0.35em" style="font-size: 12px; font-family: sans-serif;">Cubic</text></g><g transform="translate(580, 120)"><line x1="0" x2="20" y1="0" y2="0" stroke="#d62728" stroke-width="2"></line><text x="25" y="0" dy="0.35em" style="font-size: 12px; font-family: sans-serif;">Quartic</text></g></g></svg>