<svg width="800" height="600" xmlns="http://www.w3.org/2000/svg"><g transform="translate(80,40)"><g transform="translate(0,500)" fill="none" font-size="10" font-family="sans-serif" text-anchor="middle"><path class="domain" stroke="currentColor" d="M0.5,6V0.5H680.5V6"></path><g class="tick" opacity="1" transform="translate(0.5,0)"><line stroke="currentColor" y2="6"></line><text fill="currentColor" y="9" dy="0.71em">−1.0</text></g><g class="tick" opacity="1" transform="translate(57.16666666666669,0)"><line stroke="currentColor" y2="6"></line><text fill="currentColor" y="9" dy="0.71em">−0.5</text></g><g class="tick" opacity="1" transform="translate(113.83333333333339,0)"><line stroke="currentColor" y2="6"></line><text fill="currentColor" y="9" dy="0.71em">0.0</text></g><g class="tick" opacity="1" transform="translate(170.50000000000009,0)"><line stroke="currentColor" y2="6"></line><text fill="currentColor" y="9" dy="0.71em">0.5</text></g><g class="tick" opacity="1" transform="translate(227.16666666666677,0)"><line stroke="currentColor" y2="6"></line><text fill="currentColor" y="9" dy="0.71em">1.0</text></g><g class="tick" opacity="1" transform="translate(283.8333333333335,0)"><line stroke="currentColor" y2="6"></line><text fill="currentColor" y="9" dy="0.71em">1.5</text></g><g class="tick" opacity="1" transform="translate(340.50000000000017,0)"><line stroke="currentColor" y2="6"></line><text fill="currentColor" y="9" dy="0.71em">2.0</text></g><g class="tick" opacity="1" transform="translate(397.16666666666686,0)"><line stroke="currentColor" y2="6"></line><text fill="currentColor" y="9" dy="0.71em">2.5</text></g><g class="tick" opacity="1" transform="translate(453.83333333333354,0)"><line stroke="currentColor" y2="6"></line><text fill="currentColor" y="9" dy="0.71em">3.0</text></g><g class="tick" opacity="1" transform="translate(510.5000000000002,0)"><line stroke="currentColor" y2="6"></line><text fill="currentColor" y="9" dy="0.71em">3.5</text></g><g class="tick" opacity="1" transform="translate(567.166666666667,0)"><line stroke="currentColor" y2="6"></line><text fill="currentColor" y="9" dy="0.71em">4.0</text></g><g class="tick" opacity="1" transform="translate(623.8333333333336,0)"><line stroke="currentColor" y2="6"></line><text fill="currentColor" y="9" dy="0.71em">4.5</text></g></g><g fill="none" font-size="10" font-family="sans-serif" text-anchor="end"><path class="domain" stroke="currentColor" d="M-6,500.5H0.5V0.5H-6"></path><g class="tick" opacity="1" transform="translate(0,500.5)"><line stroke="currentColor" x2="-6"></line><text fill="currentColor" x="-9" dy="0.32em">−1</text></g><g class="tick" opacity="1" transform="translate(0,444.9444444444444)"><line stroke="currentColor" x2="-6"></line><text fill="currentColor" x="-9" dy="0.32em">0</text></g><g class="tick" opacity="1" transform="translate(0,389.3888888888889)"><line stroke="currentColor" x2="-6"></line><text fill="currentColor" x="-9" dy="0.32em">1</text></g><g class="tick" opacity="1" transform="translate(0,333.83333333333337)"><line stroke="currentColor" x2="-6"></line><text fill="currentColor" x="-9" dy="0.32em">2</text></g><g class="tick" opacity="1" transform="translate(0,278.27777777777777)"><line stroke="currentColor" x2="-6"></line><text fill="currentColor" x="-9" dy="0.32em">3</text></g><g class="tick" opacity="1" transform="translate(0,222.7222222222222)"><line stroke="currentColor" x2="-6"></line><text fill="currentColor" x="-9" dy="0.32em">4</text></g><g class="tick" opacity="1" transform="translate(0,167.16666666666669)"><line stroke="currentColor" x2="-6"></line><text fill="currentColor" x="-9" dy="0.32em">5</text></g><g class="tick" opacity="1" transform="translate(0,111.6111111111111)"><line stroke="currentColor" x2="-6"></line><text fill="currentColor" x="-9" dy="0.32em">6</text></g><g class="tick" opacity="1" transform="translate(0,56.05555555555558)"><line stroke="currentColor" x2="-6"></line><text fill="currentColor" x="-9" dy="0.32em">7</text></g><g class="tick" opacity="1" transform="translate(0,0.5)"><line stroke="currentColor" x2="-6"></line><text fill="currentColor" x="-9" dy="0.32em">8</text></g></g><text transform="translate(340, 540)" style="text-anchor: middle; font-size: 14px;">x</text><text transform="rotate(-90)" y="-60" x="-250" style="text-anchor: middle; font-size: 14px;">f(x)</text><path fill="none" stroke="#1f77b4" stroke-width="2" style="shape-rendering: geometricPrecision;" d="M0,0L6.8,19.8L13.6,39.2L20.4,58.2L27.2,76.8L34,95L40.8,112.8L47.6,130.2L54.4,147.2L61.2,163.8L68,180L74.8,195.8L81.6,211.2L88.4,226.2L95.2,240.8L102,255L108.8,268.8L115.6,282.2L122.4,295.2L129.2,307.8L136,320L142.8,331.8L149.6,343.2L156.4,354.2L163.2,364.8L170,375L176.8,384.8L183.6,394.2L190.4,403.2L197.2,411.8L204,420L210.8,427.8L217.6,435.2L224.4,442.2L231.2,448.8L238,455L244.8,460.8L251.6,466.2L258.4,471.2L265.2,475.8L272,480L278.8,483.8L285.6,487.2L292.4,490.2L299.2,492.8L306,495L312.8,496.8L319.6,498.2L326.4,499.2L333.2,499.8L340,500L346.8,499.8L353.6,499.2L360.4,498.2L367.2,496.8L374,495L380.8,492.8L387.6,490.2L394.4,487.2L401.2,483.8L408,480L414.8,475.8L421.6,471.2L428.4,466.2L435.2,460.8L442,455L448.8,448.8L455.6,442.2L462.4,435.2L469.2,427.8L476,420L482.8,411.8L489.6,403.2L496.4,394.2L503.2,384.8L510,375L516.8,364.8L523.6,354.2L530.4,343.2L537.2,331.8L544,320L550.8,307.8L557.6,295.2L564.4,282.2L571.2,268.8L578,255L584.8,240.8L591.6,226.2L598.4,211.2L605.2,195.8L612,180L618.8,163.8L625.6,147.2L632.4,130.2L639.2,112.8L646,95L652.8,76.8L659.6,58.2L666.4,39.2L673.2,19.8L680,0"></path></g><text x="400" y="25" style="text-anchor: middle; font-size: 16px; font-weight: bold;">Quadratic Function</text></svg>