<svg width="800" height="600" xmlns="http://www.w3.org/2000/svg"><g transform="translate(80,40)"><g transform="translate(0,500)" fill="none" font-size="10" font-family="sans-serif" text-anchor="middle"><path class="domain" stroke="currentColor" d="M0.5,6V0.5H680.5V6"></path><g class="tick" opacity="1" transform="translate(0.5,0)"><line stroke="currentColor" y2="6"></line><text fill="currentColor" y="9" dy="0.71em">−2.0</text></g><g class="tick" opacity="1" transform="translate(87.67948717948715,0)"><line stroke="currentColor" y2="6"></line><text fill="currentColor" y="9" dy="0.71em">−1.5</text></g><g class="tick" opacity="1" transform="translate(174.8589743589743,0)"><line stroke="currentColor" y2="6"></line><text fill="currentColor" y="9" dy="0.71em">−1.0</text></g><g class="tick" opacity="1" transform="translate(262.03846153846143,0)"><line stroke="currentColor" y2="6"></line><text fill="currentColor" y="9" dy="0.71em">−0.5</text></g><g class="tick" opacity="1" transform="translate(349.2179487179486,0)"><line stroke="currentColor" y2="6"></line><text fill="currentColor" y="9" dy="0.71em">0.0</text></g><g class="tick" opacity="1" transform="translate(436.3974358974358,0)"><line stroke="currentColor" y2="6"></line><text fill="currentColor" y="9" dy="0.71em">0.5</text></g><g class="tick" opacity="1" transform="translate(523.5769230769229,0)"><line stroke="currentColor" y2="6"></line><text fill="currentColor" y="9" dy="0.71em">1.0</text></g><g class="tick" opacity="1" transform="translate(610.75641025641,0)"><line stroke="currentColor" y2="6"></line><text fill="currentColor" y="9" dy="0.71em">1.5</text></g></g><g fill="none" font-size="10" font-family="sans-serif" text-anchor="end"><path class="domain" stroke="currentColor" d="M-6,500.5H0.5V0.5H-6"></path><g class="tick" opacity="1" transform="translate(0,500.49999999999676)"><line stroke="currentColor" x2="-6"></line><text fill="currentColor" x="-9" dy="0.32em">0</text></g><g class="tick" opacity="1" transform="translate(0,436.6621760840507)"><line stroke="currentColor" x2="-6"></line><text fill="currentColor" x="-9" dy="0.32em">200,000,000,000,000</text></g><g class="tick" opacity="1" transform="translate(0,372.8243521681046)"><line stroke="currentColor" x2="-6"></line><text fill="currentColor" x="-9" dy="0.32em">400,000,000,000,000</text></g><g class="tick" opacity="1" transform="translate(0,308.9865282521585)"><line stroke="currentColor" x2="-6"></line><text fill="currentColor" x="-9" dy="0.32em">600,000,000,000,000</text></g><g class="tick" opacity="1" transform="translate(0,245.14870433621243)"><line stroke="currentColor" x2="-6"></line><text fill="currentColor" x="-9" dy="0.32em">800,000,000,000,000</text></g><g class="tick" opacity="1" transform="translate(0,181.31088042026633)"><line stroke="currentColor" x2="-6"></line><text fill="currentColor" x="-9" dy="0.32em">1,000,000,000,000,000</text></g><g class="tick" opacity="1" transform="translate(0,117.47305650432021)"><line stroke="currentColor" x2="-6"></line><text fill="currentColor" x="-9" dy="0.32em">1,200,000,000,000,000</text></g><g class="tick" opacity="1" transform="translate(0,53.63523258837416)"><line stroke="currentColor" x2="-6"></line><text fill="currentColor" x="-9" dy="0.32em">1,400,000,000,000,000</text></g></g><text transform="translate(340, 540)" style="text-anchor: middle; font-size: 14px;">x</text><text transform="rotate(-90)" y="-60" x="-250" style="text-anchor: middle; font-size: 14px;">y</text><path fill="none" stroke="#1f77b4" stroke-width="2" style="shape-rendering: geometricPrecision;" d="M0,500L17.436,500L34.872,500L52.308,500L69.744,500L87.179,500L104.615,500L122.051,500L139.487,500L156.923,500L174.359,500L191.795,500L209.231,500L226.667,500L244.103,500L261.538,500L278.974,500L296.41,500L313.846,500L331.282,500L348.718,0L366.154,500L383.59,500L401.026,500L418.462,500L435.897,500L453.333,500L470.769,500L488.205,500L505.641,500L523.077,500L540.513,500L557.949,500L575.385,500L592.821,500L610.256,500L627.692,500L645.128,500L662.564,500L680,500"></path></g><text x="400" y="25" style="text-anchor: middle; font-size: 16px; font-weight: bold;">Reciprocal Function</text></svg>