<svg width="800" height="600" xmlns="http://www.w3.org/2000/svg"><g transform="translate(80,40)"><g transform="translate(0,500)" fill="none" font-size="10" font-family="sans-serif" text-anchor="middle"><path class="domain" stroke="currentColor" d="M0.5,6V0.5H680.5V6"></path><g class="tick" opacity="1" transform="translate(6.824258254433645,0)"><line stroke="currentColor" y2="6"></line><text fill="currentColor" y="9" dy="0.71em">−0.8</text></g><g class="tick" opacity="1" transform="translate(81.67711844838549,0)"><line stroke="currentColor" y2="6"></line><text fill="currentColor" y="9" dy="0.71em">−0.6</text></g><g class="tick" opacity="1" transform="translate(156.52997864233726,0)"><line stroke="currentColor" y2="6"></line><text fill="currentColor" y="9" dy="0.71em">−0.4</text></g><g class="tick" opacity="1" transform="translate(231.38283883628904,0)"><line stroke="currentColor" y2="6"></line><text fill="currentColor" y="9" dy="0.71em">−0.2</text></g><g class="tick" opacity="1" transform="translate(306.23569903024094,0)"><line stroke="currentColor" y2="6"></line><text fill="currentColor" y="9" dy="0.71em">0.0</text></g><g class="tick" opacity="1" transform="translate(381.08855922419275,0)"><line stroke="currentColor" y2="6"></line><text fill="currentColor" y="9" dy="0.71em">0.2</text></g><g class="tick" opacity="1" transform="translate(455.94141941814456,0)"><line stroke="currentColor" y2="6"></line><text fill="currentColor" y="9" dy="0.71em">0.4</text></g><g class="tick" opacity="1" transform="translate(530.7942796120964,0)"><line stroke="currentColor" y2="6"></line><text fill="currentColor" y="9" dy="0.71em">0.6</text></g><g class="tick" opacity="1" transform="translate(605.6471398060481,0)"><line stroke="currentColor" y2="6"></line><text fill="currentColor" y="9" dy="0.71em">0.8</text></g><g class="tick" opacity="1" transform="translate(680.5,0)"><line stroke="currentColor" y2="6"></line><text fill="currentColor" y="9" dy="0.71em">1.0</text></g></g><g fill="none" font-size="10" font-family="sans-serif" text-anchor="end"><path class="domain" stroke="currentColor" d="M-6,500.5H0.5V0.5H-6"></path><g class="tick" opacity="1" transform="translate(0,460.7924448476536)"><line stroke="currentColor" x2="-6"></line><text fill="currentColor" x="-9" dy="0.32em">−0.8</text></g><g class="tick" opacity="1" transform="translate(0,408.2193336357402)"><line stroke="currentColor" x2="-6"></line><text fill="currentColor" x="-9" dy="0.32em">−0.6</text></g><g class="tick" opacity="1" transform="translate(0,355.6462224238268)"><line stroke="currentColor" x2="-6"></line><text fill="currentColor" x="-9" dy="0.32em">−0.4</text></g><g class="tick" opacity="1" transform="translate(0,303.07311121191344)"><line stroke="currentColor" x2="-6"></line><text fill="currentColor" x="-9" dy="0.32em">−0.2</text></g><g class="tick" opacity="1" transform="translate(0,250.5000000000001)"><line stroke="currentColor" x2="-6"></line><text fill="currentColor" x="-9" dy="0.32em">0.0</text></g><g class="tick" opacity="1" transform="translate(0,197.92688878808667)"><line stroke="currentColor" x2="-6"></line><text fill="currentColor" x="-9" dy="0.32em">0.2</text></g><g class="tick" opacity="1" transform="translate(0,145.35377757617334)"><line stroke="currentColor" x2="-6"></line><text fill="currentColor" x="-9" dy="0.32em">0.4</text></g><g class="tick" opacity="1" transform="translate(0,92.78066636425997)"><line stroke="currentColor" x2="-6"></line><text fill="currentColor" x="-9" dy="0.32em">0.6</text></g><g class="tick" opacity="1" transform="translate(0,40.20755515234664)"><line stroke="currentColor" x2="-6"></line><text fill="currentColor" x="-9" dy="0.32em">0.8</text></g></g><text transform="translate(340, 540)" style="text-anchor: middle; font-size: 14px;">x</text><text transform="rotate(-90)" y="-60" x="-250" style="text-anchor: middle; font-size: 14px;">y</text><path fill="none" stroke="#1f77b4" stroke-width="2" style="shape-rendering: geometricPrecision;" d="M680,250L675.21,241.845L660.98,234.302L637.728,227.958L606.134,223.346L567.122,220.923L521.826,221.048L471.556,223.967L417.756,229.799L361.959,238.528L305.736,250L250.649,263.929L198.203,279.903L149.798,297.395L106.685,315.787L69.935,334.385L40.402,352.451L18.702,369.225L5.2,383.957L0,395.933L2.95,404.508L13.65,409.129L31.474,409.356L55.595,404.889L85.014,395.578L118.604,381.433L155.144,362.632L193.371,339.517L232.015,312.589L269.851,282.492L305.736,250L338.644,215.989L367.706,181.415L392.228,147.28L411.715,114.603L425.882,84.385L434.656,57.577L438.173,35.048L436.768,17.556L430.952,5.72L421.39,0L408.867,0.68L394.256,7.854L378.48,21.426L362.472,41.104L347.135,66.414L333.307,96.71L321.726,131.191L312.998,168.93L307.575,208.899L305.736,250L307.575,291.101L312.998,331.07L321.726,368.809L333.307,403.29L347.135,433.586L362.472,458.896L378.48,478.574L394.256,492.146L408.867,499.32L421.39,500L430.952,494.28L436.768,482.444L438.173,464.952L434.656,442.423L425.882,415.615L411.715,385.397L392.228,352.72L367.706,318.585L338.644,284.011L305.736,250L269.851,217.508L232.015,187.411L193.371,160.483L155.144,137.368L118.604,118.567L85.014,104.422L55.595,95.111L31.474,90.644L13.65,90.871L2.95,95.492L0,104.067L5.2,116.043L18.702,130.775L40.402,147.549L69.935,165.615L106.685,184.213L149.798,202.605L198.203,220.097L250.649,236.071L305.736,250L361.959,261.472L417.756,270.201L471.556,276.033L521.826,278.952L567.122,279.077L606.134,276.654L637.728,272.042L660.98,265.698L675.21,258.155L680,250"></path></g><text x="400" y="25" style="text-anchor: middle; font-size: 16px; font-weight: bold;">Rose Curve</text></svg>