<svg width="800" height="600" xmlns="http://www.w3.org/2000/svg"><g transform="translate(80,40)"><g transform="translate(0,500)" fill="none" font-size="10" font-family="sans-serif" text-anchor="middle"><path class="domain" stroke="currentColor" d="M0.5,6V0.5H680.5V6"></path><g class="tick" opacity="1" transform="translate(0.5,0)"><line stroke="currentColor" y2="6"></line><text fill="currentColor" y="9" dy="0.71em">−6</text></g><g class="tick" opacity="1" transform="translate(57.7390572390572,0)"><line stroke="currentColor" y2="6"></line><text fill="currentColor" y="9" dy="0.71em">−5</text></g><g class="tick" opacity="1" transform="translate(114.9781144781144,0)"><line stroke="currentColor" y2="6"></line><text fill="currentColor" y="9" dy="0.71em">−4</text></g><g class="tick" opacity="1" transform="translate(172.21717171717162,0)"><line stroke="currentColor" y2="6"></line><text fill="currentColor" y="9" dy="0.71em">−3</text></g><g class="tick" opacity="1" transform="translate(229.4562289562288,0)"><line stroke="currentColor" y2="6"></line><text fill="currentColor" y="9" dy="0.71em">−2</text></g><g class="tick" opacity="1" transform="translate(286.695286195286,0)"><line stroke="currentColor" y2="6"></line><text fill="currentColor" y="9" dy="0.71em">−1</text></g><g class="tick" opacity="1" transform="translate(343.93434343434325,0)"><line stroke="currentColor" y2="6"></line><text fill="currentColor" y="9" dy="0.71em">0</text></g><g class="tick" opacity="1" transform="translate(401.1734006734004,0)"><line stroke="currentColor" y2="6"></line><text fill="currentColor" y="9" dy="0.71em">1</text></g><g class="tick" opacity="1" transform="translate(458.4124579124576,0)"><line stroke="currentColor" y2="6"></line><text fill="currentColor" y="9" dy="0.71em">2</text></g><g class="tick" opacity="1" transform="translate(515.6515151515149,0)"><line stroke="currentColor" y2="6"></line><text fill="currentColor" y="9" dy="0.71em">3</text></g><g class="tick" opacity="1" transform="translate(572.890572390572,0)"><line stroke="currentColor" y2="6"></line><text fill="currentColor" y="9" dy="0.71em">4</text></g><g class="tick" opacity="1" transform="translate(630.1296296296292,0)"><line stroke="currentColor" y2="6"></line><text fill="currentColor" y="9" dy="0.71em">5</text></g></g><g fill="none" font-size="10" font-family="sans-serif" text-anchor="end"><path class="domain" stroke="currentColor" d="M-6,500.5H0.5V0.5H-6"></path><g class="tick" opacity="1" transform="translate(0,451.4784770262595)"><line stroke="currentColor" x2="-6"></line><text fill="currentColor" x="-9" dy="0.32em">0.1</text></g><g class="tick" opacity="1" transform="translate(0,401.2141055642115)"><line stroke="currentColor" x2="-6"></line><text fill="currentColor" x="-9" dy="0.32em">0.2</text></g><g class="tick" opacity="1" transform="translate(0,350.9497341021635)"><line stroke="currentColor" x2="-6"></line><text fill="currentColor" x="-9" dy="0.32em">0.3</text></g><g class="tick" opacity="1" transform="translate(0,300.68536264011544)"><line stroke="currentColor" x2="-6"></line><text fill="currentColor" x="-9" dy="0.32em">0.4</text></g><g class="tick" opacity="1" transform="translate(0,250.42099117806742)"><line stroke="currentColor" x2="-6"></line><text fill="currentColor" x="-9" dy="0.32em">0.5</text></g><g class="tick" opacity="1" transform="translate(0,200.15661971601943)"><line stroke="currentColor" x2="-6"></line><text fill="currentColor" x="-9" dy="0.32em">0.6</text></g><g class="tick" opacity="1" transform="translate(0,149.89224825397147)"><line stroke="currentColor" x2="-6"></line><text fill="currentColor" x="-9" dy="0.32em">0.7</text></g><g class="tick" opacity="1" transform="translate(0,99.62787679192337)"><line stroke="currentColor" x2="-6"></line><text fill="currentColor" x="-9" dy="0.32em">0.8</text></g><g class="tick" opacity="1" transform="translate(0,49.36350532987538)"><line stroke="currentColor" x2="-6"></line><text fill="currentColor" x="-9" dy="0.32em">0.9</text></g></g><text transform="translate(340, 540)" style="text-anchor: middle; font-size: 14px;">x</text><text transform="rotate(-90)" y="-60" x="-250" style="text-anchor: middle; font-size: 14px;">y</text><path fill="none" stroke="#1f77b4" stroke-width="2" style="shape-rendering: geometricPrecision;" d="M0,500L6.869,499.842L13.737,499.664L20.606,499.463L27.475,499.237L34.343,498.983L41.212,498.696L48.081,498.373L54.949,498.01L61.818,497.601L68.687,497.14L75.556,496.622L82.424,496.039L89.293,495.383L96.162,494.645L103.03,493.817L109.899,492.886L116.768,491.84L123.636,490.667L130.505,489.35L137.374,487.874L144.242,486.22L151.111,484.369L157.98,482.299L164.848,479.986L171.717,477.405L178.586,474.527L185.455,471.323L192.323,467.763L199.192,463.812L206.061,459.437L212.929,454.601L219.798,449.269L226.667,443.405L233.535,436.974L240.404,429.942L247.273,422.28L254.141,413.96L261.01,404.964L267.879,395.276L274.747,384.893L281.616,373.82L288.485,362.072L295.354,349.678L302.222,336.681L309.091,323.134L315.96,309.106L322.828,294.677L329.697,279.936L336.566,264.982L343.434,249.921L350.303,234.86L357.172,219.906L364.04,205.165L370.909,190.736L377.778,176.708L384.646,163.161L391.515,150.164L398.384,137.77L405.253,126.022L412.121,114.949L418.99,104.566L425.859,94.878L432.727,85.882L439.596,77.562L446.465,69.9L453.333,62.868L460.202,56.437L467.071,50.573L473.939,45.241L480.808,40.405L487.677,36.03L494.545,32.079L501.414,28.519L508.283,25.315L515.152,22.437L522.02,19.856L528.889,17.543L535.758,15.472L542.626,13.621L549.495,11.968L556.364,10.492L563.232,9.175L570.101,8.002L576.97,6.956L583.838,6.025L590.707,5.196L597.576,4.459L604.444,3.803L611.313,3.22L618.182,2.702L625.051,2.241L631.919,1.832L638.788,1.469L645.657,1.146L652.525,0.859L659.394,0.605L666.263,0.379L673.131,0.178L680,0"></path></g><text x="400" y="25" style="text-anchor: middle; font-size: 16px; font-weight: bold;">Sigmoid Function</text></svg>