<svg width="800" height="600" xmlns="http://www.w3.org/2000/svg"><g transform="translate(80,40)"><g transform="translate(0,500)" fill="none" font-size="10" font-family="sans-serif" text-anchor="middle"><path class="domain" stroke="currentColor" d="M0.5,6V0.5H680.5V6"></path><g class="tick" opacity="1" transform="translate(0.5,0)"><line stroke="currentColor" y2="6"></line><text fill="currentColor" y="9" dy="0.71em">−20</text></g><g class="tick" opacity="1" transform="translate(85.71303258145355,0)"><line stroke="currentColor" y2="6"></line><text fill="currentColor" y="9" dy="0.71em">−15</text></g><g class="tick" opacity="1" transform="translate(170.9260651629071,0)"><line stroke="currentColor" y2="6"></line><text fill="currentColor" y="9" dy="0.71em">−10</text></g><g class="tick" opacity="1" transform="translate(256.1390977443607,0)"><line stroke="currentColor" y2="6"></line><text fill="currentColor" y="9" dy="0.71em">−5</text></g><g class="tick" opacity="1" transform="translate(341.3521303258142,0)"><line stroke="currentColor" y2="6"></line><text fill="currentColor" y="9" dy="0.71em">0</text></g><g class="tick" opacity="1" transform="translate(426.5651629072678,0)"><line stroke="currentColor" y2="6"></line><text fill="currentColor" y="9" dy="0.71em">5</text></g><g class="tick" opacity="1" transform="translate(511.7781954887214,0)"><line stroke="currentColor" y2="6"></line><text fill="currentColor" y="9" dy="0.71em">10</text></g><g class="tick" opacity="1" transform="translate(596.991228070175,0)"><line stroke="currentColor" y2="6"></line><text fill="currentColor" y="9" dy="0.71em">15</text></g></g><g fill="none" font-size="10" font-family="sans-serif" text-anchor="end"><path class="domain" stroke="currentColor" d="M-6,500.5H0.5V0.5H-6"></path><g class="tick" opacity="1" transform="translate(0,493.42289444333113)"><line stroke="currentColor" x2="-6"></line><text fill="currentColor" x="-9" dy="0.32em">−0.2</text></g><g class="tick" opacity="1" transform="translate(0,452.3459865730536)"><line stroke="currentColor" x2="-6"></line><text fill="currentColor" x="-9" dy="0.32em">−0.1</text></g><g class="tick" opacity="1" transform="translate(0,411.26907870277597)"><line stroke="currentColor" x2="-6"></line><text fill="currentColor" x="-9" dy="0.32em">0.0</text></g><g class="tick" opacity="1" transform="translate(0,370.1921708324984)"><line stroke="currentColor" x2="-6"></line><text fill="currentColor" x="-9" dy="0.32em">0.1</text></g><g class="tick" opacity="1" transform="translate(0,329.11526296222075)"><line stroke="currentColor" x2="-6"></line><text fill="currentColor" x="-9" dy="0.32em">0.2</text></g><g class="tick" opacity="1" transform="translate(0,288.0383550919431)"><line stroke="currentColor" x2="-6"></line><text fill="currentColor" x="-9" dy="0.32em">0.3</text></g><g class="tick" opacity="1" transform="translate(0,246.9614472216655)"><line stroke="currentColor" x2="-6"></line><text fill="currentColor" x="-9" dy="0.32em">0.4</text></g><g class="tick" opacity="1" transform="translate(0,205.884539351388)"><line stroke="currentColor" x2="-6"></line><text fill="currentColor" x="-9" dy="0.32em">0.5</text></g><g class="tick" opacity="1" transform="translate(0,164.80763148111038)"><line stroke="currentColor" x2="-6"></line><text fill="currentColor" x="-9" dy="0.32em">0.6</text></g><g class="tick" opacity="1" transform="translate(0,123.73072361083281)"><line stroke="currentColor" x2="-6"></line><text fill="currentColor" x="-9" dy="0.32em">0.7</text></g><g class="tick" opacity="1" transform="translate(0,82.65381574055519)"><line stroke="currentColor" x2="-6"></line><text fill="currentColor" x="-9" dy="0.32em">0.8</text></g><g class="tick" opacity="1" transform="translate(0,41.576907870277566)"><line stroke="currentColor" x2="-6"></line><text fill="currentColor" x="-9" dy="0.32em">0.9</text></g><g class="tick" opacity="1" transform="translate(0,0.5)"><line stroke="currentColor" x2="-6"></line><text fill="currentColor" x="-9" dy="0.32em">1.0</text></g></g><text transform="translate(340, 540)" style="text-anchor: middle; font-size: 14px;">x</text><text transform="rotate(-90)" y="-60" x="-250" style="text-anchor: middle; font-size: 14px;">y</text><path fill="none" stroke="#1f77b4" stroke-width="2" style="shape-rendering: geometricPrecision;" d="M0,392.019L1.704,392.859L3.409,393.889L5.113,395.098L6.817,396.477L8.521,398.013L10.226,399.694L11.93,401.503L13.634,403.424L15.338,405.439L17.043,407.529L18.747,409.673L20.451,411.851L22.155,414.042L23.86,416.223L25.564,418.373L27.268,420.47L28.972,422.493L30.677,424.42L32.381,426.231L34.085,427.907L35.789,429.429L37.494,430.781L39.198,431.948L40.902,432.914L42.607,433.669L44.311,434.203L46.015,434.508L47.719,434.577L49.424,434.408L51.128,433.999L52.832,433.352L54.536,432.471L56.241,431.36L57.945,430.029L59.649,428.489L61.353,426.752L63.058,424.832L64.762,422.748L66.466,420.517L68.17,418.16L69.875,415.7L71.579,413.158L73.283,410.561L74.987,407.932L76.692,405.297L78.396,402.684L80.1,400.118L81.805,397.625L83.509,395.231L85.213,392.961L86.917,390.84L88.622,388.891L90.326,387.136L92.03,385.594L93.734,384.285L95.439,383.223L97.143,382.424L98.847,381.899L100.551,381.657L102.256,381.704L103.96,382.045L105.664,382.679L107.368,383.606L109.073,384.819L110.777,386.312L112.481,388.073L114.185,390.089L115.89,392.344L117.594,394.819L119.298,397.493L121.003,400.341L122.707,403.34L124.411,406.46L126.115,409.673L127.82,412.949L129.524,416.255L131.228,419.56L132.932,422.831L134.637,426.034L136.341,429.136L138.045,432.106L139.749,434.911L141.454,437.521L143.158,439.906L144.862,442.039L146.566,443.895L148.271,445.449L149.975,446.681L151.679,447.574L153.383,448.111L155.088,448.282L156.792,448.078L158.496,447.494L160.201,446.528L161.905,445.184L163.609,443.466L165.313,441.385L167.018,438.954L168.722,436.191L170.426,433.116L172.13,429.753L173.835,426.13L175.539,422.277L177.243,418.228L178.947,414.019L180.652,409.686L182.356,405.272L184.06,400.817L185.764,396.365L187.469,391.96L189.173,387.645L190.877,383.466L192.581,379.467L194.286,375.691L195.99,372.182L197.694,368.978L199.398,366.12L201.103,363.644L202.807,361.584L204.511,359.969L206.216,358.828L207.92,358.183L209.624,358.054L211.328,358.454L213.033,359.396L214.737,360.882L216.441,362.915L218.145,365.489L219.85,368.595L221.554,372.216L223.258,376.334L224.962,380.921L226.667,385.948L228.371,391.379L230.075,397.175L231.779,403.289L233.484,409.673L235.188,416.274L236.892,423.036L238.596,429.898L240.301,436.799L242.005,443.673L243.709,450.454L245.414,457.074L247.118,463.463L248.822,469.552L250.526,475.273L252.231,480.557L253.935,485.337L255.639,489.548L257.343,493.128L259.048,496.018L260.752,498.16L262.456,499.503L264.16,500L265.865,499.607L267.569,498.288L269.273,496.011L270.977,492.75L272.682,488.487L274.386,483.208L276.09,476.909L277.794,469.591L279.499,461.262L281.203,451.938L282.907,441.642L284.612,430.405L286.316,418.262L288.02,405.259L289.724,391.447L291.429,376.881L293.133,361.625L294.837,345.749L296.541,329.326L298.246,312.436L299.95,295.161L301.654,277.59L303.358,259.812L305.063,241.922L306.767,224.013L308.471,206.184L310.175,188.532L311.88,171.154L313.584,154.148L315.288,137.609L316.992,121.632L318.697,106.308L320.401,91.725L322.105,77.969L323.81,65.119L325.514,53.251L327.218,42.434L328.922,32.734L330.627,24.206L332.331,16.903L334.035,10.867L335.739,6.134L337.444,2.733L339.148,0.684L340.852,0L342.556,0.684L344.261,2.733L345.965,6.134L347.669,10.867L349.373,16.903L351.078,24.206L352.782,32.734L354.486,42.434L356.19,53.251L357.895,65.119L359.599,77.969L361.303,91.725L363.008,106.308L364.712,121.632L366.416,137.609L368.12,154.148L369.825,171.154L371.529,188.532L373.233,206.184L374.937,224.013L376.642,241.922L378.346,259.812L380.05,277.59L381.754,295.161L383.459,312.436L385.163,329.326L386.867,345.749L388.571,361.625L390.276,376.881L391.98,391.447L393.684,405.259L395.388,418.262L397.093,430.405L398.797,441.642L400.501,451.938L402.206,461.262L403.91,469.591L405.614,476.909L407.318,483.208L409.023,488.487L410.727,492.75L412.431,496.011L414.135,498.288L415.84,499.607L417.544,500L419.248,499.503L420.952,498.16L422.657,496.018L424.361,493.128L426.065,489.548L427.769,485.337L429.474,480.557L431.178,475.273L432.882,469.552L434.586,463.463L436.291,457.074L437.995,450.454L439.699,443.673L441.404,436.799L443.108,429.898L444.812,423.036L446.516,416.274L448.221,409.673L449.925,403.289L451.629,397.175L453.333,391.379L455.038,385.948L456.742,380.921L458.446,376.334L460.15,372.216L461.855,368.595L463.559,365.489L465.263,362.915L466.967,360.882L468.672,359.396L470.376,358.454L472.08,358.054L473.784,358.183L475.489,358.828L477.193,359.969L478.897,361.584L480.602,363.644L482.306,366.12L484.01,368.978L485.714,372.182L487.419,375.691L489.123,379.467L490.827,383.466L492.531,387.645L494.236,391.96L495.94,396.365L497.644,400.817L499.348,405.272L501.053,409.686L502.757,414.019L504.461,418.228L506.165,422.277L507.87,426.13L509.574,429.753L511.278,433.116L512.982,436.191L514.687,438.954L516.391,441.385L518.095,443.466L519.799,445.184L521.504,446.528L523.208,447.494L524.912,448.078L526.617,448.282L528.321,448.111L530.025,447.574L531.729,446.681L533.434,445.449L535.138,443.895L536.842,442.039L538.546,439.906L540.251,437.521L541.955,434.911L543.659,432.106L545.363,429.136L547.068,426.034L548.772,422.831L550.476,419.56L552.18,416.255L553.885,412.949L555.589,409.673L557.293,406.46L558.997,403.34L560.702,400.341L562.406,397.493L564.11,394.819L565.815,392.344L567.519,390.089L569.223,388.073L570.927,386.312L572.632,384.819L574.336,383.606L576.04,382.679L577.744,382.045L579.449,381.704L581.153,381.657L582.857,381.899L584.561,382.424L586.266,383.223L587.97,384.285L589.674,385.594L591.378,387.136L593.083,388.891L594.787,390.84L596.491,392.961L598.195,395.231L599.9,397.625L601.604,400.118L603.308,402.684L605.013,405.297L606.717,407.932L608.421,410.561L610.125,413.158L611.83,415.7L613.534,418.16L615.238,420.517L616.942,422.748L618.647,424.832L620.351,426.752L622.055,428.489L623.759,430.029L625.464,431.36L627.168,432.471L628.872,433.352L630.576,433.999L632.281,434.408L633.985,434.577L635.689,434.508L637.393,434.203L639.098,433.669L640.802,432.914L642.506,431.948L644.211,430.781L645.915,429.429L647.619,427.907L649.323,426.231L651.028,424.42L652.732,422.493L654.436,420.47L656.14,418.373L657.845,416.223L659.549,414.042L661.253,411.851L662.957,409.673L664.662,407.529L666.366,405.439L668.07,403.424L669.774,401.503L671.479,399.694L673.183,398.013L674.887,396.477L676.591,395.098L678.296,393.889L680,392.859"></path></g><text x="400" y="25" style="text-anchor: middle; font-size: 16px; font-weight: bold;">Sinc Function</text></svg>