<svg width="800" height="600" xmlns="http://www.w3.org/2000/svg"><g transform="translate(80,40)"><g transform="translate(0,500)" fill="none" font-size="10" font-family="sans-serif" text-anchor="middle"><path class="domain" stroke="currentColor" d="M0.5,6V0.5H680.5V6"></path><g class="tick" opacity="1" transform="translate(14.945855947938826,0)"><line stroke="currentColor" y2="6"></line><text fill="currentColor" y="9" dy="0.71em">−15</text></g><g class="tick" opacity="1" transform="translate(113.46788490515037,0)"><line stroke="currentColor" y2="6"></line><text fill="currentColor" y="9" dy="0.71em">−10</text></g><g class="tick" opacity="1" transform="translate(211.98991386236187,0)"><line stroke="currentColor" y2="6"></line><text fill="currentColor" y="9" dy="0.71em">−5</text></g><g class="tick" opacity="1" transform="translate(310.51194281957345,0)"><line stroke="currentColor" y2="6"></line><text fill="currentColor" y="9" dy="0.71em">0</text></g><g class="tick" opacity="1" transform="translate(409.03397177678494,0)"><line stroke="currentColor" y2="6"></line><text fill="currentColor" y="9" dy="0.71em">5</text></g><g class="tick" opacity="1" transform="translate(507.5560007339964,0)"><line stroke="currentColor" y2="6"></line><text fill="currentColor" y="9" dy="0.71em">10</text></g><g class="tick" opacity="1" transform="translate(606.078029691208,0)"><line stroke="currentColor" y2="6"></line><text fill="currentColor" y="9" dy="0.71em">15</text></g></g><g fill="none" font-size="10" font-family="sans-serif" text-anchor="end"><path class="domain" stroke="currentColor" d="M-6,500.5H0.5V0.5H-6"></path><g class="tick" opacity="1" transform="translate(0,479.90615034157395)"><line stroke="currentColor" x2="-6"></line><text fill="currentColor" x="-9" dy="0.32em">−16</text></g><g class="tick" opacity="1" transform="translate(0,448.12791274002376)"><line stroke="currentColor" x2="-6"></line><text fill="currentColor" x="-9" dy="0.32em">−14</text></g><g class="tick" opacity="1" transform="translate(0,416.3496751384736)"><line stroke="currentColor" x2="-6"></line><text fill="currentColor" x="-9" dy="0.32em">−12</text></g><g class="tick" opacity="1" transform="translate(0,384.5714375369234)"><line stroke="currentColor" x2="-6"></line><text fill="currentColor" x="-9" dy="0.32em">−10</text></g><g class="tick" opacity="1" transform="translate(0,352.79319993537325)"><line stroke="currentColor" x2="-6"></line><text fill="currentColor" x="-9" dy="0.32em">−8</text></g><g class="tick" opacity="1" transform="translate(0,321.01496233382306)"><line stroke="currentColor" x2="-6"></line><text fill="currentColor" x="-9" dy="0.32em">−6</text></g><g class="tick" opacity="1" transform="translate(0,289.2367247322729)"><line stroke="currentColor" x2="-6"></line><text fill="currentColor" x="-9" dy="0.32em">−4</text></g><g class="tick" opacity="1" transform="translate(0,257.4584871307227)"><line stroke="currentColor" x2="-6"></line><text fill="currentColor" x="-9" dy="0.32em">−2</text></g><g class="tick" opacity="1" transform="translate(0,225.68024952917241)"><line stroke="currentColor" x2="-6"></line><text fill="currentColor" x="-9" dy="0.32em">0</text></g><g class="tick" opacity="1" transform="translate(0,193.90201192762225)"><line stroke="currentColor" x2="-6"></line><text fill="currentColor" x="-9" dy="0.32em">2</text></g><g class="tick" opacity="1" transform="translate(0,162.12377432607207)"><line stroke="currentColor" x2="-6"></line><text fill="currentColor" x="-9" dy="0.32em">4</text></g><g class="tick" opacity="1" transform="translate(0,130.34553672452188)"><line stroke="currentColor" x2="-6"></line><text fill="currentColor" x="-9" dy="0.32em">6</text></g><g class="tick" opacity="1" transform="translate(0,98.56729912297169)"><line stroke="currentColor" x2="-6"></line><text fill="currentColor" x="-9" dy="0.32em">8</text></g><g class="tick" opacity="1" transform="translate(0,66.7890615214215)"><line stroke="currentColor" x2="-6"></line><text fill="currentColor" x="-9" dy="0.32em">10</text></g><g class="tick" opacity="1" transform="translate(0,35.010823919871314)"><line stroke="currentColor" x2="-6"></line><text fill="currentColor" x="-9" dy="0.32em">12</text></g><g class="tick" opacity="1" transform="translate(0,3.2325863183211285)"><line stroke="currentColor" x2="-6"></line><text fill="currentColor" x="-9" dy="0.32em">14</text></g></g><text transform="translate(340, 540)" style="text-anchor: middle; font-size: 14px;">x</text><text transform="rotate(-90)" y="-60" x="-250" style="text-anchor: middle; font-size: 14px;">y</text><path fill="none" stroke="#1f77b4" stroke-width="2" style="shape-rendering: geometricPrecision;" d="M310.012,225.18L311.973,225.022L313.874,224.549L315.659,223.772L317.272,222.705L318.658,221.371L319.77,219.797L320.561,218.015L320.994,216.062L321.036,213.979L320.658,211.81L319.844,209.604L318.58,207.409L316.864,205.277L314.701,203.259L312.103,201.406L309.091,199.768L305.696,198.394L301.954,197.328L297.909,196.612L293.612,196.284L289.122,196.377L284.501,196.918L279.816,197.928L275.14,199.422L270.547,201.407L266.112,203.884L261.914,206.845L258.027,210.277L254.529,214.156L251.49,218.453L248.981,223.132L247.065,228.148L245.802,233.452L245.241,238.985L245.429,244.688L246.4,250.493L248.18,256.329L250.787,262.123L254.226,267.799L258.493,273.28L263.573,278.487L269.439,283.344L276.053,287.776L283.366,291.709L291.321,295.075L299.846,297.809L308.865,299.853L318.288,301.156L328.02,301.671L337.959,301.363L347.996,300.203L358.018,298.174L367.907,295.267L377.546,291.484L386.813,286.838L395.592,281.35L403.763,275.055L411.214,267.997L417.837,260.23L423.529,251.818L428.198,242.836L431.757,233.366L434.132,223.497L435.261,213.328L435.092,202.963L433.589,192.509L430.728,182.081L426.502,171.793L420.918,161.763L413.998,152.108L405.781,142.943L396.32,134.383L385.684,126.538L373.958,119.511L361.239,113.4L347.639,108.297L333.282,104.282L318.305,101.426L302.851,99.789L287.076,99.42L271.141,100.354L255.213,102.612L239.462,106.202L224.061,111.118L209.183,117.339L194.997,124.828L181.673,133.534L169.369,143.395L158.241,154.329L148.432,166.246L140.076,179.042L133.292,192.598L128.186,206.79L124.847,221.48L123.349,236.524L123.746,251.771L126.073,267.065L130.344,282.246L136.554,297.152L144.678,311.62L154.668,325.492L166.455,338.608L179.953,350.818L195.052,361.976L211.625,371.945L229.528,380.598L248.597,387.821L268.657,393.511L289.516,397.581L310.971,399.959L332.81,400.589L354.813,399.433L376.753,396.472L398.402,391.704L419.529,385.147L439.907,376.839L459.31,366.835L477.521,355.21L494.332,342.058L509.544,327.488L522.973,311.629L534.452,294.622L543.829,276.625L550.973,257.808L555.775,238.353L558.147,218.449L558.027,198.295L555.376,178.096L550.183,158.058L542.461,138.391L532.251,119.304L519.621,101.001L504.663,83.683L487.497,67.544L468.266,52.766L447.138,39.522L424.302,27.971L399.967,18.256L374.363,10.504L347.733,4.822L320.336,1.298L292.443,0L264.332,0.971L236.29,4.235L208.605,9.788L181.565,17.606L155.457,27.639L130.56,39.816L107.146,54.04L85.474,70.193L65.79,88.135L48.322,107.708L33.277,128.731L20.84,151.009L11.174,174.331L4.413,198.471L0.663,223.194L0,248.253L2.471,273.398L8.09,298.373L16.839,322.92L28.668,346.783L43.493,369.712L61.202,391.459L81.647,411.789L104.654,430.478L130.019,447.314L157.512,462.105L186.877,474.674L217.839,484.868L250.1,492.555L283.347,497.626L317.252,500L351.478,499.621L385.681,496.462L419.511,490.523L452.621,481.833L484.664,470.448L515.304,456.455L544.213,439.966L571.077,421.121L595.6,400.087L617.508,377.052L636.549,352.23L652.498,325.852L665.16,298.17L674.371,269.452L680,239.977"></path></g><text x="400" y="25" style="text-anchor: middle; font-size: 16px; font-weight: bold;">Archimedes Spiral</text></svg>