<svg width="800" height="600" xmlns="http://www.w3.org/2000/svg"><g transform="translate(80,40)"><g transform="translate(0,500)" fill="none" font-size="10" font-family="sans-serif" text-anchor="middle"><path class="domain" stroke="currentColor" d="M0.5,6V0.5H680.5V6"></path><g class="tick" opacity="1" transform="translate(80.70512820512793,0)"><line stroke="currentColor" y2="6"></line><text fill="currentColor" y="9" dy="0.71em">0.5</text></g><g class="tick" opacity="1" transform="translate(167.88461538461505,0)"><line stroke="currentColor" y2="6"></line><text fill="currentColor" y="9" dy="0.71em">1.0</text></g><g class="tick" opacity="1" transform="translate(255.06410256410214,0)"><line stroke="currentColor" y2="6"></line><text fill="currentColor" y="9" dy="0.71em">1.5</text></g><g class="tick" opacity="1" transform="translate(342.24358974358927,0)"><line stroke="currentColor" y2="6"></line><text fill="currentColor" y="9" dy="0.71em">2.0</text></g><g class="tick" opacity="1" transform="translate(429.4230769230764,0)"><line stroke="currentColor" y2="6"></line><text fill="currentColor" y="9" dy="0.71em">2.5</text></g><g class="tick" opacity="1" transform="translate(516.6025641025635,0)"><line stroke="currentColor" y2="6"></line><text fill="currentColor" y="9" dy="0.71em">3.0</text></g><g class="tick" opacity="1" transform="translate(603.7820512820507,0)"><line stroke="currentColor" y2="6"></line><text fill="currentColor" y="9" dy="0.71em">3.5</text></g></g><g fill="none" font-size="10" font-family="sans-serif" text-anchor="end"><path class="domain" stroke="currentColor" d="M-6,500.5H0.5V0.5H-6"></path><g class="tick" opacity="1" transform="translate(0,444.475812201849)"><line stroke="currentColor" x2="-6"></line><text fill="currentColor" x="-9" dy="0.32em">0.4</text></g><g class="tick" opacity="1" transform="translate(0,388.4516244036971)"><line stroke="currentColor" x2="-6"></line><text fill="currentColor" x="-9" dy="0.32em">0.6</text></g><g class="tick" opacity="1" transform="translate(0,332.42743660554527)"><line stroke="currentColor" x2="-6"></line><text fill="currentColor" x="-9" dy="0.32em">0.8</text></g><g class="tick" opacity="1" transform="translate(0,276.40324880739337)"><line stroke="currentColor" x2="-6"></line><text fill="currentColor" x="-9" dy="0.32em">1.0</text></g><g class="tick" opacity="1" transform="translate(0,220.3790610092415)"><line stroke="currentColor" x2="-6"></line><text fill="currentColor" x="-9" dy="0.32em">1.2</text></g><g class="tick" opacity="1" transform="translate(0,164.3548732110896)"><line stroke="currentColor" x2="-6"></line><text fill="currentColor" x="-9" dy="0.32em">1.4</text></g><g class="tick" opacity="1" transform="translate(0,108.33068541293767)"><line stroke="currentColor" x2="-6"></line><text fill="currentColor" x="-9" dy="0.32em">1.6</text></g><g class="tick" opacity="1" transform="translate(0,52.30649761478578)"><line stroke="currentColor" x2="-6"></line><text fill="currentColor" x="-9" dy="0.32em">1.8</text></g></g><text transform="translate(340, 540)" style="text-anchor: middle; font-size: 14px;">x</text><text transform="rotate(-90)" y="-60" x="-250" style="text-anchor: middle; font-size: 14px;">y</text><path fill="none" stroke="#1f77b4" stroke-width="2" style="shape-rendering: geometricPrecision;" d="M0,500L10.462,467.442L20.923,443.976L31.385,424.636L41.846,407.798L52.308,392.687L62.769,378.86L73.231,366.037L83.692,354.026L94.154,342.69L104.615,331.927L115.077,321.658L125.538,311.82L136,302.364L146.462,293.247L156.923,284.437L167.385,275.903L177.846,267.622L188.308,259.572L198.769,251.735L209.231,244.095L219.692,236.637L230.154,229.35L240.615,222.222L251.077,215.242L261.538,208.403L272,201.696L282.462,195.114L292.923,188.649L303.385,182.296L313.846,176.05L324.308,169.904L334.769,163.855L345.231,157.898L355.692,152.028L366.154,146.243L376.615,140.538L387.077,134.91L397.538,129.357L408,123.875L418.462,118.461L428.923,113.114L439.385,107.831L449.846,102.609L460.308,97.446L470.769,92.342L481.231,87.292L491.692,82.297L502.154,77.353L512.615,72.46L523.077,67.617L533.538,62.82L544,58.07L554.462,53.365L564.923,48.704L575.385,44.084L585.846,39.507L596.308,34.969L606.769,30.471L617.231,26.01L627.692,21.587L638.154,17.201L648.615,12.85L659.077,8.533L669.538,4.25L680,0"></path></g><text x="400" y="25" style="text-anchor: middle; font-size: 16px; font-weight: bold;">Square Root (Domain Clipped)</text></svg>