<svg width="800" height="600" xmlns="http://www.w3.org/2000/svg"><g transform="translate(80,40)"><g transform="translate(0,500)" fill="none" font-size="10" font-family="sans-serif" text-anchor="middle"><path class="domain" stroke="currentColor" d="M0.5,6V0.5H680.5V6"></path><g class="tick" opacity="1" transform="translate(0.5,0)"><line stroke="currentColor" y2="6"></line><text fill="currentColor" y="9" dy="0.71em">0</text></g><g class="tick" opacity="1" transform="translate(68.50000000000014,0)"><line stroke="currentColor" y2="6"></line><text fill="currentColor" y="9" dy="0.71em">1</text></g><g class="tick" opacity="1" transform="translate(136.50000000000028,0)"><line stroke="currentColor" y2="6"></line><text fill="currentColor" y="9" dy="0.71em">2</text></g><g class="tick" opacity="1" transform="translate(204.5000000000004,0)"><line stroke="currentColor" y2="6"></line><text fill="currentColor" y="9" dy="0.71em">3</text></g><g class="tick" opacity="1" transform="translate(272.50000000000057,0)"><line stroke="currentColor" y2="6"></line><text fill="currentColor" y="9" dy="0.71em">4</text></g><g class="tick" opacity="1" transform="translate(340.5000000000007,0)"><line stroke="currentColor" y2="6"></line><text fill="currentColor" y="9" dy="0.71em">5</text></g><g class="tick" opacity="1" transform="translate(408.5000000000008,0)"><line stroke="currentColor" y2="6"></line><text fill="currentColor" y="9" dy="0.71em">6</text></g><g class="tick" opacity="1" transform="translate(476.50000000000097,0)"><line stroke="currentColor" y2="6"></line><text fill="currentColor" y="9" dy="0.71em">7</text></g><g class="tick" opacity="1" transform="translate(544.5000000000011,0)"><line stroke="currentColor" y2="6"></line><text fill="currentColor" y="9" dy="0.71em">8</text></g><g class="tick" opacity="1" transform="translate(612.5000000000013,0)"><line stroke="currentColor" y2="6"></line><text fill="currentColor" y="9" dy="0.71em">9</text></g></g><g fill="none" font-size="10" font-family="sans-serif" text-anchor="end"><path class="domain" stroke="currentColor" d="M-6,500.5H0.5V0.5H-6"></path><g class="tick" opacity="1" transform="translate(0,500.5)"><line stroke="currentColor" x2="-6"></line><text fill="currentColor" x="-9" dy="0.32em">0.0</text></g><g class="tick" opacity="1" transform="translate(0,450.1608172546848)"><line stroke="currentColor" x2="-6"></line><text fill="currentColor" x="-9" dy="0.32em">0.1</text></g><g class="tick" opacity="1" transform="translate(0,399.8216345093695)"><line stroke="currentColor" x2="-6"></line><text fill="currentColor" x="-9" dy="0.32em">0.2</text></g><g class="tick" opacity="1" transform="translate(0,349.48245176405436)"><line stroke="currentColor" x2="-6"></line><text fill="currentColor" x="-9" dy="0.32em">0.3</text></g><g class="tick" opacity="1" transform="translate(0,299.1432690187391)"><line stroke="currentColor" x2="-6"></line><text fill="currentColor" x="-9" dy="0.32em">0.4</text></g><g class="tick" opacity="1" transform="translate(0,248.80408627342393)"><line stroke="currentColor" x2="-6"></line><text fill="currentColor" x="-9" dy="0.32em">0.5</text></g><g class="tick" opacity="1" transform="translate(0,198.4649035281087)"><line stroke="currentColor" x2="-6"></line><text fill="currentColor" x="-9" dy="0.32em">0.6</text></g><g class="tick" opacity="1" transform="translate(0,148.1257207827935)"><line stroke="currentColor" x2="-6"></line><text fill="currentColor" x="-9" dy="0.32em">0.7</text></g><g class="tick" opacity="1" transform="translate(0,97.78653803747822)"><line stroke="currentColor" x2="-6"></line><text fill="currentColor" x="-9" dy="0.32em">0.8</text></g><g class="tick" opacity="1" transform="translate(0,47.44735529216304)"><line stroke="currentColor" x2="-6"></line><text fill="currentColor" x="-9" dy="0.32em">0.9</text></g></g><text transform="translate(340, 540)" style="text-anchor: middle; font-size: 14px;">Time</text><text transform="rotate(-90)" y="-60" x="-250" style="text-anchor: middle; font-size: 14px;">Response</text><path fill="none" stroke="#1f77b4" stroke-width="2" style="shape-rendering: geometricPrecision;" d="M0,500L6.8,475.449L13.6,452.096L20.4,429.882L27.2,408.751L34,388.65L40.8,369.53L47.6,351.342L54.4,334.042L61.2,317.585L68,301.931L74.8,287.04L81.6,272.875L88.4,259.402L95.2,246.585L102,234.394L108.8,222.797L115.6,211.765L122.4,201.272L129.2,191.29L136,181.796L142.8,172.764L149.6,164.173L156.4,156.001L163.2,148.227L170,140.832L176.8,133.798L183.6,127.108L190.4,120.743L197.2,114.689L204,108.93L210.8,103.452L217.6,98.241L224.4,93.285L231.2,88.57L238,84.085L244.8,79.818L251.6,75.76L258.4,71.9L265.2,68.228L272,64.735L278.8,61.412L285.6,58.252L292.4,55.245L299.2,52.386L306,49.665L312.8,47.078L319.6,44.616L326.4,42.275L333.2,40.048L340,37.929L346.8,35.914L353.6,33.997L360.4,32.173L367.2,30.439L374,28.789L380.8,27.219L387.6,25.727L394.4,24.306L401.2,22.956L408,21.671L414.8,20.448L421.6,19.286L428.4,18.18L435.2,17.128L442,16.127L448.8,15.175L455.6,14.269L462.4,13.408L469.2,12.589L476,11.809L482.8,11.068L489.6,10.363L496.4,9.692L503.2,9.054L510,8.447L516.8,7.869L523.6,7.32L530.4,6.798L537.2,6.301L544,5.828L550.8,5.378L557.6,4.951L564.4,4.544L571.2,4.157L578,3.789L584.8,3.438L591.6,3.105L598.4,2.788L605.2,2.487L612,2.2L618.8,1.928L625.6,1.668L632.4,1.421L639.2,1.187L646,0.963L652.8,0.751L659.6,0.549L666.4,0.357L673.2,0.174L680,0"></path></g><text x="400" y="25" style="text-anchor: middle; font-size: 16px; font-weight: bold;">First-Order System Step Response</text></svg>