<svg width="800" height="600" xmlns="http://www.w3.org/2000/svg"><g transform="translate(80,40)"><g transform="translate(0,500)" fill="none" font-size="10" font-family="sans-serif" text-anchor="middle"><path class="domain" stroke="currentColor" d="M0.5,6V0.5H680.5V6"></path><g class="tick" opacity="1" transform="translate(15.9787031237712,0)"><line stroke="currentColor" y2="6"></line><text fill="currentColor" y="9" dy="0.71em">−3.0</text></g><g class="tick" opacity="1" transform="translate(70.63797650886652,0)"><line stroke="currentColor" y2="6"></line><text fill="currentColor" y="9" dy="0.71em">−2.5</text></g><g class="tick" opacity="1" transform="translate(125.29724989396185,0)"><line stroke="currentColor" y2="6"></line><text fill="currentColor" y="9" dy="0.71em">−2.0</text></g><g class="tick" opacity="1" transform="translate(179.95652327905717,0)"><line stroke="currentColor" y2="6"></line><text fill="currentColor" y="9" dy="0.71em">−1.5</text></g><g class="tick" opacity="1" transform="translate(234.61579666415247,0)"><line stroke="currentColor" y2="6"></line><text fill="currentColor" y="9" dy="0.71em">−1.0</text></g><g class="tick" opacity="1" transform="translate(289.2750700492478,0)"><line stroke="currentColor" y2="6"></line><text fill="currentColor" y="9" dy="0.71em">−0.5</text></g><g class="tick" opacity="1" transform="translate(343.93434343434313,0)"><line stroke="currentColor" y2="6"></line><text fill="currentColor" y="9" dy="0.71em">0.0</text></g><g class="tick" opacity="1" transform="translate(398.59361681943847,0)"><line stroke="currentColor" y2="6"></line><text fill="currentColor" y="9" dy="0.71em">0.5</text></g><g class="tick" opacity="1" transform="translate(453.2528902045338,0)"><line stroke="currentColor" y2="6"></line><text fill="currentColor" y="9" dy="0.71em">1.0</text></g><g class="tick" opacity="1" transform="translate(507.9121635896291,0)"><line stroke="currentColor" y2="6"></line><text fill="currentColor" y="9" dy="0.71em">1.5</text></g><g class="tick" opacity="1" transform="translate(562.5714369747244,0)"><line stroke="currentColor" y2="6"></line><text fill="currentColor" y="9" dy="0.71em">2.0</text></g><g class="tick" opacity="1" transform="translate(617.2307103598197,0)"><line stroke="currentColor" y2="6"></line><text fill="currentColor" y="9" dy="0.71em">2.5</text></g><g class="tick" opacity="1" transform="translate(671.889983744915,0)"><line stroke="currentColor" y2="6"></line><text fill="currentColor" y="9" dy="0.71em">3.0</text></g></g><g fill="none" font-size="10" font-family="sans-serif" text-anchor="end"><path class="domain" stroke="currentColor" d="M-6,500.5H0.5V0.5H-6"></path><g class="tick" opacity="1" transform="translate(0,456.83567784153774)"><line stroke="currentColor" x2="-6"></line><text fill="currentColor" x="-9" dy="0.32em">−400,000,000,000,000</text></g><g class="tick" opacity="1" transform="translate(0,399.7937181113478)"><line stroke="currentColor" x2="-6"></line><text fill="currentColor" x="-9" dy="0.32em">−350,000,000,000,000</text></g><g class="tick" opacity="1" transform="translate(0,342.75175838115786)"><line stroke="currentColor" x2="-6"></line><text fill="currentColor" x="-9" dy="0.32em">−300,000,000,000,000</text></g><g class="tick" opacity="1" transform="translate(0,285.70979865096785)"><line stroke="currentColor" x2="-6"></line><text fill="currentColor" x="-9" dy="0.32em">−250,000,000,000,000</text></g><g class="tick" opacity="1" transform="translate(0,228.6678389207779)"><line stroke="currentColor" x2="-6"></line><text fill="currentColor" x="-9" dy="0.32em">−200,000,000,000,000</text></g><g class="tick" opacity="1" transform="translate(0,171.62587919058797)"><line stroke="currentColor" x2="-6"></line><text fill="currentColor" x="-9" dy="0.32em">−150,000,000,000,000</text></g><g class="tick" opacity="1" transform="translate(0,114.58391946039804)"><line stroke="currentColor" x2="-6"></line><text fill="currentColor" x="-9" dy="0.32em">−100,000,000,000,000</text></g><g class="tick" opacity="1" transform="translate(0,57.54195973020809)"><line stroke="currentColor" x2="-6"></line><text fill="currentColor" x="-9" dy="0.32em">−50,000,000,000,000</text></g><g class="tick" opacity="1" transform="translate(0,0.5000000000180966)"><line stroke="currentColor" x2="-6"></line><text fill="currentColor" x="-9" dy="0.32em">0</text></g></g><text transform="translate(340, 540)" style="text-anchor: middle; font-size: 14px;">x</text><text transform="rotate(-90)" y="-60" x="-250" style="text-anchor: middle; font-size: 14px;">y</text><path fill="none" stroke="#1f77b4" stroke-width="2" style="shape-rendering: geometricPrecision;" d="M0,0L6.869,0L13.737,0L20.606,0L27.475,0L34.343,0L41.212,0L48.081,0L54.949,0L61.818,0L68.687,0L75.556,0L82.424,0L89.293,0L96.162,0L103.03,0L109.899,0L116.768,0L123.636,0L130.505,0L137.374,0L144.242,0L151.111,0L157.98,0L164.848,0L171.717,0L178.586,0L185.455,0L192.323,0L199.192,0L206.061,0L212.929,0L219.798,0L226.667,0L233.535,0L240.404,0L247.273,0L254.141,0L261.01,0L267.879,0L274.747,0L281.616,0L288.485,0L295.354,0L302.222,0L309.091,0L315.96,0L322.828,0L329.697,0L336.566,0L343.434,0L350.303,0L357.172,0L364.04,0L370.909,0L377.778,0L384.646,0L391.515,0L398.384,0L405.253,0L412.121,0L418.99,0L425.859,0L432.727,0L439.596,0L446.465,0L453.333,0L460.202,0L467.071,0L473.939,0L480.808,0L487.677,0L494.545,0L501.414,0L508.283,0L515.152,0L522.02,0L528.889,0L535.758,0L542.626,0L549.495,0L556.364,0L563.232,0L570.101,0L576.97,0L583.838,0L590.707,0L597.576,0L604.444,0L611.313,0L618.182,0L625.051,0L631.919,0L638.788,0L645.657,0L652.525,0L659.394,0L666.263,0L673.131,0L680,0"></path><path fill="none" stroke="#ff7f0e" stroke-width="2" style="shape-rendering: geometricPrecision;" d="M0,0L6.869,0L13.737,0L20.606,0L27.475,0L34.343,0L41.212,0L48.081,0L54.949,0L61.818,0L68.687,0L75.556,0L82.424,0L89.293,0L96.162,0L103.03,0L109.899,0L116.768,0L123.636,0L130.505,0L137.374,0L144.242,0L151.111,0L157.98,0L164.848,0L171.717,0L178.586,0L185.455,0L192.323,0L199.192,0L206.061,0L212.929,0L219.798,0L226.667,0L233.535,0L240.404,0L247.273,0L254.141,0L261.01,0L267.879,0L274.747,0L281.616,0L288.485,0L295.354,0L302.222,0L309.091,0L315.96,0L322.828,0L329.697,0L336.566,0L343.434,0L350.303,0L357.172,0L364.04,0L370.909,0L377.778,0L384.646,0L391.515,0L398.384,0L405.253,0L412.121,0L418.99,0L425.859,0L432.727,0L439.596,0L446.465,0L453.333,0L460.202,0L467.071,0L473.939,0L480.808,0L487.677,0L494.545,0L501.414,0L508.283,0L515.152,0L522.02,0L528.889,0L535.758,0L542.626,0L549.495,0L556.364,0L563.232,0L570.101,0L576.97,0L583.838,0L590.707,0L597.576,0L604.444,0L611.313,0L618.182,0L625.051,0L631.919,0L638.788,0L645.657,0L652.525,0L659.394,0L666.263,0L673.131,0L680,0"></path><path fill="none" stroke="#2ca02c" stroke-width="2" style="shape-rendering: geometricPrecision;" d="M0,0L6.869,0L13.737,0L20.606,0L27.475,0L34.343,0L41.212,0L48.081,0L54.949,0L61.818,0L68.687,0L75.556,0L82.424,0L89.293,0L96.162,0L103.03,0L109.899,0L116.768,0L123.636,0L130.505,0L137.374,0L144.242,0L151.111,0L157.98,0L164.848,0L171.717,500L178.586,0L185.455,0L192.323,0L199.192,0L206.061,0L212.929,0L219.798,0L226.667,0L233.535,0L240.404,0L247.273,0L254.141,0L261.01,0L267.879,0L274.747,0L281.616,0L288.485,0L295.354,0L302.222,0L309.091,0L315.96,0L322.828,0L329.697,0L336.566,0L343.434,0L350.303,0L357.172,0L364.04,0L370.909,0L377.778,0L384.646,0L391.515,0L398.384,0L405.253,0L412.121,0L418.99,0L425.859,0L432.727,0L439.596,0L446.465,0L453.333,0L460.202,0L467.071,0L473.939,0L480.808,0L487.677,0L494.545,0L501.414,0L508.283,0L515.152,348.941L522.02,0L528.889,0L535.758,0L542.626,0L549.495,0L556.364,0L563.232,0L570.101,0L576.97,0L583.838,0L590.707,0L597.576,0L604.444,0L611.313,0L618.182,0L625.051,0L631.919,0L638.788,0L645.657,0L652.525,0L659.394,0L666.263,0L673.131,0L680,0"></path></g><text x="400" y="25" style="text-anchor: middle; font-size: 16px; font-weight: bold;">Trigonometric Functions</text><g class="legend"><rect x="570" y="50" width="200" height="80" fill="white" stroke="#ccc" stroke-width="1" style="opacity: 0.9;"></rect><g transform="translate(580, 60)"><line x1="0" x2="20" y1="0" y2="0" stroke="#1f77b4" stroke-width="2"></line><text x="25" y="0" dy="0.35em" style="font-size: 12px; font-family: sans-serif;">sin(x)</text></g><g transform="translate(580, 80)"><line x1="0" x2="20" y1="0" y2="0" stroke="#ff7f0e" stroke-width="2"></line><text x="25" y="0" dy="0.35em" style="font-size: 12px; font-family: sans-serif;">cos(x)</text></g><g transform="translate(580, 100)"><line x1="0" x2="20" y1="0" y2="0" stroke="#2ca02c" stroke-width="2"></line><text x="25" y="0" dy="0.35em" style="font-size: 12px; font-family: sans-serif;">tan(x)</text></g></g></svg>