<svg width="800" height="600" xmlns="http://www.w3.org/2000/svg"><g transform="translate(80,40)"><g transform="translate(0,500)" fill="none" font-size="10" font-family="sans-serif" text-anchor="middle"><path class="domain" stroke="currentColor" d="M0.5,6V0.5H680.5V6"></path><g class="tick" opacity="1" transform="translate(0.5,0)"><line stroke="currentColor" y2="6"></line><text fill="currentColor" y="9" dy="0.71em">−1.0</text></g><g class="tick" opacity="1" transform="translate(68.49999999999999,0)"><line stroke="currentColor" y2="6"></line><text fill="currentColor" y="9" dy="0.71em">−0.8</text></g><g class="tick" opacity="1" transform="translate(136.5,0)"><line stroke="currentColor" y2="6"></line><text fill="currentColor" y="9" dy="0.71em">−0.6</text></g><g class="tick" opacity="1" transform="translate(204.5,0)"><line stroke="currentColor" y2="6"></line><text fill="currentColor" y="9" dy="0.71em">−0.4</text></g><g class="tick" opacity="1" transform="translate(272.5,0)"><line stroke="currentColor" y2="6"></line><text fill="currentColor" y="9" dy="0.71em">−0.2</text></g><g class="tick" opacity="1" transform="translate(340.5,0)"><line stroke="currentColor" y2="6"></line><text fill="currentColor" y="9" dy="0.71em">0.0</text></g><g class="tick" opacity="1" transform="translate(408.5,0)"><line stroke="currentColor" y2="6"></line><text fill="currentColor" y="9" dy="0.71em">0.2</text></g><g class="tick" opacity="1" transform="translate(476.49999999999994,0)"><line stroke="currentColor" y2="6"></line><text fill="currentColor" y="9" dy="0.71em">0.4</text></g><g class="tick" opacity="1" transform="translate(544.5,0)"><line stroke="currentColor" y2="6"></line><text fill="currentColor" y="9" dy="0.71em">0.6</text></g><g class="tick" opacity="1" transform="translate(612.5,0)"><line stroke="currentColor" y2="6"></line><text fill="currentColor" y="9" dy="0.71em">0.8</text></g><g class="tick" opacity="1" transform="translate(680.5,0)"><line stroke="currentColor" y2="6"></line><text fill="currentColor" y="9" dy="0.71em">1.0</text></g></g><g fill="none" font-size="10" font-family="sans-serif" text-anchor="end"><path class="domain" stroke="currentColor" d="M-6,500.5H0.5V0.5H-6"></path><g class="tick" opacity="1" transform="translate(0,500.5)"><line stroke="currentColor" x2="-6"></line><text fill="currentColor" x="-9" dy="0.32em">−1.0</text></g><g class="tick" opacity="1" transform="translate(0,450.5)"><line stroke="currentColor" x2="-6"></line><text fill="currentColor" x="-9" dy="0.32em">−0.8</text></g><g class="tick" opacity="1" transform="translate(0,400.5)"><line stroke="currentColor" x2="-6"></line><text fill="currentColor" x="-9" dy="0.32em">−0.6</text></g><g class="tick" opacity="1" transform="translate(0,350.5)"><line stroke="currentColor" x2="-6"></line><text fill="currentColor" x="-9" dy="0.32em">−0.4</text></g><g class="tick" opacity="1" transform="translate(0,300.5)"><line stroke="currentColor" x2="-6"></line><text fill="currentColor" x="-9" dy="0.32em">−0.2</text></g><g class="tick" opacity="1" transform="translate(0,250.5)"><line stroke="currentColor" x2="-6"></line><text fill="currentColor" x="-9" dy="0.32em">0.0</text></g><g class="tick" opacity="1" transform="translate(0,200.5)"><line stroke="currentColor" x2="-6"></line><text fill="currentColor" x="-9" dy="0.32em">0.2</text></g><g class="tick" opacity="1" transform="translate(0,150.50000000000003)"><line stroke="currentColor" x2="-6"></line><text fill="currentColor" x="-9" dy="0.32em">0.4</text></g><g class="tick" opacity="1" transform="translate(0,100.49999999999997)"><line stroke="currentColor" x2="-6"></line><text fill="currentColor" x="-9" dy="0.32em">0.6</text></g><g class="tick" opacity="1" transform="translate(0,50.499999999999986)"><line stroke="currentColor" x2="-6"></line><text fill="currentColor" x="-9" dy="0.32em">0.8</text></g><g class="tick" opacity="1" transform="translate(0,0.5)"><line stroke="currentColor" x2="-6"></line><text fill="currentColor" x="-9" dy="0.32em">1.0</text></g></g><text transform="translate(340, 540)" style="text-anchor: middle; font-size: 14px;">x</text><text transform="rotate(-90)" y="-60" x="-250" style="text-anchor: middle; font-size: 14px;">y</text><path fill="none" stroke="#1f77b4" stroke-width="2" style="shape-rendering: geometricPrecision;" d="M680,250L679.329,234.302L677.319,218.667L673.978,203.155L669.318,187.828L663.359,172.746L656.124,157.969L647.641,143.555L637.944,129.562L627.071,116.043L615.066,103.054L601.975,90.644L587.849,78.863L572.746,67.758L556.724,57.372L539.847,47.746L522.181,38.918L503.796,30.923L484.765,23.793L465.162,17.556L445.066,12.236L424.555,7.854L403.71,4.428L382.613,1.971L361.349,0.493L340,0L318.651,0.493L297.387,1.971L276.29,4.428L255.445,7.854L234.934,12.236L214.838,17.556L195.235,23.793L176.204,30.923L157.819,38.918L140.153,47.746L123.276,57.372L107.254,67.758L92.151,78.863L78.025,90.644L64.934,103.054L52.929,116.043L42.056,129.562L32.359,143.555L23.876,157.969L16.641,172.746L10.682,187.828L6.022,203.155L2.681,218.667L0.671,234.302L0,250L0.671,265.698L2.681,281.333L6.022,296.845L10.682,312.172L16.641,327.254L23.876,342.031L32.359,356.445L42.056,370.438L52.929,383.957L64.934,396.946L78.025,409.356L92.151,421.137L107.254,432.242L123.276,442.628L140.153,452.254L157.819,461.082L176.204,469.077L195.235,476.207L214.838,482.444L234.934,487.764L255.445,492.146L276.29,495.572L297.387,498.029L318.651,499.507L340,500L361.349,499.507L382.613,498.029L403.71,495.572L424.555,492.146L445.066,487.764L465.162,482.444L484.765,476.207L503.796,469.077L522.181,461.082L539.847,452.254L556.724,442.628L572.746,432.242L587.849,421.137L601.975,409.356L615.066,396.946L627.071,383.957L637.944,370.438L647.641,356.445L656.124,342.031L663.359,327.254L669.318,312.172L673.978,296.845L677.319,281.333L679.329,265.698L680,250"></path></g><text x="400" y="25" style="text-anchor: middle; font-size: 16px; font-weight: bold;">Unit Circle</text></svg>