<?xml version="1.0" encoding="UTF-8"?>
<svg width="800" height="600" viewBox="0 0 800 600" xmlns="http://www.w3.org/2000/svg">
  <defs>
    <style>
      .plot-line { fill: none; stroke: #2563eb; stroke-width: 2px; }
      .axis { stroke: #666; stroke-width: 1px; }
      .grid { stroke: #e5e7eb; stroke-width: 0.5px; }
      .axis-label { font-family: Arial, sans-serif; font-size: 12px; fill: #374151; text-anchor: middle; }
      .title { font-family: Arial, sans-serif; font-size: 16px; font-weight: bold; fill: #1f2937; text-anchor: middle; }
    </style>
  </defs>
  
  <!-- Background -->
  <rect width="800" height="600" fill="#ffffff"/>
  
  <!-- Grid lines -->
  <line x1="60" y1="40" x2="60" y2="540" class="grid"/>
  <line x1="200.00000000000003" y1="40" x2="200.00000000000003" y2="540" class="grid"/>
  <line x1="340" y1="40" x2="340" y2="540" class="grid"/>
  <line x1="480" y1="40" x2="480" y2="540" class="grid"/>
  <line x1="620" y1="40" x2="620" y2="540" class="grid"/>
  <line x1="760" y1="40" x2="760" y2="540" class="grid"/>
  <line x1="60" y1="540" x2="760" y2="540" class="grid"/>
  <line x1="60" y1="440" x2="760" y2="440" class="grid"/>
  <line x1="60" y1="340" x2="760" y2="340" class="grid"/>
  <line x1="60" y1="240" x2="760" y2="240" class="grid"/>
  <line x1="60" y1="140" x2="760" y2="140" class="grid"/>
  <line x1="60" y1="40" x2="760" y2="40" class="grid"/>
  
  <!-- Axes -->
  <line x1="60" y1="540" x2="760" y2="540" class="axis"/>
  <line x1="60" y1="40" x2="60" y2="540" class="axis"/>
  
  <!-- Axis labels -->
  <text x="60" y="560" class="axis-label">-16.5</text>
  <text x="200.00000000000003" y="560" class="axis-label">-9.9</text>
  <text x="340" y="560" class="axis-label">-3.3</text>
  <text x="480" y="560" class="axis-label">3.3</text>
  <text x="620" y="560" class="axis-label">9.9</text>
  <text x="760" y="560" class="axis-label">16.5</text>
  <text x="50" y="545" class="axis-label" text-anchor="end">-0.5</text>
  <text x="50" y="445" class="axis-label" text-anchor="end">-0.1</text>
  <text x="50" y="345" class="axis-label" text-anchor="end">0.3</text>
  <text x="50" y="245" class="axis-label" text-anchor="end">0.7</text>
  <text x="50" y="145" class="axis-label" text-anchor="end">1.1</text>
  <text x="50" y="45" class="axis-label" text-anchor="end">1.5</text>
  
  <!-- Plot line -->
  <path d="M 91.82 224.37 L 98.18 187.51 L 104.55 169.85 L 110.91 173.93 L 117.27 200.41 L 123.64 247.89 L 130.00 313.13 L 136.36 391.26 L 142.73 476.22 L 149.09 429.21 L 155.45 370.51 L 161.82 323.02 L 168.18 291.69 L 174.55 279.98 L 180.91 289.51 L 187.27 319.89 L 193.64 368.82 L 200.00 432.23 L 206.36 504.65 L 212.73 517.27 L 219.09 443.94 L 225.45 378.60 L 231.82 326.91 L 238.18 293.20 L 244.55 280.08 L 250.91 288.28 L 257.27 316.50 L 263.64 361.59 L 270.00 418.80 L 276.36 482.27 L 282.73 405.24 L 289.09 325.52 L 295.45 257.74 L 301.82 206.99 L 308.18 176.83 L 314.55 168.97 L 320.91 183.11 L 327.27 217.00 L 333.64 266.63 L 340.00 326.65 L 346.36 319.94 L 352.73 237.91 L 359.09 166.23 L 365.45 110.57 L 371.82 75.22 L 378.18 62.73 L 384.55 73.70 L 390.91 106.71 L 397.27 158.49 L 403.64 224.15 L 410.00 297.68 L 416.36 224.15 L 422.73 158.49 L 429.09 106.71 L 435.45 73.70 L 441.82 62.73 L 448.18 75.22 L 454.55 110.57 L 460.91 166.23 L 467.27 237.91 L 473.64 319.94 L 480.00 326.65 L 486.36 266.63 L 492.73 217.00 L 499.09 183.11 L 505.45 168.97 L 511.82 176.83 L 518.18 206.99 L 524.55 257.74 L 530.91 325.52 L 537.27 405.24 L 543.64 482.27 L 550.00 418.80 L 556.36 361.59 L 562.73 316.50 L 569.09 288.28 L 575.45 280.08 L 581.82 293.20 L 588.18 326.91 L 594.55 378.60 L 600.91 443.94 L 607.27 517.27 L 613.64 504.65 L 620.00 432.23 L 626.36 368.82 L 632.73 319.89 L 639.09 289.51 L 645.45 279.98 L 651.82 291.69 L 658.18 323.02 L 664.55 370.51 L 670.91 429.21 L 677.27 476.22 L 683.64 391.26 L 690.00 313.13 L 696.36 247.89 L 702.73 200.41 L 709.09 173.93 L 715.45 169.85 L 721.82 187.51 L 728.18 224.37" class="plot-line"/>
  
  <!-- Title -->
  <text x="400" y="25" class="title">Composite: |sin(x)| + 0.5·cos(x/3)</text>
</svg>