<svg width="800" height="600"><g transform="translate(0,560)" fill="none" font-size="10" font-family="sans-serif" text-anchor="middle"><path class="domain" stroke="currentColor" d="M50.5,6V0.5H770.5V6"></path><g class="tick" opacity="1" transform="translate(50.5,0)"><line stroke="currentColor" y2="6"></line><text fill="currentColor" y="9" dy="0.71em">0</text></g><g class="tick" opacity="1" transform="translate(140.5,0)"><line stroke="currentColor" y2="6"></line><text fill="currentColor" y="9" dy="0.71em">1</text></g><g class="tick" opacity="1" transform="translate(230.5,0)"><line stroke="currentColor" y2="6"></line><text fill="currentColor" y="9" dy="0.71em">2</text></g><g class="tick" opacity="1" transform="translate(320.5,0)"><line stroke="currentColor" y2="6"></line><text fill="currentColor" y="9" dy="0.71em">3</text></g><g class="tick" opacity="1" transform="translate(410.5,0)"><line stroke="currentColor" y2="6"></line><text fill="currentColor" y="9" dy="0.71em">4</text></g><g class="tick" opacity="1" transform="translate(500.5,0)"><line stroke="currentColor" y2="6"></line><text fill="currentColor" y="9" dy="0.71em">5</text></g><g class="tick" opacity="1" transform="translate(590.5,0)"><line stroke="currentColor" y2="6"></line><text fill="currentColor" y="9" dy="0.71em">6</text></g><g class="tick" opacity="1" transform="translate(680.5,0)"><line stroke="currentColor" y2="6"></line><text fill="currentColor" y="9" dy="0.71em">7</text></g><g class="tick" opacity="1" transform="translate(770.5,0)"><line stroke="currentColor" y2="6"></line><text fill="currentColor" y="9" dy="0.71em">8</text></g></g><g transform="translate(50,0)" fill="none" font-size="10" font-family="sans-serif" text-anchor="end"><path class="domain" stroke="currentColor" d="M-6,560.5H0.5V20.5H-6"></path><g class="tick" opacity="1" transform="translate(0,524.0177979762523)"><line stroke="currentColor" x2="-6"></line><text fill="currentColor" x="-9" dy="0.32em">−1.2</text></g><g class="tick" opacity="1" transform="translate(0,485.1268539331064)"><line stroke="currentColor" x2="-6"></line><text fill="currentColor" x="-9" dy="0.32em">−1.0</text></g><g class="tick" opacity="1" transform="translate(0,446.2359098899606)"><line stroke="currentColor" x2="-6"></line><text fill="currentColor" x="-9" dy="0.32em">−0.8</text></g><g class="tick" opacity="1" transform="translate(0,407.3449658468148)"><line stroke="currentColor" x2="-6"></line><text fill="currentColor" x="-9" dy="0.32em">−0.6</text></g><g class="tick" opacity="1" transform="translate(0,368.45402180366904)"><line stroke="currentColor" x2="-6"></line><text fill="currentColor" x="-9" dy="0.32em">−0.4</text></g><g class="tick" opacity="1" transform="translate(0,329.56307776052324)"><line stroke="currentColor" x2="-6"></line><text fill="currentColor" x="-9" dy="0.32em">−0.2</text></g><g class="tick" opacity="1" transform="translate(0,290.6721337173774)"><line stroke="currentColor" x2="-6"></line><text fill="currentColor" x="-9" dy="0.32em">0.0</text></g><g class="tick" opacity="1" transform="translate(0,251.78118967423165)"><line stroke="currentColor" x2="-6"></line><text fill="currentColor" x="-9" dy="0.32em">0.2</text></g><g class="tick" opacity="1" transform="translate(0,212.89024563108586)"><line stroke="currentColor" x2="-6"></line><text fill="currentColor" x="-9" dy="0.32em">0.4</text></g><g class="tick" opacity="1" transform="translate(0,173.99930158794)"><line stroke="currentColor" x2="-6"></line><text fill="currentColor" x="-9" dy="0.32em">0.6</text></g><g class="tick" opacity="1" transform="translate(0,135.1083575447942)"><line stroke="currentColor" x2="-6"></line><text fill="currentColor" x="-9" dy="0.32em">0.8</text></g><g class="tick" opacity="1" transform="translate(0,96.21741350164842)"><line stroke="currentColor" x2="-6"></line><text fill="currentColor" x="-9" dy="0.32em">1.0</text></g><g class="tick" opacity="1" transform="translate(0,57.32646945850264)"><line stroke="currentColor" x2="-6"></line><text fill="currentColor" x="-9" dy="0.32em">1.2</text></g></g><path fill="none" stroke="steelblue" stroke-width="2" d="M50,95.717L54.832,80.404L59.664,66.055L64.497,53.059L69.329,41.787L74.161,32.573L78.993,25.715L83.826,21.46L88.658,20L93.49,21.467L98.322,25.929L103.154,33.388L107.987,43.778L112.819,56.971L117.651,72.773L122.483,90.935L127.315,111.155L132.148,133.088L136.98,156.352L141.812,180.538L146.644,205.222L151.477,229.971L156.309,254.361L161.141,277.978L165.973,300.437L170.805,321.383L175.638,340.509L180.47,357.553L185.302,372.312L190.134,384.643L194.966,394.467L199.799,401.77L204.631,406.601L209.463,409.075L214.295,409.365L219.128,407.695L223.96,404.341L228.792,399.616L233.624,393.865L238.456,387.453L243.289,380.758L248.121,374.158L252.953,368.021L257.785,362.696L262.617,358.504L267.45,355.726L272.282,354.597L277.114,355.303L281.946,357.968L286.779,362.658L291.611,369.375L296.443,378.055L301.275,388.575L306.107,400.751L310.94,414.343L315.772,429.064L320.604,444.583L325.436,460.538L330.268,476.542L335.101,492.192L339.933,507.085L344.765,520.822L349.597,533.021L354.43,543.329L359.262,551.427L364.094,557.043L368.926,559.955L373.758,560L378.591,557.076L383.423,551.149L388.255,542.248L393.087,530.47L397.919,515.977L402.752,498.989L407.584,479.782L412.416,458.68L417.248,436.048L422.081,412.282L426.913,387.8L431.745,363.031L436.577,338.404L441.409,314.341L446.242,291.243L451.074,269.48L455.906,249.386L460.738,231.247L465.57,215.295L470.403,201.707L475.235,190.593L480.067,182.001L484.899,175.914L489.732,172.251L494.564,170.868L499.396,171.565L504.228,174.093L509.06,178.158L513.893,183.428L518.725,189.548L523.557,196.145L528.389,202.841L533.221,209.26L538.054,215.043L542.886,219.853L547.718,223.388L552.55,225.388L557.383,225.641L562.215,223.992L567.047,220.343L571.879,214.66L576.711,206.974L581.544,197.377L586.376,186.023L591.208,173.123L596.04,158.941L600.872,143.788L605.705,128.009L610.537,111.98L615.369,96.099L620.201,80.767L625.034,66.389L629.866,53.356L634.698,42.038L639.53,32.77L644.362,25.852L649.195,21.531L654.027,20.001L658.859,21.396L663.691,25.785L668.523,33.171L673.356,43.491L678.188,56.618L683.02,72.359L687.852,90.467L692.685,110.642L697.517,132.538L702.349,155.774L707.181,179.942L712.013,204.619L716.846,229.372L721.678,253.775L726.51,277.416L731.342,299.907L736.174,320.894L741.007,340.067L745.839,357.165L750.671,371.981L755.503,384.373L760.336,394.258L765.168,401.622L770,406.512"></path><text transform="rotate(-90)" y="-50" x="-300" dy="1em" style="text-anchor: middle;">x</text><text transform="translate(400, 595)" style="text-anchor: middle;">x</text></svg>