<svg width="800" height="600" xmlns="http://www.w3.org/2000/svg"><g transform="translate(80,40)"><g transform="translate(0,500)" fill="none" font-size="10" font-family="sans-serif" text-anchor="middle"><path class="domain" stroke="currentColor" d="M0.5,6V0.5H680.5V6"></path><g class="tick" opacity="1" transform="translate(0.5,0)"><line stroke="currentColor" y2="6"></line><text fill="currentColor" y="9" dy="0.71em">0</text></g><g class="tick" opacity="1" transform="translate(91.1666666666669,0)"><line stroke="currentColor" y2="6"></line><text fill="currentColor" y="9" dy="0.71em">2</text></g><g class="tick" opacity="1" transform="translate(181.8333333333338,0)"><line stroke="currentColor" y2="6"></line><text fill="currentColor" y="9" dy="0.71em">4</text></g><g class="tick" opacity="1" transform="translate(272.5000000000007,0)"><line stroke="currentColor" y2="6"></line><text fill="currentColor" y="9" dy="0.71em">6</text></g><g class="tick" opacity="1" transform="translate(363.1666666666676,0)"><line stroke="currentColor" y2="6"></line><text fill="currentColor" y="9" dy="0.71em">8</text></g><g class="tick" opacity="1" transform="translate(453.83333333333445,0)"><line stroke="currentColor" y2="6"></line><text fill="currentColor" y="9" dy="0.71em">10</text></g><g class="tick" opacity="1" transform="translate(544.5000000000014,0)"><line stroke="currentColor" y2="6"></line><text fill="currentColor" y="9" dy="0.71em">12</text></g><g class="tick" opacity="1" transform="translate(635.1666666666682,0)"><line stroke="currentColor" y2="6"></line><text fill="currentColor" y="9" dy="0.71em">14</text></g></g><g fill="none" font-size="10" font-family="sans-serif" text-anchor="end"><path class="domain" stroke="currentColor" d="M-6,500.5H0.5V0.5H-6"></path><g class="tick" opacity="1" transform="translate(0,457.8488450239452)"><line stroke="currentColor" x2="-6"></line><text fill="currentColor" x="-9" dy="0.32em">−0.3</text></g><g class="tick" opacity="1" transform="translate(0,414.07447801657264)"><line stroke="currentColor" x2="-6"></line><text fill="currentColor" x="-9" dy="0.32em">−0.2</text></g><g class="tick" opacity="1" transform="translate(0,370.3001110092)"><line stroke="currentColor" x2="-6"></line><text fill="currentColor" x="-9" dy="0.32em">−0.1</text></g><g class="tick" opacity="1" transform="translate(0,326.5257440018274)"><line stroke="currentColor" x2="-6"></line><text fill="currentColor" x="-9" dy="0.32em">0.0</text></g><g class="tick" opacity="1" transform="translate(0,282.7513769944548)"><line stroke="currentColor" x2="-6"></line><text fill="currentColor" x="-9" dy="0.32em">0.1</text></g><g class="tick" opacity="1" transform="translate(0,238.97700998708217)"><line stroke="currentColor" x2="-6"></line><text fill="currentColor" x="-9" dy="0.32em">0.2</text></g><g class="tick" opacity="1" transform="translate(0,195.20264297970957)"><line stroke="currentColor" x2="-6"></line><text fill="currentColor" x="-9" dy="0.32em">0.3</text></g><g class="tick" opacity="1" transform="translate(0,151.42827597233693)"><line stroke="currentColor" x2="-6"></line><text fill="currentColor" x="-9" dy="0.32em">0.4</text></g><g class="tick" opacity="1" transform="translate(0,107.6539089649643)"><line stroke="currentColor" x2="-6"></line><text fill="currentColor" x="-9" dy="0.32em">0.5</text></g><g class="tick" opacity="1" transform="translate(0,63.87954195759171)"><line stroke="currentColor" x2="-6"></line><text fill="currentColor" x="-9" dy="0.32em">0.6</text></g><g class="tick" opacity="1" transform="translate(0,20.105174950219073)"><line stroke="currentColor" x2="-6"></line><text fill="currentColor" x="-9" dy="0.32em">0.7</text></g></g><text transform="translate(340, 540)" style="text-anchor: middle; font-size: 14px;">Time (s)</text><text transform="rotate(-90)" y="-60" x="-250" style="text-anchor: middle; font-size: 14px;">Amplitude</text><path fill="none" stroke="#1f77b4" stroke-width="2" d="M0,326.026L4.533,283.19L9.067,242.469L13.6,204.197L18.133,168.666L22.667,136.132L27.2,106.807L31.733,80.865L36.267,58.437L40.8,39.615L45.333,24.447L49.867,12.947L54.4,5.086L58.933,0.803L63.467,0L68,2.55L72.533,8.294L77.067,17.05L81.6,28.609L86.133,42.745L90.667,59.212L95.2,77.751L99.733,98.092L104.267,119.957L108.8,143.064L113.333,167.128L117.867,191.868L122.4,217.004L126.933,242.264L131.467,267.388L136,292.123L140.533,316.234L145.067,339.5L149.6,361.715L154.133,382.697L158.667,402.278L163.2,420.315L167.733,436.684L172.267,451.284L176.8,464.036L181.333,474.882L185.867,483.786L190.4,490.735L194.933,495.733L199.467,498.807L204,500L208.533,499.374L213.067,497.007L217.6,492.992L222.133,487.433L226.667,480.448L231.2,472.164L235.733,462.716L240.267,452.246L244.8,440.902L249.333,428.832L253.867,416.188L258.4,403.121L262.933,389.782L267.467,376.316L272,362.866L276.533,349.568L281.067,336.551L285.6,323.938L290.133,311.841L294.667,300.362L299.2,289.595L303.733,279.621L308.267,270.511L312.8,262.324L317.333,255.106L321.867,248.894L326.4,243.712L330.933,239.57L335.467,236.472L340,234.408L344.533,233.357L349.067,233.292L353.6,234.174L358.133,235.957L362.667,238.587L367.2,242.005L371.733,246.145L376.267,250.936L380.8,256.304L385.333,262.172L389.867,268.46L394.4,275.088L398.933,281.975L403.467,289.04L408,296.205L412.533,303.393L417.067,310.53L421.6,317.545L426.133,324.371L430.667,330.946L435.2,337.213L439.733,343.121L444.267,348.623L448.8,353.679L453.333,358.255L457.867,362.323L462.4,365.862L466.933,368.857L471.467,371.297L476,373.181L480.533,374.511L485.067,375.295L489.6,375.546L494.133,375.283L498.667,374.529L503.2,373.31L507.733,371.657L512.267,369.604L516.8,367.188L521.333,364.447L525.867,361.423L530.4,358.156L534.933,354.69L539.467,351.069L544,347.334L548.533,343.528L553.067,339.694L557.6,335.87L562.133,332.096L566.667,328.409L571.2,324.842L575.733,321.426L580.267,318.192L584.8,315.164L589.333,312.365L593.867,309.815L598.4,307.531L602.933,305.524L607.467,303.805L612,302.379L616.533,301.251L621.067,300.419L625.6,299.88L630.133,299.629L634.667,299.657L639.2,299.952L643.733,300.501L648.267,301.288L652.8,302.297L657.333,303.508L661.867,304.901L666.4,306.454L670.933,308.146L675.467,309.953L680,311.853"></path></g><text x="400" y="25" style="text-anchor: middle; font-size: 16px; font-weight: bold;">Damped Oscillation</text></svg>