<svg width="800" height="600" xmlns="http://www.w3.org/2000/svg"><g transform="translate(80,40)"><g transform="translate(0,500)" fill="none" font-size="10" font-family="sans-serif" text-anchor="middle"><path class="domain" stroke="currentColor" d="M0.5,6V0.5H680.5V6"></path><g class="tick" opacity="1" transform="translate(0.5,0)"><line stroke="currentColor" y2="6"></line><text fill="currentColor" y="9" dy="0.71em">0</text></g><g class="tick" opacity="1" transform="translate(92.08249158249143,0)"><line stroke="currentColor" y2="6"></line><text fill="currentColor" y="9" dy="0.71em">2</text></g><g class="tick" opacity="1" transform="translate(183.66498316498286,0)"><line stroke="currentColor" y2="6"></line><text fill="currentColor" y="9" dy="0.71em">4</text></g><g class="tick" opacity="1" transform="translate(275.2474747474743,0)"><line stroke="currentColor" y2="6"></line><text fill="currentColor" y="9" dy="0.71em">6</text></g><g class="tick" opacity="1" transform="translate(366.8299663299657,0)"><line stroke="currentColor" y2="6"></line><text fill="currentColor" y="9" dy="0.71em">8</text></g><g class="tick" opacity="1" transform="translate(458.41245791245717,0)"><line stroke="currentColor" y2="6"></line><text fill="currentColor" y="9" dy="0.71em">10</text></g><g class="tick" opacity="1" transform="translate(549.9949494949486,0)"><line stroke="currentColor" y2="6"></line><text fill="currentColor" y="9" dy="0.71em">12</text></g><g class="tick" opacity="1" transform="translate(641.5774410774401,0)"><line stroke="currentColor" y2="6"></line><text fill="currentColor" y="9" dy="0.71em">14</text></g></g><g fill="none" font-size="10" font-family="sans-serif" text-anchor="end"><path class="domain" stroke="currentColor" d="M-6,500.5H0.5V0.5H-6"></path><g class="tick" opacity="1" transform="translate(0,457.85109727044266)"><line stroke="currentColor" x2="-6"></line><text fill="currentColor" x="-9" dy="0.32em">−0.3</text></g><g class="tick" opacity="1" transform="translate(0,414.07904182215503)"><line stroke="currentColor" x2="-6"></line><text fill="currentColor" x="-9" dy="0.32em">−0.2</text></g><g class="tick" opacity="1" transform="translate(0,370.3069863738674)"><line stroke="currentColor" x2="-6"></line><text fill="currentColor" x="-9" dy="0.32em">−0.1</text></g><g class="tick" opacity="1" transform="translate(0,326.5349309255798)"><line stroke="currentColor" x2="-6"></line><text fill="currentColor" x="-9" dy="0.32em">0.0</text></g><g class="tick" opacity="1" transform="translate(0,282.76287547729214)"><line stroke="currentColor" x2="-6"></line><text fill="currentColor" x="-9" dy="0.32em">0.1</text></g><g class="tick" opacity="1" transform="translate(0,238.99082002900445)"><line stroke="currentColor" x2="-6"></line><text fill="currentColor" x="-9" dy="0.32em">0.2</text></g><g class="tick" opacity="1" transform="translate(0,195.21876458071685)"><line stroke="currentColor" x2="-6"></line><text fill="currentColor" x="-9" dy="0.32em">0.3</text></g><g class="tick" opacity="1" transform="translate(0,151.4467091324292)"><line stroke="currentColor" x2="-6"></line><text fill="currentColor" x="-9" dy="0.32em">0.4</text></g><g class="tick" opacity="1" transform="translate(0,107.67465368414153)"><line stroke="currentColor" x2="-6"></line><text fill="currentColor" x="-9" dy="0.32em">0.5</text></g><g class="tick" opacity="1" transform="translate(0,63.90259823585392)"><line stroke="currentColor" x2="-6"></line><text fill="currentColor" x="-9" dy="0.32em">0.6</text></g><g class="tick" opacity="1" transform="translate(0,20.130542787566206)"><line stroke="currentColor" x2="-6"></line><text fill="currentColor" x="-9" dy="0.32em">0.7</text></g></g><text transform="translate(340, 540)" style="text-anchor: middle; font-size: 14px;">x</text><text transform="rotate(-90)" y="-60" x="-250" style="text-anchor: middle; font-size: 14px;">y</text><path fill="none" stroke="#1f77b4" stroke-width="2" d="M0,326.035L6.869,262.556L13.737,204.213L20.606,152.029L27.475,106.828L34.343,69.228L41.212,39.639L48.081,18.265L54.949,5.112L61.818,0L68.687,2.576L75.556,12.334L82.424,28.634L89.293,50.727L96.162,77.773L103.03,108.872L109.899,143.083L116.768,179.448L123.636,217.018L130.505,254.872L137.374,292.134L144.242,327.995L151.111,361.723L157.98,392.678L164.848,420.319L171.717,444.214L178.586,464.038L185.455,479.579L192.323,490.735L199.192,497.508L206.061,500L212.929,498.403L219.798,492.992L226.667,484.112L233.535,472.165L240.404,457.602L247.273,440.905L254.141,422.576L261.01,403.126L267.879,383.062L274.747,362.873L281.616,343.025L288.485,323.947L295.354,306.028L302.222,289.606L309.091,274.966L315.96,262.337L322.828,251.886L329.697,243.725L336.566,237.905L343.434,234.422L350.303,233.218L357.172,234.188L364.04,237.184L370.909,242.019L377.778,248.477L384.646,256.317L391.515,265.281L398.384,275.1L405.253,285.501L412.121,296.216L418.99,306.983L425.859,317.554L432.727,327.703L439.596,337.222L446.465,345.933L453.333,353.686L460.202,360.361L467.071,365.869L473.939,370.153L480.808,373.188L487.677,374.977L494.545,375.553L501.414,374.972L508.283,373.316L515.152,370.685L522.02,367.195L528.889,362.975L535.758,358.164L542.626,352.904L549.495,347.342L556.364,341.62L563.232,335.879L570.101,330.249L576.97,324.851L583.838,319.794L590.707,315.173L597.576,311.068L604.444,307.541L611.313,304.638L618.182,302.39L625.051,300.808L631.919,299.891L638.788,299.619L645.657,299.962L652.525,300.876L659.394,302.307L666.263,304.193L673.131,306.464L680,309.046"></path></g><text x="400" y="25" style="text-anchor: middle; font-size: 16px; font-weight: bold;">Damped Sine Wave</text></svg>