<?xml version="1.0" encoding="UTF-8"?>
<svg width="800" height="600" viewBox="0 0 800 600" xmlns="http://www.w3.org/2000/svg">
  <defs>
    <style>
      .plot-line { fill: none; stroke: #2563eb; stroke-width: 2px; }
      .axis { stroke: #666; stroke-width: 1px; }
      .grid { stroke: #e5e7eb; stroke-width: 0.5px; }
      .axis-label { font-family: Arial, sans-serif; font-size: 12px; fill: #374151; text-anchor: middle; }
      .title { font-family: Arial, sans-serif; font-size: 16px; font-weight: bold; fill: #1f2937; text-anchor: middle; }
    </style>
  </defs>
  
  <!-- Background -->
  <rect width="800" height="600" fill="#ffffff"/>
  
  <!-- Grid lines -->
  <line x1="60" y1="40" x2="60" y2="540" class="grid"/>
  <line x1="200" y1="40" x2="200" y2="540" class="grid"/>
  <line x1="340" y1="40" x2="340" y2="540" class="grid"/>
  <line x1="480" y1="40" x2="480" y2="540" class="grid"/>
  <line x1="620" y1="40" x2="620" y2="540" class="grid"/>
  <line x1="760" y1="40" x2="760" y2="540" class="grid"/>
  <line x1="60" y1="540" x2="760" y2="540" class="grid"/>
  <line x1="60" y1="440" x2="760" y2="440" class="grid"/>
  <line x1="60" y1="340" x2="760" y2="340" class="grid"/>
  <line x1="60" y1="240" x2="760" y2="240" class="grid"/>
  <line x1="60" y1="140" x2="760" y2="140" class="grid"/>
  <line x1="60" y1="40" x2="760" y2="40" class="grid"/>
  
  <!-- Axes -->
  <line x1="60" y1="540" x2="760" y2="540" class="axis"/>
  <line x1="60" y1="40" x2="60" y2="540" class="axis"/>
  
  <!-- Axis labels -->
  <text x="60" y="560" class="axis-label">-8.8</text>
  <text x="200" y="560" class="axis-label">-5.3</text>
  <text x="340" y="560" class="axis-label">-1.8</text>
  <text x="480" y="560" class="axis-label">1.8</text>
  <text x="620" y="560" class="axis-label">5.3</text>
  <text x="760" y="560" class="axis-label">8.8</text>
  <text x="50" y="545" class="axis-label" text-anchor="end">-1.0</text>
  <text x="50" y="445" class="axis-label" text-anchor="end">-0.6</text>
  <text x="50" y="345" class="axis-label" text-anchor="end">-0.2</text>
  <text x="50" y="245" class="axis-label" text-anchor="end">0.2</text>
  <text x="50" y="145" class="axis-label" text-anchor="end">0.6</text>
  <text x="50" y="45" class="axis-label" text-anchor="end">1.0</text>
  
  <!-- Plot line -->
  <path d="M 91.82 289.98 L 98.18 290.00 L 104.55 290.05 L 110.91 290.13 L 117.27 290.24 L 123.64 290.36 L 130.00 290.50 L 136.36 290.62 L 142.73 290.67 L 149.09 290.60 L 155.45 290.34 L 161.82 289.84 L 168.18 289.04 L 174.55 287.95 L 180.91 286.63 L 187.27 285.21 L 193.64 283.95 L 200.00 283.15 L 206.36 283.23 L 212.73 284.59 L 219.09 287.59 L 225.45 292.41 L 231.82 298.98 L 238.18 306.89 L 244.55 315.30 L 250.91 322.98 L 257.27 328.40 L 263.64 329.90 L 270.00 325.94 L 276.36 315.41 L 282.73 297.98 L 289.09 274.34 L 295.45 246.36 L 301.82 217.05 L 308.18 190.33 L 314.55 170.57 L 320.91 161.99 L 327.27 167.91 L 333.64 190.10 L 340.00 228.22 L 346.36 279.56 L 352.73 339.16 L 359.09 400.25 L 365.45 455.15 L 371.82 496.26 L 378.18 517.27 L 384.55 514.19 L 390.91 486.04 L 397.27 435.22 L 403.64 367.23 L 410.00 290.00 L 416.36 212.77 L 422.73 144.78 L 429.09 93.96 L 435.45 65.81 L 441.82 62.73 L 448.18 83.74 L 454.55 124.85 L 460.91 179.75 L 467.27 240.84 L 473.64 300.44 L 480.00 351.78 L 486.36 389.90 L 492.73 412.09 L 499.09 418.01 L 505.45 409.43 L 511.82 389.67 L 518.18 362.95 L 524.55 333.64 L 530.91 305.66 L 537.27 282.02 L 543.64 264.59 L 550.00 254.06 L 556.36 250.10 L 562.73 251.60 L 569.09 257.02 L 575.45 264.70 L 581.82 273.11 L 588.18 281.02 L 594.55 287.59 L 600.91 292.41 L 607.27 295.41 L 613.64 296.77 L 620.00 296.85 L 626.36 296.05 L 632.73 294.79 L 639.09 293.37 L 645.45 292.05 L 651.82 290.96 L 658.18 290.16 L 664.55 289.66 L 670.91 289.40 L 677.27 289.33 L 683.64 289.38 L 690.00 289.50 L 696.36 289.64 L 702.73 289.76 L 709.09 289.87 L 715.45 289.95 L 721.82 290.00 L 728.18 290.02" class="plot-line"/>
  
  <!-- Title -->
  <text x="400" y="25" class="title">Damped Oscillation</text>
</svg>