<?xml version="1.0" encoding="UTF-8"?>
<svg width="800" height="600" viewBox="0 0 800 600" xmlns="http://www.w3.org/2000/svg">
  <defs>
    <style>
      .plot-line { fill: none; stroke: #2563eb; stroke-width: 2px; }
      .axis { stroke: #666; stroke-width: 1px; }
      .grid { stroke: #e5e7eb; stroke-width: 0.5px; }
      .axis-label { font-family: Arial, sans-serif; font-size: 12px; fill: #374151; text-anchor: middle; }
      .title { font-family: Arial, sans-serif; font-size: 16px; font-weight: bold; fill: #1f2937; text-anchor: middle; }
    </style>
  </defs>
  
  <!-- Background -->
  <rect width="800" height="600" fill="#ffffff"/>
  
  <!-- Grid lines -->
  <line x1="60" y1="40" x2="60" y2="540" class="grid"/>
  <line x1="200" y1="40" x2="200" y2="540" class="grid"/>
  <line x1="340" y1="40" x2="340" y2="540" class="grid"/>
  <line x1="480" y1="40" x2="480" y2="540" class="grid"/>
  <line x1="620" y1="40" x2="620" y2="540" class="grid"/>
  <line x1="760" y1="40" x2="760" y2="540" class="grid"/>
  <line x1="60" y1="540" x2="760" y2="540" class="grid"/>
  <line x1="60" y1="440" x2="760" y2="440" class="grid"/>
  <line x1="60" y1="340" x2="760" y2="340" class="grid"/>
  <line x1="60" y1="240" x2="760" y2="240" class="grid"/>
  <line x1="60" y1="140" x2="760" y2="140" class="grid"/>
  <line x1="60" y1="40" x2="760" y2="40" class="grid"/>
  
  <!-- Axes -->
  <line x1="60" y1="540" x2="760" y2="540" class="axis"/>
  <line x1="60" y1="40" x2="60" y2="540" class="axis"/>
  
  <!-- Axis labels -->
  <text x="60" y="560" class="axis-label">-6.9</text>
  <text x="200" y="560" class="axis-label">-4.1</text>
  <text x="340" y="560" class="axis-label">-1.4</text>
  <text x="480" y="560" class="axis-label">1.4</text>
  <text x="620" y="560" class="axis-label">4.1</text>
  <text x="760" y="560" class="axis-label">6.9</text>
  <text x="50" y="545" class="axis-label" text-anchor="end">-1.1</text>
  <text x="50" y="445" class="axis-label" text-anchor="end">-0.7</text>
  <text x="50" y="345" class="axis-label" text-anchor="end">-0.2</text>
  <text x="50" y="245" class="axis-label" text-anchor="end">0.2</text>
  <text x="50" y="145" class="axis-label" text-anchor="end">0.7</text>
  <text x="50" y="45" class="axis-label" text-anchor="end">1.1</text>
  
  <!-- Plot line -->
  <path d="M 91.82 129.74 L 98.18 151.21 L 104.55 174.86 L 110.91 200.33 L 117.27 227.21 L 123.64 255.08 L 130.00 283.50 L 136.36 312.02 L 142.73 340.20 L 149.09 367.58 L 155.45 393.75 L 161.82 418.27 L 168.18 440.78 L 174.55 460.91 L 180.91 478.35 L 187.27 492.82 L 193.64 504.10 L 200.00 512.00 L 206.36 516.41 L 212.73 517.25 L 219.09 514.51 L 225.45 508.23 L 231.82 498.51 L 238.18 485.51 L 244.55 469.43 L 250.91 450.52 L 257.27 429.09 L 263.64 405.46 L 270.00 380.01 L 276.36 353.15 L 282.73 325.29 L 289.09 296.87 L 295.45 268.35 L 301.82 240.17 L 308.18 212.77 L 314.55 186.59 L 320.91 162.04 L 327.27 139.50 L 333.64 119.34 L 340.00 101.86 L 346.36 87.35 L 352.73 76.03 L 359.09 68.08 L 365.45 63.63 L 371.82 62.75 L 378.18 65.44 L 384.55 71.68 L 390.91 81.35 L 397.27 94.31 L 403.64 110.36 L 410.00 129.23 L 416.36 150.64 L 422.73 174.24 L 429.09 199.67 L 435.45 226.52 L 441.82 254.37 L 448.18 282.78 L 454.55 311.30 L 460.91 339.49 L 467.27 366.90 L 473.64 393.10 L 480.00 417.68 L 486.36 440.24 L 492.73 460.43 L 499.09 477.95 L 505.45 492.50 L 511.82 503.86 L 518.18 511.85 L 524.55 516.34 L 530.91 517.27 L 537.27 514.62 L 543.64 508.43 L 550.00 498.80 L 556.36 485.88 L 562.73 469.88 L 569.09 451.04 L 575.45 429.66 L 581.82 406.08 L 588.18 380.68 L 594.55 353.84 L 600.91 326.00 L 607.27 297.60 L 613.64 269.07 L 620.00 240.87 L 626.36 213.45 L 632.73 187.23 L 639.09 162.64 L 645.45 140.04 L 651.82 119.82 L 658.18 102.27 L 664.55 87.68 L 670.91 76.28 L 677.27 68.24 L 683.64 63.70 L 690.00 62.73 L 696.36 65.33 L 702.73 71.48 L 709.09 81.06 L 715.45 93.94 L 721.82 109.91 L 728.18 128.72" class="plot-line"/>
  
  <!-- Title -->
  <text x="400" y="25" class="title">f(x) = cos(x + π/4)</text>
</svg>