<?xml version="1.0" encoding="UTF-8"?>
<svg width="800" height="600" viewBox="0 0 800 600" xmlns="http://www.w3.org/2000/svg">
  <defs>
    <style>
      .plot-line { fill: none; stroke: #2563eb; stroke-width: 2px; }
      .axis { stroke: #666; stroke-width: 1px; }
      .grid { stroke: #e5e7eb; stroke-width: 0.5px; }
      .axis-label { font-family: Arial, sans-serif; font-size: 12px; fill: #374151; text-anchor: middle; }
      .title { font-family: Arial, sans-serif; font-size: 16px; font-weight: bold; fill: #1f2937; text-anchor: middle; }
    </style>
  </defs>
  
  <!-- Background -->
  <rect width="800" height="600" fill="#ffffff"/>
  
  <!-- Grid lines -->
  <line x1="60" y1="40" x2="60" y2="540" class="grid"/>
  <line x1="200" y1="40" x2="200" y2="540" class="grid"/>
  <line x1="340" y1="40" x2="340" y2="540" class="grid"/>
  <line x1="480" y1="40" x2="480" y2="540" class="grid"/>
  <line x1="620" y1="40" x2="620" y2="540" class="grid"/>
  <line x1="760" y1="40" x2="760" y2="540" class="grid"/>
  <line x1="60" y1="540" x2="760" y2="540" class="grid"/>
  <line x1="60" y1="440" x2="760" y2="440" class="grid"/>
  <line x1="60" y1="340" x2="760" y2="340" class="grid"/>
  <line x1="60" y1="240" x2="760" y2="240" class="grid"/>
  <line x1="60" y1="140" x2="760" y2="140" class="grid"/>
  <line x1="60" y1="40" x2="760" y2="40" class="grid"/>
  
  <!-- Axes -->
  <line x1="60" y1="540" x2="760" y2="540" class="axis"/>
  <line x1="60" y1="40" x2="60" y2="540" class="axis"/>
  
  <!-- Axis labels -->
  <text x="60" y="560" class="axis-label">-3.3</text>
  <text x="200" y="560" class="axis-label">-2.0</text>
  <text x="340" y="560" class="axis-label">-0.7</text>
  <text x="480" y="560" class="axis-label">0.7</text>
  <text x="620" y="560" class="axis-label">2.0</text>
  <text x="760" y="560" class="axis-label">3.3</text>
  <text x="50" y="545" class="axis-label" text-anchor="end">-9.9</text>
  <text x="50" y="445" class="axis-label" text-anchor="end">-5.9</text>
  <text x="50" y="345" class="axis-label" text-anchor="end">-2.0</text>
  <text x="50" y="245" class="axis-label" text-anchor="end">2.0</text>
  <text x="50" y="145" class="axis-label" text-anchor="end">5.9</text>
  <text x="50" y="45" class="axis-label" text-anchor="end">9.9</text>
  
  <!-- Plot line -->
  <path d="M 91.82 517.27 L 98.18 508.27 L 104.55 499.45 L 110.91 490.82 L 117.27 482.36 L 123.64 474.09 L 130.00 466.00 L 136.36 458.09 L 142.73 450.36 L 149.09 442.82 L 155.45 435.45 L 161.82 428.27 L 168.18 421.27 L 174.55 414.45 L 180.91 407.82 L 187.27 401.36 L 193.64 395.09 L 200.00 389.00 L 206.36 383.09 L 212.73 377.36 L 219.09 371.82 L 225.45 366.45 L 231.82 361.27 L 238.18 356.27 L 244.55 351.45 L 250.91 346.82 L 257.27 342.36 L 263.64 338.09 L 270.00 334.00 L 276.36 330.09 L 282.73 326.36 L 289.09 322.82 L 295.45 319.45 L 301.82 316.27 L 308.18 313.27 L 314.55 310.45 L 320.91 307.82 L 327.27 305.36 L 333.64 303.09 L 340.00 301.00 L 346.36 299.09 L 352.73 297.36 L 359.09 295.82 L 365.45 294.45 L 371.82 293.27 L 378.18 292.27 L 384.55 291.45 L 390.91 290.82 L 397.27 290.36 L 403.64 290.09 L 410.00 290.00 L 416.36 289.91 L 422.73 289.64 L 429.09 289.18 L 435.45 288.55 L 441.82 287.73 L 448.18 286.73 L 454.55 285.55 L 460.91 284.18 L 467.27 282.64 L 473.64 280.91 L 480.00 279.00 L 486.36 276.91 L 492.73 274.64 L 499.09 272.18 L 505.45 269.55 L 511.82 266.73 L 518.18 263.73 L 524.55 260.55 L 530.91 257.18 L 537.27 253.64 L 543.64 249.91 L 550.00 246.00 L 556.36 241.91 L 562.73 237.64 L 569.09 233.18 L 575.45 228.55 L 581.82 223.73 L 588.18 218.73 L 594.55 213.55 L 600.91 208.18 L 607.27 202.64 L 613.64 196.91 L 620.00 191.00 L 626.36 184.91 L 632.73 178.64 L 639.09 172.18 L 645.45 165.55 L 651.82 158.73 L 658.18 151.73 L 664.55 144.55 L 670.91 137.18 L 677.27 129.64 L 683.64 121.91 L 690.00 114.00 L 696.36 105.91 L 702.73 97.64 L 709.09 89.18 L 715.45 80.55 L 721.82 71.73 L 728.18 62.73" class="plot-line"/>
  
  <!-- Title -->
  <text x="400" y="25" class="title">f(x) = x² if x>0, else -x²</text>
</svg>