<?xml version="1.0" encoding="UTF-8"?>
<svg width="800" height="600" viewBox="0 0 800 600" xmlns="http://www.w3.org/2000/svg">
  <defs>
    <style>
      .plot-line { fill: none; stroke: #2563eb; stroke-width: 2px; }
      .axis { stroke: #666; stroke-width: 1px; }
      .grid { stroke: #e5e7eb; stroke-width: 0.5px; }
      .axis-label { font-family: Arial, sans-serif; font-size: 12px; fill: #374151; text-anchor: middle; }
      .title { font-family: Arial, sans-serif; font-size: 16px; font-weight: bold; fill: #1f2937; text-anchor: middle; }
    </style>
  </defs>
  
  <!-- Background -->
  <rect width="800" height="600" fill="#ffffff"/>
  
  <!-- Grid lines -->
  <line x1="60" y1="40" x2="60" y2="540" class="grid"/>
  <line x1="200" y1="40" x2="200" y2="540" class="grid"/>
  <line x1="340" y1="40" x2="340" y2="540" class="grid"/>
  <line x1="480" y1="40" x2="480" y2="540" class="grid"/>
  <line x1="620" y1="40" x2="620" y2="540" class="grid"/>
  <line x1="760" y1="40" x2="760" y2="540" class="grid"/>
  <line x1="60" y1="540" x2="760" y2="540" class="grid"/>
  <line x1="60" y1="440" x2="760" y2="440" class="grid"/>
  <line x1="60" y1="340" x2="760" y2="340" class="grid"/>
  <line x1="60" y1="240" x2="760" y2="240" class="grid"/>
  <line x1="60" y1="140" x2="760" y2="140" class="grid"/>
  <line x1="60" y1="40" x2="760" y2="40" class="grid"/>
  
  <!-- Axes -->
  <line x1="60" y1="540" x2="760" y2="540" class="axis"/>
  <line x1="60" y1="40" x2="60" y2="540" class="axis"/>
  
  <!-- Axis labels -->
  <text x="60" y="560" class="axis-label">-13.2</text>
  <text x="200" y="560" class="axis-label">-7.9</text>
  <text x="340" y="560" class="axis-label">-2.6</text>
  <text x="480" y="560" class="axis-label">2.6</text>
  <text x="620" y="560" class="axis-label">7.9</text>
  <text x="760" y="560" class="axis-label">13.2</text>
  <text x="50" y="545" class="axis-label" text-anchor="end">-0.8</text>
  <text x="50" y="445" class="axis-label" text-anchor="end">-0.5</text>
  <text x="50" y="345" class="axis-label" text-anchor="end">-0.2</text>
  <text x="50" y="245" class="axis-label" text-anchor="end">0.2</text>
  <text x="50" y="145" class="axis-label" text-anchor="end">0.5</text>
  <text x="50" y="45" class="axis-label" text-anchor="end">0.8</text>
  
  <!-- Plot line -->
  <path d="M 91.82 137.88 L 98.18 93.97 L 104.55 68.60 L 110.91 63.22 L 117.27 76.84 L 123.64 106.17 L 130.00 146.08 L 136.36 190.27 L 142.73 232.11 L 149.09 265.45 L 155.45 285.50 L 161.82 289.38 L 168.18 276.55 L 174.55 248.83 L 180.91 210.21 L 187.27 166.29 L 193.64 123.58 L 200.00 88.66 L 206.36 67.28 L 212.73 63.65 L 219.09 79.85 L 225.45 115.56 L 231.82 168.05 L 238.18 232.54 L 244.55 302.74 L 250.91 371.68 L 257.27 432.51 L 263.64 479.42 L 270.00 508.30 L 276.36 517.27 L 282.73 506.89 L 289.09 480.06 L 295.45 441.61 L 301.82 397.69 L 308.18 354.96 L 314.55 319.69 L 320.91 296.97 L 327.27 290.07 L 333.64 299.96 L 340.00 325.23 L 346.36 362.27 L 352.73 405.70 L 359.09 449.12 L 365.45 485.91 L 371.82 510.09 L 378.18 517.13 L 384.55 504.55 L 390.91 472.22 L 397.27 422.44 L 403.64 359.68 L 410.00 290.00 L 416.36 220.32 L 422.73 157.56 L 429.09 107.78 L 435.45 75.45 L 441.82 62.87 L 448.18 69.91 L 454.55 94.09 L 460.91 130.88 L 467.27 174.30 L 473.64 217.73 L 480.00 254.77 L 486.36 280.04 L 492.73 289.93 L 499.09 283.03 L 505.45 260.31 L 511.82 225.04 L 518.18 182.31 L 524.55 138.39 L 530.91 99.94 L 537.27 73.11 L 543.64 62.73 L 550.00 71.70 L 556.36 100.58 L 562.73 147.49 L 569.09 208.32 L 575.45 277.26 L 581.82 347.46 L 588.18 411.95 L 594.55 464.44 L 600.91 500.15 L 607.27 516.35 L 613.64 512.72 L 620.00 491.34 L 626.36 456.42 L 632.73 413.71 L 639.09 369.79 L 645.45 331.17 L 651.82 303.45 L 658.18 290.62 L 664.55 294.50 L 670.91 314.55 L 677.27 347.89 L 683.64 389.73 L 690.00 433.92 L 696.36 473.83 L 702.73 503.16 L 709.09 516.78 L 715.45 511.40 L 721.82 486.03 L 728.18 442.12" class="plot-line"/>
  
  <!-- Title -->
  <text x="400" y="25" class="title">f(x) = sin(x)·cos(x/2)</text>
</svg>