<?xml version="1.0" encoding="UTF-8"?>
<svg width="800" height="600" viewBox="0 0 800 600" xmlns="http://www.w3.org/2000/svg">
  <defs>
    <style>
      .plot-line { fill: none; stroke: #2563eb; stroke-width: 2px; }
      .axis { stroke: #666; stroke-width: 1px; }
      .grid { stroke: #e5e7eb; stroke-width: 0.5px; }
      .axis-label { font-family: Arial, sans-serif; font-size: 12px; fill: #374151; text-anchor: middle; }
      .title { font-family: Arial, sans-serif; font-size: 16px; font-weight: bold; fill: #1f2937; text-anchor: middle; }
    </style>
  </defs>
  
  <!-- Background -->
  <rect width="800" height="600" fill="#ffffff"/>
  
  <!-- Grid lines -->
  <line x1="60" y1="40" x2="60" y2="540" class="grid"/>
  <line x1="200" y1="40" x2="200" y2="540" class="grid"/>
  <line x1="340" y1="40" x2="340" y2="540" class="grid"/>
  <line x1="480" y1="40" x2="480" y2="540" class="grid"/>
  <line x1="620" y1="40" x2="620" y2="540" class="grid"/>
  <line x1="760" y1="40" x2="760" y2="540" class="grid"/>
  <line x1="60" y1="540" x2="760" y2="540" class="grid"/>
  <line x1="60" y1="440" x2="760" y2="440" class="grid"/>
  <line x1="60" y1="340" x2="760" y2="340" class="grid"/>
  <line x1="60" y1="240" x2="760" y2="240" class="grid"/>
  <line x1="60" y1="139.99999999999994" x2="760" y2="139.99999999999994" class="grid"/>
  <line x1="60" y1="40" x2="760" y2="40" class="grid"/>
  
  <!-- Axes -->
  <line x1="60" y1="540" x2="760" y2="540" class="axis"/>
  <line x1="60" y1="40" x2="60" y2="540" class="axis"/>
  
  <!-- Axis labels -->
  <text x="60" y="560" class="axis-label">-3.3</text>
  <text x="200" y="560" class="axis-label">-2.0</text>
  <text x="340" y="560" class="axis-label">-0.7</text>
  <text x="480" y="560" class="axis-label">0.7</text>
  <text x="620" y="560" class="axis-label">2.0</text>
  <text x="760" y="560" class="axis-label">3.3</text>
  <text x="50" y="545" class="axis-label" text-anchor="end">-14.6</text>
  <text x="50" y="445" class="axis-label" text-anchor="end">-6.4</text>
  <text x="50" y="345" class="axis-label" text-anchor="end">1.9</text>
  <text x="50" y="245" class="axis-label" text-anchor="end">10.1</text>
  <text x="50" y="144.99999999999994" class="axis-label" text-anchor="end">18.4</text>
  <text x="50" y="45" class="axis-label" text-anchor="end">26.6</text>
  
  <!-- Plot line -->
  <path d="M 91.82 361.18 L 98.18 361.11 L 104.55 361.04 L 110.91 360.95 L 117.27 360.87 L 123.64 360.77 L 130.00 360.67 L 136.36 360.55 L 142.73 360.43 L 149.09 360.30 L 155.45 360.15 L 161.82 359.99 L 168.18 359.81 L 174.55 359.61 L 180.91 359.39 L 187.27 359.14 L 193.64 358.86 L 200.00 358.55 L 206.36 358.19 L 212.73 357.77 L 219.09 357.29 L 225.45 356.72 L 231.82 356.05 L 238.18 355.24 L 244.55 354.24 L 250.91 353.00 L 257.27 351.41 L 263.64 349.30 L 270.00 346.37 L 276.36 342.07 L 282.73 335.15 L 289.09 322.25 L 295.45 289.87 L 301.82 62.73 L 308.18 517.27 L 314.55 426.48 L 320.91 403.86 L 327.27 393.64 L 333.64 387.86 L 340.00 384.17 L 346.36 381.63 L 352.73 379.80 L 359.09 378.44 L 365.45 377.41 L 371.82 376.62 L 378.18 376.01 L 384.55 375.56 L 390.91 375.22 L 397.27 374.99 L 403.64 374.86 L 410.00 374.82 L 416.36 374.86 L 422.73 374.99 L 429.09 375.22 L 435.45 375.56 L 441.82 376.01 L 448.18 376.62 L 454.55 377.41 L 460.91 378.44 L 467.27 379.80 L 473.64 381.63 L 480.00 384.17 L 486.36 387.86 L 492.73 393.64 L 499.09 403.86 L 505.45 426.48 L 511.82 517.27 L 518.18 62.73 L 524.55 289.87 L 530.91 322.25 L 537.27 335.15 L 543.64 342.07 L 550.00 346.37 L 556.36 349.30 L 562.73 351.41 L 569.09 353.00 L 575.45 354.24 L 581.82 355.24 L 588.18 356.05 L 594.55 356.72 L 600.91 357.29 L 607.27 357.77 L 613.64 358.19 L 620.00 358.55 L 626.36 358.86 L 632.73 359.14 L 639.09 359.39 L 645.45 359.61 L 651.82 359.81 L 658.18 359.99 L 664.55 360.15 L 670.91 360.30 L 677.27 360.43 L 683.64 360.55 L 690.00 360.67 L 696.36 360.77 L 702.73 360.87 L 709.09 360.95 L 715.45 361.04 L 721.82 361.11 L 728.18 361.18" class="plot-line"/>
  
  <!-- Title -->
  <text x="400" y="25" class="title">f(x) = 1/(x²-1)</text>
</svg>