<?xml version="1.0" encoding="UTF-8"?>
<svg width="800" height="600" viewBox="0 0 800 600" xmlns="http://www.w3.org/2000/svg">
  <defs>
    <style>
      .plot-line { fill: none; stroke: #2563eb; stroke-width: 2px; }
      .axis { stroke: #666; stroke-width: 1px; }
      .grid { stroke: #e5e7eb; stroke-width: 0.5px; }
      .axis-label { font-family: Arial, sans-serif; font-size: 12px; fill: #374151; text-anchor: middle; }
      .title { font-family: Arial, sans-serif; font-size: 16px; font-weight: bold; fill: #1f2937; text-anchor: middle; }
    </style>
  </defs>
  
  <!-- Background -->
  <rect width="800" height="600" fill="#ffffff"/>
  
  <!-- Grid lines -->
  <line x1="60" y1="40" x2="60" y2="540" class="grid"/>
  <line x1="200" y1="40" x2="200" y2="540" class="grid"/>
  <line x1="340" y1="40" x2="340" y2="540" class="grid"/>
  <line x1="480" y1="40" x2="480" y2="540" class="grid"/>
  <line x1="620" y1="40" x2="620" y2="540" class="grid"/>
  <line x1="760" y1="40" x2="760" y2="540" class="grid"/>
  <line x1="60" y1="540" x2="760" y2="540" class="grid"/>
  <line x1="60" y1="440" x2="760" y2="440" class="grid"/>
  <line x1="60" y1="340" x2="760" y2="340" class="grid"/>
  <line x1="60" y1="240" x2="760" y2="240" class="grid"/>
  <line x1="60" y1="140" x2="760" y2="140" class="grid"/>
  <line x1="60" y1="40" x2="760" y2="40" class="grid"/>
  
  <!-- Axes -->
  <line x1="60" y1="540" x2="760" y2="540" class="axis"/>
  <line x1="60" y1="40" x2="60" y2="540" class="axis"/>
  
  <!-- Axis labels -->
  <text x="60" y="560" class="axis-label">-5.5</text>
  <text x="200" y="560" class="axis-label">-3.3</text>
  <text x="340" y="560" class="axis-label">-1.1</text>
  <text x="480" y="560" class="axis-label">1.1</text>
  <text x="620" y="560" class="axis-label">3.3</text>
  <text x="760" y="560" class="axis-label">5.5</text>
  <text x="50" y="545" class="axis-label" text-anchor="end">-1.1</text>
  <text x="50" y="445" class="axis-label" text-anchor="end">-0.7</text>
  <text x="50" y="345" class="axis-label" text-anchor="end">-0.2</text>
  <text x="50" y="245" class="axis-label" text-anchor="end">0.2</text>
  <text x="50" y="145" class="axis-label" text-anchor="end">0.7</text>
  <text x="50" y="45" class="axis-label" text-anchor="end">1.1</text>
  
  <!-- Plot line -->
  <path d="M 91.82 517.27 L 98.18 517.27 L 104.55 517.26 L 110.91 517.26 L 117.27 517.25 L 123.64 517.24 L 130.00 517.22 L 136.36 517.21 L 142.73 517.19 L 149.09 517.17 L 155.45 517.14 L 161.82 517.11 L 168.18 517.07 L 174.55 517.02 L 180.91 516.95 L 187.27 516.88 L 193.64 516.79 L 200.00 516.68 L 206.36 516.54 L 212.73 516.37 L 219.09 516.17 L 225.45 515.92 L 231.82 515.62 L 238.18 515.25 L 244.55 514.80 L 250.91 514.25 L 257.27 513.58 L 263.64 512.77 L 270.00 511.78 L 276.36 510.58 L 282.73 509.12 L 289.09 507.35 L 295.45 505.20 L 301.82 502.61 L 308.18 499.49 L 314.55 495.73 L 320.91 491.23 L 327.27 485.86 L 333.64 479.48 L 340.00 471.95 L 346.36 463.11 L 352.73 452.81 L 359.09 440.93 L 365.45 427.37 L 371.82 412.07 L 378.18 395.04 L 384.55 376.36 L 390.91 356.21 L 397.27 334.86 L 403.64 312.65 L 410.00 290.00 L 416.36 267.35 L 422.73 245.14 L 429.09 223.79 L 435.45 203.64 L 441.82 184.96 L 448.18 167.93 L 454.55 152.63 L 460.91 139.07 L 467.27 127.19 L 473.64 116.89 L 480.00 108.05 L 486.36 100.52 L 492.73 94.14 L 499.09 88.77 L 505.45 84.27 L 511.82 80.51 L 518.18 77.39 L 524.55 74.80 L 530.91 72.65 L 537.27 70.88 L 543.64 69.42 L 550.00 68.22 L 556.36 67.23 L 562.73 66.42 L 569.09 65.75 L 575.45 65.20 L 581.82 64.75 L 588.18 64.38 L 594.55 64.08 L 600.91 63.83 L 607.27 63.63 L 613.64 63.46 L 620.00 63.32 L 626.36 63.21 L 632.73 63.12 L 639.09 63.05 L 645.45 62.98 L 651.82 62.93 L 658.18 62.89 L 664.55 62.86 L 670.91 62.83 L 677.27 62.81 L 683.64 62.79 L 690.00 62.78 L 696.36 62.76 L 702.73 62.75 L 709.09 62.74 L 715.45 62.74 L 721.82 62.73 L 728.18 62.73" class="plot-line"/>
  
  <!-- Title -->
  <text x="400" y="25" class="title">f(x) = tanh(x)</text>
</svg>