<?xml version="1.0" encoding="UTF-8"?>
<svg width="800" height="600" viewBox="0 0 800 600" xmlns="http://www.w3.org/2000/svg">
  <defs>
    <style>
      .plot-line { fill: none; stroke: #2563eb; stroke-width: 2px; }
      .axis { stroke: #666; stroke-width: 1px; }
      .grid { stroke: #e5e7eb; stroke-width: 0.5px; }
      .axis-label { font-family: Arial, sans-serif; font-size: 12px; fill: #374151; text-anchor: middle; }
      .title { font-family: Arial, sans-serif; font-size: 16px; font-weight: bold; fill: #1f2937; text-anchor: middle; }
    </style>
  </defs>
  
  <!-- Background -->
  <rect width="800" height="600" fill="#ffffff"/>
  
  <!-- Grid lines -->
  <line x1="60" y1="40" x2="60" y2="540" class="grid"/>
  <line x1="200" y1="40" x2="200" y2="540" class="grid"/>
  <line x1="340" y1="40" x2="340" y2="540" class="grid"/>
  <line x1="480" y1="40" x2="480" y2="540" class="grid"/>
  <line x1="620" y1="40" x2="620" y2="540" class="grid"/>
  <line x1="760" y1="40" x2="760" y2="540" class="grid"/>
  <line x1="60" y1="540" x2="760" y2="540" class="grid"/>
  <line x1="60" y1="440" x2="760" y2="440" class="grid"/>
  <line x1="60" y1="340" x2="760" y2="340" class="grid"/>
  <line x1="60" y1="240" x2="760" y2="240" class="grid"/>
  <line x1="60" y1="140" x2="760" y2="140" class="grid"/>
  <line x1="60" y1="40" x2="760" y2="40" class="grid"/>
  
  <!-- Axes -->
  <line x1="60" y1="540" x2="760" y2="540" class="axis"/>
  <line x1="60" y1="40" x2="60" y2="540" class="axis"/>
  
  <!-- Axis labels -->
  <text x="60" y="560" class="axis-label">-2.2</text>
  <text x="200" y="560" class="axis-label">-1.3</text>
  <text x="340" y="560" class="axis-label">-0.4</text>
  <text x="480" y="560" class="axis-label">0.4</text>
  <text x="620" y="560" class="axis-label">1.3</text>
  <text x="760" y="560" class="axis-label">2.2</text>
  <text x="50" y="545" class="axis-label" text-anchor="end">-1.2</text>
  <text x="50" y="445" class="axis-label" text-anchor="end">-0.3</text>
  <text x="50" y="345" class="axis-label" text-anchor="end">0.6</text>
  <text x="50" y="245" class="axis-label" text-anchor="end">1.4</text>
  <text x="50" y="145" class="axis-label" text-anchor="end">2.3</text>
  <text x="50" y="45" class="axis-label" text-anchor="end">3.2</text>
  
  <!-- Plot line -->
  <path d="M 91.82 517.27 L 98.18 477.45 L 104.55 439.76 L 110.91 404.17 L 117.27 370.63 L 123.64 339.09 L 130.00 309.52 L 136.36 281.87 L 142.73 256.09 L 149.09 232.15 L 155.45 210.00 L 161.82 189.59 L 168.18 170.89 L 174.55 153.84 L 180.91 138.41 L 187.27 124.55 L 193.64 112.21 L 200.00 101.36 L 206.36 91.95 L 212.73 83.93 L 219.09 77.27 L 225.45 71.92 L 231.82 67.83 L 238.18 64.97 L 244.55 63.28 L 250.91 62.73 L 257.27 63.27 L 263.64 64.85 L 270.00 67.44 L 276.36 70.99 L 282.73 75.45 L 289.09 80.79 L 295.45 86.96 L 301.82 93.91 L 308.18 101.61 L 314.55 110.00 L 320.91 119.05 L 327.27 128.71 L 333.64 138.93 L 340.00 149.68 L 346.36 160.91 L 352.73 172.57 L 359.09 184.63 L 365.45 197.04 L 371.82 209.75 L 378.18 222.73 L 384.55 235.92 L 390.91 249.29 L 397.27 262.79 L 403.64 276.37 L 410.00 290.00 L 416.36 303.63 L 422.73 317.21 L 429.09 330.71 L 435.45 344.08 L 441.82 357.27 L 448.18 370.25 L 454.55 382.96 L 460.91 395.37 L 467.27 407.43 L 473.64 419.09 L 480.00 430.32 L 486.36 441.07 L 492.73 451.29 L 499.09 460.95 L 505.45 470.00 L 511.82 478.39 L 518.18 486.09 L 524.55 493.04 L 530.91 499.21 L 537.27 504.55 L 543.64 509.01 L 550.00 512.56 L 556.36 515.15 L 562.73 516.73 L 569.09 517.27 L 575.45 516.72 L 581.82 515.03 L 588.18 512.17 L 594.55 508.08 L 600.91 502.73 L 607.27 496.07 L 613.64 488.05 L 620.00 478.64 L 626.36 467.79 L 632.73 455.45 L 639.09 441.59 L 645.45 426.16 L 651.82 409.11 L 658.18 390.41 L 664.55 370.00 L 670.91 347.85 L 677.27 323.91 L 683.64 298.13 L 690.00 270.48 L 696.36 240.91 L 702.73 209.37 L 709.09 175.83 L 715.45 140.24 L 721.82 102.55 L 728.18 62.73" class="plot-line"/>
  
  <!-- Title -->
  <text x="400" y="25" class="title">Implicit Format: x³ - 3x + 1</text>
</svg>