<?xml version="1.0" encoding="UTF-8"?>
<svg width="800" height="600" viewBox="0 0 800 600" xmlns="http://www.w3.org/2000/svg">
  <defs>
    <style>
      .plot-line { fill: none; stroke: #2563eb; stroke-width: 2px; }
      .axis { stroke: #666; stroke-width: 1px; }
      .grid { stroke: #e5e7eb; stroke-width: 0.5px; }
      .axis-label { font-family: Arial, sans-serif; font-size: 12px; fill: #374151; text-anchor: middle; }
      .title { font-family: Arial, sans-serif; font-size: 16px; font-weight: bold; fill: #1f2937; text-anchor: middle; }
    </style>
  </defs>
  
  <!-- Background -->
  <rect width="800" height="600" fill="#ffffff"/>
  
  <!-- Grid lines -->
  <line x1="60" y1="40" x2="60" y2="540" class="grid"/>
  <line x1="200" y1="40" x2="200" y2="540" class="grid"/>
  <line x1="340" y1="40" x2="340" y2="540" class="grid"/>
  <line x1="480" y1="40" x2="480" y2="540" class="grid"/>
  <line x1="620" y1="40" x2="620" y2="540" class="grid"/>
  <line x1="760" y1="40" x2="760" y2="540" class="grid"/>
  <line x1="60" y1="540" x2="760" y2="540" class="grid"/>
  <line x1="60" y1="440" x2="760" y2="440" class="grid"/>
  <line x1="60" y1="340" x2="760" y2="340" class="grid"/>
  <line x1="60" y1="240" x2="760" y2="240" class="grid"/>
  <line x1="60" y1="140" x2="760" y2="140" class="grid"/>
  <line x1="60" y1="40" x2="760" y2="40" class="grid"/>
  
  <!-- Axes -->
  <line x1="60" y1="540" x2="760" y2="540" class="axis"/>
  <line x1="60" y1="40" x2="60" y2="540" class="axis"/>
  
  <!-- Axis labels -->
  <text x="60" y="560" class="axis-label">-8.8</text>
  <text x="200" y="560" class="axis-label">-5.3</text>
  <text x="340" y="560" class="axis-label">-1.8</text>
  <text x="480" y="560" class="axis-label">1.8</text>
  <text x="620" y="560" class="axis-label">5.3</text>
  <text x="760" y="560" class="axis-label">8.8</text>
  <text x="50" y="545" class="axis-label" text-anchor="end">-0.8</text>
  <text x="50" y="445" class="axis-label" text-anchor="end">-0.4</text>
  <text x="50" y="345" class="axis-label" text-anchor="end">-0.1</text>
  <text x="50" y="245" class="axis-label" text-anchor="end">0.3</text>
  <text x="50" y="145" class="axis-label" text-anchor="end">0.7</text>
  <text x="50" y="45" class="axis-label" text-anchor="end">1.1</text>
  
  <!-- Plot line -->
  <path d="M 91.82 323.23 L 95.00 323.25 L 98.18 323.27 L 101.36 323.29 L 104.55 323.30 L 107.73 323.32 L 110.91 323.32 L 114.09 323.32 L 117.27 323.31 L 120.45 323.29 L 123.64 323.25 L 126.82 323.20 L 130.00 323.12 L 133.18 323.02 L 136.36 322.89 L 139.55 322.74 L 142.73 322.56 L 145.91 322.35 L 149.09 322.13 L 152.27 321.89 L 155.45 321.64 L 158.64 321.39 L 161.82 321.15 L 165.00 320.95 L 168.18 320.79 L 171.36 320.71 L 174.55 320.71 L 177.73 320.83 L 180.91 321.09 L 184.09 321.50 L 187.27 322.10 L 190.45 322.89 L 193.64 323.89 L 196.82 325.10 L 200.00 326.52 L 203.18 328.12 L 206.36 329.89 L 209.55 331.78 L 212.73 333.73 L 215.91 335.68 L 219.09 337.54 L 222.27 339.23 L 225.45 340.62 L 228.64 341.62 L 231.82 342.09 L 235.00 341.93 L 238.18 341.03 L 241.36 339.28 L 244.55 336.60 L 247.73 332.94 L 250.91 328.28 L 254.09 322.62 L 257.27 316.01 L 260.45 308.57 L 263.64 300.43 L 266.82 291.80 L 270.00 282.92 L 273.18 274.08 L 276.36 265.61 L 279.55 257.87 L 282.73 251.24 L 285.91 246.09 L 289.09 242.81 L 292.27 241.73 L 295.45 243.16 L 298.64 247.35 L 301.82 254.46 L 305.00 264.56 L 308.18 277.64 L 311.36 293.56 L 314.55 312.06 L 317.73 332.76 L 320.91 355.18 L 324.09 378.73 L 327.27 402.72 L 330.45 426.40 L 333.64 448.96 L 336.82 469.58 L 340.00 487.46 L 343.18 501.81 L 346.36 511.93 L 349.55 517.24 L 352.73 517.27 L 355.91 511.72 L 359.09 500.46 L 362.27 483.55 L 365.45 461.26 L 368.64 434.05 L 371.82 402.56 L 375.00 367.61 L 378.18 330.17 L 381.36 291.32 L 384.55 252.21 L 387.73 214.05 L 390.91 178.03 L 394.09 145.30 L 397.27 116.92 L 400.45 93.81 L 403.64 76.74 L 406.82 66.26 L 410.00 62.73 L 413.18 66.26 L 416.36 76.74 L 419.55 93.81 L 422.73 116.92 L 425.91 145.30 L 429.09 178.03 L 432.27 214.05 L 435.45 252.21 L 438.64 291.32 L 441.82 330.17 L 445.00 367.61 L 448.18 402.56 L 451.36 434.05 L 454.55 461.26 L 457.73 483.55 L 460.91 500.46 L 464.09 511.72 L 467.27 517.27 L 470.45 517.24 L 473.64 511.93 L 476.82 501.81 L 480.00 487.46 L 483.18 469.58 L 486.36 448.96 L 489.55 426.40 L 492.73 402.72 L 495.91 378.73 L 499.09 355.18 L 502.27 332.76 L 505.45 312.06 L 508.64 293.56 L 511.82 277.64 L 515.00 264.56 L 518.18 254.46 L 521.36 247.35 L 524.55 243.16 L 527.73 241.73 L 530.91 242.81 L 534.09 246.09 L 537.27 251.24 L 540.45 257.87 L 543.64 265.61 L 546.82 274.08 L 550.00 282.92 L 553.18 291.80 L 556.36 300.43 L 559.55 308.57 L 562.73 316.01 L 565.91 322.62 L 569.09 328.28 L 572.27 332.94 L 575.45 336.60 L 578.64 339.28 L 581.82 341.03 L 585.00 341.93 L 588.18 342.09 L 591.36 341.62 L 594.55 340.62 L 597.73 339.23 L 600.91 337.54 L 604.09 335.68 L 607.27 333.73 L 610.45 331.78 L 613.64 329.89 L 616.82 328.12 L 620.00 326.52 L 623.18 325.10 L 626.36 323.89 L 629.55 322.89 L 632.73 322.10 L 635.91 321.50 L 639.09 321.09 L 642.27 320.83 L 645.45 320.71 L 648.64 320.71 L 651.82 320.79 L 655.00 320.95 L 658.18 321.15 L 661.36 321.39 L 664.55 321.64 L 667.73 321.89 L 670.91 322.13 L 674.09 322.35 L 677.27 322.56 L 680.45 322.74 L 683.64 322.89 L 686.82 323.02 L 690.00 323.12 L 693.18 323.20 L 696.36 323.25 L 699.55 323.29 L 702.73 323.31 L 705.91 323.32 L 709.09 323.32 L 712.27 323.32 L 715.45 323.30 L 718.64 323.29 L 721.82 323.27 L 725.00 323.25 L 728.18 323.23" class="plot-line"/>
  
  <!-- Title -->
  <text x="400" y="25" class="title">Damped Oscillation: e^(-x²/8)·cos(2x)</text>
</svg>