<?xml version="1.0" encoding="UTF-8"?>
<svg width="800" height="600" viewBox="0 0 800 600" xmlns="http://www.w3.org/2000/svg">
  <defs>
    <style>
      .plot-line { fill: none; stroke: #2563eb; stroke-width: 2px; }
      .axis { stroke: #666; stroke-width: 1px; }
      .grid { stroke: #e5e7eb; stroke-width: 0.5px; }
      .axis-label { font-family: Arial, sans-serif; font-size: 12px; fill: #374151; text-anchor: middle; }
      .title { font-family: Arial, sans-serif; font-size: 16px; font-weight: bold; fill: #1f2937; text-anchor: middle; }
    </style>
  </defs>
  
  <!-- Background -->
  <rect width="800" height="600" fill="#ffffff"/>
  
  <!-- Grid lines -->
  <line x1="60" y1="40" x2="60" y2="540" class="grid"/>
  <line x1="200" y1="40" x2="200" y2="540" class="grid"/>
  <line x1="340" y1="40" x2="340" y2="540" class="grid"/>
  <line x1="480" y1="40" x2="480" y2="540" class="grid"/>
  <line x1="620" y1="40" x2="620" y2="540" class="grid"/>
  <line x1="760" y1="40" x2="760" y2="540" class="grid"/>
  <line x1="60" y1="540" x2="760" y2="540" class="grid"/>
  <line x1="60" y1="440" x2="760" y2="440" class="grid"/>
  <line x1="60" y1="340" x2="760" y2="340" class="grid"/>
  <line x1="60" y1="240" x2="760" y2="240" class="grid"/>
  <line x1="60" y1="140" x2="760" y2="140" class="grid"/>
  <line x1="60" y1="40" x2="760" y2="40" class="grid"/>
  
  <!-- Axes -->
  <line x1="60" y1="540" x2="760" y2="540" class="axis"/>
  <line x1="60" y1="40" x2="60" y2="540" class="axis"/>
  
  <!-- Axis labels -->
  <text x="60" y="560" class="axis-label">-2.2</text>
  <text x="200" y="560" class="axis-label">-1.3</text>
  <text x="340" y="560" class="axis-label">-0.4</text>
  <text x="480" y="560" class="axis-label">0.4</text>
  <text x="620" y="560" class="axis-label">1.3</text>
  <text x="760" y="560" class="axis-label">2.2</text>
  <text x="50" y="545" class="axis-label" text-anchor="end">-1.1</text>
  <text x="50" y="445" class="axis-label" text-anchor="end">-0.7</text>
  <text x="50" y="345" class="axis-label" text-anchor="end">-0.2</text>
  <text x="50" y="245" class="axis-label" text-anchor="end">0.2</text>
  <text x="50" y="145" class="axis-label" text-anchor="end">0.7</text>
  <text x="50" y="45" class="axis-label" text-anchor="end">1.1</text>
  
  <!-- Plot line -->
  <path d="M 91.82 290.00 L 98.18 261.46 L 104.55 233.37 L 110.91 206.17 L 117.27 180.29 L 123.64 156.15 L 130.00 134.11 L 136.36 114.54 L 142.73 97.73 L 149.09 83.95 L 155.45 73.42 L 161.82 66.31 L 168.18 62.73 L 174.55 62.73 L 180.91 66.31 L 187.27 73.42 L 193.64 83.95 L 200.00 97.73 L 206.36 114.54 L 212.73 134.11 L 219.09 156.15 L 225.45 180.29 L 231.82 206.17 L 238.18 233.37 L 244.55 261.46 L 250.91 290.00 L 257.27 318.54 L 263.64 346.63 L 270.00 373.83 L 276.36 399.71 L 282.73 423.85 L 289.09 445.89 L 295.45 465.46 L 301.82 482.27 L 308.18 496.05 L 314.55 506.58 L 320.91 513.69 L 327.27 517.27 L 333.64 517.27 L 340.00 513.69 L 346.36 506.58 L 352.73 496.05 L 359.09 482.27 L 365.45 465.46 L 371.82 445.89 L 378.18 423.85 L 384.55 399.71 L 390.91 373.83 L 397.27 346.63 L 403.64 318.54 L 410.00 290.00 L 416.36 261.46 L 422.73 233.37 L 429.09 206.17 L 435.45 180.29 L 441.82 156.15 L 448.18 134.11 L 454.55 114.54 L 460.91 97.73 L 467.27 83.95 L 473.64 73.42 L 480.00 66.31 L 486.36 62.73 L 492.73 62.73 L 499.09 66.31 L 505.45 73.42 L 511.82 83.95 L 518.18 97.73 L 524.55 114.54 L 530.91 134.11 L 537.27 156.15 L 543.64 180.29 L 550.00 206.17 L 556.36 233.37 L 562.73 261.46 L 569.09 290.00 L 575.45 318.54 L 581.82 346.63 L 588.18 373.83 L 594.55 399.71 L 600.91 423.85 L 607.27 445.89 L 613.64 465.46 L 620.00 482.27 L 626.36 496.05 L 632.73 506.58 L 639.09 513.69 L 645.45 517.27 L 651.82 517.27 L 658.18 513.69 L 664.55 506.58 L 670.91 496.05 L 677.27 482.27 L 683.64 465.46 L 690.00 445.89 L 696.36 423.85 L 702.73 399.71 L 709.09 373.83 L 715.45 346.63 L 721.82 318.54 L 728.18 290.00" class="plot-line"/>
  
  <!-- Title -->
  <text x="400" y="25" class="title">f(x) = sin(πx)</text>
</svg>