<?xml version="1.0" encoding="UTF-8"?>
<svg width="800" height="600" viewBox="0 0 800 600" xmlns="http://www.w3.org/2000/svg">
  <defs>
    <style>
      .plot-line { fill: none; stroke: #2563eb; stroke-width: 2px; }
      .axis { stroke: #666; stroke-width: 1px; }
      .grid { stroke: #e5e7eb; stroke-width: 0.5px; }
      .axis-label { font-family: Arial, sans-serif; font-size: 12px; fill: #374151; text-anchor: middle; }
      .title { font-family: Arial, sans-serif; font-size: 16px; font-weight: bold; fill: #1f2937; text-anchor: middle; }
    </style>
  </defs>
  
  <!-- Background -->
  <rect width="800" height="600" fill="#ffffff"/>
  
  <!-- Grid lines -->
  <line x1="60" y1="40" x2="60" y2="540" class="grid"/>
  <line x1="200" y1="40" x2="200" y2="540" class="grid"/>
  <line x1="340" y1="40" x2="340" y2="540" class="grid"/>
  <line x1="480" y1="40" x2="480" y2="540" class="grid"/>
  <line x1="620" y1="40" x2="620" y2="540" class="grid"/>
  <line x1="760" y1="40" x2="760" y2="540" class="grid"/>
  <line x1="60" y1="540" x2="760" y2="540" class="grid"/>
  <line x1="60" y1="440" x2="760" y2="440" class="grid"/>
  <line x1="60" y1="340" x2="760" y2="340" class="grid"/>
  <line x1="60" y1="240" x2="760" y2="240" class="grid"/>
  <line x1="60" y1="140" x2="760" y2="140" class="grid"/>
  <line x1="60" y1="40" x2="760" y2="40" class="grid"/>
  
  <!-- Axes -->
  <line x1="60" y1="540" x2="760" y2="540" class="axis"/>
  <line x1="60" y1="40" x2="60" y2="540" class="axis"/>
  
  <!-- Axis labels -->
  <text x="60" y="560" class="axis-label">-3.3</text>
  <text x="200" y="560" class="axis-label">-2.0</text>
  <text x="340" y="560" class="axis-label">-0.7</text>
  <text x="480" y="560" class="axis-label">0.7</text>
  <text x="620" y="560" class="axis-label">2.0</text>
  <text x="760" y="560" class="axis-label">3.3</text>
  <text x="50" y="545" class="axis-label" text-anchor="end">-1.0</text>
  <text x="50" y="445" class="axis-label" text-anchor="end">3.5</text>
  <text x="50" y="345" class="axis-label" text-anchor="end">7.9</text>
  <text x="50" y="245" class="axis-label" text-anchor="end">12.3</text>
  <text x="50" y="145" class="axis-label" text-anchor="end">16.7</text>
  <text x="50" y="45" class="axis-label" text-anchor="end">21.1</text>
  
  <!-- Plot line -->
  <path d="M 91.82 517.27 L 98.18 517.20 L 104.55 517.13 L 110.91 517.05 L 117.27 516.97 L 123.64 516.88 L 130.00 516.78 L 136.36 516.68 L 142.73 516.58 L 149.09 516.46 L 155.45 516.34 L 161.82 516.22 L 168.18 516.08 L 174.55 515.94 L 180.91 515.79 L 187.27 515.62 L 193.64 515.45 L 200.00 515.27 L 206.36 515.08 L 212.73 514.87 L 219.09 514.65 L 225.45 514.42 L 231.82 514.17 L 238.18 513.91 L 244.55 513.63 L 250.91 513.34 L 257.27 513.03 L 263.64 512.69 L 270.00 512.34 L 276.36 511.97 L 282.73 511.57 L 289.09 511.15 L 295.45 510.70 L 301.82 510.22 L 308.18 509.72 L 314.55 509.18 L 320.91 508.61 L 327.27 508.00 L 333.64 507.36 L 340.00 506.68 L 346.36 505.95 L 352.73 505.18 L 359.09 504.36 L 365.45 503.50 L 371.82 502.57 L 378.18 501.60 L 384.55 500.56 L 390.91 499.45 L 397.27 498.28 L 403.64 497.04 L 410.00 495.72 L 416.36 494.31 L 422.73 492.82 L 429.09 491.24 L 435.45 489.56 L 441.82 487.78 L 448.18 485.88 L 454.55 483.87 L 460.91 481.74 L 467.27 479.47 L 473.64 477.06 L 480.00 474.51 L 486.36 471.79 L 492.73 468.91 L 499.09 465.85 L 505.45 462.60 L 511.82 459.15 L 518.18 455.49 L 524.55 451.60 L 530.91 447.47 L 537.27 443.08 L 543.64 438.42 L 550.00 433.48 L 556.36 428.22 L 562.73 422.65 L 569.09 416.73 L 575.45 410.44 L 581.82 403.76 L 588.18 396.68 L 594.55 389.15 L 600.91 381.16 L 607.27 372.67 L 613.64 363.66 L 620.00 354.09 L 626.36 343.93 L 632.73 333.14 L 639.09 321.68 L 645.45 309.52 L 651.82 296.60 L 658.18 282.89 L 664.55 268.32 L 670.91 252.86 L 677.27 236.44 L 683.64 219.00 L 690.00 200.49 L 696.36 180.83 L 702.73 159.96 L 709.09 137.79 L 715.45 114.25 L 721.82 89.26 L 728.18 62.73" class="plot-line"/>
  
  <!-- Title -->
  <text x="400" y="25" class="title">f(x) = eˣ</text>
</svg>