<?xml version="1.0" encoding="UTF-8"?>
<svg width="800" height="600" viewBox="0 0 800 600" xmlns="http://www.w3.org/2000/svg">
  <defs>
    <style>
      .plot-line { fill: none; stroke: #2563eb; stroke-width: 2px; }
      .axis { stroke: #666; stroke-width: 1px; }
      .grid { stroke: #e5e7eb; stroke-width: 0.5px; }
      .axis-label { font-family: Arial, sans-serif; font-size: 12px; fill: #374151; text-anchor: middle; }
      .title { font-family: Arial, sans-serif; font-size: 16px; font-weight: bold; fill: #1f2937; text-anchor: middle; }
    </style>
  </defs>
  
  <!-- Background -->
  <rect width="800" height="600" fill="#ffffff"/>
  
  <!-- Grid lines -->
  <line x1="60" y1="40" x2="60" y2="540" class="grid"/>
  <line x1="200" y1="40" x2="200" y2="540" class="grid"/>
  <line x1="340" y1="40" x2="340" y2="540" class="grid"/>
  <line x1="480" y1="40" x2="480" y2="540" class="grid"/>
  <line x1="620" y1="40" x2="620" y2="540" class="grid"/>
  <line x1="760" y1="40" x2="760" y2="540" class="grid"/>
  <line x1="60" y1="540" x2="760" y2="540" class="grid"/>
  <line x1="60" y1="440" x2="760" y2="440" class="grid"/>
  <line x1="60" y1="340" x2="760" y2="340" class="grid"/>
  <line x1="60" y1="240" x2="760" y2="240" class="grid"/>
  <line x1="60" y1="140.00000000000006" x2="760" y2="140.00000000000006" class="grid"/>
  <line x1="60" y1="40" x2="760" y2="40" class="grid"/>
  
  <!-- Axes -->
  <line x1="60" y1="540" x2="760" y2="540" class="axis"/>
  <line x1="60" y1="40" x2="60" y2="540" class="axis"/>
  
  <!-- Axis labels -->
  <text x="60" y="560" class="axis-label">-0.4</text>
  <text x="200" y="560" class="axis-label">1.8</text>
  <text x="340" y="560" class="axis-label">4.0</text>
  <text x="480" y="560" class="axis-label">6.1</text>
  <text x="620" y="560" class="axis-label">8.3</text>
  <text x="760" y="560" class="axis-label">10.5</text>
  <text x="50" y="545" class="axis-label" text-anchor="end">-2.5</text>
  <text x="50" y="445" class="axis-label" text-anchor="end">-1.5</text>
  <text x="50" y="345" class="axis-label" text-anchor="end">-0.5</text>
  <text x="50" y="245" class="axis-label" text-anchor="end">0.5</text>
  <text x="50" y="145.00000000000006" class="axis-label" text-anchor="end">1.5</text>
  <text x="50" y="45" class="axis-label" text-anchor="end">2.5</text>
  
  <!-- Plot line -->
  <path d="M 91.82 517.27 L 98.18 449.35 L 104.55 409.50 L 110.91 381.18 L 117.27 359.21 L 123.64 341.25 L 130.00 326.05 L 136.36 312.89 L 142.73 301.28 L 149.09 290.89 L 155.45 281.49 L 161.82 272.91 L 168.18 265.02 L 174.55 257.71 L 180.91 250.90 L 187.27 244.54 L 193.64 238.56 L 200.00 232.92 L 206.36 227.59 L 212.73 222.53 L 219.09 217.71 L 225.45 213.12 L 231.82 208.74 L 238.18 204.54 L 244.55 200.51 L 250.91 196.64 L 257.27 192.92 L 263.64 189.33 L 270.00 185.87 L 276.36 182.52 L 282.73 179.29 L 289.09 176.15 L 295.45 173.12 L 301.82 170.17 L 308.18 167.31 L 314.55 164.53 L 320.91 161.83 L 327.27 159.20 L 333.64 156.63 L 340.00 154.14 L 346.36 151.70 L 352.73 149.32 L 359.09 147.00 L 365.45 144.73 L 371.82 142.51 L 378.18 140.34 L 384.55 138.22 L 390.91 136.14 L 397.27 134.11 L 403.64 132.12 L 410.00 130.16 L 416.36 128.24 L 422.73 126.37 L 429.09 124.52 L 435.45 122.71 L 441.82 120.93 L 448.18 119.18 L 454.55 117.47 L 460.91 115.78 L 467.27 114.12 L 473.64 112.49 L 480.00 110.89 L 486.36 109.31 L 492.73 107.75 L 499.09 106.22 L 505.45 104.72 L 511.82 103.23 L 518.18 101.77 L 524.55 100.33 L 530.91 98.91 L 537.27 97.51 L 543.64 96.13 L 550.00 94.77 L 556.36 93.43 L 562.73 92.10 L 569.09 90.79 L 575.45 89.50 L 581.82 88.23 L 588.18 86.97 L 594.55 85.73 L 600.91 84.51 L 607.27 83.29 L 613.64 82.10 L 620.00 80.92 L 626.36 79.75 L 632.73 78.59 L 639.09 77.45 L 645.45 76.33 L 651.82 75.21 L 658.18 74.11 L 664.55 73.02 L 670.91 71.94 L 677.27 70.87 L 683.64 69.82 L 690.00 68.77 L 696.36 67.74 L 702.73 66.72 L 709.09 65.70 L 715.45 64.70 L 721.82 63.71 L 728.18 62.73" class="plot-line"/>
  
  <!-- Title -->
  <text x="400" y="25" class="title">f(x) = ln(x)</text>
</svg>