<?xml version="1.0" encoding="UTF-8"?>
<svg width="800" height="600" viewBox="0 0 800 600" xmlns="http://www.w3.org/2000/svg">
  <defs>
    <style>
      .plot-line { fill: none; stroke: #2563eb; stroke-width: 2px; }
      .axis { stroke: #666; stroke-width: 1px; }
      .grid { stroke: #e5e7eb; stroke-width: 0.5px; }
      .axis-label { font-family: Arial, sans-serif; font-size: 12px; fill: #374151; text-anchor: middle; }
      .title { font-family: Arial, sans-serif; font-size: 16px; font-weight: bold; fill: #1f2937; text-anchor: middle; }
    </style>
  </defs>
  
  <!-- Background -->
  <rect width="800" height="600" fill="#ffffff"/>
  
  <!-- Grid lines -->
  <line x1="60" y1="40" x2="60" y2="540" class="grid"/>
  <line x1="200" y1="40" x2="200" y2="540" class="grid"/>
  <line x1="340" y1="40" x2="340" y2="540" class="grid"/>
  <line x1="480" y1="40" x2="480" y2="540" class="grid"/>
  <line x1="620" y1="40" x2="620" y2="540" class="grid"/>
  <line x1="760" y1="40" x2="760" y2="540" class="grid"/>
  <line x1="60" y1="540" x2="760" y2="540" class="grid"/>
  <line x1="60" y1="440" x2="760" y2="440" class="grid"/>
  <line x1="60" y1="340" x2="760" y2="340" class="grid"/>
  <line x1="60" y1="240" x2="760" y2="240" class="grid"/>
  <line x1="60" y1="140" x2="760" y2="140" class="grid"/>
  <line x1="60" y1="40" x2="760" y2="40" class="grid"/>
  
  <!-- Axes -->
  <line x1="60" y1="540" x2="760" y2="540" class="axis"/>
  <line x1="60" y1="40" x2="60" y2="540" class="axis"/>
  
  <!-- Axis labels -->
  <text x="60" y="560" class="axis-label">-5.5</text>
  <text x="200" y="560" class="axis-label">-3.3</text>
  <text x="340" y="560" class="axis-label">-1.1</text>
  <text x="480" y="560" class="axis-label">1.1</text>
  <text x="620" y="560" class="axis-label">3.3</text>
  <text x="760" y="560" class="axis-label">5.5</text>
  <text x="50" y="545" class="axis-label" text-anchor="end">-1.1</text>
  <text x="50" y="445" class="axis-label" text-anchor="end">-0.7</text>
  <text x="50" y="345" class="axis-label" text-anchor="end">-0.2</text>
  <text x="50" y="245" class="axis-label" text-anchor="end">0.2</text>
  <text x="50" y="145" class="axis-label" text-anchor="end">0.7</text>
  <text x="50" y="45" class="axis-label" text-anchor="end">1.1</text>
  
  <!-- Plot line -->
  <path d="M 91.82 287.50 L 93.94 284.25 L 96.06 280.94 L 98.18 277.68 L 100.30 274.57 L 102.42 271.71 L 104.55 269.21 L 106.67 267.17 L 108.79 265.67 L 110.91 264.80 L 113.03 264.63 L 115.15 265.21 L 117.27 266.55 L 119.39 268.69 L 121.52 271.59 L 123.64 275.22 L 125.76 279.51 L 127.88 284.38 L 130.00 289.71 L 132.12 295.37 L 134.24 301.21 L 136.36 307.07 L 138.48 312.76 L 140.61 318.12 L 142.73 322.96 L 144.85 327.10 L 146.97 330.39 L 149.09 332.67 L 151.21 333.82 L 153.33 333.74 L 155.45 332.38 L 157.58 329.69 L 159.70 325.68 L 161.82 320.42 L 163.94 313.98 L 166.06 306.49 L 168.18 298.13 L 170.30 289.10 L 172.42 279.62 L 174.55 269.97 L 176.67 260.42 L 178.79 251.25 L 180.91 242.76 L 183.03 235.23 L 185.15 228.93 L 187.27 224.11 L 189.39 220.98 L 191.52 219.71 L 193.64 220.43 L 195.76 223.21 L 197.88 228.06 L 200.00 234.93 L 202.12 243.70 L 204.24 254.21 L 206.36 266.23 L 208.48 279.45 L 210.61 293.56 L 212.73 308.16 L 214.85 322.85 L 216.97 337.20 L 219.09 350.78 L 221.21 363.16 L 223.33 373.93 L 225.45 382.70 L 227.58 389.14 L 229.70 392.97 L 231.82 393.98 L 233.94 392.04 L 236.06 387.08 L 238.18 379.14 L 240.30 368.35 L 242.42 354.92 L 244.55 339.13 L 246.67 321.38 L 248.79 302.12 L 250.91 281.84 L 253.03 261.11 L 255.15 240.51 L 257.27 220.65 L 259.39 202.14 L 261.52 185.54 L 263.64 171.41 L 265.76 160.24 L 267.88 152.42 L 270.00 148.31 L 272.12 148.12 L 274.24 151.97 L 276.36 159.88 L 278.48 171.72 L 280.61 187.26 L 282.73 206.16 L 284.85 227.96 L 286.97 252.10 L 289.09 277.96 L 291.21 304.82 L 293.33 331.93 L 295.45 358.53 L 297.58 383.82 L 299.70 407.05 L 301.82 427.50 L 303.94 444.52 L 306.06 457.53 L 308.18 466.08 L 310.30 469.83 L 312.42 468.56 L 314.55 462.20 L 316.67 450.84 L 318.79 434.70 L 320.91 414.16 L 323.03 389.72 L 325.15 362.01 L 327.27 331.77 L 329.39 299.82 L 331.52 267.04 L 333.64 234.38 L 335.76 202.75 L 337.88 173.09 L 340.00 146.28 L 342.12 123.12 L 344.24 104.34 L 346.36 90.52 L 348.48 82.14 L 350.61 79.50 L 352.73 82.75 L 354.85 91.87 L 356.97 106.67 L 359.09 126.80 L 361.21 151.72 L 363.33 180.79 L 365.45 213.21 L 367.58 248.09 L 369.70 284.46 L 371.82 321.30 L 373.94 357.55 L 376.06 392.18 L 378.18 424.19 L 380.30 452.66 L 382.42 476.74 L 384.55 495.73 L 386.67 509.06 L 388.79 516.32 L 390.91 517.27 L 393.03 511.87 L 395.15 500.24 L 397.27 482.68 L 399.39 459.70 L 401.52 431.91 L 403.64 400.11 L 405.76 365.19 L 407.88 328.14 L 410.00 290.00 L 412.12 251.86 L 414.24 214.81 L 416.36 179.89 L 418.48 148.09 L 420.61 120.30 L 422.73 97.32 L 424.85 79.76 L 426.97 68.13 L 429.09 62.73 L 431.21 63.68 L 433.33 70.94 L 435.45 84.27 L 437.58 103.26 L 439.70 127.34 L 441.82 155.81 L 443.94 187.82 L 446.06 222.45 L 448.18 258.70 L 450.30 295.54 L 452.42 331.91 L 454.55 366.79 L 456.67 399.21 L 458.79 428.28 L 460.91 453.20 L 463.03 473.33 L 465.15 488.13 L 467.27 497.25 L 469.39 500.50 L 471.52 497.86 L 473.64 489.48 L 475.76 475.66 L 477.88 456.88 L 480.00 433.72 L 482.12 406.91 L 484.24 377.25 L 486.36 345.62 L 488.48 312.96 L 490.61 280.18 L 492.73 248.23 L 494.85 217.99 L 496.97 190.28 L 499.09 165.84 L 501.21 145.30 L 503.33 129.16 L 505.45 117.80 L 507.58 111.44 L 509.70 110.17 L 511.82 113.92 L 513.94 122.47 L 516.06 135.48 L 518.18 152.50 L 520.30 172.95 L 522.42 196.18 L 524.55 221.47 L 526.67 248.07 L 528.79 275.18 L 530.91 302.04 L 533.03 327.90 L 535.15 352.04 L 537.27 373.84 L 539.39 392.74 L 541.52 408.28 L 543.64 420.12 L 545.76 428.03 L 547.88 431.88 L 550.00 431.69 L 552.12 427.58 L 554.24 419.76 L 556.36 408.59 L 558.48 394.46 L 560.61 377.86 L 562.73 359.35 L 564.85 339.49 L 566.97 318.89 L 569.09 298.16 L 571.21 277.88 L 573.33 258.62 L 575.45 240.87 L 577.58 225.08 L 579.70 211.65 L 581.82 200.86 L 583.94 192.92 L 586.06 187.96 L 588.18 186.02 L 590.30 187.03 L 592.42 190.86 L 594.55 197.30 L 596.67 206.07 L 598.79 216.84 L 600.91 229.22 L 603.03 242.80 L 605.15 257.15 L 607.27 271.84 L 609.39 286.44 L 611.52 300.55 L 613.64 313.77 L 615.76 325.79 L 617.88 336.30 L 620.00 345.07 L 622.12 351.94 L 624.24 356.79 L 626.36 359.57 L 628.48 360.29 L 630.61 359.02 L 632.73 355.89 L 634.85 351.07 L 636.97 344.77 L 639.09 337.24 L 641.21 328.75 L 643.33 319.58 L 645.45 310.03 L 647.58 300.38 L 649.70 290.90 L 651.82 281.87 L 653.94 273.51 L 656.06 266.02 L 658.18 259.58 L 660.30 254.32 L 662.42 250.31 L 664.55 247.62 L 666.67 246.26 L 668.79 246.18 L 670.91 247.33 L 673.03 249.61 L 675.15 252.90 L 677.27 257.04 L 679.39 261.88 L 681.52 267.24 L 683.64 272.93 L 685.76 278.79 L 687.88 284.63 L 690.00 290.29 L 692.12 295.62 L 694.24 300.49 L 696.36 304.78 L 698.48 308.41 L 700.61 311.31 L 702.73 313.45 L 704.85 314.79 L 706.97 315.37 L 709.09 315.20 L 711.21 314.33 L 713.33 312.83 L 715.45 310.79 L 717.58 308.29 L 719.70 305.43 L 721.82 302.32 L 723.94 299.06 L 726.06 295.75 L 728.18 292.50" class="plot-line"/>
  
  <!-- Title -->
  <text x="400" y="25" class="title">Amplitude Modulated: sin(5x)·e^(-x²/10)</text>
</svg>