<?xml version="1.0" encoding="UTF-8"?>
<svg width="800" height="600" viewBox="0 0 800 600" xmlns="http://www.w3.org/2000/svg">
  <defs>
    <style>
      .plot-line { fill: none; stroke: #2563eb; stroke-width: 2px; }
      .axis { stroke: #666; stroke-width: 1px; }
      .grid { stroke: #e5e7eb; stroke-width: 0.5px; }
      .axis-label { font-family: Arial, sans-serif; font-size: 12px; fill: #374151; text-anchor: middle; }
      .title { font-family: Arial, sans-serif; font-size: 16px; font-weight: bold; fill: #1f2937; text-anchor: middle; }
    </style>
  </defs>
  
  <!-- Background -->
  <rect width="800" height="600" fill="#ffffff"/>
  
  <!-- Grid lines -->
  <line x1="60" y1="40" x2="60" y2="540" class="grid"/>
  <line x1="200.00000000000003" y1="40" x2="200.00000000000003" y2="540" class="grid"/>
  <line x1="340.00000000000006" y1="40" x2="340.00000000000006" y2="540" class="grid"/>
  <line x1="480" y1="40" x2="480" y2="540" class="grid"/>
  <line x1="620.0000000000001" y1="40" x2="620.0000000000001" y2="540" class="grid"/>
  <line x1="760" y1="40" x2="760" y2="540" class="grid"/>
  <line x1="60" y1="540" x2="760" y2="540" class="grid"/>
  <line x1="60" y1="440" x2="760" y2="440" class="grid"/>
  <line x1="60" y1="340" x2="760" y2="340" class="grid"/>
  <line x1="60" y1="240" x2="760" y2="240" class="grid"/>
  <line x1="60" y1="140" x2="760" y2="140" class="grid"/>
  <line x1="60" y1="40" x2="760" y2="40" class="grid"/>
  
  <!-- Axes -->
  <line x1="60" y1="540" x2="760" y2="540" class="axis"/>
  <line x1="60" y1="40" x2="60" y2="540" class="axis"/>
  
  <!-- Axis labels -->
  <text x="60" y="560" class="axis-label">-0.1</text>
  <text x="200.00000000000003" y="560" class="axis-label">-0.1</text>
  <text x="340.00000000000006" y="560" class="axis-label">-0.0</text>
  <text x="480" y="560" class="axis-label">0.0</text>
  <text x="620.0000000000001" y="560" class="axis-label">0.1</text>
  <text x="760" y="560" class="axis-label">0.1</text>
  <text x="50" y="545" class="axis-label" text-anchor="end">-1.1</text>
  <text x="50" y="445" class="axis-label" text-anchor="end">-0.7</text>
  <text x="50" y="345" class="axis-label" text-anchor="end">-0.2</text>
  <text x="50" y="245" class="axis-label" text-anchor="end">0.2</text>
  <text x="50" y="145" class="axis-label" text-anchor="end">0.7</text>
  <text x="50" y="45" class="axis-label" text-anchor="end">1.1</text>
  
  <!-- Plot line -->
  <path d="M 91.82 166.35 L 95.00 186.01 L 98.18 206.70 L 101.36 228.23 L 104.55 250.38 L 107.73 272.92 L 110.91 295.63 L 114.09 318.29 L 117.27 340.66 L 120.45 362.53 L 123.64 383.67 L 126.82 403.88 L 130.00 422.95 L 133.18 440.69 L 136.36 456.92 L 139.55 471.49 L 142.73 484.24 L 145.91 495.05 L 149.09 503.82 L 152.27 510.45 L 155.45 514.87 L 158.64 517.05 L 161.82 516.96 L 165.00 514.60 L 168.18 510.00 L 171.36 503.20 L 174.55 494.27 L 177.73 483.30 L 180.91 470.39 L 184.09 455.69 L 187.27 439.33 L 190.45 421.47 L 193.64 402.31 L 196.82 382.02 L 200.00 360.81 L 203.18 338.89 L 206.36 316.49 L 209.55 293.82 L 212.73 271.11 L 215.91 248.60 L 219.09 226.49 L 222.27 205.02 L 225.45 184.40 L 228.64 164.83 L 231.82 146.52 L 235.00 129.64 L 238.18 114.36 L 241.36 100.83 L 244.55 89.20 L 247.73 79.57 L 250.91 72.05 L 254.09 66.70 L 257.27 63.58 L 260.45 62.73 L 263.64 64.14 L 266.82 67.82 L 270.00 73.71 L 273.18 81.76 L 276.36 91.90 L 279.55 104.01 L 282.73 117.99 L 285.91 133.68 L 289.09 150.93 L 292.27 169.57 L 295.45 189.42 L 298.64 210.27 L 301.82 231.92 L 305.00 254.15 L 308.18 276.73 L 311.36 299.45 L 314.55 322.08 L 317.73 344.38 L 320.91 366.14 L 324.09 387.14 L 327.27 407.17 L 330.45 426.03 L 333.64 443.53 L 336.82 459.49 L 340.00 473.76 L 343.18 486.20 L 346.36 496.67 L 349.55 505.08 L 352.73 511.35 L 355.91 515.40 L 359.09 517.19 L 362.27 516.72 L 365.45 513.98 L 368.64 509.01 L 371.82 501.84 L 375.00 492.56 L 378.18 481.26 L 381.36 468.04 L 384.55 453.05 L 387.73 436.42 L 390.91 418.34 L 394.09 398.97 L 397.27 378.51 L 400.45 357.17 L 403.64 335.16 L 406.82 312.69 L 410.00 290.00 L 413.18 267.31 L 416.36 244.84 L 419.55 222.83 L 422.73 201.49 L 425.91 181.03 L 429.09 161.66 L 432.27 143.58 L 435.45 126.95 L 438.64 111.96 L 441.82 98.74 L 445.00 87.44 L 448.18 78.16 L 451.36 70.99 L 454.55 66.02 L 457.73 63.28 L 460.91 62.81 L 464.09 64.60 L 467.27 68.65 L 470.45 74.92 L 473.64 83.33 L 476.82 93.80 L 480.00 106.24 L 483.18 120.51 L 486.36 136.47 L 489.55 153.97 L 492.73 172.83 L 495.91 192.86 L 499.09 213.86 L 502.27 235.62 L 505.45 257.92 L 508.64 280.55 L 511.82 303.27 L 515.00 325.85 L 518.18 348.08 L 521.36 369.73 L 524.55 390.58 L 527.73 410.43 L 530.91 429.07 L 534.09 446.32 L 537.27 462.01 L 540.45 475.99 L 543.64 488.10 L 546.82 498.24 L 550.00 506.29 L 553.18 512.18 L 556.36 515.86 L 559.55 517.27 L 562.73 516.42 L 565.91 513.30 L 569.09 507.95 L 572.27 500.43 L 575.45 490.80 L 578.64 479.17 L 581.82 465.64 L 585.00 450.36 L 588.18 433.48 L 591.36 415.17 L 594.55 395.60 L 597.73 374.98 L 600.91 353.51 L 604.09 331.40 L 607.27 308.89 L 610.45 286.18 L 613.64 263.51 L 616.82 241.11 L 620.00 219.19 L 623.18 197.98 L 626.36 177.69 L 629.55 158.53 L 632.73 140.67 L 635.91 124.31 L 639.09 109.61 L 642.27 96.70 L 645.45 85.73 L 648.64 76.80 L 651.82 70.00 L 655.00 65.40 L 658.18 63.04 L 661.36 62.95 L 664.55 65.13 L 667.73 69.55 L 670.91 76.18 L 674.09 84.95 L 677.27 95.76 L 680.45 108.51 L 683.64 123.08 L 686.82 139.31 L 690.00 157.05 L 693.18 176.12 L 696.36 196.33 L 699.55 217.47 L 702.73 239.34 L 705.91 261.71 L 709.09 284.37 L 712.27 307.08 L 715.45 329.62 L 718.64 351.77 L 721.82 373.30 L 725.00 393.99 L 728.18 413.65" class="plot-line"/>
  
  <!-- Title -->
  <text x="400" y="25" class="title">Precision Test: sin(100x) on [-0.1, 0.1]</text>
</svg>