<?xml version="1.0" encoding="UTF-8"?>
<svg width="800" height="600" viewBox="0 0 800 600" xmlns="http://www.w3.org/2000/svg">
  <defs>
    <style>
      .plot-line { fill: none; stroke: #2563eb; stroke-width: 2px; }
      .axis { stroke: #666; stroke-width: 1px; }
      .grid { stroke: #e5e7eb; stroke-width: 0.5px; }
      .axis-label { font-family: Arial, sans-serif; font-size: 12px; fill: #374151; text-anchor: middle; }
      .title { font-family: Arial, sans-serif; font-size: 16px; font-weight: bold; fill: #1f2937; text-anchor: middle; }
    </style>
  </defs>
  
  <!-- Background -->
  <rect width="800" height="600" fill="#ffffff"/>
  
  <!-- Grid lines -->
  <line x1="60" y1="40" x2="60" y2="540" class="grid"/>
  <line x1="200" y1="40" x2="200" y2="540" class="grid"/>
  <line x1="340" y1="40" x2="340" y2="540" class="grid"/>
  <line x1="480" y1="40" x2="480" y2="540" class="grid"/>
  <line x1="620" y1="40" x2="620" y2="540" class="grid"/>
  <line x1="760" y1="40" x2="760" y2="540" class="grid"/>
  <line x1="60" y1="540" x2="760" y2="540" class="grid"/>
  <line x1="60" y1="440" x2="760" y2="440" class="grid"/>
  <line x1="60" y1="340" x2="760" y2="340" class="grid"/>
  <line x1="60" y1="240" x2="760" y2="240" class="grid"/>
  <line x1="60" y1="140" x2="760" y2="140" class="grid"/>
  <line x1="60" y1="40" x2="760" y2="40" class="grid"/>
  
  <!-- Axes -->
  <line x1="60" y1="540" x2="760" y2="540" class="axis"/>
  <line x1="60" y1="40" x2="60" y2="540" class="axis"/>
  
  <!-- Axis labels -->
  <text x="60" y="560" class="axis-label">-1.4</text>
  <text x="200" y="560" class="axis-label">0.2</text>
  <text x="340" y="560" class="axis-label">1.7</text>
  <text x="480" y="560" class="axis-label">3.3</text>
  <text x="620" y="560" class="axis-label">4.8</text>
  <text x="760" y="560" class="axis-label">6.4</text>
  <text x="50" y="545" class="axis-label" text-anchor="end">-23.5</text>
  <text x="50" y="445" class="axis-label" text-anchor="end">-8.1</text>
  <text x="50" y="345" class="axis-label" text-anchor="end">7.3</text>
  <text x="50" y="245" class="axis-label" text-anchor="end">22.7</text>
  <text x="50" y="145" class="axis-label" text-anchor="end">38.1</text>
  <text x="50" y="45" class="axis-label" text-anchor="end">53.5</text>
  
  <!-- Plot line -->
  <path d="M 91.82 517.27 L 98.18 506.65 L 104.55 496.58 L 110.91 487.06 L 117.27 478.08 L 123.64 469.61 L 130.00 461.65 L 136.36 454.18 L 142.73 447.19 L 149.09 440.66 L 155.45 434.59 L 161.82 428.96 L 168.18 423.75 L 174.55 418.96 L 180.91 414.56 L 187.27 410.55 L 193.64 406.91 L 200.00 403.63 L 206.36 400.70 L 212.73 398.10 L 219.09 395.82 L 225.45 393.84 L 231.82 392.16 L 238.18 390.75 L 244.55 389.61 L 250.91 388.72 L 257.27 388.07 L 263.64 387.65 L 270.00 387.43 L 276.36 387.42 L 282.73 387.59 L 289.09 387.93 L 295.45 388.43 L 301.82 389.08 L 308.18 389.86 L 314.55 390.76 L 320.91 391.76 L 327.27 392.85 L 333.64 394.02 L 340.00 395.26 L 346.36 396.55 L 352.73 397.87 L 359.09 399.22 L 365.45 400.58 L 371.82 401.94 L 378.18 403.29 L 384.55 404.61 L 390.91 405.88 L 397.27 407.10 L 403.64 408.25 L 410.00 409.32 L 416.36 410.29 L 422.73 411.15 L 429.09 411.90 L 435.45 412.50 L 441.82 412.96 L 448.18 413.26 L 454.55 413.37 L 460.91 413.31 L 467.27 413.03 L 473.64 412.55 L 480.00 411.83 L 486.36 410.87 L 492.73 409.65 L 499.09 408.17 L 505.45 406.40 L 511.82 404.34 L 518.18 401.97 L 524.55 399.27 L 530.91 396.24 L 537.27 392.86 L 543.64 389.12 L 550.00 385.00 L 556.36 380.49 L 562.73 375.58 L 569.09 370.26 L 575.45 364.50 L 581.82 358.30 L 588.18 351.64 L 594.55 344.52 L 600.91 336.91 L 607.27 328.80 L 613.64 320.19 L 620.00 311.05 L 626.36 301.38 L 632.73 291.15 L 639.09 280.37 L 645.45 269.00 L 651.82 257.05 L 658.18 244.49 L 664.55 231.32 L 670.91 217.51 L 677.27 203.07 L 683.64 187.96 L 690.00 172.19 L 696.36 155.73 L 702.73 138.58 L 709.09 120.71 L 715.45 102.13 L 721.82 82.80 L 728.18 62.73" class="plot-line"/>
  
  <!-- Title -->
  <text x="400" y="25" class="title">f(x) = x³ - 6x² + 9x - 4</text>
</svg>