<?xml version="1.0" encoding="UTF-8"?>
<svg width="800" height="600" viewBox="0 0 800 600" xmlns="http://www.w3.org/2000/svg">
  <defs>
    <style>
      .plot-line { fill: none; stroke: #2563eb; stroke-width: 2px; }
      .axis { stroke: #666; stroke-width: 1px; }
      .grid { stroke: #e5e7eb; stroke-width: 0.5px; }
      .axis-label { font-family: Arial, sans-serif; font-size: 12px; fill: #374151; text-anchor: middle; }
      .title { font-family: Arial, sans-serif; font-size: 16px; font-weight: bold; fill: #1f2937; text-anchor: middle; }
    </style>
  </defs>
  
  <!-- Background -->
  <rect width="800" height="600" fill="#ffffff"/>
  
  <!-- Grid lines -->
  <line x1="60" y1="40" x2="60" y2="540" class="grid"/>
  <line x1="200" y1="40" x2="200" y2="540" class="grid"/>
  <line x1="340" y1="40" x2="340" y2="540" class="grid"/>
  <line x1="480" y1="40" x2="480" y2="540" class="grid"/>
  <line x1="620" y1="40" x2="620" y2="540" class="grid"/>
  <line x1="760" y1="40" x2="760" y2="540" class="grid"/>
  <line x1="60" y1="540" x2="760" y2="540" class="grid"/>
  <line x1="60" y1="440" x2="760" y2="440" class="grid"/>
  <line x1="60" y1="340" x2="760" y2="340" class="grid"/>
  <line x1="60" y1="240" x2="760" y2="240" class="grid"/>
  <line x1="60" y1="140" x2="760" y2="140" class="grid"/>
  <line x1="60" y1="40" x2="760" y2="40" class="grid"/>
  
  <!-- Axes -->
  <line x1="60" y1="540" x2="760" y2="540" class="axis"/>
  <line x1="60" y1="40" x2="60" y2="540" class="axis"/>
  
  <!-- Axis labels -->
  <text x="60" y="560" class="axis-label">-4.4</text>
  <text x="200" y="560" class="axis-label">-2.6</text>
  <text x="340" y="560" class="axis-label">-0.9</text>
  <text x="480" y="560" class="axis-label">0.9</text>
  <text x="620" y="560" class="axis-label">2.6</text>
  <text x="760" y="560" class="axis-label">4.4</text>
  <text x="50" y="545" class="axis-label" text-anchor="end">-1.0</text>
  <text x="50" y="445" class="axis-label" text-anchor="end">-0.6</text>
  <text x="50" y="345" class="axis-label" text-anchor="end">-0.2</text>
  <text x="50" y="245" class="axis-label" text-anchor="end">0.2</text>
  <text x="50" y="145" class="axis-label" text-anchor="end">0.6</text>
  <text x="50" y="45" class="axis-label" text-anchor="end">1.0</text>
  
  <!-- Plot line -->
  <path d="M 91.82 287.61 L 95.00 286.95 L 98.18 286.24 L 101.36 285.50 L 104.55 284.73 L 107.73 283.96 L 110.91 283.20 L 114.09 282.47 L 117.27 281.79 L 120.45 281.18 L 123.64 280.67 L 126.82 280.29 L 130.00 280.06 L 133.18 280.01 L 136.36 280.17 L 139.55 280.56 L 142.73 281.20 L 145.91 282.13 L 149.09 283.35 L 152.27 284.88 L 155.45 286.73 L 158.64 288.90 L 161.82 291.38 L 165.00 294.16 L 168.18 297.23 L 171.36 300.55 L 174.55 304.08 L 177.73 307.77 L 180.91 311.57 L 184.09 315.42 L 187.27 319.23 L 190.45 322.93 L 193.64 326.42 L 196.82 329.62 L 200.00 332.43 L 203.18 334.74 L 206.36 336.47 L 209.55 337.51 L 212.73 337.77 L 215.91 337.18 L 219.09 335.66 L 222.27 333.15 L 225.45 329.60 L 228.64 324.99 L 231.82 319.30 L 235.00 312.56 L 238.18 304.79 L 241.36 296.06 L 244.55 286.45 L 247.73 276.06 L 250.91 265.04 L 254.09 253.54 L 257.27 241.73 L 260.45 229.81 L 263.64 218.00 L 266.82 206.52 L 270.00 195.62 L 273.18 185.52 L 276.36 176.47 L 279.55 168.71 L 282.73 162.45 L 285.91 157.92 L 289.09 155.30 L 292.27 154.74 L 295.45 156.40 L 298.64 160.35 L 301.82 166.65 L 305.00 175.33 L 308.18 186.34 L 311.36 199.62 L 314.55 215.03 L 317.73 232.41 L 320.91 251.55 L 324.09 272.18 L 327.27 294.00 L 330.45 316.69 L 333.64 339.88 L 336.82 363.18 L 340.00 386.20 L 343.18 408.54 L 346.36 429.77 L 349.55 449.50 L 352.73 467.34 L 355.91 482.94 L 359.09 495.96 L 362.27 506.12 L 365.45 513.17 L 368.64 516.94 L 371.82 517.27 L 375.00 514.11 L 378.18 507.45 L 381.36 497.33 L 384.55 483.89 L 387.73 467.31 L 390.91 447.82 L 394.09 425.74 L 397.27 401.41 L 400.45 375.23 L 403.64 347.63 L 406.82 319.06 L 410.00 290.00 L 413.18 260.94 L 416.36 232.37 L 419.55 204.77 L 422.73 178.59 L 425.91 154.26 L 429.09 132.18 L 432.27 112.69 L 435.45 96.11 L 438.64 82.67 L 441.82 72.55 L 445.00 65.89 L 448.18 62.73 L 451.36 63.06 L 454.55 66.83 L 457.73 73.88 L 460.91 84.04 L 464.09 97.06 L 467.27 112.66 L 470.45 130.50 L 473.64 150.23 L 476.82 171.46 L 480.00 193.80 L 483.18 216.82 L 486.36 240.12 L 489.55 263.31 L 492.73 286.00 L 495.91 307.82 L 499.09 328.45 L 502.27 347.59 L 505.45 364.97 L 508.64 380.38 L 511.82 393.66 L 515.00 404.67 L 518.18 413.35 L 521.36 419.65 L 524.55 423.60 L 527.73 425.26 L 530.91 424.70 L 534.09 422.08 L 537.27 417.55 L 540.45 411.29 L 543.64 403.53 L 546.82 394.48 L 550.00 384.38 L 553.18 373.48 L 556.36 362.00 L 559.55 350.19 L 562.73 338.27 L 565.91 326.46 L 569.09 314.96 L 572.27 303.94 L 575.45 293.55 L 578.64 283.94 L 581.82 275.21 L 585.00 267.44 L 588.18 260.70 L 591.36 255.01 L 594.55 250.40 L 597.73 246.85 L 600.91 244.34 L 604.09 242.82 L 607.27 242.23 L 610.45 242.49 L 613.64 243.53 L 616.82 245.26 L 620.00 247.57 L 623.18 250.38 L 626.36 253.58 L 629.55 257.07 L 632.73 260.77 L 635.91 264.58 L 639.09 268.43 L 642.27 272.23 L 645.45 275.92 L 648.64 279.45 L 651.82 282.77 L 655.00 285.84 L 658.18 288.62 L 661.36 291.10 L 664.55 293.27 L 667.73 295.12 L 670.91 296.65 L 674.09 297.87 L 677.27 298.80 L 680.45 299.44 L 683.64 299.83 L 686.82 299.99 L 690.00 299.94 L 693.18 299.71 L 696.36 299.33 L 699.55 298.82 L 702.73 298.21 L 705.91 297.53 L 709.09 296.80 L 712.27 296.04 L 715.45 295.27 L 718.64 294.50 L 721.82 293.76 L 725.00 293.05 L 728.18 292.39" class="plot-line"/>
  
  <!-- Title -->
  <text x="400" y="25" class="title">High Resolution Plot</text>
</svg>