<svg width="800" height="600" xmlns="http://www.w3.org/2000/svg"><rect width="800" height="600" fill="white"/><g stroke="#f0f0f0" stroke-width="1"><line x1="80" y1="50" x2="80" y2="520"/><line x1="147" y1="50" x2="147" y2="520"/><line x1="214" y1="50" x2="214" y2="520"/><line x1="281" y1="50" x2="281" y2="520"/><line x1="348" y1="50" x2="348" y2="520"/><line x1="415" y1="50" x2="415" y2="520"/><line x1="482" y1="50" x2="482" y2="520"/><line x1="549" y1="50" x2="549" y2="520"/><line x1="616" y1="50" x2="616" y2="520"/><line x1="683" y1="50" x2="683" y2="520"/><line x1="750" y1="50" x2="750" y2="520"/><line x1="80" y1="50" x2="750" y2="50"/><line x1="80" y1="97" x2="750" y2="97"/><line x1="80" y1="144" x2="750" y2="144"/><line x1="80" y1="191" x2="750" y2="191"/><line x1="80" y1="238" x2="750" y2="238"/><line x1="80" y1="285" x2="750" y2="285"/><line x1="80" y1="332" x2="750" y2="332"/><line x1="80" y1="379" x2="750" y2="379"/><line x1="80" y1="426" x2="750" y2="426"/><line x1="80" y1="473" x2="750" y2="473"/><line x1="80" y1="520" x2="750" y2="520"/></g><g stroke="black" stroke-width="2"><line x1="80" y1="485.2332354751402" x2="750" y2="485.2332354751402"/><line x1="417.81986531986513" y1="50" x2="417.81986531986513" y2="520"/></g><g fill="none" stroke="blue" stroke-width="2"><path d="M 135.83333333333331 480.8333333333333 L 141.47306397306397 479.9750694571068 L 147.1127946127946 478.97197010695356 L 152.75252525252523 477.80430203861675 L 158.3922558922559 476.45054932789907 L 164.03198653198655 474.88741830185893 L 169.67171717171718 473.0898781243817 L 175.3114478114478 471.0312425701942 L 180.95117845117846 468.6832983922391 L 186.5909090909091 466.0164853669989 L 192.23063973063972 463.0001325685474 L 197.87037037037038 459.6027546568929 L 203.51010101010104 455.79241095759915 L 209.14983164983167 451.5371288531824 L 214.7895622895623 446.80539150668505 L 220.42929292929293 441.56668820846085 L 226.06902356902359 435.7921237039256 L 231.70875420875421 429.45508075974266 L 237.34848484848487 422.531928007277 L 242.9882154882155 415.00276282512164 L 248.62794612794616 406.8521767574322 L 254.26767676767676 398.07002879086053 L 259.9074074074074 388.65220981587584 L 265.5471380471381 378.60137986791483 L 271.1868686868687 367.92765837048 L 276.8265993265993 356.6492466733134 L 282.46632996633 344.79296177441665 L 288.1060606060606 332.39466030415304 L 293.74579124579134 319.4995326869907 L 299.38552188552194 306.1622489167388 L 305.02525252525254 292.44693959729 L 310.6649831649832 278.42699880096404 L 316.30471380471386 264.1846988420317 L 321.94444444444446 249.81061118807526 L 327.5841750841751 235.40283234386402 L 333.2239057239058 221.06601852360558 L 338.8636363636364 206.9102381377498 L 344.50336700336703 193.04965640188266 L 350.1430976430977 179.60107155667123 L 355.78282828282835 166.6823270915839 L 361.42255892255895 154.410628813549 L 367.0622895622896 142.90079942436927 L 372.70202020202026 132.26350631161904 L 378.34175084175087 122.60350038238965 L 383.9814814814815 114.01790487088272 L 389.6212121212121 106.59459305596306 L 395.2609427609428 100.41069269717559 L 400.9006734006734 95.53125274127086 L 406.54040404040404 92.00810451084766 L 412.1801346801347 89.87894524748401 L 417.8198653198653 89.16666666666669 L 423.45959595959596 89.87894524748401 L 429.0993265993266 92.00810451084789 L 434.7390572390573 95.5312527412712 L 440.3787878787879 100.41069269717605 L 446.01851851851853 106.59459305596363 L 451.65824915824913 114.01790487088323 L 457.2979797979798 122.60350038239028 L 462.93771043771045 132.26350631161978 L 468.57744107744105 142.90079942437006 L 474.2171717171717 154.41062881354986 L 479.85690235690237 166.6823270915848 L 485.49663299663297 179.6010715566722 L 491.13636363636357 193.04965640188362 L 496.7760942760943 206.9102381377507 L 502.4158249158249 221.06601852360666 L 508.05555555555554 235.4028323438651 L 513.6952861952861 249.81061118807628 L 519.3350168350169 264.18469884203273 L 524.9747474747475 278.426998800965 L 530.6144781144781 292.446939597291 L 536.2542087542088 306.16224891673977 L 541.8939393939395 319.49953268699164 L 547.53367003367 332.39466030415394 L 553.1734006734007 344.79296177441756 L 558.8131313131313 356.6492466733142 L 564.4528619528619 367.92765837048074 L 570.0925925925926 378.6013798679155 L 575.7323232323233 388.6522098158765 L 581.3720538720538 398.0700287908612 L 587.0117845117845 406.85217675743274 L 592.6515151515151 415.0027628251222 L 598.2912457912458 422.53192800727743 L 603.9309764309764 429.4550807597431 L 609.570707070707 435.792123703926 L 615.2104377104376 441.5666882084612 L 620.8501683501684 446.80539150668534 L 626.489898989899 451.5371288531827 L 632.1296296296297 455.79241095759943 L 637.7693602693603 459.6027546568931 L 643.4090909090909 463.0001325685476 L 649.0488215488216 466.01648536699906 L 654.6885521885522 468.6832983922393 L 660.3282828282828 471.03124257019437 L 665.9680134680135 473.0898781243818 L 671.6077441077441 474.88741830185904 L 677.2474747474747 476.4505493278991 L 682.8872053872054 477.8043020386168 L 688.526936026936 478.9719701069537 L 694.1666666666666 479.9750694571069"/></g><g fill="black" font-family="Arial" font-size="14"><text x="400" y="580" text-anchor="middle">x</text><text x="20" y="300" text-anchor="middle" transform="rotate(-90, 20, 300)">y</text></g></svg>