<svg width="800" height="600" xmlns="http://www.w3.org/2000/svg"><g transform="translate(80,40)"><g transform="translate(0,500)" fill="none" font-size="10" font-family="sans-serif" text-anchor="middle"><path class="domain" stroke="currentColor" d="M0.5,6V0.5H680.5V6"></path><g class="tick" opacity="1" transform="translate(21.75,0)"><line stroke="currentColor" y2="6"></line><text fill="currentColor" y="9" dy="0.71em">−15</text></g><g class="tick" opacity="1" transform="translate(128,0)"><line stroke="currentColor" y2="6"></line><text fill="currentColor" y="9" dy="0.71em">−10</text></g><g class="tick" opacity="1" transform="translate(234.25,0)"><line stroke="currentColor" y2="6"></line><text fill="currentColor" y="9" dy="0.71em">−5</text></g><g class="tick" opacity="1" transform="translate(340.5,0)"><line stroke="currentColor" y2="6"></line><text fill="currentColor" y="9" dy="0.71em">0</text></g><g class="tick" opacity="1" transform="translate(446.75,0)"><line stroke="currentColor" y2="6"></line><text fill="currentColor" y="9" dy="0.71em">5</text></g><g class="tick" opacity="1" transform="translate(553,0)"><line stroke="currentColor" y2="6"></line><text fill="currentColor" y="9" dy="0.71em">10</text></g><g class="tick" opacity="1" transform="translate(659.25,0)"><line stroke="currentColor" y2="6"></line><text fill="currentColor" y="9" dy="0.71em">15</text></g></g><g fill="none" font-size="10" font-family="sans-serif" text-anchor="end"><path class="domain" stroke="currentColor" d="M-6,500.5H0.5V0.5H-6"></path><g class="tick" opacity="1" transform="translate(0,483.20243837988664)"><line stroke="currentColor" x2="-6"></line><text fill="currentColor" x="-9" dy="0.32em">−16</text></g><g class="tick" opacity="1" transform="translate(0,448.6073151396598)"><line stroke="currentColor" x2="-6"></line><text fill="currentColor" x="-9" dy="0.32em">−14</text></g><g class="tick" opacity="1" transform="translate(0,414.0121918994331)"><line stroke="currentColor" x2="-6"></line><text fill="currentColor" x="-9" dy="0.32em">−12</text></g><g class="tick" opacity="1" transform="translate(0,379.41706865920634)"><line stroke="currentColor" x2="-6"></line><text fill="currentColor" x="-9" dy="0.32em">−10</text></g><g class="tick" opacity="1" transform="translate(0,344.8219454189795)"><line stroke="currentColor" x2="-6"></line><text fill="currentColor" x="-9" dy="0.32em">−8</text></g><g class="tick" opacity="1" transform="translate(0,310.2268221787528)"><line stroke="currentColor" x2="-6"></line><text fill="currentColor" x="-9" dy="0.32em">−6</text></g><g class="tick" opacity="1" transform="translate(0,275.63169893852603)"><line stroke="currentColor" x2="-6"></line><text fill="currentColor" x="-9" dy="0.32em">−4</text></g><g class="tick" opacity="1" transform="translate(0,241.03657569829923)"><line stroke="currentColor" x2="-6"></line><text fill="currentColor" x="-9" dy="0.32em">−2</text></g><g class="tick" opacity="1" transform="translate(0,206.4414524580725)"><line stroke="currentColor" x2="-6"></line><text fill="currentColor" x="-9" dy="0.32em">0</text></g><g class="tick" opacity="1" transform="translate(0,171.8463292178457)"><line stroke="currentColor" x2="-6"></line><text fill="currentColor" x="-9" dy="0.32em">2</text></g><g class="tick" opacity="1" transform="translate(0,137.25120597761892)"><line stroke="currentColor" x2="-6"></line><text fill="currentColor" x="-9" dy="0.32em">4</text></g><g class="tick" opacity="1" transform="translate(0,102.65608273739218)"><line stroke="currentColor" x2="-6"></line><text fill="currentColor" x="-9" dy="0.32em">6</text></g><g class="tick" opacity="1" transform="translate(0,68.0609594971654)"><line stroke="currentColor" x2="-6"></line><text fill="currentColor" x="-9" dy="0.32em">8</text></g><g class="tick" opacity="1" transform="translate(0,33.46583625693861)"><line stroke="currentColor" x2="-6"></line><text fill="currentColor" x="-9" dy="0.32em">10</text></g></g><text transform="translate(340, 540)" style="text-anchor: middle; font-size: 14px;">x</text><text transform="rotate(-90)" y="-60" x="-250" style="text-anchor: middle; font-size: 14px;">y</text><path fill="none" stroke="#1f77b4" stroke-width="2" d="M340,119.454L340.084,118.059L340.669,113.941L342.237,107.29L345.229,98.415L350.033,87.729L356.961,75.727L366.244,62.966L378.015,50.038L392.306,37.542L409.045,26.061L428.057,16.134L449.066,8.237L471.706,2.761L495.532,0L520.033,0.145L544.65,3.278L568.795,9.376L591.87,18.318L613.284,29.899L632.481,43.84L648.951,59.816L662.251,77.463L672.02,96.41L677.991,116.288L680,136.751L677.991,157.492L672.02,178.248L662.251,198.81L648.951,219.025L632.481,238.793L613.284,258.063L591.87,276.823L568.795,295.092L544.65,312.904L520.033,330.297L495.532,347.305L471.706,363.939L449.066,380.185L428.057,395.995L409.045,411.286L392.306,425.939L378.015,439.8L366.244,452.693L356.961,464.422L350.033,474.785L345.229,483.585L342.237,490.641L340.669,495.799L340.084,498.944L340,500L339.916,498.944L339.331,495.799L337.763,490.641L334.771,483.585L329.967,474.785L323.039,464.422L313.756,452.693L301.985,439.8L287.694,425.939L270.955,411.286L251.943,395.995L230.934,380.185L208.294,363.939L184.468,347.305L159.967,330.297L135.35,312.904L111.205,295.092L88.13,276.823L66.716,258.063L47.519,238.793L31.049,219.025L17.749,198.81L7.98,178.248L2.009,157.492L0,136.751L2.009,116.288L7.98,96.41L17.749,77.463L31.049,59.816L47.519,43.84L66.716,29.899L88.13,18.318L111.205,9.376L135.35,3.278L159.967,0.145L184.468,0L208.294,2.761L230.934,8.237L251.943,16.134L270.955,26.061L287.694,37.542L301.985,50.038L313.756,62.966L323.039,75.727L329.967,87.729L334.771,98.415L337.763,107.29L339.331,113.941L339.916,118.059L340,119.454"></path></g><text x="400" y="25" style="text-anchor: middle; font-size: 16px; font-weight: bold;">Heart Curve</text></svg>