<svg width="800" height="600" xmlns="http://www.w3.org/2000/svg"><g transform="translate(80,40)"><g transform="translate(0,500)" fill="none" font-size="10" font-family="sans-serif" text-anchor="middle"><path class="domain" stroke="currentColor" d="M0.5,6V0.5H680.5V6"></path><g class="tick" opacity="1" transform="translate(21.687713317595158,0)"><line stroke="currentColor" y2="6"></line><text fill="currentColor" y="9" dy="0.71em">−15</text></g><g class="tick" opacity="1" transform="translate(128.0179317664411,0)"><line stroke="currentColor" y2="6"></line><text fill="currentColor" y="9" dy="0.71em">−10</text></g><g class="tick" opacity="1" transform="translate(234.348150215287,0)"><line stroke="currentColor" y2="6"></line><text fill="currentColor" y="9" dy="0.71em">−5</text></g><g class="tick" opacity="1" transform="translate(340.67836866413296,0)"><line stroke="currentColor" y2="6"></line><text fill="currentColor" y="9" dy="0.71em">0</text></g><g class="tick" opacity="1" transform="translate(447.00858711297883,0)"><line stroke="currentColor" y2="6"></line><text fill="currentColor" y="9" dy="0.71em">5</text></g><g class="tick" opacity="1" transform="translate(553.3388055618248,0)"><line stroke="currentColor" y2="6"></line><text fill="currentColor" y="9" dy="0.71em">10</text></g><g class="tick" opacity="1" transform="translate(659.6690240106707,0)"><line stroke="currentColor" y2="6"></line><text fill="currentColor" y="9" dy="0.71em">15</text></g></g><g fill="none" font-size="10" font-family="sans-serif" text-anchor="end"><path class="domain" stroke="currentColor" d="M-6,500.5H0.5V0.5H-6"></path><g class="tick" opacity="1" transform="translate(0,483.65958913921446)"><line stroke="currentColor" x2="-6"></line><text fill="currentColor" x="-9" dy="0.32em">−16</text></g><g class="tick" opacity="1" transform="translate(0,449.05158756361834)"><line stroke="currentColor" x2="-6"></line><text fill="currentColor" x="-9" dy="0.32em">−14</text></g><g class="tick" opacity="1" transform="translate(0,414.4435859880222)"><line stroke="currentColor" x2="-6"></line><text fill="currentColor" x="-9" dy="0.32em">−12</text></g><g class="tick" opacity="1" transform="translate(0,379.8355844124261)"><line stroke="currentColor" x2="-6"></line><text fill="currentColor" x="-9" dy="0.32em">−10</text></g><g class="tick" opacity="1" transform="translate(0,345.22758283683004)"><line stroke="currentColor" x2="-6"></line><text fill="currentColor" x="-9" dy="0.32em">−8</text></g><g class="tick" opacity="1" transform="translate(0,310.6195812612339)"><line stroke="currentColor" x2="-6"></line><text fill="currentColor" x="-9" dy="0.32em">−6</text></g><g class="tick" opacity="1" transform="translate(0,276.0115796856378)"><line stroke="currentColor" x2="-6"></line><text fill="currentColor" x="-9" dy="0.32em">−4</text></g><g class="tick" opacity="1" transform="translate(0,241.40357811004165)"><line stroke="currentColor" x2="-6"></line><text fill="currentColor" x="-9" dy="0.32em">−2</text></g><g class="tick" opacity="1" transform="translate(0,206.79557653444553)"><line stroke="currentColor" x2="-6"></line><text fill="currentColor" x="-9" dy="0.32em">0</text></g><g class="tick" opacity="1" transform="translate(0,172.18757495884947)"><line stroke="currentColor" x2="-6"></line><text fill="currentColor" x="-9" dy="0.32em">2</text></g><g class="tick" opacity="1" transform="translate(0,137.57957338325332)"><line stroke="currentColor" x2="-6"></line><text fill="currentColor" x="-9" dy="0.32em">4</text></g><g class="tick" opacity="1" transform="translate(0,102.9715718076572)"><line stroke="currentColor" x2="-6"></line><text fill="currentColor" x="-9" dy="0.32em">6</text></g><g class="tick" opacity="1" transform="translate(0,68.36357023206108)"><line stroke="currentColor" x2="-6"></line><text fill="currentColor" x="-9" dy="0.32em">8</text></g><g class="tick" opacity="1" transform="translate(0,33.75556865646495)"><line stroke="currentColor" x2="-6"></line><text fill="currentColor" x="-9" dy="0.32em">10</text></g></g><text transform="translate(340, 540)" style="text-anchor: middle; font-size: 14px;">x</text><text transform="rotate(-90)" y="-60" x="-250" style="text-anchor: middle; font-size: 14px;">y</text><path fill="none" stroke="#1f77b4" stroke-width="2" d="M340.178,119.776L340.517,116.263L342.846,106.137L348.96,90.582L360.272,71.415L377.673,50.876L401.431,31.363L431.15,15.172L465.785,4.249L503.723,0L542.911,3.176L581.026,13.848L615.67,31.462L644.575,54.967L665.798,82.993L677.884,114.049L680,146.706L671.997,179.757L654.432,212.31L628.511,243.821L595.993,274.067L559.033,303.062L520,330.94L481.272,357.834L445.039,383.759L413.114,408.534L386.79,431.751L366.74,452.791L352.969,470.894L344.838,485.254L341.135,495.14L340.203,500L340.111,499.55L338.843,493.817L334.5,483.134L325.492,468.09L310.693,449.436L289.569,427.98L262.239,404.463L229.483,379.472L192.691,353.378L153.752,326.324L114.899,298.269L78.523,269.072L46.972,238.609L22.347,206.899L6.321,174.215L0,141.158L3.822,108.678L17.521,78.028L40.152,50.659L70.169,28.055L105.561,11.546L144.025,2.111L183.161,0.207L220.677,5.65L254.584,17.574L283.356,34.471L306.055,54.323L322.396,74.799L332.756,93.506L338.122,108.26L339.983,117.338"></path></g><text x="400" y="25" style="text-anchor: middle; font-size: 16px; font-weight: bold;">Heart Curve</text></svg>