<?xml version="1.0" encoding="UTF-8"?>
<svg width="800" height="600" viewBox="0 0 800 600" xmlns="http://www.w3.org/2000/svg">
  <defs>
    <style>
      .plot-line { fill: none; stroke: #2563eb; stroke-width: 2px; }
      .axis { stroke: #666; stroke-width: 1px; }
      .grid { stroke: #e5e7eb; stroke-width: 0.5px; }
      .axis-label { font-family: Arial, sans-serif; font-size: 12px; fill: #374151; text-anchor: middle; }
      .title { font-family: Arial, sans-serif; font-size: 16px; font-weight: bold; fill: #1f2937; text-anchor: middle; }
    </style>
  </defs>
  
  <!-- Background -->
  <rect width="800" height="600" fill="#ffffff"/>
  
  <!-- Grid lines -->
  <line x1="60" y1="40" x2="60" y2="540" class="grid"/>
  <line x1="200" y1="40" x2="200" y2="540" class="grid"/>
  <line x1="340" y1="40" x2="340" y2="540" class="grid"/>
  <line x1="480" y1="40" x2="480" y2="540" class="grid"/>
  <line x1="620" y1="40" x2="620" y2="540" class="grid"/>
  <line x1="760" y1="40" x2="760" y2="540" class="grid"/>
  <line x1="60" y1="540" x2="760" y2="540" class="grid"/>
  <line x1="60" y1="440" x2="760" y2="440" class="grid"/>
  <line x1="60" y1="340" x2="760" y2="340" class="grid"/>
  <line x1="60" y1="240" x2="760" y2="240" class="grid"/>
  <line x1="60" y1="140" x2="760" y2="140" class="grid"/>
  <line x1="60" y1="40" x2="760" y2="40" class="grid"/>
  
  <!-- Axes -->
  <line x1="60" y1="540" x2="760" y2="540" class="axis"/>
  <line x1="60" y1="40" x2="60" y2="540" class="axis"/>
  
  <!-- Axis labels -->
  <text x="60" y="560" class="axis-label">-5.5</text>
  <text x="200" y="560" class="axis-label">-3.3</text>
  <text x="340" y="560" class="axis-label">-1.1</text>
  <text x="480" y="560" class="axis-label">1.1</text>
  <text x="620" y="560" class="axis-label">3.3</text>
  <text x="760" y="560" class="axis-label">5.5</text>
  <text x="50" y="545" class="axis-label" text-anchor="end">-1.1</text>
  <text x="50" y="445" class="axis-label" text-anchor="end">-0.7</text>
  <text x="50" y="345" class="axis-label" text-anchor="end">-0.2</text>
  <text x="50" y="245" class="axis-label" text-anchor="end">0.2</text>
  <text x="50" y="145" class="axis-label" text-anchor="end">0.7</text>
  <text x="50" y="45" class="axis-label" text-anchor="end">1.1</text>
  
  <!-- Plot line -->
  <path d="M 91.82 287.50 L 94.36 283.59 L 96.91 279.63 L 99.45 275.80 L 102.00 272.27 L 104.55 269.23 L 107.09 266.84 L 109.64 265.26 L 112.18 264.63 L 114.73 265.05 L 117.27 266.57 L 119.82 269.22 L 122.36 272.97 L 124.91 277.73 L 127.45 283.37 L 130.00 289.71 L 132.55 296.52 L 135.09 303.55 L 137.64 310.50 L 140.18 317.06 L 142.73 322.93 L 145.27 327.80 L 147.82 331.39 L 150.36 333.47 L 152.91 333.82 L 155.45 332.34 L 158.00 328.96 L 160.55 323.70 L 163.09 316.66 L 165.64 308.05 L 168.18 298.12 L 170.73 287.23 L 173.27 275.78 L 175.82 264.23 L 178.36 253.07 L 180.91 242.80 L 183.45 233.91 L 186.00 226.87 L 188.55 222.07 L 191.09 219.87 L 193.64 220.49 L 196.18 224.07 L 198.73 230.62 L 201.27 240.01 L 203.82 252.02 L 206.36 266.25 L 208.91 282.22 L 211.45 299.35 L 214.00 316.97 L 216.55 334.34 L 219.09 350.73 L 221.64 365.39 L 224.18 377.62 L 226.73 386.78 L 229.27 392.34 L 231.82 393.89 L 234.36 391.20 L 236.91 384.18 L 239.45 372.93 L 242.00 357.74 L 244.55 339.09 L 247.09 317.61 L 249.64 294.09 L 252.18 269.43 L 254.73 244.63 L 257.27 220.71 L 259.82 198.72 L 262.36 179.66 L 264.91 164.43 L 267.45 153.81 L 270.00 148.43 L 272.55 148.68 L 275.09 154.77 L 277.64 166.63 L 280.18 183.96 L 282.73 206.23 L 285.27 232.67 L 287.82 262.30 L 290.36 294.00 L 292.91 326.50 L 295.45 358.47 L 298.00 388.57 L 300.55 415.50 L 303.09 438.04 L 305.64 455.13 L 308.18 465.94 L 310.73 469.83 L 313.27 466.47 L 315.82 455.83 L 318.36 438.17 L 320.91 414.06 L 323.45 384.34 L 326.00 350.12 L 328.55 312.73 L 331.09 273.63 L 333.64 234.42 L 336.18 196.71 L 338.73 162.09 L 341.27 132.03 L 343.82 107.87 L 346.36 90.69 L 348.91 81.32 L 351.45 80.26 L 354.00 87.70 L 356.55 103.43 L 359.09 126.93 L 361.64 157.34 L 364.18 193.48 L 366.73 233.95 L 369.27 277.13 L 371.82 321.27 L 374.36 364.57 L 376.91 405.26 L 379.45 441.63 L 382.00 472.16 L 384.55 495.56 L 387.09 510.82 L 389.64 517.27 L 392.18 514.60 L 394.73 502.87 L 397.27 482.52 L 399.82 454.36 L 402.36 419.52 L 404.91 379.40 L 407.45 335.63 L 410.00 290.00 L 412.55 244.37 L 415.09 200.60 L 417.64 160.48 L 420.18 125.64 L 422.73 97.48 L 425.27 77.13 L 427.82 65.40 L 430.36 62.73 L 432.91 69.18 L 435.45 84.44 L 438.00 107.84 L 440.55 138.37 L 443.09 174.74 L 445.64 215.43 L 448.18 258.73 L 450.73 302.87 L 453.27 346.05 L 455.82 386.52 L 458.36 422.66 L 460.91 453.07 L 463.45 476.57 L 466.00 492.30 L 468.55 499.74 L 471.09 498.68 L 473.64 489.31 L 476.18 472.13 L 478.73 447.97 L 481.27 417.91 L 483.82 383.29 L 486.36 345.58 L 488.91 306.37 L 491.45 267.27 L 494.00 229.88 L 496.55 195.66 L 499.09 165.94 L 501.64 141.83 L 504.18 124.17 L 506.73 113.53 L 509.27 110.17 L 511.82 114.06 L 514.36 124.87 L 516.91 141.96 L 519.45 164.50 L 522.00 191.43 L 524.55 221.53 L 527.09 253.50 L 529.64 286.00 L 532.18 317.70 L 534.73 347.33 L 537.27 373.77 L 539.82 396.04 L 542.36 413.37 L 544.91 425.23 L 547.45 431.32 L 550.00 431.57 L 552.55 426.19 L 555.09 415.57 L 557.64 400.34 L 560.18 381.28 L 562.73 359.29 L 565.27 335.37 L 567.82 310.57 L 570.36 285.91 L 572.91 262.39 L 575.45 240.91 L 578.00 222.26 L 580.55 207.07 L 583.09 195.82 L 585.64 188.80 L 588.18 186.11 L 590.73 187.66 L 593.27 193.22 L 595.82 202.38 L 598.36 214.61 L 600.91 229.27 L 603.45 245.66 L 606.00 263.03 L 608.55 280.65 L 611.09 297.78 L 613.64 313.75 L 616.18 327.98 L 618.73 339.99 L 621.27 349.38 L 623.82 355.93 L 626.36 359.51 L 628.91 360.13 L 631.45 357.93 L 634.00 353.13 L 636.55 346.09 L 639.09 337.20 L 641.64 326.93 L 644.18 315.77 L 646.73 304.22 L 649.27 292.77 L 651.82 281.88 L 654.36 271.95 L 656.91 263.34 L 659.45 256.30 L 662.00 251.04 L 664.55 247.66 L 667.09 246.18 L 669.64 246.53 L 672.18 248.61 L 674.73 252.20 L 677.27 257.07 L 679.82 262.94 L 682.36 269.50 L 684.91 276.45 L 687.45 283.48 L 690.00 290.29 L 692.55 296.63 L 695.09 302.27 L 697.64 307.03 L 700.18 310.78 L 702.73 313.43 L 705.27 314.95 L 707.82 315.37 L 710.36 314.74 L 712.91 313.16 L 715.45 310.77 L 718.00 307.73 L 720.55 304.20 L 723.09 300.37 L 725.64 296.41 L 728.18 292.50" class="plot-line"/>
  
  <!-- Title -->
  <text x="400" y="25" class="title">Amplitude Modulated Sine: sin(5x)·e^(-x²/10)</text>
</svg>