<svg width="800" height="600"><g transform="translate(0,560)" fill="none" font-size="10" font-family="sans-serif" text-anchor="middle"><path class="domain" stroke="currentColor" d="M50.5,6V0.5H770.5V6"></path><g class="tick" opacity="1" transform="translate(50.5,0)"><line stroke="currentColor" y2="6"></line><text fill="currentColor" y="9" dy="0.71em">−3.0</text></g><g class="tick" opacity="1" transform="translate(110.49999999999999,0)"><line stroke="currentColor" y2="6"></line><text fill="currentColor" y="9" dy="0.71em">−2.5</text></g><g class="tick" opacity="1" transform="translate(170.5,0)"><line stroke="currentColor" y2="6"></line><text fill="currentColor" y="9" dy="0.71em">−2.0</text></g><g class="tick" opacity="1" transform="translate(230.5,0)"><line stroke="currentColor" y2="6"></line><text fill="currentColor" y="9" dy="0.71em">−1.5</text></g><g class="tick" opacity="1" transform="translate(290.49999999999994,0)"><line stroke="currentColor" y2="6"></line><text fill="currentColor" y="9" dy="0.71em">−1.0</text></g><g class="tick" opacity="1" transform="translate(350.50000000000006,0)"><line stroke="currentColor" y2="6"></line><text fill="currentColor" y="9" dy="0.71em">−0.5</text></g><g class="tick" opacity="1" transform="translate(410.5,0)"><line stroke="currentColor" y2="6"></line><text fill="currentColor" y="9" dy="0.71em">0.0</text></g><g class="tick" opacity="1" transform="translate(470.5,0)"><line stroke="currentColor" y2="6"></line><text fill="currentColor" y="9" dy="0.71em">0.5</text></g><g class="tick" opacity="1" transform="translate(530.4999999999999,0)"><line stroke="currentColor" y2="6"></line><text fill="currentColor" y="9" dy="0.71em">1.0</text></g><g class="tick" opacity="1" transform="translate(590.5,0)"><line stroke="currentColor" y2="6"></line><text fill="currentColor" y="9" dy="0.71em">1.5</text></g><g class="tick" opacity="1" transform="translate(650.5000000000001,0)"><line stroke="currentColor" y2="6"></line><text fill="currentColor" y="9" dy="0.71em">2.0</text></g><g class="tick" opacity="1" transform="translate(710.4999999999999,0)"><line stroke="currentColor" y2="6"></line><text fill="currentColor" y="9" dy="0.71em">2.5</text></g><g class="tick" opacity="1" transform="translate(770.5,0)"><line stroke="currentColor" y2="6"></line><text fill="currentColor" y="9" dy="0.71em">3.0</text></g></g><g transform="translate(50,0)" fill="none" font-size="10" font-family="sans-serif" text-anchor="end"><path class="domain" stroke="currentColor" d="M-6,560.5H0.5V20.5H-6"></path><g class="tick" opacity="1" transform="translate(0,500.5489795918367)"><line stroke="currentColor" x2="-6"></line><text fill="currentColor" x="-9" dy="0.32em">1</text></g><g class="tick" opacity="1" transform="translate(0,440.54285714285714)"><line stroke="currentColor" x2="-6"></line><text fill="currentColor" x="-9" dy="0.32em">2</text></g><g class="tick" opacity="1" transform="translate(0,380.5367346938775)"><line stroke="currentColor" x2="-6"></line><text fill="currentColor" x="-9" dy="0.32em">3</text></g><g class="tick" opacity="1" transform="translate(0,320.530612244898)"><line stroke="currentColor" x2="-6"></line><text fill="currentColor" x="-9" dy="0.32em">4</text></g><g class="tick" opacity="1" transform="translate(0,260.52448979591844)"><line stroke="currentColor" x2="-6"></line><text fill="currentColor" x="-9" dy="0.32em">5</text></g><g class="tick" opacity="1" transform="translate(0,200.5183673469388)"><line stroke="currentColor" x2="-6"></line><text fill="currentColor" x="-9" dy="0.32em">6</text></g><g class="tick" opacity="1" transform="translate(0,140.51224489795925)"><line stroke="currentColor" x2="-6"></line><text fill="currentColor" x="-9" dy="0.32em">7</text></g><g class="tick" opacity="1" transform="translate(0,80.50612244897962)"><line stroke="currentColor" x2="-6"></line><text fill="currentColor" x="-9" dy="0.32em">8</text></g><g class="tick" opacity="1" transform="translate(0,20.5)"><line stroke="currentColor" x2="-6"></line><text fill="currentColor" x="-9" dy="0.32em">9</text></g></g><path fill="none" stroke="steelblue" stroke-width="2" d="M50,20L57.273,41.6L64.545,62.759L71.818,83.478L79.091,103.755L86.364,123.592L93.636,142.988L100.909,161.943L108.182,180.457L115.455,198.531L122.727,216.163L130,233.355L137.273,250.106L144.545,266.416L151.818,282.286L159.091,297.714L166.364,312.702L173.636,327.249L180.909,341.355L188.182,355.02L195.455,368.245L202.727,381.029L210,393.371L217.273,405.273L224.545,416.735L231.818,427.755L239.091,438.335L246.364,448.473L253.636,458.171L260.909,467.429L268.182,476.245L275.455,484.62L282.727,492.555L290,500.049L297.273,507.102L304.545,513.714L311.818,519.886L319.091,525.616L326.364,530.906L333.636,535.755L340.909,540.163L348.182,544.131L355.455,547.657L362.727,550.743L370,553.388L377.273,555.592L384.545,557.355L391.818,558.678L399.091,559.559L406.364,560L413.636,560L420.909,559.559L428.182,558.678L435.455,557.355L442.727,555.592L450,553.388L457.273,550.743L464.545,547.657L471.818,544.131L479.091,540.163L486.364,535.755L493.636,530.906L500.909,525.616L508.182,519.886L515.455,513.714L522.727,507.102L530,500.049L537.273,492.555L544.545,484.62L551.818,476.245L559.091,467.429L566.364,458.171L573.636,448.473L580.909,438.335L588.182,427.755L595.455,416.735L602.727,405.273L610,393.371L617.273,381.029L624.545,368.245L631.818,355.02L639.091,341.355L646.364,327.249L653.636,312.702L660.909,297.714L668.182,282.286L675.455,266.416L682.727,250.106L690,233.355L697.273,216.163L704.545,198.531L711.818,180.457L719.091,161.943L726.364,142.988L733.636,123.592L740.909,103.755L748.182,83.478L755.455,62.759L762.727,41.6L770,20"></path><text transform="rotate(-90)" y="-50" x="-300" dy="1em" style="text-anchor: middle;">y</text><text transform="translate(400, 595)" style="text-anchor: middle;">x</text></svg>