<?xml version="1.0" encoding="UTF-8"?>
<svg width="800" height="600" viewBox="0 0 800 600" xmlns="http://www.w3.org/2000/svg">
  <defs>
    <style>
      .plot-line { fill: none; stroke: #2563eb; stroke-width: 2px; }
      .axis { stroke: #666; stroke-width: 1px; }
      .grid { stroke: #e5e7eb; stroke-width: 0.5px; }
      .axis-label { font-family: Arial, sans-serif; font-size: 12px; fill: #374151; text-anchor: middle; }
      .title { font-family: Arial, sans-serif; font-size: 16px; font-weight: bold; fill: #1f2937; text-anchor: middle; }
    </style>
  </defs>
  
  <!-- Background -->
  <rect width="800" height="600" fill="#ffffff"/>
  
  <!-- Grid lines -->
  <line x1="60" y1="40" x2="60" y2="540" class="grid"/>
  <line x1="200" y1="40" x2="200" y2="540" class="grid"/>
  <line x1="340" y1="40" x2="340" y2="540" class="grid"/>
  <line x1="480" y1="40" x2="480" y2="540" class="grid"/>
  <line x1="620" y1="40" x2="620" y2="540" class="grid"/>
  <line x1="760" y1="40" x2="760" y2="540" class="grid"/>
  <line x1="60" y1="540" x2="760" y2="540" class="grid"/>
  <line x1="60" y1="440" x2="760" y2="440" class="grid"/>
  <line x1="60" y1="340" x2="760" y2="340" class="grid"/>
  <line x1="60" y1="240" x2="760" y2="240" class="grid"/>
  <line x1="60" y1="140" x2="760" y2="140" class="grid"/>
  <line x1="60" y1="40" x2="760" y2="40" class="grid"/>
  
  <!-- Axes -->
  <line x1="60" y1="540" x2="760" y2="540" class="axis"/>
  <line x1="60" y1="40" x2="60" y2="540" class="axis"/>
  
  <!-- Axis labels -->
  <text x="60" y="560" class="axis-label">-5.5</text>
  <text x="200" y="560" class="axis-label">-3.3</text>
  <text x="340" y="560" class="axis-label">-1.1</text>
  <text x="480" y="560" class="axis-label">1.1</text>
  <text x="620" y="560" class="axis-label">3.3</text>
  <text x="760" y="560" class="axis-label">5.5</text>
  <text x="50" y="545" class="axis-label" text-anchor="end">-1.3</text>
  <text x="50" y="445" class="axis-label" text-anchor="end">4.3</text>
  <text x="50" y="345" class="axis-label" text-anchor="end">9.8</text>
  <text x="50" y="245" class="axis-label" text-anchor="end">15.3</text>
  <text x="50" y="145" class="axis-label" text-anchor="end">20.8</text>
  <text x="50" y="45" class="axis-label" text-anchor="end">26.3</text>
  
  <!-- Plot line -->
  <path d="M 91.82 62.73 L 98.18 80.73 L 104.55 98.36 L 110.91 115.64 L 117.27 132.55 L 123.64 149.09 L 130.00 165.27 L 136.36 181.09 L 142.73 196.55 L 149.09 211.64 L 155.45 226.36 L 161.82 240.73 L 168.18 254.73 L 174.55 268.36 L 180.91 281.64 L 187.27 294.55 L 193.64 307.09 L 200.00 319.27 L 206.36 331.09 L 212.73 342.55 L 219.09 353.64 L 225.45 364.36 L 231.82 374.73 L 238.18 384.73 L 244.55 394.36 L 250.91 403.64 L 257.27 412.55 L 263.64 421.09 L 270.00 429.27 L 276.36 437.09 L 282.73 444.55 L 289.09 451.64 L 295.45 458.36 L 301.82 464.73 L 308.18 470.73 L 314.55 476.36 L 320.91 481.64 L 327.27 486.55 L 333.64 491.09 L 340.00 495.27 L 346.36 499.09 L 352.73 502.55 L 359.09 505.64 L 365.45 508.36 L 371.82 510.73 L 378.18 512.73 L 384.55 514.36 L 390.91 515.64 L 397.27 516.55 L 403.64 517.09 L 410.00 517.27 L 416.36 517.09 L 422.73 516.55 L 429.09 515.64 L 435.45 514.36 L 441.82 512.73 L 448.18 510.73 L 454.55 508.36 L 460.91 505.64 L 467.27 502.55 L 473.64 499.09 L 480.00 495.27 L 486.36 491.09 L 492.73 486.55 L 499.09 481.64 L 505.45 476.36 L 511.82 470.73 L 518.18 464.73 L 524.55 458.36 L 530.91 451.64 L 537.27 444.55 L 543.64 437.09 L 550.00 429.27 L 556.36 421.09 L 562.73 412.55 L 569.09 403.64 L 575.45 394.36 L 581.82 384.73 L 588.18 374.73 L 594.55 364.36 L 600.91 353.64 L 607.27 342.55 L 613.64 331.09 L 620.00 319.27 L 626.36 307.09 L 632.73 294.55 L 639.09 281.64 L 645.45 268.36 L 651.82 254.73 L 658.18 240.73 L 664.55 226.36 L 670.91 211.64 L 677.27 196.55 L 683.64 181.09 L 690.00 165.27 L 696.36 149.09 L 702.73 132.55 L 709.09 115.64 L 715.45 98.36 L 721.82 80.73 L 728.18 62.73" class="plot-line"/>
  
  <!-- Title -->
  <text x="400" y="25" class="title">Quadratic Function</text>
</svg>