<svg width="800" height="600" xmlns="http://www.w3.org/2000/svg"><rect width="800" height="600" fill="white"/><g stroke="#f0f0f0" stroke-width="1"><line x1="80" y1="50" x2="80" y2="520"/><line x1="147" y1="50" x2="147" y2="520"/><line x1="214" y1="50" x2="214" y2="520"/><line x1="281" y1="50" x2="281" y2="520"/><line x1="348" y1="50" x2="348" y2="520"/><line x1="415" y1="50" x2="415" y2="520"/><line x1="482" y1="50" x2="482" y2="520"/><line x1="549" y1="50" x2="549" y2="520"/><line x1="616" y1="50" x2="616" y2="520"/><line x1="683" y1="50" x2="683" y2="520"/><line x1="750" y1="50" x2="750" y2="520"/><line x1="80" y1="50" x2="750" y2="50"/><line x1="80" y1="97" x2="750" y2="97"/><line x1="80" y1="144" x2="750" y2="144"/><line x1="80" y1="191" x2="750" y2="191"/><line x1="80" y1="238" x2="750" y2="238"/><line x1="80" y1="285" x2="750" y2="285"/><line x1="80" y1="332" x2="750" y2="332"/><line x1="80" y1="379" x2="750" y2="379"/><line x1="80" y1="426" x2="750" y2="426"/><line x1="80" y1="473" x2="750" y2="473"/><line x1="80" y1="520" x2="750" y2="520"/></g><g stroke="black" stroke-width="2"><line x1="80" y1="480.8333333333333" x2="750" y2="480.8333333333333"/><line x1="417.81986531986513" y1="50" x2="417.81986531986513" y2="520"/></g><g fill="none" stroke="blue" stroke-width="2"><path d="M 135.83333333333331 89.16666666666669 L 141.47306397306397 104.67666666666668 L 147.1127946127946 119.87333333333333 L 152.75252525252523 134.75666666666672 L 158.3922558922559 149.32666666666677 L 164.03198653198655 163.58333333333343 L 169.67171717171718 177.52666666666676 L 175.3114478114478 191.15666666666675 L 180.95117845117846 204.47333333333341 L 186.5909090909091 217.47666666666674 L 192.23063973063972 230.1666666666668 L 197.87037037037038 242.54333333333346 L 203.51010101010104 254.60666666666685 L 209.14983164983167 266.3566666666668 L 214.7895622895623 277.7933333333334 L 220.42929292929293 288.9166666666668 L 226.06902356902359 299.7266666666668 L 231.70875420875421 310.22333333333347 L 237.34848484848487 320.4066666666668 L 242.9882154882155 330.27666666666687 L 248.62794612794616 339.8333333333335 L 254.26767676767676 349.0766666666668 L 259.9074074074074 358.00666666666683 L 265.5471380471381 366.62333333333356 L 271.1868686868687 374.92666666666685 L 276.8265993265993 382.91666666666686 L 282.46632996633 390.59333333333353 L 288.1060606060606 397.9566666666668 L 293.74579124579134 405.0066666666669 L 299.38552188552194 411.7433333333335 L 305.02525252525254 418.16666666666686 L 310.6649831649832 424.27666666666687 L 316.30471380471386 430.0733333333335 L 321.94444444444446 435.55666666666684 L 327.5841750841751 440.7266666666668 L 333.2239057239058 445.5833333333335 L 338.8636363636364 450.1266666666668 L 344.50336700336703 454.3566666666668 L 350.1430976430977 458.2733333333335 L 355.78282828282835 461.8766666666668 L 361.42255892255895 465.1666666666668 L 367.0622895622896 468.14333333333343 L 372.70202020202026 470.8066666666668 L 378.34175084175087 473.15666666666675 L 383.9814814814815 475.1933333333334 L 389.6212121212121 476.91666666666674 L 395.2609427609428 478.3266666666667 L 400.9006734006734 479.42333333333335 L 406.54040404040404 480.2066666666667 L 412.1801346801347 480.6766666666667 L 417.8198653198653 480.8333333333333 L 423.45959595959596 480.6766666666667 L 429.0993265993266 480.20666666666665 L 434.7390572390573 479.4233333333333 L 440.3787878787879 478.3266666666666 L 446.01851851851853 476.91666666666663 L 451.65824915824913 475.19333333333327 L 457.2979797979798 473.1566666666666 L 462.93771043771045 470.80666666666656 L 468.57744107744105 468.1433333333332 L 474.2171717171717 465.1666666666666 L 479.85690235690237 461.87666666666655 L 485.49663299663297 458.2733333333332 L 491.13636363636357 454.3566666666665 L 496.7760942760943 450.1266666666665 L 502.4158249158249 445.58333333333314 L 508.05555555555554 440.72666666666646 L 513.6952861952861 435.55666666666644 L 519.3350168350169 430.0733333333331 L 524.9747474747475 424.2766666666664 L 530.6144781144781 418.1666666666664 L 536.2542087542088 411.74333333333306 L 541.8939393939395 405.0066666666663 L 547.53367003367 397.95666666666637 L 553.1734006734007 390.59333333333296 L 558.8131313131313 382.9166666666663 L 564.4528619528619 374.9266666666663 L 570.0925925925926 366.62333333333294 L 575.7323232323233 358.0066666666662 L 581.3720538720538 349.0766666666662 L 587.0117845117845 339.83333333333286 L 592.6515151515151 330.2766666666662 L 598.2912457912458 320.4066666666661 L 603.9309764309764 310.2233333333328 L 609.570707070707 299.7266666666661 L 615.2104377104376 288.91666666666606 L 620.8501683501684 277.7933333333327 L 626.489898989899 266.356666666666 L 632.1296296296297 254.606666666666 L 637.7693602693603 242.5433333333326 L 643.4090909090909 230.16666666666595 L 649.0488215488216 217.4766666666659 L 654.6885521885522 204.47333333333256 L 660.3282828282828 191.1566666666659 L 665.9680134680135 177.52666666666585 L 671.6077441077441 163.58333333333246 L 677.2474747474747 149.32666666666574 L 682.8872053872054 134.7566666666658 L 688.526936026936 119.87333333333237 L 694.1666666666666 104.67666666666571"/></g><g fill="black" font-family="Arial" font-size="14"><text x="400" y="580" text-anchor="middle">x</text><text x="20" y="300" text-anchor="middle" transform="rotate(-90, 20, 300)">y</text></g></svg>