<svg xmlns="http://www.w3.org/2000/svg" width="800" height="400" viewBox="0 0 800 400">
  <rect width="100%" height="100%" fill="white"/>
  <polyline fill="none" stroke="black" stroke-width="2" points="0,200.0 1,201.0 2,202.0 3,203.0 4,204.0 5,205.0 6,207.0 7,208.0 8,209.0 9,210.0 10,211.0 11,212.0 12,213.0 13,214.0 14,215.0 15,216.0 16,218.0 17,219.0 18,220.0 19,221.0 20,222.0 21,223.0 22,224.0 23,225.0 24,226.0 25,227.0 26,228.0 27,229.0 28,231.0 29,232.0 30,233.0 31,234.0 32,235.0 33,236.0 34,237.0 35,238.0 36,239.0 37,240.0 38,241.0 39,242.0 40,243.0 41,244.0 42,245.0 43,246.0 44,247.0 45,248.0 46,249.0 47,251.0 48,252.0 49,253.0 50,254.0 51,255.0 52,256.0 53,257.0 54,258.0 55,259.0 56,260.0 57,261.0 58,262.0 59,263.0 60,264.0 61,265.0 62,266.0 63,266.0 64,267.0 65,268.0 66,269.0 67,270.0 68,271.0 69,272.0 70,273.0 71,274.0 72,275.0 73,276.0 74,277.0 75,278.0 76,279.0 77,280.0 78,281.0 79,281.0 80,282.0 81,283.0 82,284.0 83,285.0 84,286.0 85,287.0 86,288.0 87,288.0 88,289.0 89,290.0 90,291.0 91,292.0 92,293.0 93,293.0 94,294.0 95,295.0 96,296.0 97,297.0 98,297.0 99,298.0 100,299.0 101,300.0 102,301.0 103,301.0 104,302.0 105,303.0 106,304.0 107,304.0 108,305.0 109,306.0 110,306.0 111,307.0 112,308.0 113,309.0 114,309.0 115,310.0 116,311.0 117,311.0 118,312.0 119,313.0 120,313.0 121,314.0 122,315.0 123,315.0 124,316.0 125,316.0 126,317.0 127,318.0 128,318.0 129,319.0 130,319.0 131,320.0 132,321.0 133,321.0 134,322.0 135,322.0 136,323.0 137,323.0 138,324.0 139,324.0 140,325.0 141,325.0 142,326.0 143,326.0 144,327.0 145,327.0 146,328.0 147,328.0 148,328.0 149,329.0 150,329.0 151,330.0 152,330.0 153,331.0 154,331.0 155,331.0 156,332.0 157,332.0 158,332.0 159,333.0 160,333.0 161,333.0 162,334.0 163,334.0 164,334.0 165,335.0 166,335.0 167,335.0 168,336.0 169,336.0 170,336.0 171,336.0 172,337.0 173,337.0 174,337.0 175,337.0 176,338.0 177,338.0 178,338.0 179,338.0 180,338.0 181,338.0 182,339.0 183,339.0 184,339.0 185,339.0 186,339.0 187,339.0 188,339.0 189,339.0 190,340.0 191,340.0 192,340.0 193,340.0 194,340.0 195,340.0 196,340.0 197,340.0 198,340.0 199,340.0 200,340.0 201,340.0 202,340.0 203,340.0 204,340.0 205,340.0 206,340.0 207,340.0 208,340.0 209,340.0 210,340.0 211,339.0 212,339.0 213,339.0 214,339.0 215,339.0 216,339.0 217,339.0 218,339.0 219,338.0 220,338.0 221,338.0 222,338.0 223,338.0 224,338.0 225,337.0 226,337.0 227,337.0 228,337.0 229,336.0 230,336.0 231,336.0 232,336.0 233,335.0 234,335.0 235,335.0 236,334.0 237,334.0 238,334.0 239,333.0 240,333.0 241,333.0 242,332.0 243,332.0 244,332.0 245,331.0 246,331.0 247,331.0 248,330.0 249,330.0 250,329.0 251,329.0 252,328.0 253,328.0 254,328.0 255,327.0 256,327.0 257,326.0 258,326.0 259,325.0 260,325.0 261,324.0 262,324.0 263,323.0 264,323.0 265,322.0 266,322.0 267,321.0 268,321.0 269,320.0 270,319.0 271,319.0 272,318.0 273,318.0 274,317.0 275,316.0 276,316.0 277,315.0 278,315.0 279,314.0 280,313.0 281,313.0 282,312.0 283,311.0 284,311.0 285,310.0 286,309.0 287,309.0 288,308.0 289,307.0 290,306.0 291,306.0 292,305.0 293,304.0 294,304.0 295,303.0 296,302.0 297,301.0 298,301.0 299,300.0 300,299.0 301,298.0 302,297.0 303,297.0 304,296.0 305,295.0 306,294.0 307,293.0 308,293.0 309,292.0 310,291.0 311,290.0 312,289.0 313,288.0 314,288.0 315,287.0 316,286.0 317,285.0 318,284.0 319,283.0 320,282.0 321,281.0 322,281.0 323,280.0 324,279.0 325,278.0 326,277.0 327,276.0 328,275.0 329,274.0 330,273.0 331,272.0 332,271.0 333,270.0 334,269.0 335,268.0 336,267.0 337,266.0 338,266.0 339,265.0 340,264.0 341,263.0 342,262.0 343,261.0 344,260.0 345,259.0 346,258.0 347,257.0 348,256.0 349,255.0 350,254.0 351,253.0 352,252.0 353,251.0 354,249.0 355,248.0 356,247.0 357,246.0 358,245.0 359,244.0 360,243.0 361,242.0 362,241.0 363,240.0 364,239.0 365,238.0 366,237.0 367,236.0 368,235.0 369,234.0 370,233.0 371,232.0 372,231.0 373,229.0 374,228.0 375,227.0 376,226.0 377,225.0 378,224.0 379,223.0 380,222.0 381,221.0 382,220.0 383,219.0 384,218.0 385,216.0 386,215.0 387,214.0 388,213.0 389,212.0 390,211.0 391,210.0 392,209.0 393,208.0 394,207.0 395,205.0 396,204.0 397,203.0 398,202.0 399,201.0 400,200.0 401,199.0 402,198.0 403,197.0 404,196.0 405,195.0 406,193.0 407,192.0 408,191.0 409,190.0 410,189.0 411,188.0 412,187.0 413,186.0 414,185.0 415,184.0 416,182.0 417,181.0 418,180.0 419,179.0 420,178.0 421,177.0 422,176.0 423,175.0 424,174.0 425,173.0 426,172.0 427,171.0 428,169.0 429,168.0 430,167.0 431,166.0 432,165.0 433,164.0 434,163.0 435,162.0 436,161.0 437,160.0 438,159.0 439,158.0 440,157.0 441,156.0 442,155.0 443,154.0 444,153.0 445,152.0 446,151.0 447,149.0 448,148.0 449,147.0 450,146.0 451,145.0 452,144.0 453,143.0 454,142.0 455,141.0 456,140.0 457,139.0 458,138.0 459,137.0 460,136.0 461,135.0 462,134.0 463,134.0 464,133.0 465,132.0 466,131.0 467,130.0 468,129.0 469,128.0 470,127.0 471,126.0 472,125.0 473,124.0 474,123.0 475,122.0 476,121.0 477,120.0 478,119.0 479,119.0 480,118.0 481,117.0 482,116.0 483,115.0 484,114.0 485,113.0 486,112.0 487,112.0 488,111.0 489,110.0 490,109.0 491,108.0 492,107.0 493,107.0 494,106.0 495,105.0 496,104.0 497,103.0 498,103.0 499,102.0 500,101.0 501,100.0 502,99.0 503,99.0 504,98.0 505,97.0 506,96.0 507,96.0 508,95.0 509,94.0 510,94.0 511,93.0 512,92.0 513,91.0 514,91.0 515,90.0 516,89.0 517,89.0 518,88.0 519,87.0 520,87.0 521,86.0 522,85.0 523,85.0 524,84.0 525,84.0 526,83.0 527,82.0 528,82.0 529,81.0 530,81.0 531,80.0 532,79.0 533,79.0 534,78.0 535,78.0 536,77.0 537,77.0 538,76.0 539,76.0 540,75.0 541,75.0 542,74.0 543,74.0 544,73.0 545,73.0 546,72.0 547,72.0 548,72.0 549,71.0 550,71.0 551,70.0 552,70.0 553,69.0 554,69.0 555,69.0 556,68.0 557,68.0 558,68.0 559,67.0 560,67.0 561,67.0 562,66.0 563,66.0 564,66.0 565,65.0 566,65.0 567,65.0 568,64.0 569,64.0 570,64.0 571,64.0 572,63.0 573,63.0 574,63.0 575,63.0 576,62.0 577,62.0 578,62.0 579,62.0 580,62.0 581,62.0 582,61.0 583,61.0 584,61.0 585,61.0 586,61.0 587,61.0 588,61.0 589,61.0 590,60.0 591,60.0 592,60.0 593,60.0 594,60.0 595,60.0 596,60.0 597,60.0 598,60.0 599,60.0 600,60.0 601,60.0 602,60.0 603,60.0 604,60.0 605,60.0 606,60.0 607,60.0 608,60.0 609,60.0 610,60.0 611,61.0 612,61.0 613,61.0 614,61.0 615,61.0 616,61.0 617,61.0 618,61.0 619,62.0 620,62.0 621,62.0 622,62.0 623,62.0 624,62.0 625,63.0 626,63.0 627,63.0 628,63.0 629,64.0 630,64.0 631,64.0 632,64.0 633,65.0 634,65.0 635,65.0 636,66.0 637,66.0 638,66.0 639,67.0 640,67.0 641,67.0 642,68.0 643,68.0 644,68.0 645,69.0 646,69.0 647,69.0 648,70.0 649,70.0 650,71.0 651,71.0 652,72.0 653,72.0 654,72.0 655,73.0 656,73.0 657,74.0 658,74.0 659,75.0 660,75.0 661,76.0 662,76.0 663,77.0 664,77.0 665,78.0 666,78.0 667,79.0 668,79.0 669,80.0 670,81.0 671,81.0 672,82.0 673,82.0 674,83.0 675,84.0 676,84.0 677,85.0 678,85.0 679,86.0 680,87.0 681,87.0 682,88.0 683,89.0 684,89.0 685,90.0 686,91.0 687,91.0 688,92.0 689,93.0 690,94.0 691,94.0 692,95.0 693,96.0 694,96.0 695,97.0 696,98.0 697,99.0 698,99.0 699,100.0 700,101.0 701,102.0 702,103.0 703,103.0 704,104.0 705,105.0 706,106.0 707,107.0 708,107.0 709,108.0 710,109.0 711,110.0 712,111.0 713,112.0 714,112.0 715,113.0 716,114.0 717,115.0 718,116.0 719,117.0 720,118.0 721,119.0 722,119.0 723,120.0 724,121.0 725,122.0 726,123.0 727,124.0 728,125.0 729,126.0 730,127.0 731,128.0 732,129.0 733,130.0 734,131.0 735,132.0 736,133.0 737,134.0 738,134.0 739,135.0 740,136.0 741,137.0 742,138.0 743,139.0 744,140.0 745,141.0 746,142.0 747,143.0 748,144.0 749,145.0 750,146.0 751,147.0 752,148.0 753,149.0 754,151.0 755,152.0 756,153.0 757,154.0 758,155.0 759,156.0 760,157.0 761,158.0 762,159.0 763,160.0 764,161.0 765,162.0 766,163.0 767,164.0 768,165.0 769,166.0 770,167.0 771,168.0 772,169.0 773,171.0 774,172.0 775,173.0 776,174.0 777,175.0 778,176.0 779,177.0 780,178.0 781,179.0 782,180.0 783,181.0 784,182.0 785,184.0 786,185.0 787,186.0 788,187.0 789,188.0 790,189.0 791,190.0 792,191.0 793,192.0 794,193.0 795,195.0 796,196.0 797,197.0 798,198.0 799,199.0 800,200.0" />
</svg>