<svg width="800" height="600"><g transform="translate(0,560)" fill="none" font-size="10" font-family="sans-serif" text-anchor="middle"><path class="domain" stroke="currentColor" d="M50.5,6V0.5H770.5V6"></path><g class="tick" opacity="1" transform="translate(50.5,0)"><line stroke="currentColor" y2="6"></line><text fill="currentColor" y="9" dy="0.71em">−6</text></g><g class="tick" opacity="1" transform="translate(110.49999999999999,0)"><line stroke="currentColor" y2="6"></line><text fill="currentColor" y="9" dy="0.71em">−5</text></g><g class="tick" opacity="1" transform="translate(170.5,0)"><line stroke="currentColor" y2="6"></line><text fill="currentColor" y="9" dy="0.71em">−4</text></g><g class="tick" opacity="1" transform="translate(230.5,0)"><line stroke="currentColor" y2="6"></line><text fill="currentColor" y="9" dy="0.71em">−3</text></g><g class="tick" opacity="1" transform="translate(290.49999999999994,0)"><line stroke="currentColor" y2="6"></line><text fill="currentColor" y="9" dy="0.71em">−2</text></g><g class="tick" opacity="1" transform="translate(350.50000000000006,0)"><line stroke="currentColor" y2="6"></line><text fill="currentColor" y="9" dy="0.71em">−1</text></g><g class="tick" opacity="1" transform="translate(410.5,0)"><line stroke="currentColor" y2="6"></line><text fill="currentColor" y="9" dy="0.71em">0</text></g><g class="tick" opacity="1" transform="translate(470.5,0)"><line stroke="currentColor" y2="6"></line><text fill="currentColor" y="9" dy="0.71em">1</text></g><g class="tick" opacity="1" transform="translate(530.4999999999999,0)"><line stroke="currentColor" y2="6"></line><text fill="currentColor" y="9" dy="0.71em">2</text></g><g class="tick" opacity="1" transform="translate(590.5,0)"><line stroke="currentColor" y2="6"></line><text fill="currentColor" y="9" dy="0.71em">3</text></g><g class="tick" opacity="1" transform="translate(650.5000000000001,0)"><line stroke="currentColor" y2="6"></line><text fill="currentColor" y="9" dy="0.71em">4</text></g><g class="tick" opacity="1" transform="translate(710.4999999999999,0)"><line stroke="currentColor" y2="6"></line><text fill="currentColor" y="9" dy="0.71em">5</text></g><g class="tick" opacity="1" transform="translate(770.5,0)"><line stroke="currentColor" y2="6"></line><text fill="currentColor" y="9" dy="0.71em">6</text></g></g><g transform="translate(50,0)" fill="none" font-size="10" font-family="sans-serif" text-anchor="end"><path class="domain" stroke="currentColor" d="M-6,560.5H0.5V20.5H-6"></path><g class="tick" opacity="1" transform="translate(0,506.72597406848274)"><line stroke="currentColor" x2="-6"></line><text fill="currentColor" x="-9" dy="0.32em">−0.8</text></g><g class="tick" opacity="1" transform="translate(0,452.6694805513621)"><line stroke="currentColor" x2="-6"></line><text fill="currentColor" x="-9" dy="0.32em">−0.6</text></g><g class="tick" opacity="1" transform="translate(0,398.61298703424137)"><line stroke="currentColor" x2="-6"></line><text fill="currentColor" x="-9" dy="0.32em">−0.4</text></g><g class="tick" opacity="1" transform="translate(0,344.5564935171207)"><line stroke="currentColor" x2="-6"></line><text fill="currentColor" x="-9" dy="0.32em">−0.2</text></g><g class="tick" opacity="1" transform="translate(0,290.5)"><line stroke="currentColor" x2="-6"></line><text fill="currentColor" x="-9" dy="0.32em">0.0</text></g><g class="tick" opacity="1" transform="translate(0,236.44350648287931)"><line stroke="currentColor" x2="-6"></line><text fill="currentColor" x="-9" dy="0.32em">0.2</text></g><g class="tick" opacity="1" transform="translate(0,182.38701296575857)"><line stroke="currentColor" x2="-6"></line><text fill="currentColor" x="-9" dy="0.32em">0.4</text></g><g class="tick" opacity="1" transform="translate(0,128.33051944863794)"><line stroke="currentColor" x2="-6"></line><text fill="currentColor" x="-9" dy="0.32em">0.6</text></g><g class="tick" opacity="1" transform="translate(0,74.27402593151726)"><line stroke="currentColor" x2="-6"></line><text fill="currentColor" x="-9" dy="0.32em">0.8</text></g></g><path fill="none" stroke="steelblue" stroke-width="2" d="M50,214.479L57.273,183.653L64.545,154.388L71.818,127.113L79.091,102.229L86.364,80.099L93.636,61.05L100.909,45.361L108.182,33.262L115.455,24.93L122.727,20.487L130,20L137.273,23.475L144.545,30.861L151.818,42.049L159.091,56.876L166.364,75.124L173.636,96.526L180.909,120.766L188.182,147.49L195.455,176.305L202.727,206.788L210,238.493L217.273,270.953L224.545,303.693L231.818,336.232L239.091,368.092L246.364,398.807L253.636,427.925L260.909,455.019L268.182,479.691L275.455,501.58L282.727,520.364L290,535.767L297.273,547.564L304.545,555.582L311.818,559.702L319.091,559.864L326.364,556.066L333.636,548.364L340.909,536.871L348.182,521.755L355.455,503.238L362.727,481.592L370,457.135L377.273,430.224L384.545,401.257L391.818,370.656L399.091,338.872L406.364,306.371L413.636,273.629L420.909,241.128L428.182,209.344L435.455,178.743L442.727,149.776L450,122.865L457.273,98.408L464.545,76.762L471.818,58.245L479.091,43.129L486.364,31.636L493.636,23.934L500.909,20.136L508.182,20.298L515.455,24.418L522.727,32.436L530,44.233L537.273,59.636L544.545,78.42L551.818,100.309L559.091,124.981L566.364,152.075L573.636,181.193L580.909,211.908L588.182,243.768L595.455,276.307L602.727,309.047L610,341.507L617.273,373.212L624.545,403.695L631.818,432.51L639.091,459.234L646.364,483.474L653.636,504.876L660.909,523.124L668.182,537.951L675.455,549.139L682.727,556.525L690,560L697.273,559.513L704.545,555.07L711.818,546.738L719.091,534.639L726.364,518.95L733.636,499.901L740.909,477.771L748.182,452.887L755.455,425.612L762.727,396.347L770,365.521"></path><text transform="rotate(-90)" y="-50" x="-300" dy="1em" style="text-anchor: middle;">x</text><text transform="translate(400, 595)" style="text-anchor: middle;">x</text></svg>