<?xml version="1.0" encoding="UTF-8"?>
<svg width="800" height="600" viewBox="0 0 800 600" xmlns="http://www.w3.org/2000/svg">
  <defs>
    <style>
      .plot-line { fill: none; stroke: #2563eb; stroke-width: 2px; }
      .axis { stroke: #666; stroke-width: 1px; }
      .grid { stroke: #e5e7eb; stroke-width: 0.5px; }
      .axis-label { font-family: Arial, sans-serif; font-size: 12px; fill: #374151; text-anchor: middle; }
      .title { font-family: Arial, sans-serif; font-size: 16px; font-weight: bold; fill: #1f2937; text-anchor: middle; }
    </style>
  </defs>
  
  <!-- Background -->
  <rect width="800" height="600" fill="#ffffff"/>
  
  <!-- Grid lines -->
  <line x1="60" y1="40" x2="60" y2="540" class="grid"/>
  <line x1="200" y1="40" x2="200" y2="540" class="grid"/>
  <line x1="340" y1="40" x2="340" y2="540" class="grid"/>
  <line x1="480" y1="40" x2="480" y2="540" class="grid"/>
  <line x1="620" y1="40" x2="620" y2="540" class="grid"/>
  <line x1="760" y1="40" x2="760" y2="540" class="grid"/>
  <line x1="60" y1="540" x2="760" y2="540" class="grid"/>
  <line x1="60" y1="440" x2="760" y2="440" class="grid"/>
  <line x1="60" y1="340" x2="760" y2="340" class="grid"/>
  <line x1="60" y1="240" x2="760" y2="240" class="grid"/>
  <line x1="60" y1="140" x2="760" y2="140" class="grid"/>
  <line x1="60" y1="40" x2="760" y2="40" class="grid"/>
  
  <!-- Axes -->
  <line x1="60" y1="540" x2="760" y2="540" class="axis"/>
  <line x1="60" y1="40" x2="60" y2="540" class="axis"/>
  
  <!-- Axis labels -->
  <text x="60" y="560" class="axis-label">-11.0</text>
  <text x="200" y="560" class="axis-label">-6.6</text>
  <text x="340" y="560" class="axis-label">-2.2</text>
  <text x="480" y="560" class="axis-label">2.2</text>
  <text x="620" y="560" class="axis-label">6.6</text>
  <text x="760" y="560" class="axis-label">11.0</text>
  <text x="50" y="545" class="axis-label" text-anchor="end">-1.1</text>
  <text x="50" y="445" class="axis-label" text-anchor="end">-0.7</text>
  <text x="50" y="345" class="axis-label" text-anchor="end">-0.2</text>
  <text x="50" y="245" class="axis-label" text-anchor="end">0.2</text>
  <text x="50" y="145" class="axis-label" text-anchor="end">0.7</text>
  <text x="50" y="45" class="axis-label" text-anchor="end">1.1</text>
  
  <!-- Plot line -->
  <path d="M 91.82 166.31 L 98.18 206.67 L 104.55 250.36 L 110.91 295.63 L 117.27 340.68 L 123.64 383.70 L 130.00 422.99 L 136.36 456.98 L 142.73 484.31 L 149.09 503.89 L 155.45 514.95 L 161.82 517.04 L 168.18 510.08 L 174.55 494.34 L 180.91 470.46 L 187.27 439.38 L 193.64 402.35 L 200.00 360.84 L 206.36 316.50 L 212.73 271.11 L 219.09 226.47 L 225.45 184.36 L 231.82 146.47 L 238.18 114.30 L 244.55 89.13 L 250.91 71.97 L 257.27 63.50 L 263.64 64.06 L 270.00 73.63 L 276.36 91.83 L 282.73 117.93 L 289.09 150.88 L 295.45 189.38 L 301.82 231.90 L 308.18 276.73 L 314.55 322.09 L 320.91 366.17 L 327.27 407.21 L 333.64 443.58 L 340.00 473.83 L 346.36 496.75 L 352.73 511.42 L 359.09 517.27 L 365.45 514.06 L 371.82 501.92 L 378.18 481.32 L 384.55 453.11 L 390.91 418.38 L 397.27 378.54 L 403.64 335.17 L 410.00 290.00 L 416.36 244.83 L 422.73 201.46 L 429.09 161.62 L 435.45 126.89 L 441.82 98.68 L 448.18 78.08 L 454.55 65.94 L 460.91 62.73 L 467.27 68.58 L 473.64 83.25 L 480.00 106.17 L 486.36 136.42 L 492.73 172.79 L 499.09 213.83 L 505.45 257.91 L 511.82 303.27 L 518.18 348.10 L 524.55 390.62 L 530.91 429.12 L 537.27 462.07 L 543.64 488.17 L 550.00 506.37 L 556.36 515.94 L 562.73 516.50 L 569.09 508.03 L 575.45 490.87 L 581.82 465.70 L 588.18 433.53 L 594.55 395.64 L 600.91 353.53 L 607.27 308.89 L 613.64 263.50 L 620.00 219.16 L 626.36 177.65 L 632.73 140.62 L 639.09 109.54 L 645.45 85.66 L 651.82 69.92 L 658.18 62.96 L 664.55 65.05 L 670.91 76.11 L 677.27 95.69 L 683.64 123.02 L 690.00 157.01 L 696.36 196.30 L 702.73 239.32 L 709.09 284.37 L 715.45 329.64 L 721.82 373.33 L 728.18 413.69" class="plot-line"/>
  
  <!-- Title -->
  <text x="400" y="25" class="title">Plot: y=sin(x)</text>
</svg>